# MagicaVoxel @ Ephtracy

# group
o 

# material
mtllib sloimf2.mtl
usemtl palette

# normals
vn -1 0 0
vn 1 0 0
vn 0 0 1
vn 0 0 -1
vn 0 -1 0
vn 0 1 0

# texcoords
vt 0.939453 0.5
vt 0.970703 0.5
vt 0.974609 0.5

# verts
v -0.6 0 0.2
v -0.6 0 -0.3
v -0.6 0.1 0.2
v -0.6 0.1 -0.3
v -0.5 0 0.4
v -0.5 0 0.2
v -0.5 0 -0.3
v -0.5 0 -0.5
v -0.5 0.1 0.4
v -0.5 0.1 0.2
v -0.5 0.1 -0.1
v -0.5 0.1 -0.3
v -0.5 0.1 -0.5
v -0.5 0.2 0.3
v -0.5 0.2 -0.1
v -0.5 0.5 0.3
v -0.5 0.5 -0.3
v -0.4 0 0.5
v -0.4 0 0.4
v -0.4 0 -0.5
v -0.4 0 -0.6
v -0.4 0.1 0.5
v -0.4 0.1 0.4
v -0.4 0.1 -0.1
v -0.4 0.1 -0.3
v -0.4 0.1 -0.4
v -0.4 0.1 -0.5
v -0.4 0.1 -0.6
v -0.4 0.2 0.3
v -0.4 0.2 -0.1
v -0.4 0.5 0.3
v -0.4 0.5 -0.3
v -0.4 0.6 0.4
v -0.4 0.6 0.0999999
v -0.4 0.6 -5.96046e-08
v -0.4 0.6 -0.1
v -0.4 0.6 -0.4
v -0.4 0.7 0.0999999
v -0.4 0.7 -5.96046e-08
v -0.4 0.8 0.0999999
v -0.4 0.8 -5.96046e-08
v -0.4 0.8 -0.1
v -0.3 0 0.6
v -0.3 0 0.5
v -0.3 0 -0.6
v -0.3 0 -0.7
v -0.3 0.1 0.6
v -0.3 0.1 0.5
v -0.3 0.1 -0.4
v -0.3 0.1 -0.5
v -0.3 0.1 -0.6
v -0.3 0.1 -0.7
v -0.3 0.2 0.5
v -0.3 0.2 0.4
v -0.3 0.5 0.5
v -0.3 0.5 0.4
v -0.3 0.5 -0.4
v -0.3 0.5 -0.5
v -0.3 0.6 0.3
v -0.3 0.6 0.0999999
v -0.3 0.6 -0.1
v -0.3 0.6 -0.3
v -0.3 0.7 0.3
v -0.3 0.7 0.0999999
v -0.3 0.7 -0.1
v -0.3 0.7 -0.3
v 0.2 0.7 0.0999999
v 0.2 0.7 -5.96046e-08
v 0.2 0.7 -0.1
v 0.2 0.8 0.0999999
v 0.2 0.8 -5.96046e-08
v 0.2 0.8 -0.1
v -0.2 0.7 0.0999999
v -0.2 0.7 -5.96046e-08
v -0.2 0.7 -0.1
v -0.2 0.8 0.0999999
v -0.2 0.8 -5.96046e-08
v -0.2 0.8 -0.1
v 0.3 0 0.6
v 0.3 0 0.5
v 0.3 0 -0.6
v 0.3 0 -0.7
v 0.3 0.1 0.6
v 0.3 0.1 0.5
v 0.3 0.1 -0.4
v 0.3 0.1 -0.5
v 0.3 0.1 -0.6
v 0.3 0.1 -0.7
v 0.3 0.2 0.5
v 0.3 0.2 0.4
v 0.3 0.5 0.5
v 0.3 0.5 0.4
v 0.3 0.5 -0.4
v 0.3 0.5 -0.5
v 0.3 0.6 0.3
v 0.3 0.6 0.0999999
v 0.3 0.6 -0.1
v 0.3 0.6 -0.3
v 0.3 0.7 0.3
v 0.3 0.7 0.0999999
v 0.3 0.7 -0.1
v 0.3 0.7 -0.3
v 0.4 0 0.5
v 0.4 0 0.4
v 0.4 0 -0.5
v 0.4 0 -0.6
v 0.4 0.1 0.5
v 0.4 0.1 0.4
v 0.4 0.1 -0.1
v 0.4 0.1 -0.3
v 0.4 0.1 -0.4
v 0.4 0.1 -0.5
v 0.4 0.1 -0.6
v 0.4 0.2 0.3
v 0.4 0.2 -0.1
v 0.4 0.5 0.3
v 0.4 0.5 -0.3
v 0.4 0.6 0.4
v 0.4 0.6 0.0999999
v 0.4 0.6 -5.96046e-08
v 0.4 0.6 -0.1
v 0.4 0.6 -0.4
v 0.4 0.7 0.0999999
v 0.4 0.7 -5.96046e-08
v 0.4 0.8 0.0999999
v 0.4 0.8 -5.96046e-08
v 0.4 0.8 -0.1
v 0.5 0 0.4
v 0.5 0 0.2
v 0.5 0 -0.3
v 0.5 0 -0.5
v 0.5 0.1 0.4
v 0.5 0.1 0.2
v 0.5 0.1 -0.1
v 0.5 0.1 -0.3
v 0.5 0.1 -0.5
v 0.5 0.2 0.3
v 0.5 0.2 -0.1
v 0.5 0.5 0.3
v 0.5 0.5 -0.3
v 0.6 0 0.2
v 0.6 0 -0.3
v 0.6 0.1 0.2
v 0.6 0.1 -0.3
v -0.3 0 0.6
v -0.3 0.1 0.6
v 0.3 0 0.6
v 0.3 0.1 0.6
v -0.4 0 0.5
v -0.4 0.1 0.5
v -0.3 0 0.5
v -0.3 0.1 0.5
v -0.3 0.2 0.5
v -0.3 0.5 0.5
v -0.0999999 0.4 0.5
v -0.0999999 0.5 0.5
v 0.1 0.4 0.5
v 0.1 0.5 0.5
v 0.3 0 0.5
v 0.3 0.1 0.5
v 0.3 0.2 0.5
v 0.3 0.5 0.5
v 0.4 0 0.5
v 0.4 0.1 0.5
v -0.5 0 0.4
v -0.5 0.1 0.4
v -0.4 0 0.4
v -0.4 0.1 0.4
v -0.4 0.6 0.4
v -0.3 0.2 0.4
v -0.3 0.5 0.4
v -0.0999999 0.5 0.4
v 0.1 0.5 0.4
v 0.3 0.2 0.4
v 0.3 0.5 0.4
v 0.4 0 0.4
v 0.4 0.1 0.4
v 0.4 0.6 0.4
v 0.5 0 0.4
v 0.5 0.1 0.4
v -0.5 0.2 0.3
v -0.5 0.5 0.3
v -0.4 0.2 0.3
v -0.4 0.5 0.3
v -0.3 0.6 0.3
v -0.3 0.7 0.3
v -0.2 0.6 0.3
v -0.2 0.7 0.3
v 0.2 0.6 0.3
v 0.2 0.7 0.3
v 0.3 0.6 0.3
v 0.3 0.7 0.3
v 0.4 0.2 0.3
v 0.4 0.5 0.3
v 0.5 0.2 0.3
v 0.5 0.5 0.3
v -0.6 0 0.2
v -0.6 0.1 0.2
v -0.5 0 0.2
v -0.5 0.1 0.2
v 0.5 0 0.2
v 0.5 0.1 0.2
v 0.6 0 0.2
v 0.6 0.1 0.2
v -0.4 0.6 0.0999999
v -0.4 0.7 0.0999999
v -0.4 0.8 0.0999999
v -0.3 0.6 0.0999999
v -0.3 0.7 0.0999999
v -0.2 0.7 0.0999999
v -0.2 0.8 0.0999999
v 0.2 0.7 0.0999999
v 0.2 0.8 0.0999999
v 0.3 0.6 0.0999999
v 0.3 0.7 0.0999999
v 0.4 0.6 0.0999999
v 0.4 0.7 0.0999999
v 0.4 0.8 0.0999999
v -0.5 0.1 -0.1
v -0.5 0.2 -0.1
v -0.4 0.1 -0.1
v -0.4 0.2 -0.1
v 0.4 0.1 -0.1
v 0.4 0.2 -0.1
v 0.5 0.1 -0.1
v 0.5 0.2 -0.1
v -0.4 0.6 -0.1
v -0.4 0.8 -0.1
v -0.3 0.6 -0.1
v -0.3 0.7 -0.1
v -0.2 0.7 -0.1
v -0.2 0.8 -0.1
v 0.2 0.7 -0.1
v 0.2 0.8 -0.1
v 0.3 0.6 -0.1
v 0.3 0.7 -0.1
v 0.4 0.6 -0.1
v 0.4 0.8 -0.1
v -0.6 0 -0.3
v -0.6 0.1 -0.3
v -0.5 0 -0.3
v -0.5 0.1 -0.3
v -0.5 0.5 -0.3
v -0.4 0.1 -0.3
v -0.4 0.5 -0.3
v -0.3 0.6 -0.3
v -0.3 0.7 -0.3
v 0.3 0.6 -0.3
v 0.3 0.7 -0.3
v 0.4 0.1 -0.3
v 0.4 0.5 -0.3
v 0.5 0 -0.3
v 0.5 0.1 -0.3
v 0.5 0.5 -0.3
v 0.6 0 -0.3
v 0.6 0.1 -0.3
v -0.4 0.1 -0.4
v -0.4 0.6 -0.4
v -0.3 0.1 -0.4
v -0.3 0.5 -0.4
v 0.3 0.1 -0.4
v 0.3 0.5 -0.4
v 0.4 0.1 -0.4
v 0.4 0.6 -0.4
v -0.5 0 -0.5
v -0.5 0.1 -0.5
v -0.4 0 -0.5
v -0.4 0.1 -0.5
v -0.3 0.1 -0.5
v -0.3 0.5 -0.5
v 0.3 0.1 -0.5
v 0.3 0.5 -0.5
v 0.4 0 -0.5
v 0.4 0.1 -0.5
v 0.5 0 -0.5
v 0.5 0.1 -0.5
v -0.4 0 -0.6
v -0.4 0.1 -0.6
v -0.3 0 -0.6
v -0.3 0.1 -0.6
v 0.3 0 -0.6
v 0.3 0.1 -0.6
v 0.4 0 -0.6
v 0.4 0.1 -0.6
v -0.3 0 -0.7
v -0.3 0.1 -0.7
v 0.3 0 -0.7
v 0.3 0.1 -0.7
v -0.3 0 0.6
v 0.3 0 0.6
v -0.4 0 0.5
v -0.3 0 0.5
v 0.3 0 0.5
v 0.4 0 0.5
v -0.5 0 0.4
v -0.4 0 0.4
v 0.4 0 0.4
v 0.5 0 0.4
v -0.6 0 0.2
v -0.5 0 0.2
v 0.5 0 0.2
v 0.6 0 0.2
v -0.6 0 -0.3
v -0.5 0 -0.3
v 0.5 0 -0.3
v 0.6 0 -0.3
v -0.5 0 -0.5
v -0.4 0 -0.5
v 0.4 0 -0.5
v 0.5 0 -0.5
v -0.4 0 -0.6
v -0.3 0 -0.6
v 0.3 0 -0.6
v 0.4 0 -0.6
v -0.3 0 -0.7
v 0.3 0 -0.7
v -0.3 0.2 0.5
v 0.3 0.2 0.5
v -0.3 0.2 0.4
v 0.3 0.2 0.4
v -0.5 0.2 0.3
v -0.4 0.2 0.3
v 0.4 0.2 0.3
v 0.5 0.2 0.3
v -0.5 0.2 -0.1
v -0.4 0.2 -0.1
v 0.4 0.2 -0.1
v 0.5 0.2 -0.1
v -0.3 0.1 0.6
v 0.3 0.1 0.6
v -0.4 0.1 0.5
v -0.3 0.1 0.5
v 0.3 0.1 0.5
v 0.4 0.1 0.5
v -0.5 0.1 0.4
v -0.4 0.1 0.4
v 0.4 0.1 0.4
v 0.5 0.1 0.4
v -0.6 0.1 0.2
v -0.5 0.1 0.2
v 0.5 0.1 0.2
v 0.6 0.1 0.2
v -0.5 0.1 -0.1
v -0.4 0.1 -0.1
v 0.4 0.1 -0.1
v 0.5 0.1 -0.1
v -0.6 0.1 -0.3
v -0.5 0.1 -0.3
v -0.4 0.1 -0.3
v 0.4 0.1 -0.3
v 0.5 0.1 -0.3
v 0.6 0.1 -0.3
v -0.4 0.1 -0.4
v -0.3 0.1 -0.4
v 0.3 0.1 -0.4
v 0.4 0.1 -0.4
v -0.5 0.1 -0.5
v -0.4 0.1 -0.5
v -0.3 0.1 -0.5
v 0.3 0.1 -0.5
v 0.4 0.1 -0.5
v 0.5 0.1 -0.5
v -0.4 0.1 -0.6
v -0.3 0.1 -0.6
v 0.3 0.1 -0.6
v 0.4 0.1 -0.6
v -0.3 0.1 -0.7
v 0.3 0.1 -0.7
v -0.3 0.5 0.5
v -0.0999999 0.5 0.5
v 0.1 0.5 0.5
v 0.3 0.5 0.5
v -0.3 0.5 0.4
v -0.0999999 0.5 0.4
v 0.1 0.5 0.4
v 0.3 0.5 0.4
v -0.5 0.5 0.3
v -0.4 0.5 0.3
v 0.4 0.5 0.3
v 0.5 0.5 0.3
v -0.5 0.5 -0.3
v -0.4 0.5 -0.3
v 0.4 0.5 -0.3
v 0.5 0.5 -0.3
v -0.3 0.5 -0.4
v 0.3 0.5 -0.4
v -0.3 0.5 -0.5
v 0.3 0.5 -0.5
v -0.4 0.6 0.4
v 0.4 0.6 0.4
v -0.3 0.6 0.3
v -0.2 0.6 0.3
v 0.2 0.6 0.3
v 0.3 0.6 0.3
v -0.4 0.6 0.0999999
v -0.3 0.6 0.0999999
v 0.3 0.6 0.0999999
v 0.4 0.6 0.0999999
v -0.4 0.6 -0.1
v -0.3 0.6 -0.1
v 0.3 0.6 -0.1
v 0.4 0.6 -0.1
v -0.3 0.6 -0.3
v 0.3 0.6 -0.3
v -0.4 0.6 -0.4
v 0.4 0.6 -0.4
v -0.3 0.7 0.3
v -0.2 0.7 0.3
v 0.2 0.7 0.3
v 0.3 0.7 0.3
v -0.3 0.7 0.0999999
v -0.2 0.7 0.0999999
v 0.2 0.7 0.0999999
v 0.3 0.7 0.0999999
v -0.2 0.7 -5.96046e-08
v 0.2 0.7 -5.96046e-08
v -0.3 0.7 -0.1
v -0.2 0.7 -0.1
v 0.2 0.7 -0.1
v 0.3 0.7 -0.1
v -0.3 0.7 -0.3
v 0.3 0.7 -0.3
v -0.4 0.8 0.0999999
v -0.2 0.8 0.0999999
v 0.2 0.8 0.0999999
v 0.4 0.8 0.0999999
v -0.4 0.8 -5.96046e-08
v -0.2 0.8 -5.96046e-08
v 0.2 0.8 -5.96046e-08
v 0.4 0.8 -5.96046e-08
v -0.4 0.8 -0.1
v -0.2 0.8 -0.1
v 0.2 0.8 -0.1
v 0.4 0.8 -0.1

# faces
f 3/2/1 2/2/1 1/2/1
f 4/2/1 2/2/1 3/2/1
f 9/2/1 6/2/1 5/2/1
f 10/2/1 6/2/1 9/2/1
f 12/2/1 8/2/1 7/2/1
f 13/2/1 8/2/1 12/2/1
f 15/2/1 12/2/1 11/2/1
f 16/2/1 15/2/1 14/2/1
f 17/2/1 12/2/1 15/2/1
f 17/2/1 15/2/1 16/2/1
f 22/2/1 19/2/1 18/2/1
f 23/2/1 19/2/1 22/2/1
f 27/2/1 21/2/1 20/2/1
f 28/2/1 21/2/1 27/2/1
f 29/2/1 24/2/1 23/2/1
f 30/2/1 24/2/1 29/2/1
f 31/2/1 29/2/1 23/2/1
f 32/2/1 26/2/1 25/2/1
f 33/2/1 31/2/1 23/2/1
f 33/2/1 32/2/1 31/2/1
f 34/2/1 32/2/1 33/2/1
f 35/2/1 32/2/1 34/2/1
f 36/2/1 32/2/1 35/2/1
f 37/2/1 26/2/1 32/2/1
f 37/2/1 32/2/1 36/2/1
f 38/3/1 35/3/1 34/3/1
f 39/2/1 36/2/1 35/2/1
f 39/3/1 35/3/1 38/3/1
f 40/1/1 39/1/1 38/1/1
f 41/2/1 36/2/1 39/2/1
f 41/1/1 39/1/1 40/1/1
f 42/2/1 36/2/1 41/2/1
f 47/2/1 44/2/1 43/2/1
f 48/2/1 44/2/1 47/2/1
f 51/2/1 46/2/1 45/2/1
f 52/2/1 46/2/1 51/2/1
f 55/2/1 54/2/1 53/2/1
f 56/2/1 54/2/1 55/2/1
f 57/2/1 50/2/1 49/2/1
f 58/2/1 50/2/1 57/2/1
f 63/1/1 60/1/1 59/1/1
f 64/1/1 60/1/1 63/1/1
f 65/2/1 62/2/1 61/2/1
f 66/2/1 62/2/1 65/2/1
f 70/1/1 68/1/1 67/1/1
f 71/2/1 69/2/1 68/2/1
f 71/1/1 68/1/1 70/1/1
f 72/2/1 69/2/1 71/2/1
f 73/1/2 74/1/2 76/1/2
f 74/2/2 75/2/2 77/2/2
f 76/1/2 74/1/2 77/1/2
f 77/2/2 75/2/2 78/2/2
f 79/2/2 80/2/2 83/2/2
f 83/2/2 80/2/2 84/2/2
f 81/2/2 82/2/2 87/2/2
f 87/2/2 82/2/2 88/2/2
f 89/2/2 90/2/2 91/2/2
f 91/2/2 90/2/2 92/2/2
f 85/2/2 86/2/2 93/2/2
f 93/2/2 86/2/2 94/2/2
f 95/1/2 96/1/2 99/1/2
f 99/1/2 96/1/2 100/1/2
f 97/2/2 98/2/2 101/2/2
f 101/2/2 98/2/2 102/2/2
f 103/2/2 104/2/2 107/2/2
f 107/2/2 104/2/2 108/2/2
f 105/2/2 106/2/2 112/2/2
f 112/2/2 106/2/2 113/2/2
f 108/2/2 109/2/2 114/2/2
f 114/2/2 109/2/2 115/2/2
f 108/2/2 114/2/2 116/2/2
f 110/2/2 111/2/2 117/2/2
f 108/2/2 116/2/2 118/2/2
f 116/2/2 117/2/2 118/2/2
f 118/2/2 117/2/2 119/2/2
f 119/2/2 117/2/2 120/2/2
f 120/2/2 117/2/2 121/2/2
f 117/2/2 111/2/2 122/2/2
f 121/2/2 117/2/2 122/2/2
f 119/3/2 120/3/2 123/3/2
f 120/2/2 121/2/2 124/2/2
f 123/3/2 120/3/2 124/3/2
f 123/1/2 124/1/2 125/1/2
f 124/2/2 121/2/2 126/2/2
f 125/1/2 124/1/2 126/1/2
f 126/2/2 121/2/2 127/2/2
f 128/2/2 129/2/2 132/2/2
f 132/2/2 129/2/2 133/2/2
f 130/2/2 131/2/2 135/2/2
f 135/2/2 131/2/2 136/2/2
f 134/2/2 135/2/2 138/2/2
f 137/2/2 138/2/2 139/2/2
f 138/2/2 135/2/2 140/2/2
f 139/2/2 138/2/2 140/2/2
f 141/2/2 142/2/2 143/2/2
f 143/2/2 142/2/2 144/2/2
f 147/2/3 146/2/3 145/2/3
f 148/2/3 146/2/3 147/2/3
f 151/2/3 150/2/3 149/2/3
f 152/2/3 150/2/3 151/2/3
f 155/2/3 154/2/3 153/2/3
f 156/2/3 154/2/3 155/2/3
f 157/2/3 155/2/3 153/2/3
f 157/3/3 156/3/3 155/3/3
f 158/3/3 156/3/3 157/3/3
f 161/2/3 157/2/3 153/2/3
f 161/2/3 158/2/3 157/2/3
f 162/2/3 158/2/3 161/2/3
f 163/2/3 160/2/3 159/2/3
f 164/2/3 160/2/3 163/2/3
f 167/2/3 166/2/3 165/2/3
f 168/2/3 166/2/3 167/2/3
f 170/2/3 169/2/3 168/2/3
f 171/2/3 169/2/3 170/2/3
f 172/2/3 169/2/3 171/2/3
f 173/2/3 169/2/3 172/2/3
f 174/2/3 170/2/3 168/2/3
f 175/2/3 169/2/3 173/2/3
f 177/2/3 174/2/3 168/2/3
f 177/2/3 175/2/3 174/2/3
f 178/2/3 169/2/3 175/2/3
f 178/2/3 175/2/3 177/2/3
f 179/2/3 177/2/3 176/2/3
f 180/2/3 177/2/3 179/2/3
f 183/2/3 182/2/3 181/2/3
f 184/2/3 182/2/3 183/2/3
f 187/1/3 186/1/3 185/1/3
f 188/1/3 186/1/3 187/1/3
f 189/2/3 188/2/3 187/2/3
f 190/2/3 188/2/3 189/2/3
f 191/1/3 190/1/3 189/1/3
f 192/1/3 190/1/3 191/1/3
f 195/2/3 194/2/3 193/2/3
f 196/2/3 194/2/3 195/2/3
f 199/2/3 198/2/3 197/2/3
f 200/2/3 198/2/3 199/2/3
f 203/2/3 202/2/3 201/2/3
f 204/2/3 202/2/3 203/2/3
f 208/3/3 206/3/3 205/3/3
f 209/1/3 207/1/3 206/1/3
f 209/3/3 206/3/3 208/3/3
f 210/1/3 207/1/3 209/1/3
f 211/1/3 207/1/3 210/1/3
f 215/1/3 213/1/3 212/1/3
f 216/3/3 215/3/3 214/3/3
f 217/1/3 213/1/3 215/1/3
f 217/3/3 215/3/3 216/3/3
f 218/1/3 213/1/3 217/1/3
f 221/2/3 220/2/3 219/2/3
f 222/2/3 220/2/3 221/2/3
f 225/2/3 224/2/3 223/2/3
f 226/2/3 224/2/3 225/2/3
f 227/2/4 228/2/4 229/2/4
f 229/2/4 228/2/4 230/2/4
f 230/2/4 228/2/4 231/2/4
f 231/2/4 228/2/4 232/2/4
f 233/2/4 234/2/4 236/2/4
f 235/2/4 236/2/4 237/2/4
f 236/2/4 234/2/4 238/2/4
f 237/2/4 236/2/4 238/2/4
f 239/2/4 240/2/4 241/2/4
f 241/2/4 240/2/4 242/2/4
f 242/2/4 243/2/4 244/2/4
f 244/2/4 243/2/4 245/2/4
f 246/2/4 247/2/4 248/2/4
f 248/2/4 247/2/4 249/2/4
f 250/2/4 251/2/4 253/2/4
f 253/2/4 251/2/4 254/2/4
f 252/2/4 253/2/4 255/2/4
f 255/2/4 253/2/4 256/2/4
f 257/2/4 258/2/4 259/2/4
f 259/2/4 258/2/4 260/2/4
f 260/2/4 258/2/4 262/2/4
f 261/2/4 262/2/4 263/2/4
f 262/2/4 258/2/4 264/2/4
f 263/2/4 262/2/4 264/2/4
f 265/2/4 266/2/4 267/2/4
f 267/2/4 266/2/4 268/2/4
f 269/2/4 270/2/4 271/2/4
f 271/2/4 270/2/4 272/2/4
f 273/2/4 274/2/4 275/2/4
f 275/2/4 274/2/4 276/2/4
f 277/2/4 278/2/4 279/2/4
f 279/2/4 278/2/4 280/2/4
f 281/2/4 282/2/4 283/2/4
f 283/2/4 282/2/4 284/2/4
f 285/2/4 286/2/4 287/2/4
f 287/2/4 286/2/4 288/2/4
f 292/2/5 290/2/5 289/2/5
f 293/2/5 290/2/5 292/2/5
f 296/2/5 292/2/5 291/2/5
f 296/2/5 294/2/5 293/2/5
f 296/2/5 293/2/5 292/2/5
f 297/2/5 294/2/5 296/2/5
f 300/2/5 296/2/5 295/2/5
f 300/2/5 298/2/5 297/2/5
f 300/2/5 297/2/5 296/2/5
f 301/2/5 298/2/5 300/2/5
f 303/2/5 300/2/5 299/2/5
f 303/2/5 302/2/5 301/2/5
f 303/2/5 301/2/5 300/2/5
f 304/2/5 302/2/5 303/2/5
f 305/2/5 302/2/5 304/2/5
f 306/2/5 302/2/5 305/2/5
f 307/2/5 305/2/5 304/2/5
f 308/2/5 305/2/5 307/2/5
f 309/2/5 305/2/5 308/2/5
f 310/2/5 305/2/5 309/2/5
f 311/2/5 309/2/5 308/2/5
f 312/2/5 309/2/5 311/2/5
f 313/2/5 309/2/5 312/2/5
f 314/2/5 309/2/5 313/2/5
f 315/2/5 313/2/5 312/2/5
f 316/2/5 313/2/5 315/2/5
f 319/2/5 318/2/5 317/2/5
f 320/2/5 318/2/5 319/2/5
f 325/2/5 322/2/5 321/2/5
f 326/2/5 322/2/5 325/2/5
f 327/2/5 324/2/5 323/2/5
f 328/2/5 324/2/5 327/2/5
f 329/2/6 330/2/6 332/2/6
f 332/2/6 330/2/6 333/2/6
f 331/2/6 332/2/6 336/2/6
f 333/2/6 334/2/6 336/2/6
f 332/2/6 333/2/6 336/2/6
f 336/2/6 334/2/6 337/2/6
f 335/2/6 336/2/6 340/2/6
f 337/2/6 338/2/6 341/2/6
f 339/2/6 340/2/6 343/2/6
f 340/2/6 336/2/6 343/2/6
f 343/2/6 336/2/6 344/2/6
f 341/2/6 342/2/6 345/2/6
f 337/2/6 341/2/6 345/2/6
f 345/2/6 342/2/6 346/2/6
f 339/2/6 343/2/6 347/2/6
f 347/2/6 343/2/6 348/2/6
f 346/2/6 342/2/6 351/2/6
f 351/2/6 342/2/6 352/2/6
f 348/2/6 349/2/6 353/2/6
f 350/2/6 351/2/6 356/2/6
f 353/2/6 354/2/6 357/2/6
f 348/2/6 353/2/6 357/2/6
f 357/2/6 354/2/6 358/2/6
f 358/2/6 354/2/6 359/2/6
f 355/2/6 356/2/6 360/2/6
f 356/2/6 351/2/6 361/2/6
f 360/2/6 356/2/6 361/2/6
f 361/2/6 351/2/6 362/2/6
f 358/2/6 359/2/6 363/2/6
f 359/2/6 360/2/6 363/2/6
f 360/2/6 361/2/6 363/2/6
f 363/2/6 361/2/6 364/2/6
f 364/2/6 361/2/6 365/2/6
f 365/2/6 361/2/6 366/2/6
f 364/2/6 365/2/6 367/2/6
f 367/2/6 365/2/6 368/2/6
f 369/2/6 370/2/6 373/2/6
f 370/3/6 371/3/6 374/3/6
f 373/2/6 370/2/6 374/2/6
f 371/2/6 372/2/6 375/2/6
f 374/3/6 371/3/6 375/3/6
f 375/2/6 372/2/6 376/2/6
f 377/2/6 378/2/6 381/2/6
f 381/2/6 378/2/6 382/2/6
f 379/2/6 380/2/6 383/2/6
f 383/2/6 380/2/6 384/2/6
f 385/2/6 386/2/6 387/2/6
f 387/2/6 386/2/6 388/2/6
f 389/2/6 390/2/6 391/2/6
f 391/2/6 390/2/6 392/2/6
f 392/2/6 390/2/6 393/2/6
f 393/2/6 390/2/6 394/2/6
f 389/2/6 391/2/6 395/2/6
f 395/2/6 391/2/6 396/2/6
f 394/2/6 390/2/6 397/2/6
f 397/2/6 390/2/6 398/2/6
f 399/2/6 400/2/6 403/2/6
f 401/2/6 402/2/6 404/2/6
f 399/2/6 403/2/6 405/2/6
f 403/2/6 404/2/6 405/2/6
f 404/2/6 402/2/6 406/2/6
f 405/2/6 404/2/6 406/2/6
f 407/1/6 408/1/6 411/1/6
f 408/2/6 409/2/6 412/2/6
f 411/1/6 408/1/6 412/1/6
f 409/1/6 410/1/6 413/1/6
f 412/2/6 409/2/6 413/2/6
f 413/1/6 410/1/6 414/1/6
f 412/2/6 413/2/6 415/2/6
f 415/2/6 413/2/6 416/2/6
f 415/2/6 416/2/6 418/2/6
f 418/2/6 416/2/6 419/2/6
f 418/2/6 419/2/6 421/2/6
f 419/2/6 420/2/6 421/2/6
f 417/2/6 418/2/6 421/2/6
f 421/2/6 420/2/6 422/2/6
f 423/1/6 424/1/6 427/1/6
f 427/1/6 424/1/6 428/1/6
f 425/1/6 426/1/6 429/1/6
f 429/1/6 426/1/6 430/1/6
f 427/2/6 428/2/6 431/2/6
f 431/2/6 428/2/6 432/2/6
f 429/2/6 430/2/6 433/2/6
f 433/2/6 430/2/6 434/2/6
