# MagicaVoxel @ Ephtracy

# group
o 

# material
mtllib sloim.mtl
usemtl palette

# normals
vn -1 0 0
vn 1 0 0
vn 0 0 1
vn 0 0 -1
vn 0 -1 0
vn 0 1 0

# texcoords
vt 0.939453 0.5
vt 0.970703 0.5
vt 0.974609 0.5

# verts
v -0.5 0.2 0.3
v -0.5 0.2 -0.3
v -0.5 0.7 0.3
v -0.5 0.7 -0.3
v -0.4 0.1 0.4
v -0.4 0.1 -0.4
v -0.4 0.2 0.3
v -0.4 0.2 -0.3
v -0.4 0.7 0.3
v -0.4 0.7 -0.3
v -0.4 0.8 0.4
v -0.4 0.8 -0.4
v -0.4 0.9 0.1
v -0.4 0.9 0
v -0.4 0.9 -0.1
v -0.4 1.1 0.1
v -0.4 1.1 0
v -0.4 1.1 -0.1
v -0.3 0 0.3
v -0.3 0 -0.3
v -0.3 0.1 0.3
v -0.3 0.1 -0.3
v -0.3 0.2 0.5
v -0.3 0.2 0.4
v -0.3 0.2 -0.4
v -0.3 0.2 -0.5
v -0.3 0.7 0.5
v -0.3 0.7 0.4
v -0.3 0.7 -0.4
v -0.3 0.7 -0.5
v -0.3 0.8 0.3
v -0.3 0.8 -0.3
v -0.3 0.9 0.3
v -0.3 0.9 0.1
v -0.3 0.9 0
v -0.3 0.9 -0.1
v -0.3 0.9 -0.3
v 0.2 0.9 0.1
v 0.2 0.9 0
v 0.2 0.9 -0.1
v 0.2 1 0.1
v 0.2 1 0
v 0.2 1.1 0.1
v 0.2 1.1 0
v 0.2 1.1 -0.1
v -0.2 0.9 0.1
v -0.2 0.9 0
v -0.2 0.9 -0.1
v -0.2 1 0.1
v -0.2 1 0
v -0.2 1.1 0.1
v -0.2 1.1 0
v -0.2 1.1 -0.1
v 0.3 0 0.3
v 0.3 0 -0.3
v 0.3 0.1 0.3
v 0.3 0.1 -0.3
v 0.3 0.2 0.5
v 0.3 0.2 0.4
v 0.3 0.2 -0.4
v 0.3 0.2 -0.5
v 0.3 0.7 0.5
v 0.3 0.7 0.4
v 0.3 0.7 -0.4
v 0.3 0.7 -0.5
v 0.3 0.8 0.3
v 0.3 0.8 -0.3
v 0.3 0.9 0.3
v 0.3 0.9 0.1
v 0.3 0.9 0
v 0.3 0.9 -0.1
v 0.3 0.9 -0.3
v 0.4 0.1 0.4
v 0.4 0.1 -0.4
v 0.4 0.2 0.3
v 0.4 0.2 -0.3
v 0.4 0.7 0.3
v 0.4 0.7 -0.3
v 0.4 0.8 0.4
v 0.4 0.8 -0.4
v 0.4 0.9 0.1
v 0.4 0.9 0
v 0.4 0.9 -0.1
v 0.4 1.1 0.1
v 0.4 1.1 0
v 0.4 1.1 -0.1
v 0.5 0.2 0.3
v 0.5 0.2 -0.3
v 0.5 0.7 0.3
v 0.5 0.7 -0.3
v -0.3 0.2 0.5
v -0.3 0.7 0.5
v -0.1 0.6 0.5
v -0.1 0.7 0.5
v 0.1 0.6 0.5
v 0.1 0.7 0.5
v 0.3 0.2 0.5
v 0.3 0.7 0.5
v -0.4 0.1 0.4
v -0.4 0.8 0.4
v -0.3 0.2 0.4
v -0.3 0.7 0.4
v -0.1 0.7 0.4
v 0.1 0.7 0.4
v 0.3 0.2 0.4
v 0.3 0.7 0.4
v 0.4 0.1 0.4
v 0.4 0.8 0.4
v -0.5 0.2 0.3
v -0.5 0.7 0.3
v -0.4 0.2 0.3
v -0.4 0.7 0.3
v -0.3 0 0.3
v -0.3 0.1 0.3
v -0.3 0.8 0.3
v -0.3 0.9 0.3
v 0.3 0 0.3
v 0.3 0.1 0.3
v 0.3 0.8 0.3
v 0.3 0.9 0.3
v 0.4 0.2 0.3
v 0.4 0.7 0.3
v 0.5 0.2 0.3
v 0.5 0.7 0.3
v -0.4 0.9 0.1
v -0.4 1.1 0.1
v -0.3 0.9 0.1
v -0.3 1 0.1
v -0.2 0.9 0.1
v -0.2 1 0.1
v -0.2 1.1 0.1
v 0.2 0.9 0.1
v 0.2 1 0.1
v 0.2 1.1 0.1
v 0.3 0.9 0.1
v 0.3 1 0.1
v 0.4 0.9 0.1
v 0.4 1.1 0.1
v -0.4 0.9 -0.1
v -0.4 1.1 -0.1
v -0.3 0.9 -0.1
v -0.2 0.9 -0.1
v -0.2 1.1 -0.1
v 0.2 0.9 -0.1
v 0.2 1.1 -0.1
v 0.3 0.9 -0.1
v 0.4 0.9 -0.1
v 0.4 1.1 -0.1
v -0.5 0.2 -0.3
v -0.5 0.7 -0.3
v -0.4 0.2 -0.3
v -0.4 0.7 -0.3
v -0.3 0 -0.3
v -0.3 0.1 -0.3
v -0.3 0.8 -0.3
v -0.3 0.9 -0.3
v 0.3 0 -0.3
v 0.3 0.1 -0.3
v 0.3 0.8 -0.3
v 0.3 0.9 -0.3
v 0.4 0.2 -0.3
v 0.4 0.7 -0.3
v 0.5 0.2 -0.3
v 0.5 0.7 -0.3
v -0.4 0.1 -0.4
v -0.4 0.8 -0.4
v -0.3 0.2 -0.4
v -0.3 0.7 -0.4
v 0.3 0.2 -0.4
v 0.3 0.7 -0.4
v 0.4 0.1 -0.4
v 0.4 0.8 -0.4
v -0.3 0.2 -0.5
v -0.3 0.7 -0.5
v 0.3 0.2 -0.5
v 0.3 0.7 -0.5
v -0.3 0 0.3
v 0.3 0 0.3
v -0.3 0 -0.3
v 0.3 0 -0.3
v -0.4 0.1 0.4
v 0.4 0.1 0.4
v -0.3 0.1 0.3
v 0.3 0.1 0.3
v -0.3 0.1 -0.3
v 0.3 0.1 -0.3
v -0.4 0.1 -0.4
v 0.4 0.1 -0.4
v -0.3 0.2 0.5
v 0.3 0.2 0.5
v -0.3 0.2 0.4
v 0.3 0.2 0.4
v -0.5 0.2 0.3
v -0.4 0.2 0.3
v 0.4 0.2 0.3
v 0.5 0.2 0.3
v -0.5 0.2 -0.3
v -0.4 0.2 -0.3
v 0.4 0.2 -0.3
v 0.5 0.2 -0.3
v -0.3 0.2 -0.4
v 0.3 0.2 -0.4
v -0.3 0.2 -0.5
v 0.3 0.2 -0.5
v -0.4 0.9 0.1
v -0.3 0.9 0.1
v 0.3 0.9 0.1
v 0.4 0.9 0.1
v -0.4 0.9 0
v -0.3 0.9 0
v 0.3 0.9 0
v 0.4 0.9 0
v -0.4 0.9 -0.1
v -0.3 0.9 -0.1
v 0.3 0.9 -0.1
v 0.4 0.9 -0.1
v -0.3 0.7 0.5
v -0.1 0.7 0.5
v 0.1 0.7 0.5
v 0.3 0.7 0.5
v -0.3 0.7 0.4
v -0.1 0.7 0.4
v 0.1 0.7 0.4
v 0.3 0.7 0.4
v -0.5 0.7 0.3
v -0.4 0.7 0.3
v 0.4 0.7 0.3
v 0.5 0.7 0.3
v -0.5 0.7 -0.3
v -0.4 0.7 -0.3
v 0.4 0.7 -0.3
v 0.5 0.7 -0.3
v -0.3 0.7 -0.4
v 0.3 0.7 -0.4
v -0.3 0.7 -0.5
v 0.3 0.7 -0.5
v -0.4 0.8 0.4
v 0.4 0.8 0.4
v -0.3 0.8 0.3
v 0.3 0.8 0.3
v -0.3 0.8 -0.3
v 0.3 0.8 -0.3
v -0.4 0.8 -0.4
v 0.4 0.8 -0.4
v -0.3 0.9 0.3
v 0.3 0.9 0.3
v -0.3 0.9 0.1
v -0.2 0.9 0.1
v 0.2 0.9 0.1
v 0.3 0.9 0.1
v -0.2 0.9 0
v 0.2 0.9 0
v -0.3 0.9 -0.1
v -0.2 0.9 -0.1
v 0.2 0.9 -0.1
v 0.3 0.9 -0.1
v -0.3 0.9 -0.3
v 0.3 0.9 -0.3
v -0.4 1.1 0.1
v -0.2 1.1 0.1
v 0.2 1.1 0.1
v 0.4 1.1 0.1
v -0.4 1.1 0
v -0.2 1.1 0
v 0.2 1.1 0
v 0.4 1.1 0
v -0.4 1.1 -0.1
v -0.2 1.1 -0.1
v 0.2 1.1 -0.1
v 0.4 1.1 -0.1

# faces
f 3/2/1 2/2/1 1/2/1
f 4/2/1 2/2/1 3/2/1
f 7/2/1 6/2/1 5/2/1
f 8/2/1 6/2/1 7/2/1
f 9/2/1 7/2/1 5/2/1
f 10/2/1 6/2/1 8/2/1
f 11/2/1 9/2/1 5/2/1
f 11/2/1 10/2/1 9/2/1
f 12/2/1 6/2/1 10/2/1
f 12/2/1 10/2/1 11/2/1
f 16/1/1 14/1/1 13/1/1
f 17/2/1 15/2/1 14/2/1
f 17/1/1 14/1/1 16/1/1
f 18/2/1 15/2/1 17/2/1
f 21/2/1 20/2/1 19/2/1
f 22/2/1 20/2/1 21/2/1
f 27/2/1 24/2/1 23/2/1
f 28/2/1 24/2/1 27/2/1
f 29/2/1 26/2/1 25/2/1
f 30/2/1 26/2/1 29/2/1
f 33/2/1 32/2/1 31/2/1
f 34/2/1 32/2/1 33/2/1
f 35/2/1 32/2/1 34/2/1
f 36/2/1 32/2/1 35/2/1
f 37/2/1 32/2/1 36/2/1
f 41/3/1 39/3/1 38/3/1
f 42/2/1 40/2/1 39/2/1
f 42/3/1 39/3/1 41/3/1
f 43/1/1 42/1/1 41/1/1
f 44/2/1 40/2/1 42/2/1
f 44/1/1 42/1/1 43/1/1
f 45/2/1 40/2/1 44/2/1
f 46/3/2 47/3/2 49/3/2
f 47/2/2 48/2/2 50/2/2
f 49/3/2 47/3/2 50/3/2
f 49/1/2 50/1/2 51/1/2
f 50/2/2 48/2/2 52/2/2
f 51/1/2 50/1/2 52/1/2
f 52/2/2 48/2/2 53/2/2
f 54/2/2 55/2/2 56/2/2
f 56/2/2 55/2/2 57/2/2
f 58/2/2 59/2/2 62/2/2
f 62/2/2 59/2/2 63/2/2
f 60/2/2 61/2/2 64/2/2
f 64/2/2 61/2/2 65/2/2
f 66/2/2 67/2/2 68/2/2
f 68/2/2 67/2/2 69/2/2
f 69/2/2 67/2/2 70/2/2
f 70/2/2 67/2/2 71/2/2
f 71/2/2 67/2/2 72/2/2
f 73/2/2 74/2/2 75/2/2
f 75/2/2 74/2/2 76/2/2
f 73/2/2 75/2/2 77/2/2
f 76/2/2 74/2/2 78/2/2
f 73/2/2 77/2/2 79/2/2
f 77/2/2 78/2/2 79/2/2
f 78/2/2 74/2/2 80/2/2
f 79/2/2 78/2/2 80/2/2
f 81/1/2 82/1/2 84/1/2
f 82/2/2 83/2/2 85/2/2
f 84/1/2 82/1/2 85/1/2
f 85/2/2 83/2/2 86/2/2
f 87/2/2 88/2/2 89/2/2
f 89/2/2 88/2/2 90/2/2
f 93/2/3 92/2/3 91/2/3
f 94/2/3 92/2/3 93/2/3
f 95/2/3 93/2/3 91/2/3
f 95/3/3 94/3/3 93/3/3
f 96/3/3 94/3/3 95/3/3
f 97/2/3 95/2/3 91/2/3
f 97/2/3 96/2/3 95/2/3
f 98/2/3 96/2/3 97/2/3
f 101/2/3 100/2/3 99/2/3
f 102/2/3 100/2/3 101/2/3
f 103/2/3 100/2/3 102/2/3
f 104/2/3 100/2/3 103/2/3
f 105/2/3 101/2/3 99/2/3
f 106/2/3 100/2/3 104/2/3
f 107/2/3 105/2/3 99/2/3
f 107/2/3 106/2/3 105/2/3
f 108/2/3 100/2/3 106/2/3
f 108/2/3 106/2/3 107/2/3
f 111/2/3 110/2/3 109/2/3
f 112/2/3 110/2/3 111/2/3
f 117/2/3 114/2/3 113/2/3
f 118/2/3 114/2/3 117/2/3
f 119/2/3 116/2/3 115/2/3
f 120/2/3 116/2/3 119/2/3
f 123/2/3 122/2/3 121/2/3
f 124/2/3 122/2/3 123/2/3
f 127/1/3 126/1/3 125/1/3
f 128/1/3 126/1/3 127/1/3
f 129/3/3 128/3/3 127/3/3
f 130/1/3 126/1/3 128/1/3
f 130/3/3 128/3/3 129/3/3
f 131/1/3 126/1/3 130/1/3
f 135/3/3 133/3/3 132/3/3
f 136/1/3 134/1/3 133/1/3
f 136/3/3 133/3/3 135/3/3
f 137/1/3 136/1/3 135/1/3
f 138/1/3 134/1/3 136/1/3
f 138/1/3 136/1/3 137/1/3
f 139/2/4 140/2/4 141/2/4
f 141/2/4 140/2/4 142/2/4
f 142/2/4 140/2/4 143/2/4
f 144/2/4 145/2/4 146/2/4
f 146/2/4 145/2/4 147/2/4
f 147/2/4 145/2/4 148/2/4
f 149/2/4 150/2/4 151/2/4
f 151/2/4 150/2/4 152/2/4
f 153/2/4 154/2/4 157/2/4
f 157/2/4 154/2/4 158/2/4
f 155/2/4 156/2/4 159/2/4
f 159/2/4 156/2/4 160/2/4
f 161/2/4 162/2/4 163/2/4
f 163/2/4 162/2/4 164/2/4
f 165/2/4 166/2/4 167/2/4
f 167/2/4 166/2/4 168/2/4
f 165/2/4 167/2/4 169/2/4
f 168/2/4 166/2/4 170/2/4
f 165/2/4 169/2/4 171/2/4
f 169/2/4 170/2/4 171/2/4
f 170/2/4 166/2/4 172/2/4
f 171/2/4 170/2/4 172/2/4
f 173/2/4 174/2/4 175/2/4
f 175/2/4 174/2/4 176/2/4
f 179/2/5 178/2/5 177/2/5
f 180/2/5 178/2/5 179/2/5
f 183/2/5 182/2/5 181/2/5
f 184/2/5 182/2/5 183/2/5
f 185/2/5 183/2/5 181/2/5
f 186/2/5 182/2/5 184/2/5
f 187/2/5 185/2/5 181/2/5
f 187/2/5 186/2/5 185/2/5
f 188/2/5 182/2/5 186/2/5
f 188/2/5 186/2/5 187/2/5
f 191/2/5 190/2/5 189/2/5
f 192/2/5 190/2/5 191/2/5
f 197/2/5 194/2/5 193/2/5
f 198/2/5 194/2/5 197/2/5
f 199/2/5 196/2/5 195/2/5
f 200/2/5 196/2/5 199/2/5
f 203/2/5 202/2/5 201/2/5
f 204/2/5 202/2/5 203/2/5
f 209/1/5 206/1/5 205/1/5
f 210/1/5 206/1/5 209/1/5
f 211/1/5 208/1/5 207/1/5
f 212/1/5 208/1/5 211/1/5
f 213/2/5 210/2/5 209/2/5
f 214/2/5 210/2/5 213/2/5
f 215/2/5 212/2/5 211/2/5
f 216/2/5 212/2/5 215/2/5
f 217/2/6 218/2/6 221/2/6
f 218/3/6 219/3/6 222/3/6
f 221/2/6 218/2/6 222/2/6
f 219/2/6 220/2/6 223/2/6
f 222/3/6 219/3/6 223/3/6
f 223/2/6 220/2/6 224/2/6
f 225/2/6 226/2/6 229/2/6
f 229/2/6 226/2/6 230/2/6
f 227/2/6 228/2/6 231/2/6
f 231/2/6 228/2/6 232/2/6
f 233/2/6 234/2/6 235/2/6
f 235/2/6 234/2/6 236/2/6
f 237/2/6 238/2/6 239/2/6
f 239/2/6 238/2/6 240/2/6
f 237/2/6 239/2/6 241/2/6
f 240/2/6 238/2/6 242/2/6
f 237/2/6 241/2/6 243/2/6
f 241/2/6 242/2/6 243/2/6
f 242/2/6 238/2/6 244/2/6
f 243/2/6 242/2/6 244/2/6
f 245/2/6 246/2/6 247/2/6
f 247/2/6 246/2/6 248/2/6
f 248/2/6 246/2/6 249/2/6
f 249/2/6 246/2/6 250/2/6
f 248/2/6 249/2/6 251/2/6
f 251/2/6 249/2/6 252/2/6
f 251/2/6 252/2/6 254/2/6
f 254/2/6 252/2/6 255/2/6
f 254/2/6 255/2/6 257/2/6
f 255/2/6 256/2/6 257/2/6
f 253/2/6 254/2/6 257/2/6
f 257/2/6 256/2/6 258/2/6
f 259/1/6 260/1/6 263/1/6
f 263/1/6 260/1/6 264/1/6
f 261/1/6 262/1/6 265/1/6
f 265/1/6 262/1/6 266/1/6
f 263/2/6 264/2/6 267/2/6
f 267/2/6 264/2/6 268/2/6
f 265/2/6 266/2/6 269/2/6
f 269/2/6 266/2/6 270/2/6
