# MagicaVoxel @ Ephtracy

# group
o 

# material
mtllib untitled.mtl
usemtl palette

# normals
vn -1 0 0
vn 1 0 0
vn 0 0 1
vn 0 0 -1
vn 0 -1 0
vn 0 1 0

# texcoords
vt 0.939453 0.5
vt 0.970703 0.5
vt 0.974609 0.5
vt 0.978516 0.5

# verts
v -2 0 -1.7
v -2 0 -1.8
v -2 0 -1.9
v -2 0 -2
v -2 0.5 -1.7
v -2 0.5 -1.8
v -2 0.6 -1.7
v -2 0.6 -1.8
v -2 1.3 -1.7
v -2 1.3 -1.8
v -2 1.4 -1.7
v -2 1.4 -1.8
v -2 1.9 -1.7
v -2 1.9 -1.8
v -2 2 -1.7
v -2 2 -1.8
v -2 2.5 -1.7
v -2 2.5 -1.8
v -2 2.6 -1.7
v -2 2.6 -1.8
v -2 3.4 -1.7
v -2 3.4 -1.8
v -2 3.5 -1.7
v -2 3.5 -1.8
v -2 4 -1.7
v -2 4 -1.8
v -2 4 -1.9
v -2 4 -2
v -1.8 0.3 -1.6
v -1.8 0.3 -1.7
v -1.8 0.5 -1.7
v -1.8 0.5 -1.8
v -1.8 0.6 -1.7
v -1.8 0.6 -1.8
v -1.8 0.7 -1.6
v -1.8 0.7 -1.7
v -1.8 1.9 -1.7
v -1.8 1.9 -1.8
v -1.8 2 -1.7
v -1.8 2 -1.8
v -1.7 0.7 -1.6
v -1.7 0.7 -1.7
v -1.7 0.8 -1.6
v -1.7 0.8 -1.7
v -1.6 1.8 -1.7
v -1.6 1.8 -1.8
v -1.6 1.8 -1.9
v -1.6 2.1 -1.8
v -1.6 2.1 -1.9
v -1.6 2.3 -1.8
v -1.6 2.3 -1.9
v -1.6 2.4 -1.8
v -1.6 2.4 -1.9
v -1.6 2.5 -1.7
v -1.6 2.5 -1.8
v -1.5 0 -1.7
v -1.5 0 -1.8
v -1.5 0.1 -1.7
v -1.5 0.1 -1.8
v -1.5 0.5 -1.7
v -1.5 0.5 -1.8
v -1.5 0.9 -1.7
v -1.5 0.9 -1.8
v -1.5 1.6 -1.7
v -1.5 1.6 -1.8
v -1.5 1.8 -1.7
v -1.5 1.8 -1.8
v -1.5 2.1 -1.6
v -1.5 2.1 -1.7
v -1.5 2.5 -1.6
v -1.5 2.5 -1.7
v -1.5 3.6 -1.7
v -1.5 3.6 -1.8
v -1.5 3.8 -1.7
v -1.5 3.8 -1.8
v -1.4 0.1 -1.7
v -1.4 0.1 -1.8
v -1.4 0.5 -1.7
v -1.4 0.5 -1.8
v -1.4 1.4 -1.7
v -1.4 1.4 -1.8
v -1.4 1.6 -1.7
v -1.4 1.6 -1.8
v -1.4 2.5 -1.7
v -1.4 2.5 -1.8
v -1.4 2.6 -1.6
v -1.4 2.6 -1.7
v -1.4 2.6 -1.8
v -1.4 2.7 -1.6
v -1.4 2.7 -1.7
v -1.4 3.4 -1.7
v -1.4 3.4 -1.8
v -1.4 3.5 -1.7
v -1.4 3.5 -1.8
v -1.4 3.6 -1.7
v -1.4 3.6 -1.8
v -1.4 3.8 -1.7
v -1.4 3.8 -1.8
v -1.4 4 -1.7
v -1.4 4 -1.8
v -1.3 2.7 -1.6
v -1.3 2.7 -1.7
v -1.3 2.9 -1.6
v -1.3 2.9 -1.7
v -1.2 1.4 -1.6
v -1.2 1.4 -1.7
v -1.2 1.6 -1.6
v -1.2 1.6 -1.7
v -1.2 2.9 -1.5
v -1.2 2.9 -1.6
v -1.2 2.9 -1.7
v -1.2 3 -1.5
v -1.2 3 -1.6
v -1.2 3.2 -1.6
v -1.2 3.2 -1.7
v -1.2 3.8 -1.6
v -1.2 3.8 -1.7
v -1.2 4 -1.6
v -1.2 4 -1.7
v -1.1 1 -1.6
v -1.1 1 -1.7
v -1.1 1.2 -1.5
v -1.1 1.2 -1.6
v -1.1 1.3 -1.5
v -1.1 1.3 -1.7
v -1.1 1.3 -1.8
v -1.1 1.4 -1.7
v -1.1 1.4 -1.8
v -1.1 2.4 -1.6
v -1.1 2.4 -1.7
v -1.1 2.5 -1.6
v -1.1 2.5 -1.7
v -1.1 2.5 -1.8
v -1.1 2.6 -1.6
v -1.1 2.6 -1.7
v -1.1 2.6 -1.8
v -1.1 2.7 -1.6
v -1.1 2.7 -1.7
v -1.1 3.2 -1.6
v -1.1 3.2 -1.7
v -1.1 3.4 -1.6
v -1.1 3.4 -1.7
v -1.1 3.4 -1.8
v -1.1 3.5 -1.6
v -1.1 3.5 -1.7
v -1.1 3.5 -1.8
v -1.1 3.8 -1.6
v -1.1 3.8 -1.7
v -1 0.3 -1.6
v -1 0.3 -1.7
v -1 0.9 -1.5
v -1 0.9 -1.6
v -1 1 -1.5
v -1 1 -1.6
v -1 1 -1.7
v -1 2.2 -1.6
v -1 2.2 -1.7
v -1 2.4 -1.6
v -1 2.4 -1.7
v -0.8 0 -1.7
v -0.8 0 -1.8
v -0.8 0.1 -1.7
v -0.8 0.1 -1.8
v -0.7 0.1 -1.7
v -0.7 0.1 -1.8
v -0.7 0.9 -1.7
v -0.7 0.9 -1.8
v -0.7 1 -1.7
v -0.7 1 -1.8
v -0.7 1.2 -1.7
v -0.7 1.2 -1.8
v -0.6 1.3 -1.7
v -0.6 1.3 -1.8
v -0.6 1.4 -1.7
v -0.6 1.4 -1.8
v -0.6 1.4 -1.9
v -0.6 1.5 -1.8
v -0.6 1.5 -1.9
v -0.5 1.4 -1.7
v -0.5 1.4 -1.8
v -0.5 1.6 -1.7
v -0.5 1.6 -1.8
v -0.5 3.6 -1.7
v -0.5 3.6 -1.8
v -0.5 3.8 -1.7
v -0.5 3.8 -1.8
v -0.4 0 -1.7
v -0.4 0 -1.8
v -0.4 0.1 -1.7
v -0.4 0.1 -1.8
v -0.4 0.5 -1.6
v -0.4 0.5 -1.7
v -0.4 0.6 -1.6
v -0.4 0.6 -1.7
v -0.4 1.5 -1.6
v -0.4 1.5 -1.7
v -0.4 1.6 -1.7
v -0.4 1.6 -1.8
v -0.4 1.7 -1.7
v -0.4 1.7 -1.8
v -0.4 1.8 -1.6
v -0.4 1.8 -1.7
v -0.4 1.9 -1.7
v -0.4 1.9 -1.8
v -0.4 2.1 -1.7
v -0.4 2.1 -1.8
v -0.4 2.2 -1.7
v -0.4 2.2 -1.8
v -0.4 2.6 -1.7
v -0.4 2.6 -1.8
v -0.4 2.8 -1.7
v -0.4 2.8 -1.8
v -0.4 3.4 -1.7
v -0.4 3.4 -1.8
v -0.4 3.5 -1.7
v -0.4 3.5 -1.8
v -0.4 3.8 -1.7
v -0.4 3.8 -1.8
v -0.4 3.9 -1.7
v -0.4 3.9 -1.8
v -0.3 0.1 -1.7
v -0.3 0.1 -1.8
v -0.3 0.2 -1.6
v -0.3 0.2 -1.7
v -0.3 0.4 -1.6
v -0.3 0.4 -1.7
v -0.3 0.4 -1.8
v -0.3 0.5 -1.7
v -0.3 0.5 -1.8
v -0.3 1.9 -1.7
v -0.3 1.9 -1.8
v -0.3 2.1 -1.7
v -0.3 2.1 -1.8
v -0.3 2.2 -1.7
v -0.3 2.2 -1.8
v -0.3 2.5 -1.7
v -0.3 2.5 -1.8
v -0.3 2.8 -1.7
v -0.3 2.8 -1.8
v -0.3 3.1 -1.8
v -0.3 3.1 -1.9
v -0.3 3.2 -1.8
v -0.3 3.2 -1.9
v -0.3 3.4 -1.7
v -0.3 3.4 -1.8
v -0.3 3.5 -1.8
v -0.3 3.5 -1.9
v -0.3 3.6 -1.8
v -0.3 3.6 -1.9
v -0.3 3.9 -1.7
v -0.3 3.9 -1.8
v -0.3 4 -1.7
v -0.3 4 -1.8
v -0.0999999 0.6 -1.7
v -0.0999999 0.6 -1.8
v -0.0999999 1 -1.7
v -0.0999999 1 -1.8
v -1.8 1.8 -1.7
v -1.8 1.8 -1.8
v -1.8 1.9 -1.7
v -1.8 1.9 -1.8
v -1.7 0.3 -1.6
v -1.7 0.3 -1.7
v -1.7 0.5 -1.7
v -1.7 0.5 -1.8
v -1.7 0.6 -1.6
v -1.7 0.6 -1.7
v -1.7 0.6 -1.8
v -1.7 1.8 -1.8
v -1.7 1.8 -1.9
v -1.7 1.9 -1.7
v -1.7 1.9 -1.8
v -1.7 2.1 -1.8
v -1.7 2.1 -1.9
v -1.7 2.3 -1.8
v -1.7 2.3 -1.9
v -1.7 2.4 -1.8
v -1.7 2.4 -1.9
v -1.7 2.5 -1.7
v -1.7 2.5 -1.8
v -1.6 0 -1.7
v -1.6 0 -1.8
v -1.6 0.2 -1.7
v -1.6 0.2 -1.8
v -1.6 0.4 -1.7
v -1.6 0.4 -1.8
v -1.6 0.5 -1.7
v -1.6 0.5 -1.8
v -1.6 0.6 -1.6
v -1.6 0.6 -1.7
v -1.6 0.6 -1.8
v -1.6 0.8 -1.6
v -1.6 0.8 -1.7
v -1.6 0.8 -1.8
v -1.6 0.9 -1.7
v -1.6 0.9 -1.8
v -1.6 1.5 -1.7
v -1.6 1.5 -1.8
v -1.6 1.8 -1.7
v -1.6 1.8 -1.8
v -1.6 3.6 -1.7
v -1.6 3.6 -1.8
v -1.6 3.8 -1.7
v -1.6 3.8 -1.8
v -1.5 0.2 -1.7
v -1.5 0.2 -1.8
v -1.5 0.4 -1.7
v -1.5 0.4 -1.8
v -1.5 1.4 -1.7
v -1.5 1.4 -1.8
v -1.5 1.5 -1.7
v -1.5 1.5 -1.8
v -1.5 2.6 -1.7
v -1.5 2.6 -1.8
v -1.5 3.4 -1.7
v -1.5 3.4 -1.8
v -1.5 3.5 -1.7
v -1.5 3.5 -1.8
v -1.5 3.6 -1.7
v -1.5 3.6 -1.8
v -1.5 3.8 -1.7
v -1.5 3.8 -1.8
v -1.5 4 -1.7
v -1.5 4 -1.8
v -1.4 2.1 -1.6
v -1.4 2.1 -1.7
v -1.4 2.4 -1.6
v -1.4 2.4 -1.7
v -1.3 2.4 -1.6
v -1.3 2.4 -1.7
v -1.3 2.5 -1.6
v -1.3 2.5 -1.7
v -1.3 2.5 -1.8
v -1.3 2.6 -1.6
v -1.3 2.6 -1.7
v -1.3 2.6 -1.8
v -1.3 2.7 -1.6
v -1.3 2.7 -1.7
v -1.1 1.5 -1.6
v -1.1 1.5 -1.7
v -1.1 1.6 -1.6
v -1.1 1.6 -1.7
v -1.1 2.7 -1.6
v -1.1 2.7 -1.7
v -1.1 2.9 -1.5
v -1.1 2.9 -1.6
v -1.1 3 -1.5
v -1.1 3 -1.6
v -1.1 3.2 -1.6
v -1.1 3.2 -1.7
v -1.1 3.9 -1.6
v -1.1 3.9 -1.7
v -1.1 4 -1.6
v -1.1 4 -1.7
v -1 1.1 -1.6
v -1 1.1 -1.7
v -1 1.2 -1.5
v -1 1.2 -1.6
v -1 1.2 -1.7
v -1 1.2 -1.8
v -1 1.3 -1.5
v -1 1.3 -1.7
v -1 1.3 -1.8
v -1 1.4 -1.6
v -1 1.4 -1.7
v -1 1.5 -1.6
v -1 1.5 -1.7
v -1 2.4 -1.6
v -1 2.4 -1.7
v -1 2.5 -1.6
v -1 2.5 -1.7
v -1 2.5 -1.8
v -1 2.6 -1.6
v -1 2.6 -1.7
v -1 2.6 -1.8
v -1 2.7 -1.6
v -1 2.7 -1.7
v -1 3.2 -1.6
v -1 3.2 -1.7
v -1 3.4 -1.6
v -1 3.4 -1.7
v -1 3.5 -1.6
v -1 3.5 -1.7
v -1 3.5 -1.8
v -1 3.6 -1.7
v -1 3.6 -1.8
v -1 3.9 -1.6
v -1 3.9 -1.7
v -0.9 0 -1.7
v -0.9 0 -1.8
v -0.9 0.2 -1.7
v -0.9 0.2 -1.8
v -0.9 0.3 -1.6
v -0.9 0.3 -1.7
v -0.9 0.9 -1.5
v -0.9 0.9 -1.6
v -0.9 0.9 -1.7
v -0.9 1 -1.5
v -0.9 1 -1.6
v -0.9 1 -1.7
v -0.9 1.1 -1.6
v -0.9 1.1 -1.7
v -0.9 2.2 -1.6
v -0.9 2.2 -1.7
v -0.9 2.4 -1.6
v -0.9 2.4 -1.7
v -0.8 0.2 -1.7
v -0.8 0.2 -1.8
v -0.8 0.9 -1.7
v -0.8 0.9 -1.8
v -0.8 1 -1.7
v -0.8 1 -1.8
v -0.8 1.2 -1.7
v -0.8 1.2 -1.8
v -0.7 1.3 -1.7
v -0.7 1.3 -1.8
v -0.7 1.4 -1.8
v -0.7 1.4 -1.9
v -0.7 1.5 -1.7
v -0.7 1.5 -1.8
v -0.7 1.5 -1.9
v -0.7 3.6 -1.7
v -0.7 3.6 -1.8
v -0.7 3.7 -1.7
v -0.7 3.7 -1.8
v -0.6 1.5 -1.7
v -0.6 1.5 -1.8
v -0.6 1.9 -1.7
v -0.6 1.9 -1.8
v -0.6 3.7 -1.7
v -0.6 3.7 -1.8
v -0.6 3.9 -1.7
v -0.6 3.9 -1.8
v -0.5 0 -1.7
v -0.5 0 -1.8
v -0.5 0.2 -1.7
v -0.5 0.2 -1.8
v -0.5 2 -1.7
v -0.5 2 -1.8
v -0.5 2.3 -1.7
v -0.5 2.3 -1.8
v -0.5 2.6 -1.7
v -0.5 2.6 -1.8
v -0.5 2.9 -1.7
v -0.5 2.9 -1.8
v -0.5 3.4 -1.7
v -0.5 3.4 -1.8
v -0.5 3.5 -1.7
v -0.5 3.5 -1.8
v -0.5 3.5 -1.9
v -0.5 3.6 -1.8
v -0.5 3.6 -1.9
v -0.5 3.9 -1.7
v -0.5 3.9 -1.8
v -0.5 4 -1.7
v -0.5 4 -1.8
v -0.4 0.2 -1.7
v -0.4 0.2 -1.8
v -0.4 0.5 -1.7
v -0.4 0.5 -1.8
v -0.4 1.9 -1.7
v -0.4 1.9 -1.8
v -0.4 2 -1.7
v -0.4 2 -1.8
v -0.4 2.3 -1.7
v -0.4 2.3 -1.8
v -0.4 2.5 -1.7
v -0.4 2.5 -1.8
v -0.4 2.9 -1.7
v -0.4 2.9 -1.8
v -0.4 3.1 -1.8
v -0.4 3.1 -1.9
v -0.4 3.2 -1.8
v -0.4 3.2 -1.9
v -0.4 3.4 -1.7
v -0.4 3.4 -1.8
v -0.3 0.5 -1.6
v -0.3 0.5 -1.7
v -0.3 0.6 -1.6
v -0.3 0.6 -1.7
v -0.3 0.6 -1.8
v -0.3 0.7 -1.7
v -0.3 0.7 -1.8
v -0.3 1.5 -1.6
v -0.3 1.5 -1.7
v -0.3 1.7 -1.7
v -0.3 1.7 -1.8
v -0.3 1.8 -1.6
v -0.3 1.8 -1.7
v -0.3 1.8 -1.8
v -0.2 0.2 -1.6
v -0.2 0.2 -1.7
v -0.2 0.4 -1.6
v -0.2 0.4 -1.7
v -0.2 0.7 -1.7
v -0.2 0.7 -1.8
v -0.2 1.1 -1.7
v -0.2 1.1 -1.8
v -0.0999999 1.6 -1.7
v -0.0999999 1.6 -1.8
v -0.0999999 1.6 -1.9
v -0.0999999 1.7 -1.7
v -0.0999999 1.7 -1.8
v -0.0999999 1.7 -1.9
v 2.38419e-07 0 -1.7
v 2.38419e-07 0 -1.8
v 2.38419e-07 0 -1.9
v 2.38419e-07 0 -2
v 2.38419e-07 1 -1.7
v 2.38419e-07 1 -1.8
v 2.38419e-07 1.1 -1.7
v 2.38419e-07 1.1 -1.8
v 2.38419e-07 1.2 -1.7
v 2.38419e-07 1.2 -1.8
v 2.38419e-07 1.3 -1.7
v 2.38419e-07 1.3 -1.8
v 2.38419e-07 1.6 -1.7
v 2.38419e-07 1.6 -1.8
v 2.38419e-07 1.6 -1.9
v 2.38419e-07 1.7 -1.8
v 2.38419e-07 1.7 -1.9
v 2.38419e-07 1.8 -1.7
v 2.38419e-07 1.8 -1.8
v 2.38419e-07 2.5 -1.7
v 2.38419e-07 2.5 -1.8
v 2.38419e-07 2.6 -1.7
v 2.38419e-07 2.6 -1.8
v 2.38419e-07 3.5 -1.7
v 2.38419e-07 3.5 -1.8
v 2.38419e-07 3.6 -1.7
v 2.38419e-07 3.6 -1.8
v 2.38419e-07 4 -1.7
v 2.38419e-07 4 -1.8
v 2.38419e-07 4 -1.9
v 2.38419e-07 4 -2
v -1.2 2.9 -1.5
v -1.2 3 -1.5
v -1.1 1.2 -1.5
v -1.1 1.3 -1.5
v -1.1 2.9 -1.5
v -1.1 3 -1.5
v -1 0.9 -1.5
v -1 1 -1.5
v -1 1.2 -1.5
v -1 1.3 -1.5
v -0.9 0.9 -1.5
v -0.9 1 -1.5
v -1.8 0.3 -1.6
v -1.8 0.7 -1.6
v -1.7 0.3 -1.6
v -1.7 0.6 -1.6
v -1.7 0.7 -1.6
v -1.7 0.8 -1.6
v -1.6 0.6 -1.6
v -1.6 0.8 -1.6
v -1.5 2.1 -1.6
v -1.5 2.5 -1.6
v -1.4 2.1 -1.6
v -1.4 2.4 -1.6
v -1.4 2.6 -1.6
v -1.4 2.7 -1.6
v -1.3 2.4 -1.6
v -1.3 2.5 -1.6
v -1.3 2.6 -1.6
v -1.3 2.7 -1.6
v -1.3 2.9 -1.6
v -1.2 1.4 -1.6
v -1.2 1.6 -1.6
v -1.2 2.9 -1.6
v -1.2 3 -1.6
v -1.2 3.2 -1.6
v -1.2 3.8 -1.6
v -1.2 4 -1.6
v -1.1 1 -1.6
v -1.1 1.2 -1.6
v -1.1 1.5 -1.6
v -1.1 1.6 -1.6
v -1.1 2.4 -1.6
v -1.1 2.5 -1.6
v -1.1 2.6 -1.6
v -1.1 2.7 -1.6
v -1.1 2.9 -1.6
v -1.1 3 -1.6
v -1.1 3.2 -1.6
v -1.1 3.4 -1.6
v -1.1 3.5 -1.6
v -1.1 3.8 -1.6
v -1.1 3.9 -1.6
v -1.1 4 -1.6
v -1 0.3 -1.6
v -1 0.9 -1.6
v -1 1 -1.6
v -1 1.1 -1.6
v -1 1.2 -1.6
v -1 1.4 -1.6
v -1 1.5 -1.6
v -1 2.2 -1.6
v -1 2.4 -1.6
v -1 2.5 -1.6
v -1 2.6 -1.6
v -1 2.7 -1.6
v -1 3.2 -1.6
v -1 3.4 -1.6
v -1 3.5 -1.6
v -1 3.9 -1.6
v -0.9 0.3 -1.6
v -0.9 0.9 -1.6
v -0.9 1 -1.6
v -0.9 1.1 -1.6
v -0.9 2.2 -1.6
v -0.9 2.4 -1.6
v -0.4 0.5 -1.6
v -0.4 0.6 -1.6
v -0.4 1.5 -1.6
v -0.4 1.8 -1.6
v -0.3 0.2 -1.6
v -0.3 0.4 -1.6
v -0.3 0.5 -1.6
v -0.3 0.6 -1.6
v -0.3 1.5 -1.6
v -0.3 1.8 -1.6
v -0.2 0.2 -1.6
v -0.2 0.4 -1.6
v -2 0 -1.7
v -2 0.5 -1.7
v -2 0.6 -1.7
v -2 1.3 -1.7
v -2 1.4 -1.7
v -2 1.9 -1.7
v -2 2 -1.7
v -2 2.5 -1.7
v -2 2.6 -1.7
v -2 3.4 -1.7
v -2 3.5 -1.7
v -2 4 -1.7
v -1.8 0.3 -1.7
v -1.8 0.5 -1.7
v -1.8 0.6 -1.7
v -1.8 0.7 -1.7
v -1.8 1.8 -1.7
v -1.8 1.9 -1.7
v -1.8 2 -1.7
v -1.7 0.3 -1.7
v -1.7 0.5 -1.7
v -1.7 0.7 -1.7
v -1.7 0.8 -1.7
v -1.7 1.3 -1.7
v -1.7 1.9 -1.7
v -1.7 2.5 -1.7
v -1.6 0 -1.7
v -1.6 0.2 -1.7
v -1.6 0.4 -1.7
v -1.6 0.5 -1.7
v -1.6 0.8 -1.7
v -1.6 0.9 -1.7
v -1.6 1.3 -1.7
v -1.6 1.5 -1.7
v -1.6 1.8 -1.7
v -1.6 2.5 -1.7
v -1.6 3.6 -1.7
v -1.6 3.8 -1.7
v -1.5 0 -1.7
v -1.5 0.1 -1.7
v -1.5 0.2 -1.7
v -1.5 0.4 -1.7
v -1.5 0.5 -1.7
v -1.5 0.9 -1.7
v -1.5 1.4 -1.7
v -1.5 1.5 -1.7
v -1.5 1.6 -1.7
v -1.5 1.8 -1.7
v -1.5 2.1 -1.7
v -1.5 2.5 -1.7
v -1.5 2.6 -1.7
v -1.5 3.4 -1.7
v -1.5 3.5 -1.7
v -1.5 3.6 -1.7
v -1.5 3.8 -1.7
v -1.5 4 -1.7
v -1.4 0.1 -1.7
v -1.4 0.5 -1.7
v -1.4 1.4 -1.7
v -1.4 1.6 -1.7
v -1.4 2.1 -1.7
v -1.4 2.4 -1.7
v -1.4 2.5 -1.7
v -1.4 2.6 -1.7
v -1.4 2.7 -1.7
v -1.4 3.4 -1.7
v -1.4 3.5 -1.7
v -1.4 3.6 -1.7
v -1.4 3.8 -1.7
v -1.4 4 -1.7
v -1.3 2.4 -1.7
v -1.3 2.5 -1.7
v -1.3 2.6 -1.7
v -1.3 2.7 -1.7
v -1.3 2.9 -1.7
v -1.2 1.4 -1.7
v -1.2 1.6 -1.7
v -1.2 2.9 -1.7
v -1.2 3.2 -1.7
v -1.2 3.8 -1.7
v -1.2 4 -1.7
v -1.1 1 -1.7
v -1.1 1.3 -1.7
v -1.1 1.4 -1.7
v -1.1 1.5 -1.7
v -1.1 1.6 -1.7
v -1.1 2.4 -1.7
v -1.1 2.5 -1.7
v -1.1 2.6 -1.7
v -1.1 2.7 -1.7
v -1.1 3.2 -1.7
v -1.1 3.4 -1.7
v -1.1 3.5 -1.7
v -1.1 3.8 -1.7
v -1.1 3.9 -1.7
v -1.1 4 -1.7
v -1 0.3 -1.7
v -1 1 -1.7
v -1 1.1 -1.7
v -1 1.2 -1.7
v -1 1.3 -1.7
v -1 1.4 -1.7
v -1 1.5 -1.7
v -1 2.2 -1.7
v -1 2.4 -1.7
v -1 2.5 -1.7
v -1 2.6 -1.7
v -1 2.7 -1.7
v -1 3.2 -1.7
v -1 3.4 -1.7
v -1 3.5 -1.7
v -1 3.6 -1.7
v -1 3.9 -1.7
v -0.9 0 -1.7
v -0.9 0.2 -1.7
v -0.9 0.3 -1.7
v -0.9 0.9 -1.7
v -0.9 1 -1.7
v -0.9 1.1 -1.7
v -0.9 2.2 -1.7
v -0.9 2.4 -1.7
v -0.8 0 -1.7
v -0.8 0.1 -1.7
v -0.8 0.2 -1.7
v -0.8 0.9 -1.7
v -0.8 1 -1.7
v -0.8 1.2 -1.7
v -0.7 0.1 -1.7
v -0.7 0.9 -1.7
v -0.7 1 -1.7
v -0.7 1.2 -1.7
v -0.7 1.3 -1.7
v -0.7 1.5 -1.7
v -0.7 3.6 -1.7
v -0.7 3.7 -1.7
v -0.6 1.3 -1.7
v -0.6 1.4 -1.7
v -0.6 1.5 -1.7
v -0.6 1.9 -1.7
v -0.6 3.7 -1.7
v -0.6 3.9 -1.7
v -0.5 0 -1.7
v -0.5 0.2 -1.7
v -0.5 1.4 -1.7
v -0.5 1.6 -1.7
v -0.5 2 -1.7
v -0.5 2.3 -1.7
v -0.5 2.6 -1.7
v -0.5 2.9 -1.7
v -0.5 3.4 -1.7
v -0.5 3.5 -1.7
v -0.5 3.6 -1.7
v -0.5 3.8 -1.7
v -0.5 3.9 -1.7
v -0.5 4 -1.7
v -0.4 0 -1.7
v -0.4 0.1 -1.7
v -0.4 0.2 -1.7
v -0.4 0.5 -1.7
v -0.4 0.6 -1.7
v -0.4 1.5 -1.7
v -0.4 1.6 -1.7
v -0.4 1.8 -1.7
v -0.4 1.9 -1.7
v -0.4 2 -1.7
v -0.4 2.1 -1.7
v -0.4 2.2 -1.7
v -0.4 2.3 -1.7
v -0.4 2.5 -1.7
v -0.4 2.6 -1.7
v -0.4 2.8 -1.7
v -0.4 2.9 -1.7
v -0.4 3.4 -1.7
v -0.4 3.5 -1.7
v -0.4 3.8 -1.7
v -0.4 3.9 -1.7
v -0.3 0.1 -1.7
v -0.3 0.2 -1.7
v -0.3 0.4 -1.7
v -0.3 0.5 -1.7
v -0.3 0.6 -1.7
v -0.3 0.7 -1.7
v -0.3 1.5 -1.7
v -0.3 1.7 -1.7
v -0.3 1.8 -1.7
v -0.3 1.9 -1.7
v -0.3 2.1 -1.7
v -0.3 2.2 -1.7
v -0.3 2.5 -1.7
v -0.3 2.8 -1.7
v -0.3 3.4 -1.7
v -0.3 3.9 -1.7
v -0.3 4 -1.7
v -0.2 0.2 -1.7
v -0.2 0.4 -1.7
v -0.2 0.6 -1.7
v -0.2 0.7 -1.7
v -0.2 1.1 -1.7
v -0.0999999 0.6 -1.7
v -0.0999999 1 -1.7
v -0.0999999 1.6 -1.7
v -0.0999999 1.7 -1.7
v 2.38419e-07 0 -1.7
v 2.38419e-07 1 -1.7
v 2.38419e-07 1.1 -1.7
v 2.38419e-07 1.2 -1.7
v 2.38419e-07 1.3 -1.7
v 2.38419e-07 1.6 -1.7
v 2.38419e-07 1.8 -1.7
v 2.38419e-07 2.5 -1.7
v 2.38419e-07 2.6 -1.7
v 2.38419e-07 3.5 -1.7
v 2.38419e-07 3.6 -1.7
v 2.38419e-07 4 -1.7
v -2 0.5 -1.8
v -2 0.6 -1.8
v -2 1.3 -1.8
v -2 1.4 -1.8
v -2 1.9 -1.8
v -2 2 -1.8
v -2 2.5 -1.8
v -2 2.6 -1.8
v -2 3.4 -1.8
v -2 3.5 -1.8
v -1.8 0.5 -1.8
v -1.8 0.6 -1.8
v -1.8 1.8 -1.8
v -1.8 1.9 -1.8
v -1.8 2 -1.8
v -1.7 0.5 -1.8
v -1.7 0.6 -1.8
v -1.7 1.3 -1.8
v -1.7 1.8 -1.8
v -1.7 1.9 -1.8
v -1.7 2.1 -1.8
v -1.7 2.3 -1.8
v -1.7 2.4 -1.8
v -1.7 2.5 -1.8
v -1.6 0 -1.8
v -1.6 0.2 -1.8
v -1.6 0.4 -1.8
v -1.6 0.5 -1.8
v -1.6 0.6 -1.8
v -1.6 0.8 -1.8
v -1.6 0.9 -1.8
v -1.6 1.3 -1.8
v -1.6 1.5 -1.8
v -1.6 1.8 -1.8
v -1.6 2.1 -1.8
v -1.6 2.3 -1.8
v -1.6 2.4 -1.8
v -1.6 2.5 -1.8
v -1.6 3.6 -1.8
v -1.6 3.8 -1.8
v -1.5 0 -1.8
v -1.5 0.1 -1.8
v -1.5 0.2 -1.8
v -1.5 0.4 -1.8
v -1.5 0.5 -1.8
v -1.5 0.9 -1.8
v -1.5 1.4 -1.8
v -1.5 1.5 -1.8
v -1.5 1.6 -1.8
v -1.5 1.8 -1.8
v -1.5 2.6 -1.8
v -1.5 3.4 -1.8
v -1.5 3.5 -1.8
v -1.5 3.6 -1.8
v -1.5 3.8 -1.8
v -1.5 4 -1.8
v -1.4 0.1 -1.8
v -1.4 0.5 -1.8
v -1.4 1.4 -1.8
v -1.4 1.6 -1.8
v -1.4 2.5 -1.8
v -1.4 2.6 -1.8
v -1.4 3.4 -1.8
v -1.4 3.5 -1.8
v -1.4 3.6 -1.8
v -1.4 3.8 -1.8
v -1.4 4 -1.8
v -1.3 2.5 -1.8
v -1.3 2.6 -1.8
v -1.1 1.3 -1.8
v -1.1 1.4 -1.8
v -1.1 2.5 -1.8
v -1.1 2.6 -1.8
v -1.1 3.4 -1.8
v -1.1 3.5 -1.8
v -1 1.2 -1.8
v -1 1.3 -1.8
v -1 2.5 -1.8
v -1 2.6 -1.8
v -1 3.5 -1.8
v -1 3.6 -1.8
v -0.9 0 -1.8
v -0.9 0.2 -1.8
v -0.8 0 -1.8
v -0.8 0.1 -1.8
v -0.8 0.2 -1.8
v -0.8 0.9 -1.8
v -0.8 1 -1.8
v -0.8 1.2 -1.8
v -0.7 0.1 -1.8
v -0.7 0.9 -1.8
v -0.7 1 -1.8
v -0.7 1.2 -1.8
v -0.7 1.3 -1.8
v -0.7 1.4 -1.8
v -0.7 3.6 -1.8
v -0.7 3.7 -1.8
v -0.6 1.3 -1.8
v -0.6 1.4 -1.8
v -0.6 1.5 -1.8
v -0.6 1.9 -1.8
v -0.6 3.7 -1.8
v -0.6 3.9 -1.8
v -0.5 0 -1.8
v -0.5 0.2 -1.8
v -0.5 1.4 -1.8
v -0.5 1.6 -1.8
v -0.5 2 -1.8
v -0.5 2.3 -1.8
v -0.5 2.6 -1.8
v -0.5 2.9 -1.8
v -0.5 3.4 -1.8
v -0.5 3.5 -1.8
v -0.5 3.6 -1.8
v -0.5 3.8 -1.8
v -0.5 3.9 -1.8
v -0.5 4 -1.8
v -0.4 0 -1.8
v -0.4 0.1 -1.8
v -0.4 0.2 -1.8
v -0.4 0.5 -1.8
v -0.4 1.6 -1.8
v -0.4 1.7 -1.8
v -0.4 1.9 -1.8
v -0.4 2 -1.8
v -0.4 2.1 -1.8
v -0.4 2.2 -1.8
v -0.4 2.3 -1.8
v -0.4 2.5 -1.8
v -0.4 2.6 -1.8
v -0.4 2.8 -1.8
v -0.4 2.9 -1.8
v -0.4 3.1 -1.8
v -0.4 3.2 -1.8
v -0.4 3.4 -1.8
v -0.4 3.5 -1.8
v -0.4 3.8 -1.8
v -0.4 3.9 -1.8
v -0.3 0.1 -1.8
v -0.3 0.4 -1.8
v -0.3 0.5 -1.8
v -0.3 0.6 -1.8
v -0.3 0.7 -1.8
v -0.3 1.7 -1.8
v -0.3 1.8 -1.8
v -0.3 1.9 -1.8
v -0.3 2.1 -1.8
v -0.3 2.2 -1.8
v -0.3 2.5 -1.8
v -0.3 2.8 -1.8
v -0.3 3.1 -1.8
v -0.3 3.2 -1.8
v -0.3 3.4 -1.8
v -0.3 3.5 -1.8
v -0.3 3.6 -1.8
v -0.3 3.9 -1.8
v -0.3 4 -1.8
v -0.2 0.6 -1.8
v -0.2 0.7 -1.8
v -0.2 1.1 -1.8
v -0.0999999 0.6 -1.8
v -0.0999999 1 -1.8
v -0.0999999 1.7 -1.8
v 2.38419e-07 1 -1.8
v 2.38419e-07 1.1 -1.8
v 2.38419e-07 1.2 -1.8
v 2.38419e-07 1.3 -1.8
v 2.38419e-07 1.7 -1.8
v 2.38419e-07 1.8 -1.8
v 2.38419e-07 2.5 -1.8
v 2.38419e-07 2.6 -1.8
v 2.38419e-07 3.5 -1.8
v 2.38419e-07 3.6 -1.8
v -1.7 1.8 -1.9
v -1.7 2.1 -1.9
v -1.7 2.3 -1.9
v -1.7 2.4 -1.9
v -1.6 1.8 -1.9
v -1.6 2.1 -1.9
v -1.6 2.3 -1.9
v -1.6 2.4 -1.9
v -0.7 1.4 -1.9
v -0.7 1.5 -1.9
v -0.6 1.4 -1.9
v -0.6 1.5 -1.9
v -0.5 3.5 -1.9
v -0.5 3.6 -1.9
v -0.4 3.1 -1.9
v -0.4 3.2 -1.9
v -0.3 3.1 -1.9
v -0.3 3.2 -1.9
v -0.3 3.5 -1.9
v -0.3 3.6 -1.9
v -0.0999999 1.6 -1.9
v -0.0999999 1.7 -1.9
v 2.38419e-07 1.6 -1.9
v 2.38419e-07 1.7 -1.9
v -2 0 -2
v -2 4 -2
v 2.38419e-07 0 -2
v 2.38419e-07 4 -2
v -2 0 -1.7
v -1.6 0 -1.7
v -1.5 0 -1.7
v -0.9 0 -1.7
v -0.8 0 -1.7
v -0.5 0 -1.7
v -0.4 0 -1.7
v 2.38419e-07 0 -1.7
v -2 0 -1.8
v -1.6 0 -1.8
v -1.5 0 -1.8
v -0.9 0 -1.8
v -0.8 0 -1.8
v -0.5 0 -1.8
v -0.4 0 -1.8
v 2.38419e-07 0 -1.8
v -2 0 -1.9
v 2.38419e-07 0 -1.9
v -2 0 -2
v 2.38419e-07 0 -2
v -0.3 0.2 -1.6
v -0.2 0.2 -1.6
v -1.6 0.2 -1.7
v -1.5 0.2 -1.7
v -0.9 0.2 -1.7
v -0.8 0.2 -1.7
v -0.5 0.2 -1.7
v -0.4 0.2 -1.7
v -0.3 0.2 -1.7
v -0.2 0.2 -1.7
v -1.6 0.2 -1.8
v -1.5 0.2 -1.8
v -0.9 0.2 -1.8
v -0.8 0.2 -1.8
v -0.5 0.2 -1.8
v -0.4 0.2 -1.8
v -1.8 0.3 -1.6
v -1.7 0.3 -1.6
v -1 0.3 -1.6
v -0.9 0.3 -1.6
v -1.8 0.3 -1.7
v -1.7 0.3 -1.7
v -1 0.3 -1.7
v -0.9 0.3 -1.7
v -0.4 0.5 -1.6
v -0.3 0.5 -1.6
v -1.5 0.5 -1.7
v -1.4 0.5 -1.7
v -0.4 0.5 -1.7
v -0.3 0.5 -1.7
v -1.5 0.5 -1.8
v -1.4 0.5 -1.8
v -0.4 0.5 -1.8
v -0.3 0.5 -1.8
v -1.7 0.6 -1.6
v -1.6 0.6 -1.6
v -2 0.6 -1.7
v -1.8 0.6 -1.7
v -1.7 0.6 -1.7
v -1.6 0.6 -1.7
v -2 0.6 -1.8
v -1.8 0.6 -1.8
v -1.7 0.6 -1.8
v -1.6 0.6 -1.8
v -0.3 0.7 -1.7
v -0.2 0.7 -1.7
v -0.3 0.7 -1.8
v -0.2 0.7 -1.8
v -1 0.9 -1.5
v -0.9 0.9 -1.5
v -1 0.9 -1.6
v -0.9 0.9 -1.6
v -1.6 0.9 -1.7
v -1.5 0.9 -1.7
v -0.8 0.9 -1.7
v -0.7 0.9 -1.7
v -1.6 0.9 -1.8
v -1.5 0.9 -1.8
v -0.8 0.9 -1.8
v -0.7 0.9 -1.8
v -1.1 1 -1.6
v -1 1 -1.6
v -1.1 1 -1.7
v -1 1 -1.7
v -0.2 1.1 -1.7
v 2.38419e-07 1.1 -1.7
v -0.2 1.1 -1.8
v 2.38419e-07 1.1 -1.8
v -1.1 1.2 -1.5
v -1 1.2 -1.5
v -1.1 1.2 -1.6
v -1 1.2 -1.6
v -1 1.3 -1.7
v -0.7 1.3 -1.7
v -0.6 1.3 -1.7
v 2.38419e-07 1.3 -1.7
v -1 1.3 -1.8
v -0.7 1.3 -1.8
v -0.6 1.3 -1.8
v 2.38419e-07 1.3 -1.8
v -1.2 1.4 -1.6
v -1 1.4 -1.6
v -2 1.4 -1.7
v -1.5 1.4 -1.7
v -1.4 1.4 -1.7
v -1.2 1.4 -1.7
v -1.1 1.4 -1.7
v -1 1.4 -1.7
v -2 1.4 -1.8
v -1.5 1.4 -1.8
v -1.4 1.4 -1.8
v -1.1 1.4 -1.8
v -0.4 1.5 -1.6
v -0.3 1.5 -1.6
v -0.7 1.5 -1.7
v -0.6 1.5 -1.7
v -0.4 1.5 -1.7
v -0.3 1.5 -1.7
v -0.7 1.5 -1.8
v -0.6 1.5 -1.8
v -0.7 1.5 -1.9
v -0.6 1.5 -1.9
v -1.5 1.6 -1.7
v -1.4 1.6 -1.7
v -1.5 1.6 -1.8
v -1.4 1.6 -1.8
v -0.0999999 1.7 -1.8
v 2.38419e-07 1.7 -1.8
v -0.0999999 1.7 -1.9
v 2.38419e-07 1.7 -1.9
v -1.6 1.8 -1.7
v -1.5 1.8 -1.7
v -0.3 1.8 -1.7
v 2.38419e-07 1.8 -1.7
v -1.6 1.8 -1.8
v -1.5 1.8 -1.8
v -0.3 1.8 -1.8
v 2.38419e-07 1.8 -1.8
v -1.8 1.9 -1.7
v -1.7 1.9 -1.7
v -0.6 1.9 -1.7
v -0.4 1.9 -1.7
v -1.8 1.9 -1.8
v -1.7 1.9 -1.8
v -0.6 1.9 -1.8
v -0.4 1.9 -1.8
v -2 2 -1.7
v -1.8 2 -1.7
v -2 2 -1.8
v -1.8 2 -1.8
v -1.5 2.1 -1.6
v -1.4 2.1 -1.6
v -1.5 2.1 -1.7
v -1.4 2.1 -1.7
v -0.4 2.1 -1.7
v -0.3 2.1 -1.7
v -1.7 2.1 -1.8
v -1.6 2.1 -1.8
v -0.4 2.1 -1.8
v -0.3 2.1 -1.8
v -1.7 2.1 -1.9
v -1.6 2.1 -1.9
v -1 2.2 -1.6
v -0.9 2.2 -1.6
v -1 2.2 -1.7
v -0.9 2.2 -1.7
v -0.5 2.3 -1.7
v -0.4 2.3 -1.7
v -0.5 2.3 -1.8
v -0.4 2.3 -1.8
v -1.4 2.4 -1.6
v -1.3 2.4 -1.6
v -1.1 2.4 -1.6
v -1 2.4 -1.6
v -1.4 2.4 -1.7
v -1.3 2.4 -1.7
v -1.1 2.4 -1.7
v -1 2.4 -1.7
v -1.7 2.4 -1.8
v -1.6 2.4 -1.8
v -1.7 2.4 -1.9
v -1.6 2.4 -1.9
v -1.4 2.6 -1.6
v -1.3 2.6 -1.6
v -1.1 2.6 -1.6
v -1 2.6 -1.6
v -2 2.6 -1.7
v -1.5 2.6 -1.7
v -1.4 2.6 -1.7
v -1.3 2.6 -1.7
v -1.1 2.6 -1.7
v -1 2.6 -1.7
v -0.5 2.6 -1.7
v -0.4 2.6 -1.7
v 2.38419e-07 2.6 -1.7
v -2 2.6 -1.8
v -1.5 2.6 -1.8
v -1.3 2.6 -1.8
v -1.1 2.6 -1.8
v -1 2.6 -1.8
v -0.5 2.6 -1.8
v -0.4 2.6 -1.8
v 2.38419e-07 2.6 -1.8
v -1.3 2.7 -1.6
v -1.1 2.7 -1.6
v -1.3 2.7 -1.7
v -1.1 2.7 -1.7
v -1.2 2.9 -1.5
v -1.1 2.9 -1.5
v -1.2 2.9 -1.6
v -1.1 2.9 -1.6
v -0.5 2.9 -1.7
v -0.4 2.9 -1.7
v -0.5 2.9 -1.8
v -0.4 2.9 -1.8
v -1.1 3.2 -1.6
v -1 3.2 -1.6
v -1.1 3.2 -1.7
v -1 3.2 -1.7
v -0.4 3.2 -1.8
v -0.3 3.2 -1.8
v -0.4 3.2 -1.9
v -0.3 3.2 -1.9
v -0.4 3.4 -1.7
v -0.3 3.4 -1.7
v -0.4 3.4 -1.8
v -0.3 3.4 -1.8
v -1.1 3.5 -1.6
v -1 3.5 -1.6
v -2 3.5 -1.7
v -1.5 3.5 -1.7
v -1.4 3.5 -1.7
v -1.1 3.5 -1.7
v -1 3.5 -1.7
v -2 3.5 -1.8
v -1.5 3.5 -1.8
v -1.4 3.5 -1.8
v -1.1 3.5 -1.8
v -1.5 3.6 -1.7
v -1.4 3.6 -1.7
v -1 3.6 -1.7
v -0.7 3.6 -1.7
v -0.5 3.6 -1.7
v 2.38419e-07 3.6 -1.7
v -1.5 3.6 -1.8
v -1.4 3.6 -1.8
v -1 3.6 -1.8
v -0.7 3.6 -1.8
v -0.5 3.6 -1.8
v -0.3 3.6 -1.8
v 2.38419e-07 3.6 -1.8
v -0.5 3.6 -1.9
v -0.3 3.6 -1.9
v -0.7 3.7 -1.7
v -0.6 3.7 -1.7
v -0.7 3.7 -1.8
v -0.6 3.7 -1.8
v -1.2 3.8 -1.6
v -1.1 3.8 -1.6
v -1.6 3.8 -1.7
v -1.5 3.8 -1.7
v -1.2 3.8 -1.7
v -1.1 3.8 -1.7
v -1.6 3.8 -1.8
v -1.5 3.8 -1.8
v -0.6 3.9 -1.7
v -0.5 3.9 -1.7
v -0.6 3.9 -1.8
v -0.5 3.9 -1.8
v -1.5 0.1 -1.7
v -1.4 0.1 -1.7
v -0.8 0.1 -1.7
v -0.7 0.1 -1.7
v -0.4 0.1 -1.7
v -0.3 0.1 -1.7
v -1.5 0.1 -1.8
v -1.4 0.1 -1.8
v -0.8 0.1 -1.8
v -0.7 0.1 -1.8
v -0.4 0.1 -1.8
v -0.3 0.1 -1.8
v -0.3 0.4 -1.6
v -0.2 0.4 -1.6
v -1.6 0.4 -1.7
v -1.5 0.4 -1.7
v -0.3 0.4 -1.7
v -0.2 0.4 -1.7
v -1.6 0.4 -1.8
v -1.5 0.4 -1.8
v -2 0.5 -1.7
v -1.8 0.5 -1.7
v -1.7 0.5 -1.7
v -1.6 0.5 -1.7
v -2 0.5 -1.8
v -1.8 0.5 -1.8
v -1.7 0.5 -1.8
v -1.6 0.5 -1.8
v -0.4 0.6 -1.6
v -0.3 0.6 -1.6
v -0.4 0.6 -1.7
v -0.3 0.6 -1.7
v -0.2 0.6 -1.7
v -0.0999999 0.6 -1.7
v -0.3 0.6 -1.8
v -0.2 0.6 -1.8
v -0.0999999 0.6 -1.8
v -1.8 0.7 -1.6
v -1.7 0.7 -1.6
v -1.8 0.7 -1.7
v -1.7 0.7 -1.7
v -1.7 0.8 -1.6
v -1.6 0.8 -1.6
v -1.7 0.8 -1.7
v -1.6 0.8 -1.7
v -1 1 -1.5
v -0.9 1 -1.5
v -1 1 -1.6
v -0.9 1 -1.6
v -0.8 1 -1.7
v -0.7 1 -1.7
v -0.0999999 1 -1.7
v 2.38419e-07 1 -1.7
v -0.8 1 -1.8
v -0.7 1 -1.8
v -0.0999999 1 -1.8
v 2.38419e-07 1 -1.8
v -1 1.1 -1.6
v -0.9 1.1 -1.6
v -1 1.1 -1.7
v -0.9 1.1 -1.7
v -1 1.2 -1.7
v -0.8 1.2 -1.7
v -0.7 1.2 -1.7
v 2.38419e-07 1.2 -1.7
v -1 1.2 -1.8
v -0.8 1.2 -1.8
v -0.7 1.2 -1.8
v 2.38419e-07 1.2 -1.8
v -1.1 1.3 -1.5
v -1 1.3 -1.5
v -2 1.3 -1.7
v -1.7 1.3 -1.7
v -1.6 1.3 -1.7
v -1.1 1.3 -1.7
v -1 1.3 -1.7
v -2 1.3 -1.8
v -1.7 1.3 -1.8
v -1.6 1.3 -1.8
v -1.1 1.3 -1.8
v -0.6 1.4 -1.7
v -0.5 1.4 -1.7
v -0.7 1.4 -1.8
v -0.6 1.4 -1.8
v -0.5 1.4 -1.8
v -0.7 1.4 -1.9
v -0.6 1.4 -1.9
v -1.1 1.5 -1.6
v -1 1.5 -1.6
v -1.6 1.5 -1.7
v -1.5 1.5 -1.7
v -1.1 1.5 -1.7
v -1 1.5 -1.7
v -1.6 1.5 -1.8
v -1.5 1.5 -1.8
v -1.2 1.6 -1.6
v -1.1 1.6 -1.6
v -1.2 1.6 -1.7
v -1.1 1.6 -1.7
v -0.5 1.6 -1.7
v -0.4 1.6 -1.7
v -0.0999999 1.6 -1.7
v 2.38419e-07 1.6 -1.7
v -0.5 1.6 -1.8
v -0.4 1.6 -1.8
v -0.0999999 1.6 -1.8
v 2.38419e-07 1.6 -1.8
v -0.0999999 1.6 -1.9
v 2.38419e-07 1.6 -1.9
v -0.3 1.7 -1.7
v -0.0999999 1.7 -1.7
v -0.3 1.7 -1.8
v -0.0999999 1.7 -1.8
v -0.4 1.8 -1.6
v -0.3 1.8 -1.6
v -1.8 1.8 -1.7
v -1.6 1.8 -1.7
v -0.4 1.8 -1.7
v -0.3 1.8 -1.7
v -1.8 1.8 -1.8
v -1.7 1.8 -1.8
v -1.6 1.8 -1.8
v -1.7 1.8 -1.9
v -1.6 1.8 -1.9
v -2 1.9 -1.7
v -1.8 1.9 -1.7
v -0.4 1.9 -1.7
v -0.3 1.9 -1.7
v -2 1.9 -1.8
v -1.8 1.9 -1.8
v -0.4 1.9 -1.8
v -0.3 1.9 -1.8
v -0.5 2 -1.7
v -0.4 2 -1.7
v -0.5 2 -1.8
v -0.4 2 -1.8
v -0.4 2.2 -1.7
v -0.3 2.2 -1.7
v -0.4 2.2 -1.8
v -0.3 2.2 -1.8
v -1.7 2.3 -1.8
v -1.6 2.3 -1.8
v -1.7 2.3 -1.9
v -1.6 2.3 -1.9
v -1 2.4 -1.6
v -0.9 2.4 -1.6
v -1 2.4 -1.7
v -0.9 2.4 -1.7
v -1.5 2.5 -1.6
v -1.3 2.5 -1.6
v -1.1 2.5 -1.6
v -1 2.5 -1.6
v -2 2.5 -1.7
v -1.7 2.5 -1.7
v -1.6 2.5 -1.7
v -1.5 2.5 -1.7
v -1.4 2.5 -1.7
v -1.3 2.5 -1.7
v -1.1 2.5 -1.7
v -1 2.5 -1.7
v -0.4 2.5 -1.7
v -0.3 2.5 -1.7
v 2.38419e-07 2.5 -1.7
v -2 2.5 -1.8
v -1.7 2.5 -1.8
v -1.6 2.5 -1.8
v -1.4 2.5 -1.8
v -1.3 2.5 -1.8
v -1.1 2.5 -1.8
v -1 2.5 -1.8
v -0.4 2.5 -1.8
v -0.3 2.5 -1.8
v 2.38419e-07 2.5 -1.8
v -1.4 2.7 -1.6
v -1.3 2.7 -1.6
v -1.1 2.7 -1.6
v -1 2.7 -1.6
v -1.4 2.7 -1.7
v -1.3 2.7 -1.7
v -1.1 2.7 -1.7
v -1 2.7 -1.7
v -0.4 2.8 -1.7
v -0.3 2.8 -1.7
v -0.4 2.8 -1.8
v -0.3 2.8 -1.8
v -1.3 2.9 -1.6
v -1.2 2.9 -1.6
v -1.3 2.9 -1.7
v -1.2 2.9 -1.7
v -1.2 3 -1.5
v -1.1 3 -1.5
v -1.2 3 -1.6
v -1.1 3 -1.6
v -0.4 3.1 -1.8
v -0.3 3.1 -1.8
v -0.4 3.1 -1.9
v -0.3 3.1 -1.9
v -1.2 3.2 -1.6
v -1.1 3.2 -1.6
v -1.2 3.2 -1.7
v -1.1 3.2 -1.7
v -1.1 3.4 -1.6
v -1 3.4 -1.6
v -2 3.4 -1.7
v -1.5 3.4 -1.7
v -1.4 3.4 -1.7
v -1.1 3.4 -1.7
v -1 3.4 -1.7
v -0.5 3.4 -1.7
v -0.4 3.4 -1.7
v -2 3.4 -1.8
v -1.5 3.4 -1.8
v -1.4 3.4 -1.8
v -1.1 3.4 -1.8
v -0.5 3.4 -1.8
v -0.4 3.4 -1.8
v -1 3.5 -1.7
v -0.5 3.5 -1.7
v -0.4 3.5 -1.7
v 2.38419e-07 3.5 -1.7
v -1 3.5 -1.8
v -0.5 3.5 -1.8
v -0.4 3.5 -1.8
v -0.3 3.5 -1.8
v 2.38419e-07 3.5 -1.8
v -0.5 3.5 -1.9
v -0.3 3.5 -1.9
v -1.6 3.6 -1.7
v -1.5 3.6 -1.7
v -1.6 3.6 -1.8
v -1.5 3.6 -1.8
v -1.5 3.8 -1.7
v -1.4 3.8 -1.7
v -0.5 3.8 -1.7
v -0.4 3.8 -1.7
v -1.5 3.8 -1.8
v -1.4 3.8 -1.8
v -0.5 3.8 -1.8
v -0.4 3.8 -1.8
v -1.1 3.9 -1.6
v -1 3.9 -1.6
v -1.1 3.9 -1.7
v -1 3.9 -1.7
v -0.4 3.9 -1.7
v -0.3 3.9 -1.7
v -0.4 3.9 -1.8
v -0.3 3.9 -1.8
v -1.2 4 -1.6
v -1.1 4 -1.6
v -2 4 -1.7
v -1.5 4 -1.7
v -1.4 4 -1.7
v -1.2 4 -1.7
v -1.1 4 -1.7
v -0.5 4 -1.7
v -0.3 4 -1.7
v 2.38419e-07 4 -1.7
v -2 4 -1.8
v -1.5 4 -1.8
v -1.4 4 -1.8
v -0.5 4 -1.8
v -0.3 4 -1.8
v 2.38419e-07 4 -1.8
v -2 4 -1.9
v 2.38419e-07 4 -1.9
v -2 4 -2
v 2.38419e-07 4 -2

# faces
f 5/4/1 2/4/1 1/4/1
f 6/3/1 3/3/1 2/3/1
f 6/4/1 2/4/1 5/4/1
f 8/3/1 3/3/1 6/3/1
f 9/4/1 8/4/1 7/4/1
f 10/3/1 3/3/1 8/3/1
f 10/4/1 8/4/1 9/4/1
f 12/3/1 3/3/1 10/3/1
f 13/4/1 12/4/1 11/4/1
f 14/3/1 3/3/1 12/3/1
f 14/4/1 12/4/1 13/4/1
f 16/3/1 3/3/1 14/3/1
f 17/4/1 16/4/1 15/4/1
f 18/3/1 3/3/1 16/3/1
f 18/4/1 16/4/1 17/4/1
f 20/3/1 3/3/1 18/3/1
f 21/4/1 20/4/1 19/4/1
f 22/3/1 3/3/1 20/3/1
f 22/4/1 20/4/1 21/4/1
f 24/3/1 3/3/1 22/3/1
f 25/4/1 24/4/1 23/4/1
f 26/3/1 3/3/1 24/3/1
f 26/4/1 24/4/1 25/4/1
f 27/2/1 4/2/1 3/2/1
f 27/3/1 3/3/1 26/3/1
f 28/2/1 4/2/1 27/2/1
f 31/1/1 30/1/1 29/1/1
f 33/1/1 31/1/1 29/1/1
f 33/1/1 32/1/1 31/1/1
f 34/1/1 32/1/1 33/1/1
f 35/1/1 33/1/1 29/1/1
f 36/1/1 33/1/1 35/1/1
f 39/4/1 38/4/1 37/4/1
f 40/4/1 38/4/1 39/4/1
f 43/1/1 42/1/1 41/1/1
f 44/1/1 42/1/1 43/1/1
f 48/4/1 46/4/1 45/4/1
f 48/3/1 47/3/1 46/3/1
f 49/3/1 47/3/1 48/3/1
f 50/4/1 48/4/1 45/4/1
f 52/4/1 50/4/1 45/4/1
f 52/3/1 51/3/1 50/3/1
f 53/3/1 51/3/1 52/3/1
f 54/4/1 52/4/1 45/4/1
f 55/4/1 52/4/1 54/4/1
f 58/4/1 57/4/1 56/4/1
f 59/4/1 57/4/1 58/4/1
f 62/4/1 61/4/1 60/4/1
f 63/4/1 61/4/1 62/4/1
f 66/4/1 65/4/1 64/4/1
f 67/4/1 65/4/1 66/4/1
f 70/1/1 69/1/1 68/1/1
f 71/1/1 69/1/1 70/1/1
f 74/4/1 73/4/1 72/4/1
f 75/4/1 73/4/1 74/4/1
f 78/4/1 77/4/1 76/4/1
f 79/4/1 77/4/1 78/4/1
f 82/4/1 81/4/1 80/4/1
f 83/4/1 81/4/1 82/4/1
f 87/1/1 85/1/1 84/1/1
f 88/1/1 85/1/1 87/1/1
f 89/1/1 87/1/1 86/1/1
f 90/4/1 88/4/1 87/4/1
f 90/1/1 87/1/1 89/1/1
f 91/4/1 88/4/1 90/4/1
f 92/4/1 88/4/1 91/4/1
f 95/4/1 94/4/1 93/4/1
f 96/4/1 94/4/1 95/4/1
f 99/4/1 98/4/1 97/4/1
f 100/4/1 98/4/1 99/4/1
f 103/1/1 102/1/1 101/1/1
f 104/1/1 102/1/1 103/1/1
f 107/1/1 106/1/1 105/1/1
f 108/1/1 106/1/1 107/1/1
f 112/1/1 110/1/1 109/1/1
f 112/1/1 111/1/1 110/1/1
f 113/1/1 111/1/1 112/1/1
f 114/1/1 111/1/1 113/1/1
f 115/1/1 111/1/1 114/1/1
f 118/1/1 117/1/1 116/1/1
f 119/1/1 117/1/1 118/1/1
f 123/1/1 121/1/1 120/1/1
f 124/1/1 123/1/1 122/1/1
f 125/1/1 121/1/1 123/1/1
f 125/1/1 123/1/1 124/1/1
f 127/1/1 126/1/1 125/1/1
f 128/1/1 126/1/1 127/1/1
f 131/1/1 130/1/1 129/1/1
f 132/1/1 130/1/1 131/1/1
f 135/1/1 133/1/1 132/1/1
f 136/1/1 133/1/1 135/1/1
f 137/1/1 135/1/1 134/1/1
f 138/1/1 135/1/1 137/1/1
f 141/1/1 140/1/1 139/1/1
f 142/1/1 140/1/1 141/1/1
f 145/1/1 143/1/1 142/1/1
f 146/1/1 143/1/1 145/1/1
f 147/1/1 145/1/1 144/1/1
f 148/1/1 145/1/1 147/1/1
f 152/1/1 150/1/1 149/1/1
f 153/1/1 152/1/1 151/1/1
f 154/1/1 150/1/1 152/1/1
f 154/1/1 152/1/1 153/1/1
f 155/1/1 150/1/1 154/1/1
f 158/1/1 157/1/1 156/1/1
f 159/1/1 157/1/1 158/1/1
f 162/4/1 161/4/1 160/4/1
f 163/4/1 161/4/1 162/4/1
f 166/4/1 165/4/1 164/4/1
f 167/4/1 165/4/1 166/4/1
f 170/4/1 169/4/1 168/4/1
f 171/4/1 169/4/1 170/4/1
f 174/4/1 173/4/1 172/4/1
f 175/4/1 173/4/1 174/4/1
f 177/3/1 176/3/1 175/3/1
f 178/3/1 176/3/1 177/3/1
f 181/4/1 180/4/1 179/4/1
f 182/4/1 180/4/1 181/4/1
f 185/4/1 184/4/1 183/4/1
f 186/4/1 184/4/1 185/4/1
f 189/4/1 188/4/1 187/4/1
f 190/4/1 188/4/1 189/4/1
f 193/1/1 192/1/1 191/1/1
f 194/1/1 192/1/1 193/1/1
f 197/1/1 196/1/1 195/1/1
f 199/1/1 197/1/1 195/1/1
f 199/4/1 198/4/1 197/4/1
f 200/4/1 198/4/1 199/4/1
f 201/1/1 199/1/1 195/1/1
f 201/1/1 200/1/1 199/1/1
f 202/1/1 200/1/1 201/1/1
f 203/1/1 200/1/1 202/1/1
f 204/1/1 200/1/1 203/1/1
f 207/4/1 206/4/1 205/4/1
f 208/4/1 206/4/1 207/4/1
f 211/4/1 210/4/1 209/4/1
f 212/4/1 210/4/1 211/4/1
f 215/4/1 214/4/1 213/4/1
f 216/4/1 214/4/1 215/4/1
f 219/4/1 218/4/1 217/4/1
f 220/4/1 218/4/1 219/4/1
f 224/4/1 222/4/1 221/4/1
f 225/1/1 224/1/1 223/1/1
f 226/4/1 222/4/1 224/4/1
f 226/1/1 224/1/1 225/1/1
f 227/4/1 222/4/1 226/4/1
f 228/1/1 227/1/1 226/1/1
f 229/1/1 227/1/1 228/1/1
f 232/4/1 231/4/1 230/4/1
f 233/4/1 231/4/1 232/4/1
f 236/4/1 235/4/1 234/4/1
f 237/4/1 235/4/1 236/4/1
f 240/4/1 239/4/1 238/4/1
f 242/4/1 240/4/1 238/4/1
f 242/3/1 241/3/1 240/3/1
f 243/3/1 241/3/1 242/3/1
f 244/4/1 242/4/1 238/4/1
f 245/4/1 242/4/1 244/4/1
f 248/3/1 247/3/1 246/3/1
f 249/3/1 247/3/1 248/3/1
f 252/4/1 251/4/1 250/4/1
f 253/4/1 251/4/1 252/4/1
f 256/4/1 255/4/1 254/4/1
f 257/4/1 255/4/1 256/4/1
f 258/4/2 259/4/2 260/4/2
f 260/4/2 259/4/2 261/4/2
f 262/1/2 263/1/2 264/1/2
f 262/1/2 264/1/2 266/1/2
f 264/1/2 265/1/2 266/1/2
f 266/1/2 265/1/2 267/1/2
f 267/1/2 265/1/2 268/1/2
f 269/3/2 270/3/2 272/3/2
f 272/3/2 270/3/2 273/3/2
f 271/4/2 272/4/2 273/4/2
f 273/3/2 270/3/2 274/3/2
f 271/4/2 273/4/2 275/4/2
f 271/4/2 275/4/2 277/4/2
f 275/3/2 276/3/2 277/3/2
f 277/3/2 276/3/2 278/3/2
f 271/4/2 277/4/2 279/4/2
f 279/4/2 277/4/2 280/4/2
f 281/4/2 282/4/2 283/4/2
f 283/4/2 282/4/2 284/4/2
f 285/4/2 286/4/2 287/4/2
f 287/4/2 286/4/2 288/4/2
f 289/1/2 290/1/2 292/1/2
f 290/4/2 291/4/2 293/4/2
f 292/1/2 290/1/2 293/1/2
f 293/4/2 291/4/2 294/4/2
f 293/1/2 294/1/2 295/1/2
f 295/1/2 294/1/2 296/1/2
f 297/4/2 298/4/2 299/4/2
f 299/4/2 298/4/2 300/4/2
f 301/4/2 302/4/2 303/4/2
f 303/4/2 302/4/2 304/4/2
f 305/4/2 306/4/2 307/4/2
f 307/4/2 306/4/2 308/4/2
f 309/4/2 310/4/2 311/4/2
f 311/4/2 310/4/2 312/4/2
f 313/4/2 314/4/2 315/4/2
f 315/4/2 314/4/2 316/4/2
f 317/4/2 318/4/2 319/4/2
f 319/4/2 318/4/2 320/4/2
f 321/4/2 322/4/2 323/4/2
f 323/4/2 322/4/2 324/4/2
f 325/1/2 326/1/2 327/1/2
f 327/1/2 326/1/2 328/1/2
f 329/1/2 330/1/2 331/1/2
f 331/1/2 330/1/2 332/1/2
f 332/1/2 333/1/2 335/1/2
f 335/1/2 333/1/2 336/1/2
f 334/1/2 335/1/2 337/1/2
f 337/1/2 335/1/2 338/1/2
f 339/1/2 340/1/2 341/1/2
f 341/1/2 340/1/2 342/1/2
f 343/1/2 344/1/2 346/1/2
f 345/1/2 346/1/2 347/1/2
f 346/1/2 344/1/2 348/1/2
f 347/1/2 346/1/2 348/1/2
f 348/1/2 344/1/2 349/1/2
f 349/1/2 344/1/2 350/1/2
f 351/1/2 352/1/2 353/1/2
f 353/1/2 352/1/2 354/1/2
f 355/1/2 356/1/2 358/1/2
f 358/1/2 356/1/2 359/1/2
f 357/1/2 358/1/2 361/1/2
f 358/1/2 359/1/2 361/1/2
f 359/4/2 360/4/2 362/4/2
f 361/1/2 359/1/2 362/1/2
f 362/4/2 360/4/2 363/4/2
f 364/1/2 365/1/2 366/1/2
f 366/1/2 365/1/2 367/1/2
f 368/1/2 369/1/2 370/1/2
f 370/1/2 369/1/2 371/1/2
f 371/1/2 372/1/2 374/1/2
f 374/1/2 372/1/2 375/1/2
f 373/1/2 374/1/2 376/1/2
f 376/1/2 374/1/2 377/1/2
f 378/1/2 379/1/2 380/1/2
f 380/1/2 379/1/2 381/1/2
f 382/1/2 383/1/2 385/1/2
f 383/4/2 384/4/2 385/4/2
f 385/4/2 384/4/2 386/4/2
f 382/1/2 385/1/2 387/1/2
f 387/1/2 385/1/2 388/1/2
f 389/4/2 390/4/2 391/4/2
f 391/4/2 390/4/2 392/4/2
f 393/1/2 394/1/2 396/1/2
f 396/1/2 394/1/2 397/1/2
f 395/1/2 396/1/2 398/1/2
f 396/1/2 397/1/2 398/1/2
f 398/1/2 397/1/2 399/1/2
f 399/1/2 397/1/2 400/1/2
f 399/1/2 400/1/2 401/1/2
f 401/1/2 400/1/2 402/1/2
f 403/1/2 404/1/2 405/1/2
f 405/1/2 404/1/2 406/1/2
f 407/4/2 408/4/2 409/4/2
f 409/4/2 408/4/2 410/4/2
f 411/4/2 412/4/2 413/4/2
f 413/4/2 412/4/2 414/4/2
f 415/4/2 416/4/2 417/4/2
f 415/4/2 417/4/2 419/4/2
f 417/3/2 418/3/2 420/3/2
f 419/4/2 417/4/2 420/4/2
f 420/3/2 418/3/2 421/3/2
f 422/4/2 423/4/2 424/4/2
f 424/4/2 423/4/2 425/4/2
f 426/4/2 427/4/2 428/4/2
f 428/4/2 427/4/2 429/4/2
f 430/4/2 431/4/2 432/4/2
f 432/4/2 431/4/2 433/4/2
f 434/4/2 435/4/2 436/4/2
f 436/4/2 435/4/2 437/4/2
f 438/4/2 439/4/2 440/4/2
f 440/4/2 439/4/2 441/4/2
f 442/4/2 443/4/2 444/4/2
f 444/4/2 443/4/2 445/4/2
f 446/4/2 447/4/2 448/4/2
f 448/4/2 447/4/2 449/4/2
f 449/3/2 450/3/2 451/3/2
f 451/3/2 450/3/2 452/3/2
f 453/4/2 454/4/2 455/4/2
f 455/4/2 454/4/2 456/4/2
f 457/4/2 458/4/2 459/4/2
f 459/4/2 458/4/2 460/4/2
f 461/4/2 462/4/2 463/4/2
f 463/4/2 462/4/2 464/4/2
f 465/4/2 466/4/2 467/4/2
f 467/4/2 466/4/2 468/4/2
f 469/4/2 470/4/2 471/4/2
f 469/4/2 471/4/2 473/4/2
f 471/3/2 472/3/2 473/3/2
f 473/3/2 472/3/2 474/3/2
f 469/4/2 473/4/2 475/4/2
f 475/4/2 473/4/2 476/4/2
f 477/1/2 478/1/2 479/1/2
f 479/1/2 478/1/2 480/1/2
f 480/4/2 481/4/2 482/4/2
f 482/4/2 481/4/2 483/4/2
f 484/1/2 485/1/2 486/1/2
f 484/1/2 486/1/2 488/1/2
f 486/1/2 487/1/2 488/1/2
f 488/1/2 487/1/2 489/1/2
f 489/1/2 487/1/2 490/1/2
f 491/1/2 492/1/2 493/1/2
f 493/1/2 492/1/2 494/1/2
f 495/4/2 496/4/2 497/4/2
f 497/4/2 496/4/2 498/4/2
f 499/4/2 500/4/2 502/4/2
f 500/3/2 501/3/2 503/3/2
f 502/4/2 500/4/2 503/4/2
f 503/3/2 501/3/2 504/3/2
f 505/4/2 506/4/2 509/4/2
f 506/3/2 507/3/2 510/3/2
f 509/4/2 506/4/2 510/4/2
f 510/3/2 507/3/2 512/3/2
f 511/4/2 512/4/2 513/4/2
f 512/3/2 507/3/2 514/3/2
f 513/4/2 512/4/2 514/4/2
f 514/3/2 507/3/2 516/3/2
f 515/4/2 516/4/2 517/4/2
f 516/3/2 507/3/2 518/3/2
f 517/4/2 516/4/2 518/4/2
f 507/2/2 508/2/2 519/2/2
f 518/3/2 507/3/2 519/3/2
f 519/2/2 508/2/2 521/2/2
f 520/3/2 521/3/2 523/3/2
f 522/4/2 523/4/2 524/4/2
f 523/3/2 521/3/2 525/3/2
f 524/4/2 523/4/2 525/4/2
f 525/3/2 521/3/2 527/3/2
f 526/4/2 527/4/2 528/4/2
f 527/3/2 521/3/2 529/3/2
f 528/4/2 527/4/2 529/4/2
f 529/3/2 521/3/2 531/3/2
f 530/4/2 531/4/2 532/4/2
f 531/3/2 521/3/2 533/3/2
f 532/4/2 531/4/2 533/4/2
f 521/2/2 508/2/2 534/2/2
f 533/3/2 521/3/2 534/3/2
f 534/2/2 508/2/2 535/2/2
f 540/1/3 537/1/3 536/1/3
f 541/1/3 537/1/3 540/1/3
f 544/1/3 539/1/3 538/1/3
f 545/1/3 539/1/3 544/1/3
f 546/1/3 543/1/3 542/1/3
f 547/1/3 543/1/3 546/1/3
f 550/1/3 549/1/3 548/1/3
f 551/1/3 549/1/3 550/1/3
f 552/1/3 549/1/3 551/1/3
f 554/1/3 553/1/3 552/1/3
f 554/1/3 552/1/3 551/1/3
f 555/1/3 553/1/3 554/1/3
f 558/1/3 557/1/3 556/1/3
f 559/1/3 557/1/3 558/1/3
f 562/1/3 557/1/3 559/1/3
f 563/1/3 557/1/3 562/1/3
f 564/1/3 561/1/3 560/1/3
f 565/1/3 561/1/3 564/1/3
f 569/1/3 566/1/3 565/1/3
f 576/1/3 568/1/3 567/1/3
f 577/1/3 568/1/3 576/1/3
f 581/1/3 569/1/3 565/1/3
f 582/1/3 569/1/3 581/1/3
f 583/1/3 571/1/3 570/1/3
f 584/1/3 571/1/3 583/1/3
f 587/1/3 573/1/3 572/1/3
f 588/1/3 573/1/3 587/1/3
f 589/1/3 573/1/3 588/1/3
f 592/1/3 575/1/3 574/1/3
f 593/1/3 575/1/3 592/1/3
f 594/1/3 575/1/3 593/1/3
f 595/1/3 576/1/3 567/1/3
f 596/1/3 576/1/3 595/1/3
f 598/1/3 579/1/3 578/1/3
f 599/1/3 579/1/3 598/1/3
f 600/1/3 581/1/3 580/1/3
f 601/1/3 581/1/3 600/1/3
f 602/1/3 585/1/3 584/1/3
f 603/1/3 585/1/3 602/1/3
f 604/1/3 588/1/3 587/1/3
f 604/1/3 587/1/3 586/1/3
f 605/1/3 588/1/3 604/1/3
f 606/1/3 591/1/3 590/1/3
f 607/1/3 591/1/3 606/1/3
f 608/1/3 593/1/3 592/1/3
f 609/1/3 593/1/3 608/1/3
f 610/1/3 598/1/3 597/1/3
f 611/1/3 598/1/3 610/1/3
f 618/1/3 613/1/3 612/1/3
f 619/1/3 613/1/3 618/1/3
f 620/1/3 615/1/3 614/1/3
f 621/1/3 615/1/3 620/1/3
f 622/1/3 617/1/3 616/1/3
f 623/1/3 617/1/3 622/1/3
f 636/4/3 625/4/3 624/4/3
f 637/4/3 625/4/3 636/4/3
f 638/4/3 627/4/3 626/4/3
f 639/4/3 627/4/3 638/4/3
f 640/4/3 629/4/3 628/4/3
f 641/4/3 629/4/3 640/4/3
f 642/4/3 631/4/3 630/4/3
f 643/4/3 636/4/3 624/4/3
f 645/4/3 627/4/3 639/4/3
f 646/4/3 627/4/3 645/4/3
f 647/4/3 627/4/3 646/4/3
f 648/4/3 642/4/3 641/4/3
f 649/4/3 631/4/3 642/4/3
f 649/4/3 642/4/3 648/4/3
f 650/4/3 644/4/3 643/4/3
f 650/4/3 643/4/3 624/4/3
f 651/4/3 644/4/3 650/4/3
f 652/4/3 644/4/3 651/4/3
f 653/4/3 644/4/3 652/4/3
f 654/1/3 647/1/3 646/1/3
f 655/1/3 647/1/3 654/1/3
f 656/1/3 647/1/3 655/1/3
f 657/4/3 640/4/3 628/4/3
f 658/4/3 640/4/3 657/4/3
f 660/4/3 635/4/3 634/4/3
f 661/4/3 635/4/3 660/4/3
f 664/4/3 652/4/3 651/4/3
f 665/4/3 652/4/3 664/4/3
f 667/4/3 656/4/3 655/4/3
f 668/4/3 657/4/3 628/4/3
f 669/4/3 657/4/3 668/4/3
f 671/4/3 659/4/3 658/4/3
f 672/4/3 659/4/3 671/4/3
f 673/4/3 659/4/3 672/4/3
f 674/4/3 633/4/3 632/4/3
f 675/4/3 633/4/3 674/4/3
f 676/4/3 660/4/3 634/4/3
f 677/4/3 660/4/3 676/4/3
f 678/4/3 635/4/3 661/4/3
f 679/4/3 635/4/3 678/4/3
f 680/4/3 663/4/3 662/4/3
f 681/4/3 667/4/3 666/4/3
f 683/4/3 672/4/3 671/4/3
f 683/4/3 671/4/3 670/4/3
f 684/4/3 672/4/3 683/4/3
f 691/4/3 678/4/3 677/4/3
f 692/4/3 678/4/3 691/4/3
f 694/4/3 683/4/3 682/4/3
f 694/4/3 684/4/3 683/4/3
f 694/4/3 685/4/3 684/4/3
f 695/1/3 687/1/3 686/1/3
f 696/1/3 687/1/3 695/1/3
f 697/4/3 689/4/3 688/4/3
f 698/4/3 689/4/3 697/4/3
f 699/4/3 694/4/3 682/4/3
f 699/4/3 695/4/3 694/4/3
f 700/4/3 695/4/3 699/4/3
f 701/4/3 689/4/3 698/4/3
f 702/4/3 689/4/3 701/4/3
f 703/4/3 693/4/3 692/4/3
f 703/4/3 692/4/3 691/4/3
f 703/4/3 691/4/3 690/4/3
f 704/4/3 693/4/3 703/4/3
f 705/4/3 681/4/3 680/4/3
f 705/4/3 656/4/3 667/4/3
f 705/4/3 667/4/3 681/4/3
f 706/4/3 656/4/3 705/4/3
f 709/4/3 695/4/3 700/4/3
f 710/4/3 695/4/3 709/4/3
f 711/4/3 695/4/3 710/4/3
f 712/4/3 697/4/3 696/4/3
f 713/4/3 697/4/3 712/4/3
f 714/4/3 689/4/3 702/4/3
f 715/4/3 689/4/3 714/4/3
f 716/4/3 703/4/3 690/4/3
f 717/4/3 703/4/3 716/4/3
f 720/4/3 705/4/3 680/4/3
f 721/4/3 705/4/3 720/4/3
f 724/1/3 707/1/3 706/1/3
f 725/1/3 707/1/3 724/1/3
f 726/4/3 709/4/3 708/4/3
f 726/4/3 710/4/3 709/4/3
f 727/4/3 710/4/3 726/4/3
f 728/4/3 710/4/3 727/4/3
f 729/1/3 712/1/3 711/1/3
f 730/1/3 712/1/3 729/1/3
f 731/4/3 714/4/3 713/4/3
f 732/4/3 714/4/3 731/4/3
f 733/1/3 716/1/3 715/1/3
f 734/1/3 716/1/3 733/1/3
f 736/4/3 719/4/3 718/4/3
f 737/4/3 680/4/3 662/4/3
f 737/4/3 720/4/3 680/4/3
f 738/4/3 720/4/3 737/4/3
f 739/4/3 720/4/3 738/4/3
f 742/4/3 723/4/3 722/4/3
f 743/4/3 725/4/3 724/4/3
f 743/4/3 726/4/3 725/4/3
f 743/4/3 727/4/3 726/4/3
f 744/4/3 729/4/3 728/4/3
f 747/4/3 739/4/3 738/4/3
f 747/4/3 740/4/3 739/4/3
f 748/1/3 741/1/3 740/1/3
f 748/4/3 740/4/3 747/4/3
f 749/4/3 742/4/3 741/4/3
f 749/1/3 741/1/3 748/1/3
f 750/4/3 723/4/3 742/4/3
f 750/4/3 742/4/3 749/4/3
f 751/4/3 746/4/3 745/4/3
f 752/1/3 749/1/3 748/1/3
f 753/1/3 749/1/3 752/1/3
f 755/4/3 743/4/3 724/4/3
f 755/4/3 744/4/3 743/4/3
f 756/4/3 744/4/3 755/4/3
f 757/4/3 736/4/3 735/4/3
f 758/4/3 736/4/3 757/4/3
f 761/4/3 744/4/3 756/4/3
f 762/4/3 744/4/3 761/4/3
f 763/4/3 736/4/3 758/4/3
f 764/4/3 719/4/3 736/4/3
f 764/4/3 736/4/3 763/4/3
f 765/4/3 754/4/3 753/4/3
f 765/4/3 751/4/3 745/4/3
f 765/4/3 753/4/3 752/4/3
f 765/4/3 752/4/3 751/4/3
f 766/4/3 754/4/3 765/4/3
f 767/4/3 760/4/3 759/4/3
f 769/4/3 744/4/3 762/4/3
f 770/4/3 744/4/3 769/4/3
f 771/4/3 734/4/3 733/4/3
f 771/4/3 732/4/3 731/4/3
f 771/4/3 733/4/3 732/4/3
f 771/4/3 731/4/3 730/4/3
f 772/4/3 734/4/3 771/4/3
f 773/4/3 734/4/3 772/4/3
f 774/4/3 734/4/3 773/4/3
f 777/4/3 719/4/3 764/4/3
f 778/4/3 719/4/3 777/4/3
f 781/4/3 754/4/3 766/4/3
f 782/4/3 754/4/3 781/4/3
f 783/4/3 754/4/3 782/4/3
f 784/4/3 768/4/3 767/4/3
f 785/4/3 768/4/3 784/4/3
f 787/4/3 769/4/3 762/4/3
f 788/4/3 769/4/3 787/4/3
f 791/4/3 744/4/3 770/4/3
f 792/4/3 729/4/3 744/4/3
f 792/4/3 744/4/3 791/4/3
f 795/4/3 773/4/3 772/4/3
f 796/4/3 773/4/3 795/4/3
f 798/4/3 776/4/3 775/4/3
f 800/4/3 780/4/3 779/4/3
f 804/4/3 754/4/3 783/4/3
f 805/4/3 754/4/3 804/4/3
f 806/4/3 784/4/3 767/4/3
f 808/1/3 787/1/3 786/1/3
f 809/1/3 787/1/3 808/1/3
f 810/4/3 790/4/3 789/4/3
f 811/4/3 790/4/3 810/4/3
f 813/4/3 794/4/3 793/4/3
f 814/4/3 797/4/3 796/4/3
f 815/4/3 799/4/3 798/4/3
f 817/4/3 801/4/3 800/4/3
f 818/1/3 803/1/3 802/1/3
f 818/1/3 804/1/3 803/1/3
f 819/1/3 804/1/3 818/1/3
f 820/4/3 754/4/3 805/4/3
f 821/4/3 754/4/3 820/4/3
f 822/4/3 819/4/3 818/4/3
f 822/4/3 818/4/3 817/4/3
f 824/4/3 807/4/3 806/4/3
f 825/4/3 807/4/3 824/4/3
f 826/4/3 817/4/3 800/4/3
f 826/4/3 823/4/3 822/4/3
f 826/4/3 800/4/3 779/4/3
f 826/4/3 822/4/3 817/4/3
f 827/4/3 823/4/3 826/4/3
f 828/4/3 754/4/3 821/4/3
f 829/4/3 754/4/3 828/4/3
f 830/4/3 767/4/3 759/4/3
f 830/4/3 824/4/3 806/4/3
f 830/4/3 806/4/3 767/4/3
f 831/4/3 824/4/3 830/4/3
f 832/4/3 809/4/3 808/4/3
f 832/4/3 812/4/3 811/4/3
f 832/4/3 810/4/3 809/4/3
f 832/4/3 811/4/3 810/4/3
f 833/4/3 812/4/3 832/4/3
f 834/4/3 814/4/3 813/4/3
f 834/4/3 813/4/3 793/4/3
f 835/4/3 797/4/3 814/4/3
f 835/4/3 814/4/3 834/4/3
f 836/4/3 798/4/3 775/4/3
f 836/4/3 816/4/3 815/4/3
f 836/4/3 815/4/3 798/4/3
f 837/4/3 816/4/3 836/4/3
f 848/3/3 839/3/3 838/3/3
f 849/3/3 839/3/3 848/3/3
f 851/3/3 843/3/3 842/3/3
f 852/3/3 843/3/3 851/3/3
f 855/3/3 841/3/3 840/3/3
f 856/3/3 851/3/3 850/3/3
f 857/3/3 851/3/3 856/3/3
f 861/3/3 845/3/3 844/3/3
f 865/3/3 854/3/3 853/3/3
f 866/3/3 854/3/3 865/3/3
f 869/3/3 841/3/3 855/3/3
f 872/3/3 859/3/3 858/3/3
f 873/3/3 859/3/3 872/3/3
f 874/3/3 861/3/3 860/3/3
f 875/3/3 845/3/3 861/3/3
f 875/3/3 861/3/3 874/3/3
f 878/3/3 863/3/3 862/3/3
f 879/3/3 863/3/3 878/3/3
f 880/3/3 863/3/3 879/3/3
f 881/3/3 868/3/3 867/3/3
f 881/3/3 865/3/3 864/3/3
f 881/3/3 866/3/3 865/3/3
f 881/3/3 867/3/3 866/3/3
f 882/3/3 868/3/3 881/3/3
f 883/3/3 868/3/3 882/3/3
f 884/3/3 841/3/3 869/3/3
f 885/3/3 871/3/3 870/3/3
f 886/3/3 871/3/3 885/3/3
f 887/3/3 871/3/3 886/3/3
f 888/3/3 845/3/3 875/3/3
f 889/3/3 847/3/3 846/3/3
f 890/3/3 847/3/3 889/3/3
f 891/3/3 877/3/3 876/3/3
f 892/3/3 877/3/3 891/3/3
f 894/3/3 880/3/3 879/3/3
f 894/3/3 881/3/3 880/3/3
f 894/3/3 882/3/3 881/3/3
f 895/3/3 882/3/3 894/3/3
f 896/3/3 884/3/3 869/3/3
f 896/3/3 886/3/3 885/3/3
f 896/3/3 885/3/3 884/3/3
f 897/3/3 886/3/3 896/3/3
f 898/3/3 888/3/3 875/3/3
f 898/3/3 890/3/3 889/3/3
f 898/3/3 891/3/3 890/3/3
f 898/3/3 889/3/3 888/3/3
f 899/3/3 891/3/3 898/3/3
f 900/3/3 891/3/3 899/3/3
f 901/3/3 891/3/3 900/3/3
f 902/3/3 891/3/3 901/3/3
f 903/3/3 893/3/3 892/3/3
f 904/3/3 893/3/3 903/3/3
f 907/3/3 896/3/3 869/3/3
f 908/3/3 896/3/3 907/3/3
f 909/3/3 906/3/3 905/3/3
f 910/3/3 906/3/3 909/3/3
f 911/3/3 901/3/3 900/3/3
f 912/3/3 901/3/3 911/3/3
f 921/3/3 920/3/3 919/3/3
f 922/3/3 920/3/3 921/3/3
f 923/3/3 920/3/3 922/3/3
f 926/3/3 914/3/3 913/3/3
f 927/3/3 924/3/3 923/3/3
f 927/3/3 923/3/3 922/3/3
f 928/3/3 924/3/3 927/3/3
f 929/3/3 926/3/3 925/3/3
f 930/3/3 914/3/3 926/3/3
f 930/3/3 926/3/3 929/3/3
f 931/3/3 914/3/3 930/3/3
f 933/3/3 918/3/3 917/3/3
f 935/3/3 932/3/3 931/3/3
f 935/3/3 931/3/3 930/3/3
f 936/3/3 932/3/3 935/3/3
f 939/3/3 934/3/3 933/3/3
f 943/3/3 938/3/3 937/3/3
f 943/3/3 937/3/3 936/3/3
f 944/3/3 938/3/3 943/3/3
f 947/3/3 916/3/3 915/3/3
f 950/3/3 933/3/3 917/3/3
f 950/3/3 940/3/3 939/3/3
f 950/3/3 939/3/3 933/3/3
f 951/3/3 940/3/3 950/3/3
f 952/3/3 940/3/3 951/3/3
f 953/3/3 940/3/3 952/3/3
f 955/3/3 942/3/3 941/3/3
f 956/3/3 942/3/3 955/3/3
f 957/3/3 942/3/3 956/3/3
f 959/3/3 938/3/3 944/3/3
f 960/3/3 938/3/3 959/3/3
f 961/3/3 938/3/3 960/3/3
f 962/3/3 946/3/3 945/3/3
f 963/3/3 946/3/3 962/3/3
f 964/3/3 946/3/3 963/3/3
f 965/3/3 946/3/3 964/3/3
f 966/3/3 948/3/3 947/3/3
f 966/3/3 947/3/3 915/3/3
f 967/3/3 948/3/3 966/3/3
f 968/3/3 948/3/3 967/3/3
f 969/3/3 948/3/3 968/3/3
f 972/3/3 950/3/3 949/3/3
f 973/3/3 950/3/3 972/3/3
f 974/3/3 954/3/3 953/3/3
f 974/3/3 953/3/3 952/3/3
f 975/3/3 954/3/3 974/3/3
f 976/3/3 958/3/3 957/3/3
f 976/3/3 957/3/3 956/3/3
f 977/3/3 958/3/3 976/3/3
f 978/3/3 958/3/3 977/3/3
f 983/3/3 962/3/3 961/3/3
f 983/3/3 963/3/3 962/3/3
f 984/3/3 963/3/3 983/3/3
f 985/3/3 965/3/3 964/3/3
f 985/3/3 967/3/3 966/3/3
f 985/3/3 966/3/3 965/3/3
f 986/3/3 967/3/3 985/3/3
f 987/3/3 969/3/3 968/3/3
f 987/3/3 970/3/3 969/3/3
f 988/3/3 970/3/3 987/3/3
f 989/3/3 972/3/3 971/3/3
f 990/3/3 972/3/3 989/3/3
f 993/3/3 954/3/3 975/3/3
f 994/3/3 954/3/3 993/3/3
f 995/3/3 980/3/3 979/3/3
f 996/3/3 980/3/3 995/3/3
f 998/3/3 996/3/3 995/3/3
f 998/3/3 997/3/3 996/3/3
f 999/3/3 997/3/3 998/3/3
f 1000/3/3 982/3/3 981/3/3
f 1001/3/3 997/3/3 999/3/3
f 1002/3/3 997/3/3 1001/3/3
f 1003/3/3 935/3/3 930/3/3
f 1004/3/3 935/3/3 1003/3/3
f 1005/3/3 982/3/3 1000/3/3
f 1006/3/3 982/3/3 1005/3/3
f 1007/3/3 967/3/3 986/3/3
f 1008/3/3 967/3/3 1007/3/3
f 1009/3/3 992/3/3 991/3/3
f 1010/3/3 992/3/3 1009/3/3
f 1015/2/3 1012/2/3 1011/2/3
f 1016/2/3 1012/2/3 1015/2/3
f 1017/2/3 1014/2/3 1013/2/3
f 1018/2/3 1014/2/3 1017/2/3
f 1021/2/3 1020/2/3 1019/2/3
f 1022/2/3 1020/2/3 1021/2/3
f 1027/2/3 1026/2/3 1025/2/3
f 1028/2/3 1026/2/3 1027/2/3
f 1029/2/3 1024/2/3 1023/2/3
f 1030/2/3 1024/2/3 1029/2/3
f 1033/2/3 1032/2/3 1031/2/3
f 1034/2/3 1032/2/3 1033/2/3
f 1035/2/4 1036/2/4 1037/2/4
f 1037/2/4 1036/2/4 1038/2/4
f 1047/4/5 1040/4/5 1039/4/5
f 1048/4/5 1040/4/5 1047/4/5
f 1049/4/5 1042/4/5 1041/4/5
f 1050/4/5 1042/4/5 1049/4/5
f 1051/4/5 1044/4/5 1043/4/5
f 1052/4/5 1044/4/5 1051/4/5
f 1053/4/5 1046/4/5 1045/4/5
f 1054/4/5 1046/4/5 1053/4/5
f 1055/3/5 1052/3/5 1051/3/5
f 1055/3/5 1048/3/5 1047/3/5
f 1055/3/5 1054/3/5 1053/3/5
f 1055/3/5 1053/3/5 1052/3/5
f 1055/3/5 1050/3/5 1049/3/5
f 1055/3/5 1051/3/5 1050/3/5
f 1055/3/5 1049/3/5 1048/3/5
f 1056/3/5 1054/3/5 1055/3/5
f 1057/2/5 1056/2/5 1055/2/5
f 1058/2/5 1056/2/5 1057/2/5
f 1067/1/5 1060/1/5 1059/1/5
f 1068/1/5 1060/1/5 1067/1/5
f 1069/4/5 1062/4/5 1061/4/5
f 1070/4/5 1062/4/5 1069/4/5
f 1071/4/5 1064/4/5 1063/4/5
f 1072/4/5 1064/4/5 1071/4/5
f 1073/4/5 1066/4/5 1065/4/5
f 1074/4/5 1066/4/5 1073/4/5
f 1079/1/5 1076/1/5 1075/1/5
f 1080/1/5 1076/1/5 1079/1/5
f 1081/1/5 1078/1/5 1077/1/5
f 1082/1/5 1078/1/5 1081/1/5
f 1087/1/5 1084/1/5 1083/1/5
f 1088/1/5 1084/1/5 1087/1/5
f 1089/4/5 1086/4/5 1085/4/5
f 1090/4/5 1086/4/5 1089/4/5
f 1091/4/5 1088/4/5 1087/4/5
f 1092/4/5 1088/4/5 1091/4/5
f 1097/1/5 1094/1/5 1093/1/5
f 1098/1/5 1094/1/5 1097/1/5
f 1099/4/5 1096/4/5 1095/4/5
f 1100/4/5 1096/4/5 1099/4/5
f 1101/4/5 1098/4/5 1097/4/5
f 1102/4/5 1098/4/5 1101/4/5
f 1105/4/5 1104/4/5 1103/4/5
f 1106/4/5 1104/4/5 1105/4/5
f 1109/1/5 1108/1/5 1107/1/5
f 1110/1/5 1108/1/5 1109/1/5
f 1115/4/5 1112/4/5 1111/4/5
f 1116/4/5 1112/4/5 1115/4/5
f 1117/1/5 1114/1/5 1113/1/5
f 1118/1/5 1114/1/5 1117/1/5
f 1121/1/5 1120/1/5 1119/1/5
f 1122/1/5 1120/1/5 1121/1/5
f 1125/4/5 1124/4/5 1123/4/5
f 1126/4/5 1124/4/5 1125/4/5
f 1129/1/5 1128/1/5 1127/1/5
f 1130/1/5 1128/1/5 1129/1/5
f 1135/4/5 1132/4/5 1131/4/5
f 1136/4/5 1132/4/5 1135/4/5
f 1137/4/5 1134/4/5 1133/4/5
f 1138/4/5 1134/4/5 1137/4/5
f 1144/1/5 1140/1/5 1139/1/5
f 1145/1/5 1140/1/5 1144/1/5
f 1146/1/5 1140/1/5 1145/1/5
f 1147/4/5 1142/4/5 1141/4/5
f 1148/4/5 1142/4/5 1147/4/5
f 1149/4/5 1144/4/5 1143/4/5
f 1149/4/5 1145/4/5 1144/4/5
f 1150/4/5 1145/4/5 1149/4/5
f 1155/1/5 1152/1/5 1151/1/5
f 1156/1/5 1152/1/5 1155/1/5
f 1157/4/5 1154/4/5 1153/4/5
f 1158/4/5 1154/4/5 1157/4/5
f 1159/3/5 1158/3/5 1157/3/5
f 1160/3/5 1158/3/5 1159/3/5
f 1163/4/5 1162/4/5 1161/4/5
f 1164/4/5 1162/4/5 1163/4/5
f 1167/3/5 1166/3/5 1165/3/5
f 1168/3/5 1166/3/5 1167/3/5
f 1173/4/5 1170/4/5 1169/4/5
f 1174/4/5 1170/4/5 1173/4/5
f 1175/4/5 1172/4/5 1171/4/5
f 1176/4/5 1172/4/5 1175/4/5
f 1181/4/5 1178/4/5 1177/4/5
f 1182/4/5 1178/4/5 1181/4/5
f 1183/4/5 1180/4/5 1179/4/5
f 1184/4/5 1180/4/5 1183/4/5
f 1187/4/5 1186/4/5 1185/4/5
f 1188/4/5 1186/4/5 1187/4/5
f 1191/1/5 1190/1/5 1189/1/5
f 1192/1/5 1190/1/5 1191/1/5
f 1197/4/5 1194/4/5 1193/4/5
f 1198/4/5 1194/4/5 1197/4/5
f 1199/3/5 1196/3/5 1195/3/5
f 1200/3/5 1196/3/5 1199/3/5
f 1203/1/5 1202/1/5 1201/1/5
f 1204/1/5 1202/1/5 1203/1/5
f 1207/4/5 1206/4/5 1205/4/5
f 1208/4/5 1206/4/5 1207/4/5
f 1213/1/5 1210/1/5 1209/1/5
f 1214/1/5 1210/1/5 1213/1/5
f 1215/1/5 1212/1/5 1211/1/5
f 1216/1/5 1212/1/5 1215/1/5
f 1219/3/5 1218/3/5 1217/3/5
f 1220/3/5 1218/3/5 1219/3/5
f 1227/1/5 1222/1/5 1221/1/5
f 1228/1/5 1222/1/5 1227/1/5
f 1229/1/5 1224/1/5 1223/1/5
f 1230/1/5 1224/1/5 1229/1/5
f 1234/4/5 1226/4/5 1225/4/5
f 1235/4/5 1226/4/5 1234/4/5
f 1236/4/5 1229/4/5 1228/4/5
f 1237/4/5 1229/4/5 1236/4/5
f 1238/4/5 1231/4/5 1230/4/5
f 1239/4/5 1231/4/5 1238/4/5
f 1240/4/5 1233/4/5 1232/4/5
f 1241/4/5 1233/4/5 1240/4/5
f 1244/1/5 1243/1/5 1242/1/5
f 1245/1/5 1243/1/5 1244/1/5
f 1248/1/5 1247/1/5 1246/1/5
f 1249/1/5 1247/1/5 1248/1/5
f 1252/4/5 1251/4/5 1250/4/5
f 1253/4/5 1251/4/5 1252/4/5
f 1256/1/5 1255/1/5 1254/1/5
f 1257/1/5 1255/1/5 1256/1/5
f 1260/3/5 1259/3/5 1258/3/5
f 1261/3/5 1259/3/5 1260/3/5
f 1264/4/5 1263/4/5 1262/4/5
f 1265/4/5 1263/4/5 1264/4/5
f 1271/1/5 1267/1/5 1266/1/5
f 1272/1/5 1267/1/5 1271/1/5
f 1273/4/5 1269/4/5 1268/4/5
f 1274/4/5 1269/4/5 1273/4/5
f 1275/4/5 1271/4/5 1270/4/5
f 1276/4/5 1271/4/5 1275/4/5
f 1283/4/5 1278/4/5 1277/4/5
f 1284/4/5 1278/4/5 1283/4/5
f 1285/4/5 1280/4/5 1279/4/5
f 1286/4/5 1280/4/5 1285/4/5
f 1287/4/5 1282/4/5 1281/4/5
f 1288/4/5 1282/4/5 1287/4/5
f 1289/4/5 1282/4/5 1288/4/5
f 1290/3/5 1288/3/5 1287/3/5
f 1291/3/5 1288/3/5 1290/3/5
f 1294/4/5 1293/4/5 1292/4/5
f 1295/4/5 1293/4/5 1294/4/5
f 1300/1/5 1297/1/5 1296/1/5
f 1301/1/5 1297/1/5 1300/1/5
f 1302/4/5 1299/4/5 1298/4/5
f 1303/4/5 1299/4/5 1302/4/5
f 1306/4/5 1305/4/5 1304/4/5
f 1307/4/5 1305/4/5 1306/4/5
f 1308/4/6 1309/4/6 1314/4/6
f 1314/4/6 1309/4/6 1315/4/6
f 1310/4/6 1311/4/6 1316/4/6
f 1316/4/6 1311/4/6 1317/4/6
f 1312/4/6 1313/4/6 1318/4/6
f 1318/4/6 1313/4/6 1319/4/6
f 1320/1/6 1321/1/6 1324/1/6
f 1324/1/6 1321/1/6 1325/1/6
f 1322/4/6 1323/4/6 1326/4/6
f 1326/4/6 1323/4/6 1327/4/6
f 1328/4/6 1329/4/6 1332/4/6
f 1332/4/6 1329/4/6 1333/4/6
f 1330/4/6 1331/4/6 1334/4/6
f 1334/4/6 1331/4/6 1335/4/6
f 1336/1/6 1337/1/6 1338/1/6
f 1338/1/6 1337/1/6 1339/1/6
f 1339/1/6 1340/1/6 1342/1/6
f 1340/4/6 1341/4/6 1343/4/6
f 1342/1/6 1340/1/6 1343/1/6
f 1343/4/6 1341/4/6 1344/4/6
f 1345/1/6 1346/1/6 1347/1/6
f 1347/1/6 1346/1/6 1348/1/6
f 1349/1/6 1350/1/6 1351/1/6
f 1351/1/6 1350/1/6 1352/1/6
f 1353/1/6 1354/1/6 1355/1/6
f 1355/1/6 1354/1/6 1356/1/6
f 1357/1/6 1358/1/6 1361/1/6
f 1361/1/6 1358/1/6 1362/1/6
f 1359/4/6 1360/4/6 1363/4/6
f 1363/4/6 1360/4/6 1364/4/6
f 1365/1/6 1366/1/6 1367/1/6
f 1367/1/6 1366/1/6 1368/1/6
f 1369/4/6 1370/4/6 1373/4/6
f 1373/4/6 1370/4/6 1374/4/6
f 1371/4/6 1372/4/6 1375/4/6
f 1375/4/6 1372/4/6 1376/4/6
f 1377/1/6 1378/1/6 1382/1/6
f 1382/1/6 1378/1/6 1383/1/6
f 1379/4/6 1380/4/6 1384/4/6
f 1380/1/6 1381/1/6 1385/1/6
f 1384/4/6 1380/4/6 1385/4/6
f 1381/4/6 1382/4/6 1386/4/6
f 1385/1/6 1381/1/6 1386/1/6
f 1386/4/6 1382/4/6 1387/4/6
f 1388/4/6 1389/4/6 1391/4/6
f 1391/4/6 1389/4/6 1392/4/6
f 1390/3/6 1391/3/6 1393/3/6
f 1393/3/6 1391/3/6 1394/3/6
f 1395/1/6 1396/1/6 1399/1/6
f 1399/1/6 1396/1/6 1400/1/6
f 1397/4/6 1398/4/6 1401/4/6
f 1401/4/6 1398/4/6 1402/4/6
f 1403/1/6 1404/1/6 1405/1/6
f 1405/1/6 1404/1/6 1406/1/6
f 1407/4/6 1408/4/6 1411/4/6
f 1411/4/6 1408/4/6 1412/4/6
f 1409/4/6 1410/4/6 1413/4/6
f 1413/4/6 1410/4/6 1414/4/6
f 1413/3/6 1414/3/6 1415/3/6
f 1415/3/6 1414/3/6 1416/3/6
f 1417/4/6 1418/4/6 1419/4/6
f 1419/4/6 1418/4/6 1420/4/6
f 1421/1/6 1422/1/6 1425/1/6
f 1425/1/6 1422/1/6 1426/1/6
f 1423/4/6 1424/4/6 1427/4/6
f 1427/4/6 1424/4/6 1428/4/6
f 1428/4/6 1424/4/6 1429/4/6
f 1428/3/6 1429/3/6 1430/3/6
f 1430/3/6 1429/3/6 1431/3/6
f 1432/4/6 1433/4/6 1436/4/6
f 1436/4/6 1433/4/6 1437/4/6
f 1434/1/6 1435/1/6 1438/1/6
f 1438/1/6 1435/1/6 1439/1/6
f 1440/4/6 1441/4/6 1442/4/6
f 1442/4/6 1441/4/6 1443/4/6
f 1444/4/6 1445/4/6 1446/4/6
f 1446/4/6 1445/4/6 1447/4/6
f 1448/3/6 1449/3/6 1450/3/6
f 1450/3/6 1449/3/6 1451/3/6
f 1452/1/6 1453/1/6 1454/1/6
f 1454/1/6 1453/1/6 1455/1/6
f 1456/1/6 1457/1/6 1463/1/6
f 1463/1/6 1457/1/6 1464/1/6
f 1464/1/6 1457/1/6 1465/1/6
f 1458/1/6 1459/1/6 1466/1/6
f 1466/1/6 1459/1/6 1467/1/6
f 1460/4/6 1461/4/6 1471/4/6
f 1471/4/6 1461/4/6 1472/4/6
f 1462/4/6 1463/4/6 1473/4/6
f 1463/4/6 1464/4/6 1473/4/6
f 1473/4/6 1464/4/6 1474/4/6
f 1465/4/6 1466/4/6 1475/4/6
f 1475/4/6 1466/4/6 1476/4/6
f 1467/4/6 1468/4/6 1477/4/6
f 1477/4/6 1468/4/6 1478/4/6
f 1469/4/6 1470/4/6 1479/4/6
f 1479/4/6 1470/4/6 1480/4/6
f 1481/1/6 1482/1/6 1485/1/6
f 1485/1/6 1482/1/6 1486/1/6
f 1483/1/6 1484/1/6 1487/1/6
f 1487/1/6 1484/1/6 1488/1/6
f 1489/4/6 1490/4/6 1491/4/6
f 1491/4/6 1490/4/6 1492/4/6
f 1493/1/6 1494/1/6 1495/1/6
f 1495/1/6 1494/1/6 1496/1/6
f 1497/1/6 1498/1/6 1499/1/6
f 1499/1/6 1498/1/6 1500/1/6
f 1501/3/6 1502/3/6 1503/3/6
f 1503/3/6 1502/3/6 1504/3/6
f 1505/1/6 1506/1/6 1507/1/6
f 1507/1/6 1506/1/6 1508/1/6
f 1509/1/6 1510/1/6 1514/1/6
f 1514/1/6 1510/1/6 1515/1/6
f 1511/4/6 1512/4/6 1518/4/6
f 1518/4/6 1512/4/6 1519/4/6
f 1513/4/6 1514/4/6 1520/4/6
f 1520/4/6 1514/4/6 1521/4/6
f 1516/4/6 1517/4/6 1522/4/6
f 1522/4/6 1517/4/6 1523/4/6
f 1524/4/6 1525/4/6 1528/4/6
f 1528/4/6 1525/4/6 1529/4/6
f 1526/4/6 1527/4/6 1530/4/6
f 1530/4/6 1527/4/6 1531/4/6
f 1531/4/6 1527/4/6 1532/4/6
f 1529/3/6 1530/3/6 1533/3/6
f 1530/3/6 1531/3/6 1533/3/6
f 1533/3/6 1531/3/6 1534/3/6
f 1535/4/6 1536/4/6 1537/4/6
f 1537/4/6 1536/4/6 1538/4/6
f 1539/4/6 1540/4/6 1543/4/6
f 1543/4/6 1540/4/6 1544/4/6
f 1541/4/6 1542/4/6 1545/4/6
f 1545/4/6 1542/4/6 1546/4/6
f 1547/1/6 1548/1/6 1549/1/6
f 1549/1/6 1548/1/6 1550/1/6
f 1551/4/6 1552/4/6 1553/4/6
f 1553/4/6 1552/4/6 1554/4/6
f 1555/1/6 1556/1/6 1560/1/6
f 1560/1/6 1556/1/6 1561/1/6
f 1557/4/6 1558/4/6 1565/4/6
f 1565/4/6 1558/4/6 1566/4/6
f 1559/4/6 1560/4/6 1567/4/6
f 1560/4/6 1561/4/6 1567/4/6
f 1561/4/6 1562/4/6 1567/4/6
f 1567/4/6 1562/4/6 1568/4/6
f 1563/4/6 1564/4/6 1569/4/6
f 1569/4/6 1564/4/6 1570/4/6
f 1567/3/6 1568/3/6 1571/3/6
f 1565/3/6 1566/3/6 1571/3/6
f 1569/3/6 1570/3/6 1571/3/6
f 1568/3/6 1569/3/6 1571/3/6
f 1566/3/6 1567/3/6 1571/3/6
f 1571/3/6 1570/3/6 1572/3/6
f 1571/2/6 1572/2/6 1573/2/6
f 1573/2/6 1572/2/6 1574/2/6
