# MagicaVoxel @ Ephtracy

# group
o 

# material
mtllib wall2.mtl
usemtl palette

# normals
vn -1 0 0
vn 1 0 0
vn 0 0 1
vn 0 0 -1
vn 0 -1 0
vn 0 1 0

# texcoords
vt 0.939453 0.5
vt 0.970703 0.5
vt 0.974609 0.5
vt 0.978516 0.5

# verts
v 0 0 -1.7
v 0 0 -1.8
v 0 0 -1.9
v 0 0 -2
v 0 0.4 -1.7
v 0 0.4 -1.8
v 0 0.5 -1.7
v 0 0.5 -1.8
v 0 1.2 -1.7
v 0 1.2 -1.8
v 0 1.3 -1.7
v 0 1.3 -1.8
v 0 1.6 -1.7
v 0 1.6 -1.8
v 0 1.7 -1.7
v 0 1.7 -1.8
v 0 2.5 -1.7
v 0 2.5 -1.8
v 0 2.6 -1.7
v 0 2.6 -1.8
v 0 3.5 -1.7
v 0 3.5 -1.8
v 0 3.6 -1.7
v 0 3.6 -1.8
v 0 4 -1.7
v 0 4 -1.8
v 0 4 -1.9
v 0 4 -2
v 0.1 1.1 -1.6
v 0.1 1.1 -1.7
v 0.1 1.2 -1.6
v 0.1 1.2 -1.7
v 0.1 1.2 -1.8
v 0.1 1.3 -1.6
v 0.1 1.3 -1.7
v 0.1 1.3 -1.8
v 0.1 1.5 -1.6
v 0.1 1.5 -1.7
v 0.1 1.6 -1.6
v 0.1 1.6 -1.7
v 0.1 1.6 -1.8
v 0.1 1.7 -1.7
v 0.1 1.7 -1.8
v 0.1 2.1 -1.6
v 0.1 2.1 -1.7
v 0.2 0.9 -1.6
v 0.2 0.9 -1.7
v 0.2 1.1 -1.6
v 0.2 1.1 -1.7
v 0.2 2.1 -1.6
v 0.2 2.1 -1.7
v 0.2 2.3 -1.6
v 0.2 2.3 -1.7
v 0.2 2.3 -1.8
v 0.2 2.5 -1.7
v 0.2 2.5 -1.8
v 0.3 2.3 -1.6
v 0.3 2.3 -1.7
v 0.3 2.5 -1.6
v 0.3 2.5 -1.7
v 0.4 0.4 -1.7
v 0.4 0.4 -1.8
v 0.4 0.5 -1.7
v 0.4 0.5 -1.8
v 0.4 1.7 -1.7
v 0.4 1.7 -1.8
v 0.4 2 -1.7
v 0.4 2 -1.8
v 0.4 2.5 -1.7
v 0.4 2.5 -1.8
v 0.4 2.6 -1.6
v 0.4 2.6 -1.7
v 0.4 2.6 -1.8
v 0.4 3.5 -1.6
v 0.4 3.5 -1.7
v 0.4 3.6 -1.7
v 0.4 3.6 -1.8
v 0.4 4 -1.7
v 0.4 4 -1.8
v 0.5 0.3 -1.7
v 0.5 0.3 -1.8
v 0.5 0.4 -1.7
v 0.5 0.4 -1.8
v 0.5 1.4 -1.7
v 0.5 1.4 -1.8
v 0.5 1.7 -1.7
v 0.5 1.7 -1.8
v 0.5 2 -1.6
v 0.5 2 -1.7
v 0.5 2.4 -1.6
v 0.5 2.4 -1.7
v 0.5 3.4 -1.5
v 0.5 3.4 -1.6
v 0.5 3.5 -1.5
v 0.5 3.5 -1.6
v 0.5 3.5 -1.7
v 0.5 3.5 -1.8
v 0.5 3.6 -1.7
v 0.5 3.6 -1.8
v 0.6 0 -1.7
v 0.6 0 -1.8
v 0.6 0.1 -1.8
v 0.6 0.1 -1.9
v 0.6 0.2 -1.8
v 0.6 0.2 -1.9
v 0.6 0.3 -1.7
v 0.6 0.3 -1.8
v 0.6 1.3 -1.7
v 0.6 1.3 -1.8
v 0.6 1.4 -1.7
v 0.6 1.4 -1.8
v 0.6 1.6 -1.6
v 0.6 1.6 -1.7
v 0.6 2 -1.6
v 0.6 2 -1.7
v 0.6 2.7 -1.6
v 0.6 2.7 -1.7
v 0.6 3.1 -1.6
v 0.6 3.1 -1.7
v 0.6 3.6 -1.6
v 0.6 3.6 -1.7
v 0.6 4 -1.6
v 0.6 4 -1.7
v 0.7 0.6 -1.6
v 0.7 0.6 -1.7
v 0.7 1.2 -1.6
v 0.7 1.2 -1.7
v 0.7 2.5 -1.7
v 0.7 2.5 -1.8
v 0.7 2.6 -1.6
v 0.7 2.6 -1.7
v 0.7 2.7 -1.6
v 0.7 2.7 -1.7
v 0.7 2.7 -1.8
v 0.7 3.1 -1.7
v 0.7 3.1 -1.8
v 0.7 3.3 -1.7
v 0.7 3.3 -1.8
v 0.8 0.5 -1.6
v 0.8 0.5 -1.7
v 0.8 0.6 -1.6
v 0.8 0.6 -1.7
v 0.8 1.2 -1.7
v 0.8 1.2 -1.8
v 0.8 1.3 -1.6
v 0.8 1.3 -1.7
v 0.8 1.3 -1.8
v 0.8 1.6 -1.6
v 0.8 1.6 -1.7
v 0.8 2.5 -1.6
v 0.8 2.5 -1.7
v 0.8 2.6 -1.6
v 0.8 2.6 -1.7
v 0.8 3.3 -1.7
v 0.8 3.3 -1.8
v 0.8 3.4 -1.7
v 0.8 3.4 -1.8
v 0.9 1.6 -1.6
v 0.9 1.6 -1.7
v 0.9 1.9 -1.6
v 0.9 1.9 -1.7
v 0.9 2.3 -1.6
v 0.9 2.3 -1.7
v 0.9 2.4 -1.6
v 0.9 2.4 -1.7
v 0.9 2.4 -1.8
v 0.9 2.5 -1.7
v 0.9 2.5 -1.8
v 0.9 3.4 -1.7
v 0.9 3.4 -1.8
v 0.9 3.6 -1.7
v 0.9 3.6 -1.8
v 1 1.9 -1.6
v 1 1.9 -1.7
v 1 2.3 -1.6
v 1 2.3 -1.7
v 1.1 3.7 -1.7
v 1.1 3.7 -1.8
v 1.1 4 -1.7
v 1.1 4 -1.8
v 1.2 0.4 -1.7
v 1.2 0.4 -1.8
v 1.2 1.1 -1.7
v 1.2 1.1 -1.8
v 1.3 0 -1.7
v 1.3 0 -1.8
v 1.3 0.3 -1.7
v 1.3 0.3 -1.8
v 1.4 0.3 -1.7
v 1.4 0.3 -1.8
v 1.4 0.4 -1.7
v 1.4 0.4 -1.8
v 1.4 1.2 -1.7
v 1.4 1.2 -1.8
v 1.4 1.5 -1.7
v 1.4 1.5 -1.8
v 1.4 3.3 -1.7
v 1.4 3.3 -1.8
v 1.4 3.6 -1.7
v 1.4 3.6 -1.8
v 1.5 0.4 -1.7
v 1.5 0.4 -1.8
v 1.5 0.6 -1.7
v 1.5 0.6 -1.8
v 1.5 1.5 -1.7
v 1.5 1.5 -1.8
v 1.5 1.7 -1.7
v 1.5 1.7 -1.8
v 1.5 2.5 -1.7
v 1.5 2.5 -1.8
v 1.5 2.6 -1.7
v 1.5 2.6 -1.8
v 1.6 0.6 -1.7
v 1.6 0.6 -1.8
v 1.6 0.8 -1.7
v 1.6 0.8 -1.8
v 1.6 1.7 -1.7
v 1.6 1.7 -1.8
v 1.6 2.4 -1.7
v 1.6 2.4 -1.8
v 1.6 2.6 -1.7
v 1.6 2.6 -1.8
v 1.6 3 -1.7
v 1.6 3 -1.8
v 1.6 3.1 -1.7
v 1.6 3.1 -1.8
v 1.6 3.3 -1.7
v 1.6 3.3 -1.8
v 1.7 0.8 -1.7
v 1.7 0.8 -1.8
v 1.7 1.1 -1.7
v 1.7 1.1 -1.8
v 1.9 3 -1.7
v 1.9 3 -1.8
v 1.9 3.1 -1.7
v 1.9 3.1 -1.8
v 0.1 2.3 -1.7
v 0.1 2.3 -1.8
v 0.1 2.5 -1.7
v 0.1 2.5 -1.8
v 0.2 1.1 -1.6
v 0.2 1.1 -1.7
v 0.2 1.2 -1.6
v 0.2 1.2 -1.7
v 0.2 1.2 -1.8
v 0.2 1.3 -1.6
v 0.2 1.3 -1.7
v 0.2 1.3 -1.8
v 0.2 1.5 -1.6
v 0.2 1.5 -1.7
v 0.2 1.6 -1.6
v 0.2 1.6 -1.7
v 0.2 2 -1.6
v 0.2 2 -1.7
v 0.2 3.9 -1.7
v 0.2 3.9 -1.8
v 0.2 4 -1.7
v 0.2 4 -1.8
v 0.3 0.3 -1.7
v 0.3 0.3 -1.8
v 0.3 0.4 -1.7
v 0.3 0.4 -1.8
v 0.3 0.9 -1.6
v 0.3 0.9 -1.7
v 0.3 1.1 -1.6
v 0.3 1.1 -1.7
v 0.3 1.6 -1.7
v 0.3 1.6 -1.8
v 0.3 2 -1.6
v 0.3 2 -1.7
v 0.3 2 -1.8
v 0.3 2.2 -1.6
v 0.3 2.2 -1.7
v 0.3 3.6 -1.7
v 0.3 3.6 -1.8
v 0.3 3.9 -1.7
v 0.3 3.9 -1.8
v 0.4 0.2 -1.7
v 0.4 0.2 -1.8
v 0.4 0.3 -1.7
v 0.4 0.3 -1.8
v 0.4 1.3 -1.7
v 0.4 1.3 -1.8
v 0.4 1.6 -1.7
v 0.4 1.6 -1.8
v 0.4 2.2 -1.6
v 0.4 2.2 -1.7
v 0.4 2.4 -1.6
v 0.4 2.4 -1.7
v 0.5 0 -1.7
v 0.5 0 -1.8
v 0.5 0.1 -1.8
v 0.5 0.1 -1.9
v 0.5 0.2 -1.7
v 0.5 0.2 -1.8
v 0.5 0.2 -1.9
v 0.5 2.4 -1.6
v 0.5 2.4 -1.7
v 0.5 2.5 -1.6
v 0.5 2.5 -1.7
v 0.5 2.6 -1.6
v 0.5 2.6 -1.7
v 0.5 3.1 -1.6
v 0.5 3.1 -1.7
v 0.6 2.1 -1.6
v 0.6 2.1 -1.7
v 0.6 2.4 -1.6
v 0.6 2.4 -1.7
v 0.6 2.4 -1.8
v 0.6 2.5 -1.7
v 0.6 2.5 -1.8
v 0.6 2.7 -1.7
v 0.6 2.7 -1.8
v 0.6 3.1 -1.6
v 0.6 3.1 -1.7
v 0.6 3.1 -1.8
v 0.6 3.4 -1.5
v 0.6 3.4 -1.6
v 0.6 3.4 -1.7
v 0.6 3.4 -1.8
v 0.6 3.5 -1.5
v 0.6 3.5 -1.7
v 0.6 3.5 -1.8
v 0.6 3.6 -1.7
v 0.6 3.6 -1.8
v 0.7 1.6 -1.6
v 0.7 1.6 -1.7
v 0.7 2.1 -1.6
v 0.7 2.1 -1.7
v 0.7 2.8 -1.6
v 0.7 2.8 -1.7
v 0.7 3.1 -1.6
v 0.7 3.1 -1.7
v 0.7 3.4 -1.7
v 0.7 3.4 -1.8
v 0.7 3.5 -1.7
v 0.7 3.5 -1.8
v 0.7 3.6 -1.6
v 0.7 3.6 -1.7
v 0.7 4 -1.6
v 0.7 4 -1.7
v 0.8 0.6 -1.6
v 0.8 0.6 -1.7
v 0.8 1.1 -1.6
v 0.8 1.1 -1.7
v 0.8 2.7 -1.6
v 0.8 2.7 -1.7
v 0.8 2.8 -1.6
v 0.8 2.8 -1.7
v 0.9 0.5 -1.6
v 0.9 0.5 -1.7
v 0.9 0.6 -1.6
v 0.9 0.6 -1.7
v 0.9 1.1 -1.6
v 0.9 1.1 -1.7
v 0.9 1.1 -1.8
v 0.9 1.2 -1.6
v 0.9 1.2 -1.7
v 0.9 1.2 -1.8
v 0.9 1.3 -1.6
v 0.9 1.3 -1.7
v 0.9 1.5 -1.6
v 0.9 1.5 -1.7
v 0.9 2.6 -1.6
v 0.9 2.6 -1.7
v 0.9 2.7 -1.6
v 0.9 2.7 -1.7
v 0.9 3.6 -1.7
v 0.9 3.6 -1.8
v 0.9 3.7 -1.7
v 0.9 3.7 -1.8
v 1 1 -1.7
v 1 1 -1.8
v 1 1.1 -1.7
v 1 1.1 -1.8
v 1 1.5 -1.6
v 1 1.5 -1.7
v 1 1.8 -1.6
v 1 1.8 -1.7
v 1 2.4 -1.7
v 1 2.4 -1.8
v 1 2.5 -1.6
v 1 2.5 -1.7
v 1 2.5 -1.8
v 1 2.6 -1.6
v 1 2.6 -1.7
v 1 3.7 -1.7
v 1 3.7 -1.8
v 1 4 -1.7
v 1 4 -1.8
v 1.1 0.4 -1.7
v 1.1 0.4 -1.8
v 1.1 1 -1.7
v 1.1 1 -1.8
v 1.1 1.8 -1.6
v 1.1 1.8 -1.7
v 1.1 2.4 -1.6
v 1.1 2.4 -1.7
v 1.2 0 -1.7
v 1.2 0 -1.8
v 1.2 0.4 -1.7
v 1.2 0.4 -1.8
v 1.3 0.4 -1.7
v 1.3 0.4 -1.8
v 1.3 0.5 -1.7
v 1.3 0.5 -1.8
v 1.3 1.2 -1.7
v 1.3 1.2 -1.8
v 1.3 1.6 -1.7
v 1.3 1.6 -1.8
v 1.3 3.3 -1.7
v 1.3 3.3 -1.8
v 1.3 3.6 -1.7
v 1.3 3.6 -1.8
v 1.4 0.5 -1.7
v 1.4 0.5 -1.8
v 1.4 0.6 -1.7
v 1.4 0.6 -1.8
v 1.4 1.6 -1.7
v 1.4 1.6 -1.8
v 1.4 1.8 -1.7
v 1.4 1.8 -1.8
v 1.4 2 -1.7
v 1.4 2 -1.8
v 1.4 2.1 -1.7
v 1.4 2.1 -1.8
v 1.4 2.5 -1.7
v 1.4 2.5 -1.8
v 1.4 2.7 -1.7
v 1.4 2.7 -1.8
v 1.4 3.2 -1.7
v 1.4 3.2 -1.8
v 1.4 3.3 -1.7
v 1.4 3.3 -1.8
v 1.5 0.6 -1.7
v 1.5 0.6 -1.8
v 1.5 0.9 -1.7
v 1.5 0.9 -1.8
v 1.5 1.8 -1.7
v 1.5 1.8 -1.8
v 1.5 2 -1.7
v 1.5 2 -1.8
v 1.5 2.1 -1.7
v 1.5 2.1 -1.8
v 1.5 2.4 -1.7
v 1.5 2.4 -1.8
v 1.5 2.7 -1.7
v 1.5 2.7 -1.8
v 1.5 3.2 -1.7
v 1.5 3.2 -1.8
v 1.6 0.9 -1.7
v 1.6 0.9 -1.8
v 1.6 1.1 -1.7
v 1.6 1.1 -1.8
v 1.8 3.1 -1.7
v 1.8 3.1 -1.8
v 1.8 3.2 -1.7
v 1.8 3.2 -1.8
v 2 0 -1.7
v 2 0 -1.8
v 2 0 -1.9
v 2 0 -2
v 2 1.1 -1.7
v 2 1.1 -1.8
v 2 1.2 -1.7
v 2 1.2 -1.8
v 2 2.4 -1.7
v 2 2.4 -1.8
v 2 2.5 -1.7
v 2 2.5 -1.8
v 2 3.1 -1.7
v 2 3.1 -1.8
v 2 3.2 -1.7
v 2 3.2 -1.8
v 2 3.6 -1.7
v 2 3.6 -1.8
v 2 3.7 -1.7
v 2 3.7 -1.8
v 2 4 -1.7
v 2 4 -1.8
v 2 4 -1.9
v 2 4 -2
v 0.5 3.4 -1.5
v 0.5 3.5 -1.5
v 0.6 3.4 -1.5
v 0.6 3.5 -1.5
v 0.1 1.1 -1.6
v 0.1 1.2 -1.6
v 0.1 1.3 -1.6
v 0.1 1.5 -1.6
v 0.1 1.6 -1.6
v 0.1 2.1 -1.6
v 0.2 0.9 -1.6
v 0.2 1.1 -1.6
v 0.2 1.2 -1.6
v 0.2 1.3 -1.6
v 0.2 1.5 -1.6
v 0.2 1.6 -1.6
v 0.2 2 -1.6
v 0.2 2.1 -1.6
v 0.2 2.3 -1.6
v 0.3 0.9 -1.6
v 0.3 1.1 -1.6
v 0.3 2 -1.6
v 0.3 2.2 -1.6
v 0.3 2.3 -1.6
v 0.3 2.5 -1.6
v 0.4 2.2 -1.6
v 0.4 2.4 -1.6
v 0.4 2.6 -1.6
v 0.4 3.5 -1.6
v 0.5 2 -1.6
v 0.5 2.4 -1.6
v 0.5 2.5 -1.6
v 0.5 2.6 -1.6
v 0.5 3.1 -1.6
v 0.5 3.4 -1.6
v 0.5 3.5 -1.6
v 0.6 1.6 -1.6
v 0.6 2 -1.6
v 0.6 2.1 -1.6
v 0.6 2.4 -1.6
v 0.6 2.7 -1.6
v 0.6 3.1 -1.6
v 0.6 3.4 -1.6
v 0.6 3.6 -1.6
v 0.6 4 -1.6
v 0.7 0.6 -1.6
v 0.7 1.2 -1.6
v 0.7 1.6 -1.6
v 0.7 2.1 -1.6
v 0.7 2.6 -1.6
v 0.7 2.7 -1.6
v 0.7 2.8 -1.6
v 0.7 3.1 -1.6
v 0.7 3.6 -1.6
v 0.7 4 -1.6
v 0.8 0.5 -1.6
v 0.8 0.6 -1.6
v 0.8 1.1 -1.6
v 0.8 1.3 -1.6
v 0.8 1.6 -1.6
v 0.8 2.5 -1.6
v 0.8 2.6 -1.6
v 0.8 2.7 -1.6
v 0.8 2.8 -1.6
v 0.9 0.5 -1.6
v 0.9 0.6 -1.6
v 0.9 1.1 -1.6
v 0.9 1.2 -1.6
v 0.9 1.3 -1.6
v 0.9 1.5 -1.6
v 0.9 1.6 -1.6
v 0.9 1.9 -1.6
v 0.9 2.3 -1.6
v 0.9 2.4 -1.6
v 0.9 2.6 -1.6
v 0.9 2.7 -1.6
v 1 1.5 -1.6
v 1 1.8 -1.6
v 1 1.9 -1.6
v 1 2.3 -1.6
v 1 2.5 -1.6
v 1 2.6 -1.6
v 1.1 1.8 -1.6
v 1.1 2.4 -1.6
v 0 0 -1.7
v 0 0.4 -1.7
v 0 0.5 -1.7
v 0 1.2 -1.7
v 0 1.3 -1.7
v 0 1.6 -1.7
v 0 1.7 -1.7
v 0 2.5 -1.7
v 0 2.6 -1.7
v 0 3.5 -1.7
v 0 3.6 -1.7
v 0 4 -1.7
v 0.1 1.1 -1.7
v 0.1 1.2 -1.7
v 0.1 1.3 -1.7
v 0.1 1.5 -1.7
v 0.1 1.6 -1.7
v 0.1 1.7 -1.7
v 0.1 2.1 -1.7
v 0.1 2.3 -1.7
v 0.1 2.5 -1.7
v 0.2 0.9 -1.7
v 0.2 1.1 -1.7
v 0.2 1.2 -1.7
v 0.2 1.3 -1.7
v 0.2 1.5 -1.7
v 0.2 1.6 -1.7
v 0.2 2 -1.7
v 0.2 2.1 -1.7
v 0.2 2.3 -1.7
v 0.2 2.5 -1.7
v 0.2 3.9 -1.7
v 0.2 4 -1.7
v 0.3 0.3 -1.7
v 0.3 0.4 -1.7
v 0.3 0.9 -1.7
v 0.3 1.1 -1.7
v 0.3 1.6 -1.7
v 0.3 2 -1.7
v 0.3 2.2 -1.7
v 0.3 2.3 -1.7
v 0.3 2.5 -1.7
v 0.3 3.6 -1.7
v 0.3 3.9 -1.7
v 0.4 0.2 -1.7
v 0.4 0.3 -1.7
v 0.4 0.4 -1.7
v 0.4 0.5 -1.7
v 0.4 1.3 -1.7
v 0.4 1.6 -1.7
v 0.4 1.7 -1.7
v 0.4 2 -1.7
v 0.4 2.2 -1.7
v 0.4 2.4 -1.7
v 0.4 2.5 -1.7
v 0.4 2.6 -1.7
v 0.4 3.5 -1.7
v 0.4 3.6 -1.7
v 0.4 4 -1.7
v 0.5 0 -1.7
v 0.5 0.2 -1.7
v 0.5 0.3 -1.7
v 0.5 0.4 -1.7
v 0.5 1.4 -1.7
v 0.5 1.7 -1.7
v 0.5 2 -1.7
v 0.5 2.4 -1.7
v 0.5 2.5 -1.7
v 0.5 2.6 -1.7
v 0.5 3.1 -1.7
v 0.5 3.5 -1.7
v 0.5 3.6 -1.7
v 0.6 0 -1.7
v 0.6 0.3 -1.7
v 0.6 1.3 -1.7
v 0.6 1.4 -1.7
v 0.6 1.6 -1.7
v 0.6 2 -1.7
v 0.6 2.1 -1.7
v 0.6 2.4 -1.7
v 0.6 2.5 -1.7
v 0.6 2.7 -1.7
v 0.6 3.1 -1.7
v 0.6 3.4 -1.7
v 0.6 3.5 -1.7
v 0.6 3.6 -1.7
v 0.6 4 -1.7
v 0.7 0.6 -1.7
v 0.7 1.2 -1.7
v 0.7 1.6 -1.7
v 0.7 2.1 -1.7
v 0.7 2.5 -1.7
v 0.7 2.6 -1.7
v 0.7 2.8 -1.7
v 0.7 3.1 -1.7
v 0.7 3.3 -1.7
v 0.7 3.4 -1.7
v 0.7 3.5 -1.7
v 0.7 3.6 -1.7
v 0.7 4 -1.7
v 0.8 0.5 -1.7
v 0.8 0.6 -1.7
v 0.8 1.1 -1.7
v 0.8 1.2 -1.7
v 0.8 1.3 -1.7
v 0.8 1.6 -1.7
v 0.8 2.5 -1.7
v 0.8 2.6 -1.7
v 0.8 2.7 -1.7
v 0.8 2.8 -1.7
v 0.8 3.3 -1.7
v 0.8 3.4 -1.7
v 0.9 0.5 -1.7
v 0.9 0.6 -1.7
v 0.9 1.1 -1.7
v 0.9 1.2 -1.7
v 0.9 1.3 -1.7
v 0.9 1.5 -1.7
v 0.9 1.6 -1.7
v 0.9 1.9 -1.7
v 0.9 2.3 -1.7
v 0.9 2.4 -1.7
v 0.9 2.5 -1.7
v 0.9 2.6 -1.7
v 0.9 2.7 -1.7
v 0.9 3.4 -1.7
v 0.9 3.6 -1.7
v 0.9 3.7 -1.7
v 1 1 -1.7
v 1 1.1 -1.7
v 1 1.5 -1.7
v 1 1.8 -1.7
v 1 1.9 -1.7
v 1 2.3 -1.7
v 1 2.4 -1.7
v 1 2.5 -1.7
v 1 2.6 -1.7
v 1 3.7 -1.7
v 1 4 -1.7
v 1.1 0.4 -1.7
v 1.1 1 -1.7
v 1.1 1.8 -1.7
v 1.1 2.4 -1.7
v 1.1 3.7 -1.7
v 1.1 4 -1.7
v 1.2 0 -1.7
v 1.2 0.4 -1.7
v 1.2 1.1 -1.7
v 1.3 0 -1.7
v 1.3 0.3 -1.7
v 1.3 0.4 -1.7
v 1.3 0.5 -1.7
v 1.3 1.2 -1.7
v 1.3 1.6 -1.7
v 1.3 3.3 -1.7
v 1.3 3.6 -1.7
v 1.4 0.3 -1.7
v 1.4 0.4 -1.7
v 1.4 0.5 -1.7
v 1.4 0.6 -1.7
v 1.4 1.2 -1.7
v 1.4 1.5 -1.7
v 1.4 1.6 -1.7
v 1.4 1.8 -1.7
v 1.4 2 -1.7
v 1.4 2.1 -1.7
v 1.4 2.5 -1.7
v 1.4 2.7 -1.7
v 1.4 3.2 -1.7
v 1.4 3.3 -1.7
v 1.4 3.6 -1.7
v 1.5 0.4 -1.7
v 1.5 0.6 -1.7
v 1.5 0.9 -1.7
v 1.5 1.5 -1.7
v 1.5 1.7 -1.7
v 1.5 1.8 -1.7
v 1.5 2 -1.7
v 1.5 2.1 -1.7
v 1.5 2.4 -1.7
v 1.5 2.5 -1.7
v 1.5 2.6 -1.7
v 1.5 2.7 -1.7
v 1.5 3.2 -1.7
v 1.6 0.6 -1.7
v 1.6 0.8 -1.7
v 1.6 0.9 -1.7
v 1.6 1.1 -1.7
v 1.6 1.7 -1.7
v 1.6 2.4 -1.7
v 1.6 2.6 -1.7
v 1.6 3 -1.7
v 1.6 3.1 -1.7
v 1.6 3.3 -1.7
v 1.7 0.8 -1.7
v 1.7 1.1 -1.7
v 1.8 3.1 -1.7
v 1.8 3.2 -1.7
v 1.9 3 -1.7
v 1.9 3.1 -1.7
v 2 0 -1.7
v 2 1.1 -1.7
v 2 1.2 -1.7
v 2 2.4 -1.7
v 2 2.5 -1.7
v 2 3.1 -1.7
v 2 3.2 -1.7
v 2 3.6 -1.7
v 2 3.7 -1.7
v 2 4 -1.7
v 0 0.4 -1.8
v 0 0.5 -1.8
v 0 1.2 -1.8
v 0 1.3 -1.8
v 0 1.6 -1.8
v 0 1.7 -1.8
v 0 2.5 -1.8
v 0 2.6 -1.8
v 0 3.5 -1.8
v 0 3.6 -1.8
v 0.1 1.2 -1.8
v 0.1 1.3 -1.8
v 0.1 1.6 -1.8
v 0.1 1.7 -1.8
v 0.1 2.3 -1.8
v 0.1 2.5 -1.8
v 0.2 1.2 -1.8
v 0.2 1.3 -1.8
v 0.2 2.3 -1.8
v 0.2 2.5 -1.8
v 0.2 3.9 -1.8
v 0.2 4 -1.8
v 0.3 0.3 -1.8
v 0.3 0.4 -1.8
v 0.3 1.6 -1.8
v 0.3 2 -1.8
v 0.3 3.6 -1.8
v 0.3 3.9 -1.8
v 0.4 0.2 -1.8
v 0.4 0.3 -1.8
v 0.4 0.4 -1.8
v 0.4 0.5 -1.8
v 0.4 1.3 -1.8
v 0.4 1.6 -1.8
v 0.4 1.7 -1.8
v 0.4 2 -1.8
v 0.4 2.5 -1.8
v 0.4 2.6 -1.8
v 0.4 3.6 -1.8
v 0.4 4 -1.8
v 0.5 0 -1.8
v 0.5 0.1 -1.8
v 0.5 0.2 -1.8
v 0.5 0.3 -1.8
v 0.5 0.4 -1.8
v 0.5 1.4 -1.8
v 0.5 1.7 -1.8
v 0.5 3.5 -1.8
v 0.5 3.6 -1.8
v 0.6 0 -1.8
v 0.6 0.1 -1.8
v 0.6 0.2 -1.8
v 0.6 0.3 -1.8
v 0.6 1.3 -1.8
v 0.6 1.4 -1.8
v 0.6 2.4 -1.8
v 0.6 2.5 -1.8
v 0.6 2.7 -1.8
v 0.6 3.1 -1.8
v 0.6 3.4 -1.8
v 0.6 3.5 -1.8
v 0.6 3.6 -1.8
v 0.7 2.5 -1.8
v 0.7 2.7 -1.8
v 0.7 3.1 -1.8
v 0.7 3.3 -1.8
v 0.7 3.4 -1.8
v 0.7 3.5 -1.8
v 0.8 1.2 -1.8
v 0.8 1.3 -1.8
v 0.8 3.3 -1.8
v 0.8 3.4 -1.8
v 0.9 1.1 -1.8
v 0.9 1.2 -1.8
v 0.9 2.4 -1.8
v 0.9 2.5 -1.8
v 0.9 3.4 -1.8
v 0.9 3.6 -1.8
v 0.9 3.7 -1.8
v 1 1 -1.8
v 1 1.1 -1.8
v 1 2.4 -1.8
v 1 2.5 -1.8
v 1 3.7 -1.8
v 1 4 -1.8
v 1.1 0.4 -1.8
v 1.1 1 -1.8
v 1.1 3.7 -1.8
v 1.1 4 -1.8
v 1.2 0 -1.8
v 1.2 0.4 -1.8
v 1.2 1.1 -1.8
v 1.3 0 -1.8
v 1.3 0.3 -1.8
v 1.3 0.4 -1.8
v 1.3 0.5 -1.8
v 1.3 1.2 -1.8
v 1.3 1.6 -1.8
v 1.3 3.3 -1.8
v 1.3 3.6 -1.8
v 1.4 0.3 -1.8
v 1.4 0.4 -1.8
v 1.4 0.5 -1.8
v 1.4 0.6 -1.8
v 1.4 1.2 -1.8
v 1.4 1.5 -1.8
v 1.4 1.6 -1.8
v 1.4 1.8 -1.8
v 1.4 2 -1.8
v 1.4 2.1 -1.8
v 1.4 2.5 -1.8
v 1.4 2.7 -1.8
v 1.4 3.2 -1.8
v 1.4 3.3 -1.8
v 1.4 3.6 -1.8
v 1.5 0.4 -1.8
v 1.5 0.6 -1.8
v 1.5 0.9 -1.8
v 1.5 1.5 -1.8
v 1.5 1.7 -1.8
v 1.5 1.8 -1.8
v 1.5 2 -1.8
v 1.5 2.1 -1.8
v 1.5 2.4 -1.8
v 1.5 2.5 -1.8
v 1.5 2.6 -1.8
v 1.5 2.7 -1.8
v 1.5 3.2 -1.8
v 1.6 0.6 -1.8
v 1.6 0.8 -1.8
v 1.6 0.9 -1.8
v 1.6 1.1 -1.8
v 1.6 1.7 -1.8
v 1.6 2.4 -1.8
v 1.6 2.6 -1.8
v 1.6 3 -1.8
v 1.6 3.1 -1.8
v 1.6 3.3 -1.8
v 1.7 0.8 -1.8
v 1.7 1.1 -1.8
v 1.8 3.1 -1.8
v 1.8 3.2 -1.8
v 1.9 3 -1.8
v 1.9 3.1 -1.8
v 2 1.1 -1.8
v 2 1.2 -1.8
v 2 2.4 -1.8
v 2 2.5 -1.8
v 2 3.1 -1.8
v 2 3.2 -1.8
v 2 3.6 -1.8
v 2 3.7 -1.8
v 0.5 0.1 -1.9
v 0.5 0.2 -1.9
v 0.6 0.1 -1.9
v 0.6 0.2 -1.9
v 0 0 -2
v 0 4 -2
v 2 0 -2
v 2 4 -2
v 0 0 -1.7
v 0.5 0 -1.7
v 0.6 0 -1.7
v 1.2 0 -1.7
v 1.3 0 -1.7
v 2 0 -1.7
v 0 0 -1.8
v 0.5 0 -1.8
v 0.6 0 -1.8
v 1.2 0 -1.8
v 1.3 0 -1.8
v 2 0 -1.8
v 0 0 -1.9
v 2 0 -1.9
v 0 0 -2
v 2 0 -2
v 0.5 0.2 -1.8
v 0.6 0.2 -1.8
v 0.5 0.2 -1.9
v 0.6 0.2 -1.9
v 0.5 0.3 -1.7
v 0.6 0.3 -1.7
v 0.5 0.3 -1.8
v 0.6 0.3 -1.8
v 0.4 0.4 -1.7
v 0.5 0.4 -1.7
v 1.2 0.4 -1.7
v 1.3 0.4 -1.7
v 0.4 0.4 -1.8
v 0.5 0.4 -1.8
v 1.2 0.4 -1.8
v 1.3 0.4 -1.8
v 0.8 0.5 -1.6
v 0.9 0.5 -1.6
v 0 0.5 -1.7
v 0.4 0.5 -1.7
v 0.8 0.5 -1.7
v 0.9 0.5 -1.7
v 1.3 0.5 -1.7
v 1.4 0.5 -1.7
v 0 0.5 -1.8
v 0.4 0.5 -1.8
v 1.3 0.5 -1.8
v 1.4 0.5 -1.8
v 0.7 0.6 -1.6
v 0.8 0.6 -1.6
v 0.7 0.6 -1.7
v 0.8 0.6 -1.7
v 1.4 0.6 -1.7
v 1.5 0.6 -1.7
v 1.4 0.6 -1.8
v 1.5 0.6 -1.8
v 0.2 0.9 -1.6
v 0.3 0.9 -1.6
v 0.2 0.9 -1.7
v 0.3 0.9 -1.7
v 1.5 0.9 -1.7
v 1.6 0.9 -1.7
v 1.5 0.9 -1.8
v 1.6 0.9 -1.8
v 0.1 1.1 -1.6
v 0.2 1.1 -1.6
v 0.8 1.1 -1.6
v 0.9 1.1 -1.6
v 0.1 1.1 -1.7
v 0.2 1.1 -1.7
v 0.8 1.1 -1.7
v 0.9 1.1 -1.7
v 0.9 1.2 -1.7
v 1.3 1.2 -1.7
v 1.4 1.2 -1.7
v 2 1.2 -1.7
v 0.9 1.2 -1.8
v 1.3 1.2 -1.8
v 1.4 1.2 -1.8
v 2 1.2 -1.8
v 0.1 1.3 -1.6
v 0.2 1.3 -1.6
v 0.8 1.3 -1.6
v 0.9 1.3 -1.6
v 0 1.3 -1.7
v 0.1 1.3 -1.7
v 0.2 1.3 -1.7
v 0.4 1.3 -1.7
v 0.6 1.3 -1.7
v 0.8 1.3 -1.7
v 0.9 1.3 -1.7
v 0 1.3 -1.8
v 0.1 1.3 -1.8
v 0.2 1.3 -1.8
v 0.4 1.3 -1.8
v 0.6 1.3 -1.8
v 0.8 1.3 -1.8
v 0.5 1.4 -1.7
v 0.6 1.4 -1.7
v 0.5 1.4 -1.8
v 0.6 1.4 -1.8
v 0.9 1.5 -1.6
v 1 1.5 -1.6
v 0.9 1.5 -1.7
v 1 1.5 -1.7
v 0.1 1.6 -1.6
v 0.2 1.6 -1.6
v 0.6 1.6 -1.6
v 0.7 1.6 -1.6
v 0.1 1.6 -1.7
v 0.2 1.6 -1.7
v 0.6 1.6 -1.7
v 0.7 1.6 -1.7
v 1.3 1.6 -1.7
v 1.4 1.6 -1.7
v 1.3 1.6 -1.8
v 1.4 1.6 -1.8
v 0 1.7 -1.7
v 0.1 1.7 -1.7
v 0.4 1.7 -1.7
v 0.5 1.7 -1.7
v 0 1.7 -1.8
v 0.1 1.7 -1.8
v 0.4 1.7 -1.8
v 0.5 1.7 -1.8
v 1 1.8 -1.6
v 1.1 1.8 -1.6
v 1 1.8 -1.7
v 1.1 1.8 -1.7
v 1.4 1.8 -1.7
v 1.5 1.8 -1.7
v 1.4 1.8 -1.8
v 1.5 1.8 -1.8
v 0.2 2 -1.6
v 0.3 2 -1.6
v 0.5 2 -1.6
v 0.6 2 -1.6
v 0.2 2 -1.7
v 0.3 2 -1.7
v 0.4 2 -1.7
v 0.5 2 -1.7
v 0.6 2 -1.7
v 0.3 2 -1.8
v 0.4 2 -1.8
v 1.4 2.1 -1.7
v 1.5 2.1 -1.7
v 1.4 2.1 -1.8
v 1.5 2.1 -1.8
v 0.3 2.2 -1.6
v 0.4 2.2 -1.6
v 0.3 2.2 -1.7
v 0.4 2.2 -1.7
v 0.9 2.3 -1.6
v 1 2.3 -1.6
v 0.9 2.3 -1.7
v 1 2.3 -1.7
v 0.4 2.4 -1.6
v 0.5 2.4 -1.6
v 0.4 2.4 -1.7
v 0.5 2.4 -1.7
v 0.8 2.5 -1.6
v 1 2.5 -1.6
v 0.7 2.5 -1.7
v 0.8 2.5 -1.7
v 0.9 2.5 -1.7
v 1 2.5 -1.7
v 1.4 2.5 -1.7
v 1.5 2.5 -1.7
v 2 2.5 -1.7
v 0.7 2.5 -1.8
v 0.9 2.5 -1.8
v 1 2.5 -1.8
v 1.4 2.5 -1.8
v 1.5 2.5 -1.8
v 2 2.5 -1.8
v 0.4 2.6 -1.6
v 0.5 2.6 -1.6
v 0.7 2.6 -1.6
v 0.8 2.6 -1.6
v 0 2.6 -1.7
v 0.4 2.6 -1.7
v 0.5 2.6 -1.7
v 0.7 2.6 -1.7
v 0.8 2.6 -1.7
v 0 2.6 -1.8
v 0.4 2.6 -1.8
v 0.6 2.7 -1.6
v 0.7 2.7 -1.6
v 0.6 2.7 -1.7
v 0.7 2.7 -1.7
v 1.4 2.7 -1.7
v 1.5 2.7 -1.7
v 0.6 2.7 -1.8
v 0.7 2.7 -1.8
v 1.4 2.7 -1.8
v 1.5 2.7 -1.8
v 0.5 3.1 -1.6
v 0.6 3.1 -1.6
v 0.5 3.1 -1.7
v 0.6 3.1 -1.7
v 1.6 3.1 -1.7
v 1.8 3.1 -1.7
v 1.6 3.1 -1.8
v 1.8 3.1 -1.8
v 1.8 3.2 -1.7
v 2 3.2 -1.7
v 1.8 3.2 -1.8
v 2 3.2 -1.8
v 1.4 3.3 -1.7
v 1.6 3.3 -1.7
v 1.4 3.3 -1.8
v 1.6 3.3 -1.8
v 0.5 3.4 -1.5
v 0.6 3.4 -1.5
v 0.5 3.4 -1.6
v 0.6 3.4 -1.6
v 0.6 3.4 -1.7
v 0.7 3.4 -1.7
v 0.6 3.4 -1.8
v 0.7 3.4 -1.8
v 0.6 3.6 -1.6
v 0.7 3.6 -1.6
v 0 3.6 -1.7
v 0.3 3.6 -1.7
v 0.4 3.6 -1.7
v 0.5 3.6 -1.7
v 0.6 3.6 -1.7
v 0.7 3.6 -1.7
v 0.9 3.6 -1.7
v 0 3.6 -1.8
v 0.3 3.6 -1.8
v 0.4 3.6 -1.8
v 0.5 3.6 -1.8
v 0.6 3.6 -1.8
v 0.9 3.6 -1.8
v 0.9 3.7 -1.7
v 1 3.7 -1.7
v 1.1 3.7 -1.7
v 2 3.7 -1.7
v 0.9 3.7 -1.8
v 1 3.7 -1.8
v 1.1 3.7 -1.8
v 2 3.7 -1.8
v 0.5 0.1 -1.8
v 0.6 0.1 -1.8
v 0.5 0.1 -1.9
v 0.6 0.1 -1.9
v 0.4 0.2 -1.7
v 0.5 0.2 -1.7
v 0.4 0.2 -1.8
v 0.5 0.2 -1.8
v 0.3 0.3 -1.7
v 0.4 0.3 -1.7
v 1.3 0.3 -1.7
v 1.4 0.3 -1.7
v 0.3 0.3 -1.8
v 0.4 0.3 -1.8
v 1.3 0.3 -1.8
v 1.4 0.3 -1.8
v 0 0.4 -1.7
v 0.3 0.4 -1.7
v 1.1 0.4 -1.7
v 1.2 0.4 -1.7
v 1.4 0.4 -1.7
v 1.5 0.4 -1.7
v 0 0.4 -1.8
v 0.3 0.4 -1.8
v 1.1 0.4 -1.8
v 1.2 0.4 -1.8
v 1.4 0.4 -1.8
v 1.5 0.4 -1.8
v 0.8 0.6 -1.6
v 0.9 0.6 -1.6
v 0.8 0.6 -1.7
v 0.9 0.6 -1.7
v 1.5 0.6 -1.7
v 1.6 0.6 -1.7
v 1.5 0.6 -1.8
v 1.6 0.6 -1.8
v 1.6 0.8 -1.7
v 1.7 0.8 -1.7
v 1.6 0.8 -1.8
v 1.7 0.8 -1.8
v 1 1 -1.7
v 1.1 1 -1.7
v 1 1 -1.8
v 1.1 1 -1.8
v 0.2 1.1 -1.6
v 0.3 1.1 -1.6
v 0.2 1.1 -1.7
v 0.3 1.1 -1.7
v 0.9 1.1 -1.7
v 1 1.1 -1.7
v 1.2 1.1 -1.7
v 1.6 1.1 -1.7
v 1.7 1.1 -1.7
v 2 1.1 -1.7
v 0.9 1.1 -1.8
v 1 1.1 -1.8
v 1.2 1.1 -1.8
v 1.6 1.1 -1.8
v 1.7 1.1 -1.8
v 2 1.1 -1.8
v 0.1 1.2 -1.6
v 0.2 1.2 -1.6
v 0.7 1.2 -1.6
v 0.9 1.2 -1.6
v 0 1.2 -1.7
v 0.1 1.2 -1.7
v 0.2 1.2 -1.7
v 0.7 1.2 -1.7
v 0.8 1.2 -1.7
v 0.9 1.2 -1.7
v 0 1.2 -1.8
v 0.1 1.2 -1.8
v 0.2 1.2 -1.8
v 0.8 1.2 -1.8
v 0.1 1.5 -1.6
v 0.2 1.5 -1.6
v 0.1 1.5 -1.7
v 0.2 1.5 -1.7
v 1.4 1.5 -1.7
v 1.5 1.5 -1.7
v 1.4 1.5 -1.8
v 1.5 1.5 -1.8
v 0.8 1.6 -1.6
v 0.9 1.6 -1.6
v 0 1.6 -1.7
v 0.1 1.6 -1.7
v 0.3 1.6 -1.7
v 0.4 1.6 -1.7
v 0.8 1.6 -1.7
v 0.9 1.6 -1.7
v 0 1.6 -1.8
v 0.1 1.6 -1.8
v 0.3 1.6 -1.8
v 0.4 1.6 -1.8
v 1.5 1.7 -1.7
v 1.6 1.7 -1.7
v 1.5 1.7 -1.8
v 1.6 1.7 -1.8
v 0.9 1.9 -1.6
v 1 1.9 -1.6
v 0.9 1.9 -1.7
v 1 1.9 -1.7
v 1.4 2 -1.7
v 1.5 2 -1.7
v 1.4 2 -1.8
v 1.5 2 -1.8
v 0.1 2.1 -1.6
v 0.2 2.1 -1.6
v 0.6 2.1 -1.6
v 0.7 2.1 -1.6
v 0.1 2.1 -1.7
v 0.2 2.1 -1.7
v 0.6 2.1 -1.7
v 0.7 2.1 -1.7
v 0.2 2.3 -1.6
v 0.3 2.3 -1.6
v 0.1 2.3 -1.7
v 0.2 2.3 -1.7
v 0.3 2.3 -1.7
v 0.1 2.3 -1.8
v 0.2 2.3 -1.8
v 0.5 2.4 -1.6
v 0.6 2.4 -1.6
v 0.9 2.4 -1.6
v 1.1 2.4 -1.6
v 0.5 2.4 -1.7
v 0.6 2.4 -1.7
v 0.9 2.4 -1.7
v 1 2.4 -1.7
v 1.1 2.4 -1.7
v 1.5 2.4 -1.7
v 1.6 2.4 -1.7
v 2 2.4 -1.7
v 0.6 2.4 -1.8
v 0.9 2.4 -1.8
v 1 2.4 -1.8
v 1.5 2.4 -1.8
v 1.6 2.4 -1.8
v 2 2.4 -1.8
v 0.3 2.5 -1.6
v 0.5 2.5 -1.6
v 0 2.5 -1.7
v 0.1 2.5 -1.7
v 0.2 2.5 -1.7
v 0.3 2.5 -1.7
v 0.4 2.5 -1.7
v 0.5 2.5 -1.7
v 0 2.5 -1.8
v 0.1 2.5 -1.8
v 0.2 2.5 -1.8
v 0.4 2.5 -1.8
v 0.9 2.6 -1.6
v 1 2.6 -1.6
v 0.9 2.6 -1.7
v 1 2.6 -1.7
v 1.5 2.6 -1.7
v 1.6 2.6 -1.7
v 1.5 2.6 -1.8
v 1.6 2.6 -1.8
v 0.8 2.7 -1.6
v 0.9 2.7 -1.6
v 0.8 2.7 -1.7
v 0.9 2.7 -1.7
v 0.7 2.8 -1.6
v 0.8 2.8 -1.6
v 0.7 2.8 -1.7
v 0.8 2.8 -1.7
v 1.6 3 -1.7
v 1.9 3 -1.7
v 1.6 3 -1.8
v 1.9 3 -1.8
v 0.6 3.1 -1.6
v 0.7 3.1 -1.6
v 0.6 3.1 -1.7
v 0.7 3.1 -1.7
v 1.9 3.1 -1.7
v 2 3.1 -1.7
v 0.6 3.1 -1.8
v 0.7 3.1 -1.8
v 1.9 3.1 -1.8
v 2 3.1 -1.8
v 1.4 3.2 -1.7
v 1.5 3.2 -1.7
v 1.4 3.2 -1.8
v 1.5 3.2 -1.8
v 0.7 3.3 -1.7
v 0.8 3.3 -1.7
v 1.3 3.3 -1.7
v 1.4 3.3 -1.7
v 0.7 3.3 -1.8
v 0.8 3.3 -1.8
v 1.3 3.3 -1.8
v 1.4 3.3 -1.8
v 0.8 3.4 -1.7
v 0.9 3.4 -1.7
v 0.8 3.4 -1.8
v 0.9 3.4 -1.8
v 0.5 3.5 -1.5
v 0.6 3.5 -1.5
v 0.4 3.5 -1.6
v 0.5 3.5 -1.6
v 0 3.5 -1.7
v 0.4 3.5 -1.7
v 0.5 3.5 -1.7
v 0.6 3.5 -1.7
v 0.7 3.5 -1.7
v 0 3.5 -1.8
v 0.5 3.5 -1.8
v 0.6 3.5 -1.8
v 0.7 3.5 -1.8
v 0.9 3.6 -1.7
v 1.3 3.6 -1.7
v 1.4 3.6 -1.7
v 2 3.6 -1.7
v 0.9 3.6 -1.8
v 1.3 3.6 -1.8
v 1.4 3.6 -1.8
v 2 3.6 -1.8
v 0.2 3.9 -1.7
v 0.3 3.9 -1.7
v 0.2 3.9 -1.8
v 0.3 3.9 -1.8
v 0.6 4 -1.6
v 0.7 4 -1.6
v 0 4 -1.7
v 0.2 4 -1.7
v 0.4 4 -1.7
v 0.6 4 -1.7
v 0.7 4 -1.7
v 1 4 -1.7
v 1.1 4 -1.7
v 2 4 -1.7
v 0 4 -1.8
v 0.2 4 -1.8
v 0.4 4 -1.8
v 1 4 -1.8
v 1.1 4 -1.8
v 2 4 -1.8
v 0 4 -1.9
v 2 4 -1.9
v 0 4 -2
v 2 4 -2

# faces
f 5/4/1 2/4/1 1/4/1
f 6/3/1 3/3/1 2/3/1
f 6/4/1 2/4/1 5/4/1
f 8/3/1 3/3/1 6/3/1
f 9/4/1 8/4/1 7/4/1
f 10/3/1 3/3/1 8/3/1
f 10/4/1 8/4/1 9/4/1
f 12/3/1 3/3/1 10/3/1
f 13/4/1 12/4/1 11/4/1
f 14/3/1 3/3/1 12/3/1
f 14/4/1 12/4/1 13/4/1
f 16/3/1 3/3/1 14/3/1
f 17/4/1 16/4/1 15/4/1
f 18/3/1 3/3/1 16/3/1
f 18/4/1 16/4/1 17/4/1
f 20/3/1 3/3/1 18/3/1
f 21/4/1 20/4/1 19/4/1
f 22/3/1 3/3/1 20/3/1
f 22/4/1 20/4/1 21/4/1
f 24/3/1 3/3/1 22/3/1
f 25/4/1 24/4/1 23/4/1
f 26/3/1 3/3/1 24/3/1
f 26/4/1 24/4/1 25/4/1
f 27/2/1 4/2/1 3/2/1
f 27/3/1 3/3/1 26/3/1
f 28/2/1 4/2/1 27/2/1
f 31/1/1 30/1/1 29/1/1
f 32/1/1 30/1/1 31/1/1
f 35/1/1 33/1/1 32/1/1
f 36/1/1 33/1/1 35/1/1
f 37/1/1 35/1/1 34/1/1
f 38/1/1 35/1/1 37/1/1
f 42/1/1 40/1/1 39/1/1
f 42/4/1 41/4/1 40/4/1
f 43/4/1 41/4/1 42/4/1
f 44/1/1 42/1/1 39/1/1
f 45/1/1 42/1/1 44/1/1
f 48/1/1 47/1/1 46/1/1
f 49/1/1 47/1/1 48/1/1
f 52/1/1 51/1/1 50/1/1
f 53/1/1 51/1/1 52/1/1
f 55/4/1 54/4/1 53/4/1
f 56/4/1 54/4/1 55/4/1
f 59/1/1 58/1/1 57/1/1
f 60/1/1 58/1/1 59/1/1
f 63/4/1 62/4/1 61/4/1
f 64/4/1 62/4/1 63/4/1
f 67/4/1 66/4/1 65/4/1
f 68/4/1 66/4/1 67/4/1
f 72/1/1 70/1/1 69/1/1
f 73/1/1 70/1/1 72/1/1
f 74/1/1 72/1/1 71/1/1
f 75/1/1 72/1/1 74/1/1
f 78/4/1 77/4/1 76/4/1
f 79/4/1 77/4/1 78/4/1
f 82/4/1 81/4/1 80/4/1
f 83/4/1 81/4/1 82/4/1
f 86/4/1 85/4/1 84/4/1
f 87/4/1 85/4/1 86/4/1
f 90/1/1 89/1/1 88/1/1
f 91/1/1 89/1/1 90/1/1
f 94/1/1 93/1/1 92/1/1
f 95/1/1 93/1/1 94/1/1
f 98/1/1 97/1/1 96/1/1
f 99/1/1 97/1/1 98/1/1
f 102/4/1 101/4/1 100/4/1
f 104/4/1 102/4/1 100/4/1
f 104/3/1 103/3/1 102/3/1
f 105/3/1 103/3/1 104/3/1
f 106/4/1 104/4/1 100/4/1
f 107/4/1 104/4/1 106/4/1
f 110/4/1 109/4/1 108/4/1
f 111/4/1 109/4/1 110/4/1
f 114/1/1 113/1/1 112/1/1
f 115/1/1 113/1/1 114/1/1
f 118/1/1 117/1/1 116/1/1
f 119/1/1 117/1/1 118/1/1
f 122/1/1 121/1/1 120/1/1
f 123/1/1 121/1/1 122/1/1
f 126/1/1 125/1/1 124/1/1
f 127/1/1 125/1/1 126/1/1
f 131/4/1 129/4/1 128/4/1
f 132/1/1 131/1/1 130/1/1
f 133/4/1 129/4/1 131/4/1
f 133/1/1 131/1/1 132/1/1
f 134/4/1 129/4/1 133/4/1
f 137/4/1 136/4/1 135/4/1
f 138/4/1 136/4/1 137/4/1
f 141/1/1 140/1/1 139/1/1
f 142/1/1 140/1/1 141/1/1
f 146/1/1 144/1/1 143/1/1
f 147/1/1 144/1/1 146/1/1
f 148/1/1 146/1/1 145/1/1
f 149/1/1 146/1/1 148/1/1
f 152/1/1 151/1/1 150/1/1
f 153/1/1 151/1/1 152/1/1
f 156/4/1 155/4/1 154/4/1
f 157/4/1 155/4/1 156/4/1
f 160/1/1 159/1/1 158/1/1
f 161/1/1 159/1/1 160/1/1
f 164/1/1 163/1/1 162/1/1
f 165/1/1 163/1/1 164/1/1
f 167/1/1 166/1/1 165/1/1
f 168/1/1 166/1/1 167/1/1
f 171/4/1 170/4/1 169/4/1
f 172/4/1 170/4/1 171/4/1
f 175/1/1 174/1/1 173/1/1
f 176/1/1 174/1/1 175/1/1
f 179/4/1 178/4/1 177/4/1
f 180/4/1 178/4/1 179/4/1
f 183/4/1 182/4/1 181/4/1
f 184/4/1 182/4/1 183/4/1
f 187/4/1 186/4/1 185/4/1
f 188/4/1 186/4/1 187/4/1
f 191/4/1 190/4/1 189/4/1
f 192/4/1 190/4/1 191/4/1
f 195/4/1 194/4/1 193/4/1
f 196/4/1 194/4/1 195/4/1
f 199/4/1 198/4/1 197/4/1
f 200/4/1 198/4/1 199/4/1
f 203/4/1 202/4/1 201/4/1
f 204/4/1 202/4/1 203/4/1
f 207/4/1 206/4/1 205/4/1
f 208/4/1 206/4/1 207/4/1
f 211/4/1 210/4/1 209/4/1
f 212/4/1 210/4/1 211/4/1
f 215/4/1 214/4/1 213/4/1
f 216/4/1 214/4/1 215/4/1
f 219/4/1 218/4/1 217/4/1
f 220/4/1 218/4/1 219/4/1
f 223/4/1 222/4/1 221/4/1
f 224/4/1 222/4/1 223/4/1
f 227/4/1 226/4/1 225/4/1
f 228/4/1 226/4/1 227/4/1
f 231/4/1 230/4/1 229/4/1
f 232/4/1 230/4/1 231/4/1
f 235/4/1 234/4/1 233/4/1
f 236/4/1 234/4/1 235/4/1
f 237/4/2 238/4/2 239/4/2
f 239/4/2 238/4/2 240/4/2
f 241/1/2 242/1/2 243/1/2
f 243/1/2 242/1/2 244/1/2
f 244/1/2 245/1/2 247/1/2
f 247/1/2 245/1/2 248/1/2
f 246/1/2 247/1/2 249/1/2
f 249/1/2 247/1/2 250/1/2
f 251/1/2 252/1/2 253/1/2
f 253/1/2 252/1/2 254/1/2
f 255/4/2 256/4/2 257/4/2
f 257/4/2 256/4/2 258/4/2
f 259/4/2 260/4/2 261/4/2
f 261/4/2 260/4/2 262/4/2
f 263/1/2 264/1/2 265/1/2
f 265/1/2 264/1/2 266/1/2
f 267/4/2 268/4/2 270/4/2
f 270/4/2 268/4/2 271/4/2
f 269/1/2 270/1/2 272/1/2
f 272/1/2 270/1/2 273/1/2
f 274/4/2 275/4/2 276/4/2
f 276/4/2 275/4/2 277/4/2
f 278/4/2 279/4/2 280/4/2
f 280/4/2 279/4/2 281/4/2
f 282/4/2 283/4/2 284/4/2
f 284/4/2 283/4/2 285/4/2
f 286/1/2 287/1/2 288/1/2
f 288/1/2 287/1/2 289/1/2
f 290/4/2 291/4/2 292/4/2
f 290/4/2 292/4/2 294/4/2
f 292/3/2 293/3/2 295/3/2
f 294/4/2 292/4/2 295/4/2
f 295/3/2 293/3/2 296/3/2
f 297/1/2 298/1/2 299/1/2
f 299/1/2 298/1/2 300/1/2
f 301/1/2 302/1/2 303/1/2
f 303/1/2 302/1/2 304/1/2
f 305/1/2 306/1/2 307/1/2
f 307/1/2 306/1/2 308/1/2
f 308/1/2 309/1/2 310/1/2
f 310/1/2 309/1/2 311/1/2
f 310/4/2 311/4/2 312/4/2
f 312/4/2 311/4/2 313/4/2
f 314/1/2 315/1/2 318/1/2
f 315/4/2 316/4/2 319/4/2
f 318/1/2 315/1/2 319/1/2
f 319/4/2 316/4/2 320/4/2
f 317/1/2 318/1/2 321/1/2
f 318/1/2 319/1/2 321/1/2
f 321/1/2 319/1/2 322/1/2
f 322/1/2 323/1/2 324/1/2
f 324/1/2 323/1/2 325/1/2
f 326/1/2 327/1/2 328/1/2
f 328/1/2 327/1/2 329/1/2
f 330/1/2 331/1/2 332/1/2
f 332/1/2 331/1/2 333/1/2
f 334/4/2 335/4/2 336/4/2
f 336/4/2 335/4/2 337/4/2
f 338/1/2 339/1/2 340/1/2
f 340/1/2 339/1/2 341/1/2
f 342/1/2 343/1/2 344/1/2
f 344/1/2 343/1/2 345/1/2
f 346/1/2 347/1/2 348/1/2
f 348/1/2 347/1/2 349/1/2
f 350/1/2 351/1/2 352/1/2
f 352/1/2 351/1/2 353/1/2
f 354/1/2 355/1/2 357/1/2
f 355/4/2 356/4/2 358/4/2
f 357/1/2 355/1/2 358/1/2
f 358/4/2 356/4/2 359/4/2
f 360/1/2 361/1/2 362/1/2
f 362/1/2 361/1/2 363/1/2
f 364/1/2 365/1/2 366/1/2
f 366/1/2 365/1/2 367/1/2
f 368/4/2 369/4/2 370/4/2
f 370/4/2 369/4/2 371/4/2
f 372/4/2 373/4/2 374/4/2
f 374/4/2 373/4/2 375/4/2
f 376/1/2 377/1/2 378/1/2
f 378/1/2 377/1/2 379/1/2
f 380/1/2 381/1/2 383/1/2
f 383/1/2 381/1/2 384/1/2
f 382/1/2 383/1/2 385/1/2
f 385/1/2 383/1/2 386/1/2
f 387/4/2 388/4/2 389/4/2
f 389/4/2 388/4/2 390/4/2
f 391/4/2 392/4/2 393/4/2
f 393/4/2 392/4/2 394/4/2
f 395/1/2 396/1/2 397/1/2
f 397/1/2 396/1/2 398/1/2
f 399/4/2 400/4/2 401/4/2
f 401/4/2 400/4/2 402/4/2
f 403/4/2 404/4/2 405/4/2
f 405/4/2 404/4/2 406/4/2
f 407/4/2 408/4/2 409/4/2
f 409/4/2 408/4/2 410/4/2
f 411/4/2 412/4/2 413/4/2
f 413/4/2 412/4/2 414/4/2
f 415/4/2 416/4/2 417/4/2
f 417/4/2 416/4/2 418/4/2
f 419/4/2 420/4/2 421/4/2
f 421/4/2 420/4/2 422/4/2
f 423/4/2 424/4/2 425/4/2
f 425/4/2 424/4/2 426/4/2
f 427/4/2 428/4/2 429/4/2
f 429/4/2 428/4/2 430/4/2
f 431/4/2 432/4/2 433/4/2
f 433/4/2 432/4/2 434/4/2
f 435/4/2 436/4/2 437/4/2
f 437/4/2 436/4/2 438/4/2
f 439/4/2 440/4/2 441/4/2
f 441/4/2 440/4/2 442/4/2
f 443/4/2 444/4/2 445/4/2
f 445/4/2 444/4/2 446/4/2
f 447/4/2 448/4/2 449/4/2
f 449/4/2 448/4/2 450/4/2
f 451/4/2 452/4/2 453/4/2
f 453/4/2 452/4/2 454/4/2
f 455/4/2 456/4/2 457/4/2
f 457/4/2 456/4/2 458/4/2
f 459/4/2 460/4/2 463/4/2
f 460/3/2 461/3/2 464/3/2
f 463/4/2 460/4/2 464/4/2
f 464/3/2 461/3/2 466/3/2
f 465/4/2 466/4/2 467/4/2
f 466/3/2 461/3/2 468/3/2
f 467/4/2 466/4/2 468/4/2
f 468/3/2 461/3/2 470/3/2
f 469/4/2 470/4/2 471/4/2
f 470/3/2 461/3/2 472/3/2
f 471/4/2 470/4/2 472/4/2
f 472/3/2 461/3/2 474/3/2
f 473/4/2 474/4/2 475/4/2
f 474/3/2 461/3/2 476/3/2
f 475/4/2 474/4/2 476/4/2
f 476/3/2 461/3/2 478/3/2
f 477/4/2 478/4/2 479/4/2
f 478/3/2 461/3/2 480/3/2
f 479/4/2 478/4/2 480/4/2
f 461/2/2 462/2/2 481/2/2
f 480/3/2 461/3/2 481/3/2
f 481/2/2 462/2/2 482/2/2
f 485/1/3 484/1/3 483/1/3
f 486/1/3 484/1/3 485/1/3
f 494/1/3 488/1/3 487/1/3
f 495/1/3 488/1/3 494/1/3
f 496/1/3 490/1/3 489/1/3
f 497/1/3 490/1/3 496/1/3
f 498/1/3 492/1/3 491/1/3
f 499/1/3 492/1/3 498/1/3
f 500/1/3 492/1/3 499/1/3
f 502/1/3 494/1/3 493/1/3
f 503/1/3 494/1/3 502/1/3
f 504/1/3 501/1/3 500/1/3
f 504/1/3 500/1/3 499/1/3
f 505/1/3 501/1/3 504/1/3
f 506/1/3 501/1/3 505/1/3
f 508/1/3 507/1/3 506/1/3
f 508/1/3 506/1/3 505/1/3
f 509/1/3 507/1/3 508/1/3
f 513/1/3 507/1/3 509/1/3
f 514/1/3 507/1/3 513/1/3
f 515/1/3 511/1/3 510/1/3
f 516/1/3 511/1/3 515/1/3
f 517/1/3 511/1/3 516/1/3
f 518/1/3 511/1/3 517/1/3
f 520/1/3 513/1/3 512/1/3
f 521/1/3 513/1/3 520/1/3
f 522/1/3 513/1/3 521/1/3
f 524/1/3 517/1/3 516/1/3
f 525/1/3 517/1/3 524/1/3
f 530/1/3 520/1/3 519/1/3
f 530/1/3 521/1/3 520/1/3
f 531/1/3 521/1/3 530/1/3
f 533/1/3 524/1/3 523/1/3
f 534/1/3 524/1/3 533/1/3
f 535/1/3 524/1/3 534/1/3
f 536/1/3 527/1/3 526/1/3
f 537/1/3 527/1/3 536/1/3
f 539/1/3 529/1/3 528/1/3
f 540/1/3 529/1/3 539/1/3
f 544/1/3 534/1/3 533/1/3
f 544/1/3 533/1/3 532/1/3
f 545/1/3 534/1/3 544/1/3
f 546/1/3 534/1/3 545/1/3
f 547/1/3 539/1/3 538/1/3
f 548/1/3 539/1/3 547/1/3
f 549/1/3 529/1/3 540/1/3
f 550/1/3 529/1/3 549/1/3
f 551/1/3 542/1/3 541/1/3
f 552/1/3 542/1/3 551/1/3
f 553/1/3 542/1/3 552/1/3
f 557/1/3 545/1/3 544/1/3
f 557/1/3 544/1/3 543/1/3
f 558/1/3 545/1/3 557/1/3
f 559/1/3 554/1/3 553/1/3
f 559/1/3 553/1/3 552/1/3
f 560/1/3 554/1/3 559/1/3
f 561/1/3 554/1/3 560/1/3
f 562/1/3 556/1/3 555/1/3
f 563/1/3 557/1/3 543/1/3
f 564/1/3 557/1/3 563/1/3
f 565/1/3 562/1/3 561/1/3
f 565/1/3 561/1/3 560/1/3
f 566/1/3 556/1/3 562/1/3
f 566/1/3 562/1/3 565/1/3
f 579/4/3 570/4/3 569/4/3
f 580/4/3 570/4/3 579/4/3
f 581/4/3 572/4/3 571/4/3
f 582/4/3 572/4/3 581/4/3
f 583/4/3 572/4/3 582/4/3
f 584/4/3 574/4/3 573/4/3
f 585/4/3 574/4/3 584/4/3
f 586/4/3 574/4/3 585/4/3
f 587/4/3 574/4/3 586/4/3
f 588/4/3 579/4/3 569/4/3
f 589/4/3 579/4/3 588/4/3
f 590/1/3 581/1/3 580/1/3
f 591/1/3 581/1/3 590/1/3
f 592/4/3 583/4/3 582/4/3
f 593/4/3 583/4/3 592/4/3
f 595/4/3 586/4/3 585/4/3
f 596/4/3 586/4/3 595/4/3
f 598/4/3 578/4/3 577/4/3
f 599/4/3 578/4/3 598/4/3
f 600/4/3 568/4/3 567/4/3
f 601/4/3 568/4/3 600/4/3
f 602/4/3 588/4/3 569/4/3
f 603/4/3 590/4/3 589/4/3
f 604/4/3 594/4/3 593/4/3
f 604/4/3 593/4/3 592/4/3
f 604/4/3 592/4/3 591/4/3
f 605/4/3 594/4/3 604/4/3
f 607/4/3 597/4/3 596/4/3
f 608/4/3 597/4/3 607/4/3
f 609/4/3 598/4/3 577/4/3
f 610/4/3 598/4/3 609/4/3
f 611/4/3 600/4/3 567/4/3
f 612/4/3 600/4/3 611/4/3
f 614/4/3 603/4/3 602/4/3
f 614/4/3 602/4/3 569/4/3
f 615/4/3 604/4/3 591/4/3
f 616/4/3 604/4/3 615/4/3
f 618/4/3 606/4/3 605/4/3
f 619/4/3 606/4/3 618/4/3
f 622/4/3 576/4/3 575/4/3
f 623/4/3 576/4/3 622/4/3
f 626/4/3 611/4/3 567/4/3
f 627/4/3 611/4/3 626/4/3
f 629/4/3 614/4/3 613/4/3
f 631/4/3 620/4/3 619/4/3
f 631/4/3 619/4/3 618/4/3
f 631/4/3 618/4/3 617/4/3
f 632/4/3 620/4/3 631/4/3
f 633/4/3 620/4/3 632/4/3
f 634/1/3 622/1/3 621/1/3
f 635/1/3 622/1/3 634/1/3
f 638/4/3 625/4/3 624/4/3
f 640/4/3 629/4/3 628/4/3
f 642/4/3 631/4/3 630/4/3
f 642/4/3 632/4/3 631/4/3
f 643/4/3 632/4/3 642/4/3
f 644/4/3 632/4/3 643/4/3
f 646/1/3 634/1/3 633/1/3
f 647/4/3 636/4/3 635/4/3
f 647/4/3 635/4/3 634/4/3
f 647/1/3 634/1/3 646/1/3
f 648/4/3 636/4/3 647/4/3
f 649/4/3 636/4/3 648/4/3
f 651/1/3 638/1/3 637/1/3
f 652/4/3 625/4/3 638/4/3
f 652/1/3 638/1/3 651/1/3
f 653/4/3 625/4/3 652/4/3
f 654/4/3 614/4/3 629/4/3
f 654/4/3 603/4/3 614/4/3
f 654/4/3 640/4/3 639/4/3
f 654/4/3 629/4/3 640/4/3
f 655/4/3 590/4/3 603/4/3
f 655/4/3 603/4/3 654/4/3
f 656/4/3 643/4/3 642/4/3
f 656/4/3 642/4/3 641/4/3
f 657/4/3 646/4/3 645/4/3
f 663/4/3 651/4/3 650/4/3
f 664/4/3 651/4/3 663/4/3
f 667/4/3 654/4/3 639/4/3
f 668/4/3 654/4/3 667/4/3
f 671/4/3 656/4/3 641/4/3
f 671/4/3 657/4/3 656/4/3
f 672/4/3 657/4/3 671/4/3
f 673/4/3 659/4/3 658/4/3
f 674/4/3 659/4/3 673/4/3
f 676/4/3 662/4/3 661/4/3
f 676/4/3 661/4/3 660/4/3
f 677/4/3 662/4/3 676/4/3
f 679/4/3 667/4/3 639/4/3
f 680/4/3 669/4/3 668/4/3
f 681/4/3 669/4/3 680/4/3
f 682/1/3 671/1/3 670/1/3
f 683/1/3 671/1/3 682/1/3
f 685/4/3 657/4/3 672/4/3
f 686/4/3 657/4/3 685/4/3
f 687/4/3 646/4/3 657/4/3
f 687/4/3 657/4/3 686/4/3
f 688/4/3 646/4/3 687/4/3
f 691/4/3 678/4/3 677/4/3
f 691/4/3 677/4/3 676/4/3
f 691/4/3 676/4/3 675/4/3
f 692/4/3 678/4/3 691/4/3
f 693/4/3 666/4/3 665/4/3
f 694/4/3 666/4/3 693/4/3
f 695/4/3 681/4/3 680/4/3
f 695/4/3 680/4/3 679/4/3
f 696/4/3 681/4/3 695/4/3
f 697/4/3 684/4/3 683/4/3
f 697/4/3 683/4/3 682/4/3
f 699/4/3 687/4/3 686/4/3
f 700/4/3 687/4/3 699/4/3
f 701/1/3 689/1/3 688/1/3
f 702/1/3 689/1/3 701/1/3
f 703/4/3 692/4/3 691/4/3
f 703/4/3 693/4/3 692/4/3
f 703/4/3 691/4/3 690/4/3
f 704/4/3 666/4/3 694/4/3
f 705/4/3 666/4/3 704/4/3
f 706/4/3 679/4/3 639/4/3
f 706/4/3 695/4/3 679/4/3
f 707/4/3 695/4/3 706/4/3
f 708/4/3 698/4/3 697/4/3
f 712/4/3 706/4/3 639/4/3
f 713/4/3 706/4/3 712/4/3
f 717/4/3 714/4/3 713/4/3
f 718/4/3 714/4/3 717/4/3
f 719/4/3 697/4/3 682/4/3
f 719/4/3 709/4/3 708/4/3
f 719/4/3 708/4/3 697/4/3
f 720/4/3 709/4/3 719/4/3
f 721/4/3 693/4/3 703/4/3
f 721/4/3 703/4/3 702/4/3
f 722/4/3 693/4/3 721/4/3
f 723/4/3 716/4/3 715/4/3
f 725/4/3 714/4/3 718/4/3
f 726/4/3 714/4/3 725/4/3
f 729/4/3 709/4/3 720/4/3
f 730/4/3 709/4/3 729/4/3
f 731/4/3 709/4/3 730/4/3
f 732/4/3 709/4/3 731/4/3
f 733/4/3 721/4/3 702/4/3
f 734/4/3 721/4/3 733/4/3
f 735/4/3 721/4/3 734/4/3
f 736/4/3 721/4/3 735/4/3
f 738/4/3 724/4/3 723/4/3
f 739/4/3 714/4/3 726/4/3
f 740/4/3 714/4/3 739/4/3
f 741/4/3 728/4/3 727/4/3
f 743/4/3 731/4/3 730/4/3
f 744/4/3 731/4/3 743/4/3
f 745/4/3 709/4/3 732/4/3
f 746/4/3 709/4/3 745/4/3
f 749/4/3 735/4/3 734/4/3
f 750/4/3 735/4/3 749/4/3
f 751/4/3 739/4/3 738/4/3
f 753/4/3 714/4/3 740/4/3
f 754/4/3 714/4/3 753/4/3
f 755/4/3 742/4/3 741/4/3
f 757/4/3 748/4/3 747/4/3
f 760/4/3 737/4/3 736/4/3
f 761/4/3 752/4/3 751/4/3
f 763/4/3 760/4/3 759/4/3
f 764/4/3 760/4/3 763/4/3
f 765/4/3 758/4/3 757/4/3
f 767/4/3 762/4/3 761/4/3
f 767/4/3 723/4/3 715/4/3
f 767/4/3 738/4/3 723/4/3
f 767/4/3 751/4/3 738/4/3
f 767/4/3 761/4/3 751/4/3
f 768/4/3 762/4/3 767/4/3
f 769/4/3 756/4/3 755/4/3
f 769/4/3 741/4/3 727/4/3
f 769/4/3 755/4/3 741/4/3
f 770/4/3 756/4/3 769/4/3
f 771/4/3 766/4/3 765/4/3
f 771/4/3 757/4/3 747/4/3
f 771/4/3 765/4/3 757/4/3
f 772/4/3 766/4/3 771/4/3
f 773/4/3 760/4/3 764/4/3
f 774/4/3 737/4/3 760/4/3
f 774/4/3 760/4/3 773/4/3
f 775/4/3 711/4/3 710/4/3
f 776/4/3 711/4/3 775/4/3
f 787/3/3 780/3/3 779/3/3
f 788/3/3 780/3/3 787/3/3
f 789/3/3 782/3/3 781/3/3
f 790/3/3 782/3/3 789/3/3
f 792/3/3 784/3/3 783/3/3
f 795/3/3 792/3/3 791/3/3
f 796/3/3 784/3/3 792/3/3
f 796/3/3 792/3/3 795/3/3
f 800/3/3 778/3/3 777/3/3
f 803/3/3 786/3/3 785/3/3
f 804/3/3 798/3/3 797/3/3
f 806/3/3 800/3/3 799/3/3
f 807/3/3 778/3/3 800/3/3
f 807/3/3 800/3/3 806/3/3
f 808/3/3 778/3/3 807/3/3
f 809/3/3 794/3/3 793/3/3
f 810/3/3 802/3/3 801/3/3
f 811/3/3 802/3/3 810/3/3
f 812/3/3 802/3/3 811/3/3
f 813/3/3 784/3/3 796/3/3
f 814/3/3 784/3/3 813/3/3
f 815/3/3 803/3/3 785/3/3
f 815/3/3 804/3/3 803/3/3
f 816/3/3 798/3/3 804/3/3
f 816/3/3 804/3/3 815/3/3
f 819/3/3 806/3/3 805/3/3
f 819/3/3 807/3/3 806/3/3
f 820/3/3 807/3/3 819/3/3
f 821/3/3 807/3/3 820/3/3
f 822/3/3 811/3/3 810/3/3
f 822/3/3 810/3/3 809/3/3
f 823/3/3 811/3/3 822/3/3
f 824/3/3 815/3/3 785/3/3
f 825/3/3 815/3/3 824/3/3
f 826/3/3 818/3/3 817/3/3
f 827/3/3 818/3/3 826/3/3
f 828/3/3 820/3/3 819/3/3
f 829/3/3 820/3/3 828/3/3
f 830/3/3 809/3/3 793/3/3
f 830/3/3 822/3/3 809/3/3
f 831/3/3 822/3/3 830/3/3
f 839/3/3 834/3/3 833/3/3
f 839/3/3 833/3/3 832/3/3
f 840/3/3 834/3/3 839/3/3
f 841/3/3 836/3/3 835/3/3
f 842/3/3 836/3/3 841/3/3
f 843/3/3 836/3/3 842/3/3
f 844/3/3 838/3/3 837/3/3
f 845/3/3 830/3/3 793/3/3
f 846/3/3 830/3/3 845/3/3
f 847/3/3 843/3/3 842/3/3
f 847/3/3 844/3/3 843/3/3
f 848/3/3 844/3/3 847/3/3
f 851/3/3 839/3/3 832/3/3
f 852/3/3 839/3/3 851/3/3
f 853/3/3 844/3/3 848/3/3
f 854/3/3 838/3/3 844/3/3
f 854/3/3 844/3/3 853/3/3
f 857/3/3 850/3/3 849/3/3
f 860/3/3 855/3/3 854/3/3
f 863/3/3 857/3/3 856/3/3
f 864/3/3 861/3/3 860/3/3
f 864/3/3 860/3/3 854/3/3
f 865/3/3 861/3/3 864/3/3
f 867/3/3 863/3/3 862/3/3
f 868/3/3 850/3/3 857/3/3
f 868/3/3 857/3/3 863/3/3
f 868/3/3 863/3/3 867/3/3
f 869/3/3 867/3/3 866/3/3
f 870/3/3 867/3/3 869/3/3
f 871/3/3 867/3/3 870/3/3
f 873/3/3 850/3/3 868/3/3
f 876/3/3 864/3/3 854/3/3
f 877/3/3 872/3/3 871/3/3
f 877/3/3 871/3/3 870/3/3
f 878/3/3 872/3/3 877/3/3
f 879/3/3 872/3/3 878/3/3
f 881/3/3 874/3/3 873/3/3
f 881/3/3 873/3/3 868/3/3
f 882/3/3 874/3/3 881/3/3
f 883/3/3 874/3/3 882/3/3
f 887/3/3 859/3/3 858/3/3
f 890/3/3 876/3/3 875/3/3
f 891/3/3 864/3/3 876/3/3
f 891/3/3 876/3/3 890/3/3
f 892/3/3 880/3/3 879/3/3
f 892/3/3 879/3/3 878/3/3
f 893/3/3 880/3/3 892/3/3
f 895/3/3 884/3/3 883/3/3
f 895/3/3 883/3/3 882/3/3
f 896/3/3 884/3/3 895/3/3
f 897/3/3 884/3/3 896/3/3
f 898/3/3 886/3/3 885/3/3
f 899/3/3 886/3/3 898/3/3
f 900/3/3 888/3/3 887/3/3
f 900/3/3 887/3/3 858/3/3
f 901/3/3 888/3/3 900/3/3
f 902/3/3 888/3/3 901/3/3
f 903/3/3 888/3/3 902/3/3
f 904/3/3 890/3/3 889/3/3
f 905/3/3 894/3/3 893/3/3
f 906/3/3 894/3/3 905/3/3
f 907/3/3 894/3/3 906/3/3
f 908/3/3 881/3/3 868/3/3
f 909/3/3 897/3/3 896/3/3
f 909/3/3 899/3/3 898/3/3
f 909/3/3 898/3/3 897/3/3
f 909/3/3 900/3/3 899/3/3
f 909/3/3 901/3/3 900/3/3
f 910/3/3 901/3/3 909/3/3
f 911/3/3 903/3/3 902/3/3
f 911/3/3 904/3/3 903/3/3
f 912/3/3 904/3/3 911/3/3
f 913/3/3 904/3/3 912/3/3
f 914/3/3 890/3/3 904/3/3
f 914/3/3 904/3/3 913/3/3
f 915/3/3 908/3/3 907/3/3
f 915/3/3 907/3/3 906/3/3
f 916/3/3 881/3/3 908/3/3
f 916/3/3 908/3/3 915/3/3
f 917/3/3 913/3/3 912/3/3
f 919/3/3 917/3/3 912/3/3
f 919/3/3 918/3/3 917/3/3
f 920/3/3 918/3/3 919/3/3
f 921/3/3 881/3/3 916/3/3
f 922/3/3 881/3/3 921/3/3
f 923/3/3 901/3/3 910/3/3
f 924/3/3 901/3/3 923/3/3
f 925/3/3 918/3/3 920/3/3
f 926/3/3 918/3/3 925/3/3
f 927/3/3 864/3/3 891/3/3
f 928/3/3 864/3/3 927/3/3
f 931/2/3 930/2/3 929/2/3
f 932/2/3 930/2/3 931/2/3
f 933/2/4 934/2/4 935/2/4
f 935/2/4 934/2/4 936/2/4
f 943/4/5 938/4/5 937/4/5
f 944/4/5 938/4/5 943/4/5
f 945/4/5 940/4/5 939/4/5
f 946/4/5 940/4/5 945/4/5
f 947/4/5 942/4/5 941/4/5
f 948/4/5 942/4/5 947/4/5
f 949/3/5 946/3/5 945/3/5
f 949/3/5 944/3/5 943/3/5
f 949/3/5 948/3/5 947/3/5
f 949/3/5 947/3/5 946/3/5
f 949/3/5 945/3/5 944/3/5
f 950/3/5 948/3/5 949/3/5
f 951/2/5 950/2/5 949/2/5
f 952/2/5 950/2/5 951/2/5
f 955/3/5 954/3/5 953/3/5
f 956/3/5 954/3/5 955/3/5
f 959/4/5 958/4/5 957/4/5
f 960/4/5 958/4/5 959/4/5
f 965/4/5 962/4/5 961/4/5
f 966/4/5 962/4/5 965/4/5
f 967/4/5 964/4/5 963/4/5
f 968/4/5 964/4/5 967/4/5
f 973/1/5 970/1/5 969/1/5
f 974/1/5 970/1/5 973/1/5
f 977/4/5 972/4/5 971/4/5
f 978/4/5 972/4/5 977/4/5
f 979/4/5 976/4/5 975/4/5
f 980/4/5 976/4/5 979/4/5
f 983/1/5 982/1/5 981/1/5
f 984/1/5 982/1/5 983/1/5
f 987/4/5 986/4/5 985/4/5
f 988/4/5 986/4/5 987/4/5
f 991/1/5 990/1/5 989/1/5
f 992/1/5 990/1/5 991/1/5
f 995/4/5 994/4/5 993/4/5
f 996/4/5 994/4/5 995/4/5
f 1001/1/5 998/1/5 997/1/5
f 1002/1/5 998/1/5 1001/1/5
f 1003/1/5 1000/1/5 999/1/5
f 1004/1/5 1000/1/5 1003/1/5
f 1009/4/5 1006/4/5 1005/4/5
f 1010/4/5 1006/4/5 1009/4/5
f 1011/4/5 1008/4/5 1007/4/5
f 1012/4/5 1008/4/5 1011/4/5
f 1018/1/5 1014/1/5 1013/1/5
f 1019/1/5 1014/1/5 1018/1/5
f 1022/1/5 1016/1/5 1015/1/5
f 1023/1/5 1016/1/5 1022/1/5
f 1024/4/5 1018/4/5 1017/4/5
f 1025/4/5 1018/4/5 1024/4/5
f 1026/4/5 1020/4/5 1019/4/5
f 1027/4/5 1020/4/5 1026/4/5
f 1028/4/5 1022/4/5 1021/4/5
f 1029/4/5 1022/4/5 1028/4/5
f 1032/4/5 1031/4/5 1030/4/5
f 1033/4/5 1031/4/5 1032/4/5
f 1036/1/5 1035/1/5 1034/1/5
f 1037/1/5 1035/1/5 1036/1/5
f 1042/1/5 1039/1/5 1038/1/5
f 1043/1/5 1039/1/5 1042/1/5
f 1044/1/5 1041/1/5 1040/1/5
f 1045/1/5 1041/1/5 1044/1/5
f 1048/4/5 1047/4/5 1046/4/5
f 1049/4/5 1047/4/5 1048/4/5
f 1054/4/5 1051/4/5 1050/4/5
f 1055/4/5 1051/4/5 1054/4/5
f 1056/4/5 1053/4/5 1052/4/5
f 1057/4/5 1053/4/5 1056/4/5
f 1060/1/5 1059/1/5 1058/1/5
f 1061/1/5 1059/1/5 1060/1/5
f 1064/4/5 1063/4/5 1062/4/5
f 1065/4/5 1063/4/5 1064/4/5
f 1070/1/5 1067/1/5 1066/1/5
f 1071/1/5 1067/1/5 1070/1/5
f 1073/1/5 1069/1/5 1068/1/5
f 1074/1/5 1069/1/5 1073/1/5
f 1075/4/5 1072/4/5 1071/4/5
f 1076/4/5 1072/4/5 1075/4/5
f 1079/4/5 1078/4/5 1077/4/5
f 1080/4/5 1078/4/5 1079/4/5
f 1083/1/5 1082/1/5 1081/1/5
f 1084/1/5 1082/1/5 1083/1/5
f 1087/1/5 1086/1/5 1085/1/5
f 1088/1/5 1086/1/5 1087/1/5
f 1091/1/5 1090/1/5 1089/1/5
f 1092/1/5 1090/1/5 1091/1/5
f 1096/1/5 1094/1/5 1093/1/5
f 1097/1/5 1094/1/5 1096/1/5
f 1098/1/5 1094/1/5 1097/1/5
f 1102/4/5 1096/4/5 1095/4/5
f 1102/4/5 1097/4/5 1096/4/5
f 1103/4/5 1097/4/5 1102/4/5
f 1104/4/5 1099/4/5 1098/4/5
f 1105/4/5 1099/4/5 1104/4/5
f 1106/4/5 1101/4/5 1100/4/5
f 1107/4/5 1101/4/5 1106/4/5
f 1113/1/5 1109/1/5 1108/1/5
f 1114/1/5 1109/1/5 1113/1/5
f 1115/1/5 1111/1/5 1110/1/5
f 1116/1/5 1111/1/5 1115/1/5
f 1117/4/5 1113/4/5 1112/4/5
f 1118/4/5 1113/4/5 1117/4/5
f 1121/1/5 1120/1/5 1119/1/5
f 1122/1/5 1120/1/5 1121/1/5
f 1125/4/5 1122/4/5 1121/4/5
f 1126/4/5 1122/4/5 1125/4/5
f 1127/4/5 1124/4/5 1123/4/5
f 1128/4/5 1124/4/5 1127/4/5
f 1131/1/5 1130/1/5 1129/1/5
f 1132/1/5 1130/1/5 1131/1/5
f 1135/4/5 1134/4/5 1133/4/5
f 1136/4/5 1134/4/5 1135/4/5
f 1139/4/5 1138/4/5 1137/4/5
f 1140/4/5 1138/4/5 1139/4/5
f 1143/4/5 1142/4/5 1141/4/5
f 1144/4/5 1142/4/5 1143/4/5
f 1147/1/5 1146/1/5 1145/1/5
f 1148/1/5 1146/1/5 1147/1/5
f 1151/4/5 1150/4/5 1149/4/5
f 1152/4/5 1150/4/5 1151/4/5
f 1159/1/5 1154/1/5 1153/1/5
f 1160/1/5 1154/1/5 1159/1/5
f 1162/4/5 1156/4/5 1155/4/5
f 1163/4/5 1156/4/5 1162/4/5
f 1164/4/5 1158/4/5 1157/4/5
f 1165/4/5 1158/4/5 1164/4/5
f 1166/4/5 1161/4/5 1160/4/5
f 1166/4/5 1160/4/5 1159/4/5
f 1167/4/5 1161/4/5 1166/4/5
f 1172/4/5 1169/4/5 1168/4/5
f 1173/4/5 1169/4/5 1172/4/5
f 1174/4/5 1171/4/5 1170/4/5
f 1175/4/5 1171/4/5 1174/4/5
f 1176/3/6 1177/3/6 1178/3/6
f 1178/3/6 1177/3/6 1179/3/6
f 1180/4/6 1181/4/6 1182/4/6
f 1182/4/6 1181/4/6 1183/4/6
f 1184/4/6 1185/4/6 1188/4/6
f 1188/4/6 1185/4/6 1189/4/6
f 1186/4/6 1187/4/6 1190/4/6
f 1190/4/6 1187/4/6 1191/4/6
f 1192/4/6 1193/4/6 1198/4/6
f 1198/4/6 1193/4/6 1199/4/6
f 1194/4/6 1195/4/6 1200/4/6
f 1200/4/6 1195/4/6 1201/4/6
f 1196/4/6 1197/4/6 1202/4/6
f 1202/4/6 1197/4/6 1203/4/6
f 1204/1/6 1205/1/6 1206/1/6
f 1206/1/6 1205/1/6 1207/1/6
f 1208/4/6 1209/4/6 1210/4/6
f 1210/4/6 1209/4/6 1211/4/6
f 1212/4/6 1213/4/6 1214/4/6
f 1214/4/6 1213/4/6 1215/4/6
f 1216/4/6 1217/4/6 1218/4/6
f 1218/4/6 1217/4/6 1219/4/6
f 1220/1/6 1221/1/6 1222/1/6
f 1222/1/6 1221/1/6 1223/1/6
f 1224/4/6 1225/4/6 1230/4/6
f 1230/4/6 1225/4/6 1231/4/6
f 1226/4/6 1227/4/6 1232/4/6
f 1232/4/6 1227/4/6 1233/4/6
f 1228/4/6 1229/4/6 1234/4/6
f 1234/4/6 1229/4/6 1235/4/6
f 1236/1/6 1237/1/6 1241/1/6
f 1241/1/6 1237/1/6 1242/1/6
f 1238/1/6 1239/1/6 1243/1/6
f 1243/1/6 1239/1/6 1244/1/6
f 1244/1/6 1239/1/6 1245/1/6
f 1240/4/6 1241/4/6 1246/4/6
f 1246/4/6 1241/4/6 1247/4/6
f 1243/4/6 1244/4/6 1248/4/6
f 1242/4/6 1243/4/6 1248/4/6
f 1248/4/6 1244/4/6 1249/4/6
f 1250/1/6 1251/1/6 1252/1/6
f 1252/1/6 1251/1/6 1253/1/6
f 1254/4/6 1255/4/6 1256/4/6
f 1256/4/6 1255/4/6 1257/4/6
f 1258/1/6 1259/1/6 1264/1/6
f 1264/1/6 1259/1/6 1265/1/6
f 1260/4/6 1261/4/6 1266/4/6
f 1266/4/6 1261/4/6 1267/4/6
f 1262/4/6 1263/4/6 1268/4/6
f 1268/4/6 1263/4/6 1269/4/6
f 1270/4/6 1271/4/6 1272/4/6
f 1272/4/6 1271/4/6 1273/4/6
f 1274/1/6 1275/1/6 1276/1/6
f 1276/1/6 1275/1/6 1277/1/6
f 1278/4/6 1279/4/6 1280/4/6
f 1280/4/6 1279/4/6 1281/4/6
f 1282/1/6 1283/1/6 1286/1/6
f 1286/1/6 1283/1/6 1287/1/6
f 1284/1/6 1285/1/6 1288/1/6
f 1288/1/6 1285/1/6 1289/1/6
f 1290/1/6 1291/1/6 1293/1/6
f 1293/1/6 1291/1/6 1294/1/6
f 1292/4/6 1293/4/6 1295/4/6
f 1295/4/6 1293/4/6 1296/4/6
f 1297/1/6 1298/1/6 1301/1/6
f 1301/1/6 1298/1/6 1302/1/6
f 1299/1/6 1300/1/6 1303/1/6
f 1303/1/6 1300/1/6 1304/1/6
f 1304/1/6 1300/1/6 1305/1/6
f 1302/4/6 1303/4/6 1309/4/6
f 1309/4/6 1303/4/6 1310/4/6
f 1305/4/6 1306/4/6 1311/4/6
f 1304/4/6 1305/4/6 1311/4/6
f 1311/4/6 1306/4/6 1312/4/6
f 1307/4/6 1308/4/6 1313/4/6
f 1313/4/6 1308/4/6 1314/4/6
f 1315/1/6 1316/1/6 1320/1/6
f 1320/1/6 1316/1/6 1321/1/6
f 1321/1/6 1316/1/6 1322/1/6
f 1317/4/6 1318/4/6 1323/4/6
f 1323/4/6 1318/4/6 1324/4/6
f 1319/4/6 1320/4/6 1325/4/6
f 1320/4/6 1321/4/6 1325/4/6
f 1325/4/6 1321/4/6 1326/4/6
f 1327/1/6 1328/1/6 1329/1/6
f 1329/1/6 1328/1/6 1330/1/6
f 1331/4/6 1332/4/6 1333/4/6
f 1333/4/6 1332/4/6 1334/4/6
f 1335/1/6 1336/1/6 1337/1/6
f 1337/1/6 1336/1/6 1338/1/6
f 1339/1/6 1340/1/6 1341/1/6
f 1341/1/6 1340/1/6 1342/1/6
f 1343/4/6 1344/4/6 1345/4/6
f 1345/4/6 1344/4/6 1346/4/6
f 1347/1/6 1348/1/6 1349/1/6
f 1349/1/6 1348/1/6 1350/1/6
f 1349/4/6 1350/4/6 1353/4/6
f 1353/4/6 1350/4/6 1354/4/6
f 1351/4/6 1352/4/6 1355/4/6
f 1355/4/6 1352/4/6 1356/4/6
f 1357/4/6 1358/4/6 1359/4/6
f 1359/4/6 1358/4/6 1360/4/6
f 1361/4/6 1362/4/6 1365/4/6
f 1365/4/6 1362/4/6 1366/4/6
f 1363/4/6 1364/4/6 1367/4/6
f 1367/4/6 1364/4/6 1368/4/6
f 1369/4/6 1370/4/6 1371/4/6
f 1371/4/6 1370/4/6 1372/4/6
f 1373/1/6 1374/1/6 1376/1/6
f 1375/1/6 1376/1/6 1378/1/6
f 1376/1/6 1374/1/6 1379/1/6
f 1378/1/6 1376/1/6 1379/1/6
f 1379/1/6 1374/1/6 1380/1/6
f 1377/4/6 1378/4/6 1382/4/6
f 1378/4/6 1379/4/6 1382/4/6
f 1382/4/6 1379/4/6 1383/4/6
f 1380/4/6 1381/4/6 1384/4/6
f 1384/4/6 1381/4/6 1385/4/6
f 1386/4/6 1387/4/6 1390/4/6
f 1390/4/6 1387/4/6 1391/4/6
f 1388/4/6 1389/4/6 1392/4/6
f 1392/4/6 1389/4/6 1393/4/6
f 1394/4/6 1395/4/6 1396/4/6
f 1396/4/6 1395/4/6 1397/4/6
f 1398/1/6 1399/1/6 1403/1/6
f 1403/1/6 1399/1/6 1404/1/6
f 1400/4/6 1401/4/6 1408/4/6
f 1408/4/6 1401/4/6 1409/4/6
f 1402/4/6 1403/4/6 1410/4/6
f 1403/4/6 1404/4/6 1410/4/6
f 1404/4/6 1405/4/6 1410/4/6
f 1410/4/6 1405/4/6 1411/4/6
f 1406/4/6 1407/4/6 1412/4/6
f 1412/4/6 1407/4/6 1413/4/6
f 1410/3/6 1411/3/6 1414/3/6
f 1408/3/6 1409/3/6 1414/3/6
f 1412/3/6 1413/3/6 1414/3/6
f 1411/3/6 1412/3/6 1414/3/6
f 1409/3/6 1410/3/6 1414/3/6
f 1414/3/6 1413/3/6 1415/3/6
f 1414/2/6 1415/2/6 1416/2/6
f 1416/2/6 1415/2/6 1417/2/6
