# MagicaVoxel @ Ephtracy

# group
o 

# material
mtllib wall3.mtl
usemtl palette

# normals
vn -1 0 0
vn 1 0 0
vn 0 0 1
vn 0 0 -1
vn 0 -1 0
vn 0 1 0

# texcoords
vt 0.970703 0.5
vt 0.974609 0.5
vt 0.978516 0.5

# verts
v 0.1 0 -1.7
v 0.1 0 -1.8
v 0.1 0 -1.9
v 0.1 0 -2
v 0.1 1.1 -1.7
v 0.1 1.1 -1.8
v 0.1 1.2 -1.7
v 0.1 1.2 -1.8
v 0.1 1.6 -1.7
v 0.1 1.6 -1.8
v 0.1 1.7 -1.7
v 0.1 1.7 -1.8
v 0.1 2.4 -1.7
v 0.1 2.4 -1.8
v 0.1 2.5 -1.7
v 0.1 2.5 -1.8
v 0.1 3.3 -1.7
v 0.1 3.3 -1.8
v 0.1 3.4 -1.7
v 0.1 3.4 -1.8
v 0.1 3.6 -1.7
v 0.1 3.6 -1.8
v 0.1 3.7 -1.7
v 0.1 3.7 -1.8
v 0.1 4 -1.7
v 0.1 4 -1.8
v 0.1 4 -1.9
v 0.1 4 -2
v 0.5 1.6 -1.7
v 0.5 1.6 -1.8
v 0.5 1.7 -1.7
v 0.5 1.7 -1.8
v 0.6 1.9 -1.7
v 0.6 1.9 -1.8
v 0.6 2.4 -1.7
v 0.6 2.4 -1.8
v 0.6 3.7 -1.7
v 0.6 3.7 -1.8
v 0.6 3.9 -1.7
v 0.6 3.9 -1.8
v 0.7 0 -1.7
v 0.7 0 -1.8
v 0.7 0.1 -1.7
v 0.7 0.1 -1.8
v 0.7 1.7 -1.7
v 0.7 1.7 -1.8
v 0.7 1.8 -1.7
v 0.7 1.8 -1.8
v 0.7 1.8 -1.9
v 0.7 1.9 -1.8
v 0.7 1.9 -1.9
v 0.7 2.5 -1.7
v 0.7 2.5 -1.8
v 0.7 2.8 -1.7
v 0.7 2.8 -1.8
v 0.7 3.9 -1.7
v 0.7 3.9 -1.8
v 0.7 4 -1.7
v 0.7 4 -1.8
v 0.8 0.1 -1.7
v 0.8 0.1 -1.8
v 0.8 0.2 -1.7
v 0.8 0.2 -1.8
v 0.8 1.4 -1.7
v 0.8 1.4 -1.8
v 0.8 1.7 -1.7
v 0.8 1.7 -1.8
v 0.8 2.8 -1.7
v 0.8 2.8 -1.8
v 0.8 2.9 -1.7
v 0.8 2.9 -1.8
v 0.9 0.2 -1.7
v 0.9 0.2 -1.8
v 0.9 0.8 -1.7
v 0.9 0.8 -1.8
v 0.9 1.1 -1.7
v 0.9 1.1 -1.8
v 0.9 1.4 -1.7
v 0.9 1.4 -1.8
v 0.9 3 -1.7
v 0.9 3 -1.8
v 0.9 3.2 -1.7
v 0.9 3.2 -1.8
v 0.9 3.2 -1.9
v 0.9 3.3 -1.8
v 0.9 3.3 -1.9
v 1 0.8 -1.7
v 1 0.8 -1.8
v 1 1 -1.7
v 1 1 -1.8
v 1 3.2 -1.7
v 1 3.2 -1.8
v 1 3.7 -1.7
v 1 3.7 -1.8
v 1.2 2.9 -1.7
v 1.2 2.9 -1.8
v 1.2 3 -1.7
v 1.2 3 -1.8
v 1.3 1.8 -1.7
v 1.3 1.8 -1.8
v 1.3 1.9 -1.7
v 1.3 1.9 -1.8
v 1.4 2.5 -1.7
v 1.4 2.5 -1.8
v 1.4 2.6 -1.7
v 1.4 2.6 -1.8
v 1.4 3 -1.7
v 1.4 3 -1.8
v 1.4 3.1 -1.7
v 1.4 3.1 -1.8
v 1.5 0 -1.7
v 1.5 0 -1.8
v 1.5 0.1 -1.7
v 1.5 0.1 -1.8
v 1.5 1.9 -1.7
v 1.5 1.9 -1.8
v 1.5 2 -1.7
v 1.5 2 -1.8
v 1.5 2.6 -1.7
v 1.5 2.6 -1.8
v 1.5 2.8 -1.7
v 1.5 2.8 -1.8
v 1.6 0.1 -1.7
v 1.6 0.1 -1.8
v 1.6 0.4 -1.7
v 1.6 0.4 -1.8
v 1.6 2.8 -1.7
v 1.6 2.8 -1.8
v 1.6 2.9 -1.8
v 1.6 2.9 -1.9
v 1.6 3 -1.8
v 1.6 3 -1.9
v 1.6 3.2 -1.7
v 1.6 3.2 -1.8
v 1.6 3.5 -1.7
v 1.6 3.5 -1.8
v 1.6 3.7 -1.7
v 1.6 3.7 -1.8
v 1.6 3.8 -1.7
v 1.6 3.8 -1.8
v 1.6 4 -1.7
v 1.6 4 -1.8
v 1.7 0.4 -1.7
v 1.7 0.4 -1.8
v 1.7 0.9 -1.7
v 1.7 0.9 -1.8
v 1.7 2 -1.7
v 1.7 2 -1.8
v 1.7 2.1 -1.7
v 1.7 2.1 -1.8
v 1.7 3.3 -1.7
v 1.7 3.3 -1.8
v 1.7 3.5 -1.7
v 1.7 3.5 -1.8
v 1.8 0.9 -1.7
v 1.8 0.9 -1.8
v 1.8 1 -1.7
v 1.8 1 -1.8
v 1.8 2.1 -1.7
v 1.8 2.1 -1.8
v 1.8 2.2 -1.7
v 1.8 2.2 -1.8
v 1.9 3.2 -1.7
v 1.9 3.2 -1.8
v 1.9 3.3 -1.7
v 1.9 3.3 -1.8
v 0.4 1.5 -1.7
v 0.4 1.5 -1.8
v 0.4 1.6 -1.7
v 0.4 1.6 -1.8
v 0.4 3.8 -1.7
v 0.4 3.8 -1.8
v 0.4 3.9 -1.7
v 0.4 3.9 -1.8
v 0.5 0 -1.7
v 0.5 0 -1.8
v 0.5 0.2 -1.7
v 0.5 0.2 -1.8
v 0.5 1.9 -1.7
v 0.5 1.9 -1.8
v 0.5 2.4 -1.7
v 0.5 2.4 -1.8
v 0.5 2.5 -1.7
v 0.5 2.5 -1.8
v 0.5 2.6 -1.7
v 0.5 2.6 -1.8
v 0.5 3.7 -1.7
v 0.5 3.7 -1.8
v 0.5 3.8 -1.7
v 0.5 3.8 -1.8
v 0.5 3.9 -1.7
v 0.5 3.9 -1.8
v 0.5 4 -1.7
v 0.5 4 -1.8
v 0.6 1.6 -1.7
v 0.6 1.6 -1.8
v 0.6 1.8 -1.8
v 0.6 1.8 -1.9
v 0.6 1.9 -1.7
v 0.6 1.9 -1.8
v 0.6 1.9 -1.9
v 0.6 2.6 -1.7
v 0.6 2.6 -1.8
v 0.6 2.9 -1.7
v 0.6 2.9 -1.8
v 0.7 0.2 -1.7
v 0.7 0.2 -1.8
v 0.7 0.3 -1.7
v 0.7 0.3 -1.8
v 0.7 1.3 -1.7
v 0.7 1.3 -1.8
v 0.7 1.5 -1.7
v 0.7 1.5 -1.8
v 0.7 2.9 -1.7
v 0.7 2.9 -1.8
v 0.7 3 -1.7
v 0.7 3 -1.8
v 0.8 0.3 -1.7
v 0.8 0.3 -1.8
v 0.8 0.9 -1.7
v 0.8 0.9 -1.8
v 0.8 1.2 -1.7
v 0.8 1.2 -1.8
v 0.8 1.3 -1.7
v 0.8 1.3 -1.8
v 0.8 3 -1.7
v 0.8 3 -1.8
v 0.8 3.2 -1.8
v 0.8 3.2 -1.9
v 0.8 3.3 -1.7
v 0.8 3.3 -1.8
v 0.8 3.3 -1.9
v 0.9 0.9 -1.7
v 0.9 0.9 -1.8
v 0.9 1.1 -1.7
v 0.9 1.1 -1.8
v 0.9 3.4 -1.7
v 0.9 3.4 -1.8
v 0.9 3.6 -1.7
v 0.9 3.6 -1.8
v 0.9 3.7 -1.7
v 0.9 3.7 -1.8
v 0.9 3.8 -1.7
v 0.9 3.8 -1.8
v 1.1 3 -1.7
v 1.1 3 -1.8
v 1.1 3.1 -1.7
v 1.1 3.1 -1.8
v 1.2 1.9 -1.7
v 1.2 1.9 -1.8
v 1.2 2 -1.7
v 1.2 2 -1.8
v 1.3 2.5 -1.7
v 1.3 2.5 -1.8
v 1.3 2.7 -1.7
v 1.3 2.7 -1.8
v 1.4 0 -1.7
v 1.4 0 -1.8
v 1.4 0.2 -1.7
v 1.4 0.2 -1.8
v 1.4 2.7 -1.7
v 1.4 2.7 -1.8
v 1.4 3 -1.7
v 1.4 3 -1.8
v 1.5 0.2 -1.7
v 1.5 0.2 -1.8
v 1.5 0.5 -1.7
v 1.5 0.5 -1.8
v 1.5 0.8 -1.7
v 1.5 0.8 -1.8
v 1.5 0.9 -1.7
v 1.5 0.9 -1.8
v 1.5 2 -1.7
v 1.5 2 -1.8
v 1.5 2.1 -1.7
v 1.5 2.1 -1.8
v 1.5 2.9 -1.8
v 1.5 2.9 -1.9
v 1.5 3 -1.7
v 1.5 3 -1.8
v 1.5 3 -1.9
v 1.5 3.7 -1.7
v 1.5 3.7 -1.8
v 1.5 3.8 -1.7
v 1.5 3.8 -1.8
v 1.5 4 -1.7
v 1.5 4 -1.8
v 1.6 0.5 -1.7
v 1.6 0.5 -1.8
v 1.6 0.8 -1.7
v 1.6 0.8 -1.8
v 1.6 2.1 -1.7
v 1.6 2.1 -1.8
v 1.6 2.2 -1.7
v 1.6 2.2 -1.8
v 1.7 0.9 -1.7
v 1.7 0.9 -1.8
v 1.7 1 -1.7
v 1.7 1 -1.8
v 1.7 2.2 -1.7
v 1.7 2.2 -1.8
v 1.7 2.3 -1.7
v 1.7 2.3 -1.8
v 1.8 3.3 -1.7
v 1.8 3.3 -1.8
v 1.8 3.4 -1.7
v 1.8 3.4 -1.8
v 1.9 3.4 -1.7
v 1.9 3.4 -1.8
v 1.9 3.5 -1.7
v 1.9 3.5 -1.8
v 2 0 -1.7
v 2 0 -1.8
v 2 0 -1.9
v 2 0 -2
v 2 1 -1.7
v 2 1 -1.8
v 2 1.1 -1.7
v 2 1.1 -1.8
v 2 2.2 -1.7
v 2 2.2 -1.8
v 2 2.3 -1.7
v 2 2.3 -1.8
v 2 2.4 -1.7
v 2 2.4 -1.8
v 2 2.5 -1.7
v 2 2.5 -1.8
v 2 3.3 -1.7
v 2 3.3 -1.8
v 2 3.5 -1.7
v 2 3.5 -1.8
v 2 3.7 -1.7
v 2 3.7 -1.8
v 2 3.8 -1.7
v 2 3.8 -1.8
v 2 4 -1.7
v 2 4 -1.8
v 2 4 -1.9
v 2 4 -2
v 0.1 0 -1.7
v 0.1 1.1 -1.7
v 0.1 1.2 -1.7
v 0.1 1.6 -1.7
v 0.1 1.7 -1.7
v 0.1 2.4 -1.7
v 0.1 2.5 -1.7
v 0.1 3.3 -1.7
v 0.1 3.4 -1.7
v 0.1 3.6 -1.7
v 0.1 3.7 -1.7
v 0.1 4 -1.7
v 0.4 1.5 -1.7
v 0.4 1.6 -1.7
v 0.4 3.8 -1.7
v 0.4 3.9 -1.7
v 0.5 0 -1.7
v 0.5 0.2 -1.7
v 0.5 1.6 -1.7
v 0.5 1.7 -1.7
v 0.5 1.9 -1.7
v 0.5 2.4 -1.7
v 0.5 2.5 -1.7
v 0.5 2.6 -1.7
v 0.5 3.7 -1.7
v 0.5 3.8 -1.7
v 0.5 3.9 -1.7
v 0.5 4 -1.7
v 0.6 1.6 -1.7
v 0.6 1.9 -1.7
v 0.6 2.4 -1.7
v 0.6 2.6 -1.7
v 0.6 2.9 -1.7
v 0.6 3.7 -1.7
v 0.6 3.9 -1.7
v 0.7 0 -1.7
v 0.7 0.1 -1.7
v 0.7 0.2 -1.7
v 0.7 0.3 -1.7
v 0.7 1.3 -1.7
v 0.7 1.5 -1.7
v 0.7 1.7 -1.7
v 0.7 1.8 -1.7
v 0.7 2.5 -1.7
v 0.7 2.8 -1.7
v 0.7 2.9 -1.7
v 0.7 3 -1.7
v 0.7 3.9 -1.7
v 0.7 4 -1.7
v 0.8 0.1 -1.7
v 0.8 0.2 -1.7
v 0.8 0.3 -1.7
v 0.8 0.9 -1.7
v 0.8 1.2 -1.7
v 0.8 1.3 -1.7
v 0.8 1.4 -1.7
v 0.8 1.7 -1.7
v 0.8 2.8 -1.7
v 0.8 2.9 -1.7
v 0.8 3 -1.7
v 0.8 3.3 -1.7
v 0.9 0.2 -1.7
v 0.9 0.8 -1.7
v 0.9 0.9 -1.7
v 0.9 1.1 -1.7
v 0.9 1.4 -1.7
v 0.9 3 -1.7
v 0.9 3.2 -1.7
v 0.9 3.4 -1.7
v 0.9 3.6 -1.7
v 0.9 3.7 -1.7
v 0.9 3.8 -1.7
v 1 0.8 -1.7
v 1 1 -1.7
v 1 3.2 -1.7
v 1 3.7 -1.7
v 1.1 3 -1.7
v 1.1 3.1 -1.7
v 1.2 1.9 -1.7
v 1.2 2 -1.7
v 1.2 2.9 -1.7
v 1.2 3 -1.7
v 1.3 1.8 -1.7
v 1.3 1.9 -1.7
v 1.3 2.5 -1.7
v 1.3 2.7 -1.7
v 1.4 0 -1.7
v 1.4 0.2 -1.7
v 1.4 2.5 -1.7
v 1.4 2.6 -1.7
v 1.4 2.7 -1.7
v 1.4 3 -1.7
v 1.4 3.1 -1.7
v 1.5 0 -1.7
v 1.5 0.1 -1.7
v 1.5 0.2 -1.7
v 1.5 0.5 -1.7
v 1.5 0.8 -1.7
v 1.5 0.9 -1.7
v 1.5 1.9 -1.7
v 1.5 2 -1.7
v 1.5 2.1 -1.7
v 1.5 2.6 -1.7
v 1.5 2.8 -1.7
v 1.5 3 -1.7
v 1.5 3.7 -1.7
v 1.5 3.8 -1.7
v 1.5 4 -1.7
v 1.6 0.1 -1.7
v 1.6 0.4 -1.7
v 1.6 0.5 -1.7
v 1.6 0.8 -1.7
v 1.6 2.1 -1.7
v 1.6 2.2 -1.7
v 1.6 2.8 -1.7
v 1.6 3.2 -1.7
v 1.6 3.5 -1.7
v 1.6 3.7 -1.7
v 1.6 3.8 -1.7
v 1.6 4 -1.7
v 1.7 0.4 -1.7
v 1.7 0.9 -1.7
v 1.7 1 -1.7
v 1.7 2 -1.7
v 1.7 2.1 -1.7
v 1.7 2.2 -1.7
v 1.7 2.3 -1.7
v 1.7 3.3 -1.7
v 1.7 3.5 -1.7
v 1.8 0.9 -1.7
v 1.8 1 -1.7
v 1.8 2.1 -1.7
v 1.8 2.2 -1.7
v 1.8 3.3 -1.7
v 1.8 3.4 -1.7
v 1.9 3.2 -1.7
v 1.9 3.3 -1.7
v 1.9 3.4 -1.7
v 1.9 3.5 -1.7
v 2 0 -1.7
v 2 1 -1.7
v 2 1.1 -1.7
v 2 2.2 -1.7
v 2 2.3 -1.7
v 2 2.4 -1.7
v 2 2.5 -1.7
v 2 3.3 -1.7
v 2 3.5 -1.7
v 2 3.7 -1.7
v 2 3.8 -1.7
v 2 4 -1.7
v 0.1 1.1 -1.8
v 0.1 1.2 -1.8
v 0.1 1.6 -1.8
v 0.1 1.7 -1.8
v 0.1 2.4 -1.8
v 0.1 2.5 -1.8
v 0.1 3.3 -1.8
v 0.1 3.4 -1.8
v 0.1 3.6 -1.8
v 0.1 3.7 -1.8
v 0.4 1.5 -1.8
v 0.4 1.6 -1.8
v 0.4 3.8 -1.8
v 0.4 3.9 -1.8
v 0.5 0 -1.8
v 0.5 0.2 -1.8
v 0.5 1.6 -1.8
v 0.5 1.7 -1.8
v 0.5 1.9 -1.8
v 0.5 2.4 -1.8
v 0.5 2.5 -1.8
v 0.5 2.6 -1.8
v 0.5 3.7 -1.8
v 0.5 3.8 -1.8
v 0.5 3.9 -1.8
v 0.5 4 -1.8
v 0.6 1.6 -1.8
v 0.6 1.8 -1.8
v 0.6 1.9 -1.8
v 0.6 2.4 -1.8
v 0.6 2.6 -1.8
v 0.6 2.9 -1.8
v 0.6 3.7 -1.8
v 0.6 3.9 -1.8
v 0.7 0 -1.8
v 0.7 0.1 -1.8
v 0.7 0.2 -1.8
v 0.7 0.3 -1.8
v 0.7 1.3 -1.8
v 0.7 1.5 -1.8
v 0.7 1.7 -1.8
v 0.7 1.8 -1.8
v 0.7 1.9 -1.8
v 0.7 2.5 -1.8
v 0.7 2.8 -1.8
v 0.7 2.9 -1.8
v 0.7 3 -1.8
v 0.7 3.9 -1.8
v 0.7 4 -1.8
v 0.8 0.1 -1.8
v 0.8 0.2 -1.8
v 0.8 0.3 -1.8
v 0.8 0.9 -1.8
v 0.8 1.2 -1.8
v 0.8 1.3 -1.8
v 0.8 1.4 -1.8
v 0.8 1.7 -1.8
v 0.8 2.8 -1.8
v 0.8 2.9 -1.8
v 0.8 3 -1.8
v 0.8 3.2 -1.8
v 0.8 3.3 -1.8
v 0.9 0.2 -1.8
v 0.9 0.8 -1.8
v 0.9 0.9 -1.8
v 0.9 1.1 -1.8
v 0.9 1.4 -1.8
v 0.9 3 -1.8
v 0.9 3.2 -1.8
v 0.9 3.3 -1.8
v 0.9 3.4 -1.8
v 0.9 3.6 -1.8
v 0.9 3.7 -1.8
v 0.9 3.8 -1.8
v 1 0.8 -1.8
v 1 1 -1.8
v 1 3.2 -1.8
v 1 3.7 -1.8
v 1.1 3 -1.8
v 1.1 3.1 -1.8
v 1.2 1.9 -1.8
v 1.2 2 -1.8
v 1.2 2.9 -1.8
v 1.2 3 -1.8
v 1.3 1.8 -1.8
v 1.3 1.9 -1.8
v 1.3 2.5 -1.8
v 1.3 2.7 -1.8
v 1.4 0 -1.8
v 1.4 0.2 -1.8
v 1.4 2.5 -1.8
v 1.4 2.6 -1.8
v 1.4 2.7 -1.8
v 1.4 3 -1.8
v 1.4 3.1 -1.8
v 1.5 0 -1.8
v 1.5 0.1 -1.8
v 1.5 0.2 -1.8
v 1.5 0.5 -1.8
v 1.5 0.8 -1.8
v 1.5 0.9 -1.8
v 1.5 1.9 -1.8
v 1.5 2 -1.8
v 1.5 2.1 -1.8
v 1.5 2.6 -1.8
v 1.5 2.8 -1.8
v 1.5 2.9 -1.8
v 1.5 3 -1.8
v 1.5 3.7 -1.8
v 1.5 3.8 -1.8
v 1.5 4 -1.8
v 1.6 0.1 -1.8
v 1.6 0.4 -1.8
v 1.6 0.5 -1.8
v 1.6 0.8 -1.8
v 1.6 2.1 -1.8
v 1.6 2.2 -1.8
v 1.6 2.8 -1.8
v 1.6 2.9 -1.8
v 1.6 3 -1.8
v 1.6 3.2 -1.8
v 1.6 3.5 -1.8
v 1.6 3.7 -1.8
v 1.6 3.8 -1.8
v 1.6 4 -1.8
v 1.7 0.4 -1.8
v 1.7 0.9 -1.8
v 1.7 1 -1.8
v 1.7 2 -1.8
v 1.7 2.1 -1.8
v 1.7 2.2 -1.8
v 1.7 2.3 -1.8
v 1.7 3.3 -1.8
v 1.7 3.5 -1.8
v 1.8 0.9 -1.8
v 1.8 1 -1.8
v 1.8 2.1 -1.8
v 1.8 2.2 -1.8
v 1.8 3.3 -1.8
v 1.8 3.4 -1.8
v 1.9 3.2 -1.8
v 1.9 3.3 -1.8
v 1.9 3.4 -1.8
v 1.9 3.5 -1.8
v 2 1 -1.8
v 2 1.1 -1.8
v 2 2.2 -1.8
v 2 2.3 -1.8
v 2 2.4 -1.8
v 2 2.5 -1.8
v 2 3.3 -1.8
v 2 3.5 -1.8
v 2 3.7 -1.8
v 2 3.8 -1.8
v 0.6 1.8 -1.9
v 0.6 1.9 -1.9
v 0.7 1.8 -1.9
v 0.7 1.9 -1.9
v 0.8 3.2 -1.9
v 0.8 3.3 -1.9
v 0.9 3.2 -1.9
v 0.9 3.3 -1.9
v 1.5 2.9 -1.9
v 1.5 3 -1.9
v 1.6 2.9 -1.9
v 1.6 3 -1.9
v 0.1 0 -2
v 0.1 4 -2
v 2 0 -2
v 2 4 -2
v 0.1 0 -1.7
v 0.5 0 -1.7
v 0.7 0 -1.7
v 1.4 0 -1.7
v 1.5 0 -1.7
v 2 0 -1.7
v 0.1 0 -1.8
v 0.5 0 -1.8
v 0.7 0 -1.8
v 1.4 0 -1.8
v 1.5 0 -1.8
v 2 0 -1.8
v 0.1 0 -1.9
v 2 0 -1.9
v 0.1 0 -2
v 2 0 -2
v 0.5 0.2 -1.7
v 0.7 0.2 -1.7
v 1.4 0.2 -1.7
v 1.5 0.2 -1.7
v 0.5 0.2 -1.8
v 0.7 0.2 -1.8
v 1.4 0.2 -1.8
v 1.5 0.2 -1.8
v 0.7 0.3 -1.7
v 0.8 0.3 -1.7
v 0.7 0.3 -1.8
v 0.8 0.3 -1.8
v 1.5 0.5 -1.7
v 1.6 0.5 -1.7
v 1.5 0.5 -1.8
v 1.6 0.5 -1.8
v 0.8 0.9 -1.7
v 0.9 0.9 -1.7
v 1.5 0.9 -1.7
v 1.7 0.9 -1.7
v 0.8 0.9 -1.8
v 0.9 0.9 -1.8
v 1.5 0.9 -1.8
v 1.7 0.9 -1.8
v 0.9 1.1 -1.7
v 2 1.1 -1.7
v 0.9 1.1 -1.8
v 2 1.1 -1.8
v 0.1 1.2 -1.7
v 0.8 1.2 -1.7
v 0.1 1.2 -1.8
v 0.8 1.2 -1.8
v 0.8 1.4 -1.7
v 0.9 1.4 -1.7
v 0.8 1.4 -1.8
v 0.9 1.4 -1.8
v 0.5 1.6 -1.7
v 0.6 1.6 -1.7
v 0.5 1.6 -1.8
v 0.6 1.6 -1.8
v 0.1 1.7 -1.7
v 0.5 1.7 -1.7
v 0.7 1.7 -1.7
v 0.8 1.7 -1.7
v 0.1 1.7 -1.8
v 0.5 1.7 -1.8
v 0.7 1.7 -1.8
v 0.8 1.7 -1.8
v 0.6 1.9 -1.7
v 1.2 1.9 -1.7
v 0.6 1.9 -1.8
v 0.7 1.9 -1.8
v 1.2 1.9 -1.8
v 0.6 1.9 -1.9
v 0.7 1.9 -1.9
v 1.2 2 -1.7
v 1.5 2 -1.7
v 1.2 2 -1.8
v 1.5 2 -1.8
v 1.5 2.1 -1.7
v 1.6 2.1 -1.7
v 1.5 2.1 -1.8
v 1.6 2.1 -1.8
v 1.6 2.2 -1.7
v 1.7 2.2 -1.7
v 1.6 2.2 -1.8
v 1.7 2.2 -1.8
v 1.7 2.3 -1.7
v 2 2.3 -1.7
v 1.7 2.3 -1.8
v 2 2.3 -1.8
v 0.1 2.5 -1.7
v 0.5 2.5 -1.7
v 0.7 2.5 -1.7
v 1.3 2.5 -1.7
v 1.4 2.5 -1.7
v 2 2.5 -1.7
v 0.1 2.5 -1.8
v 0.5 2.5 -1.8
v 0.7 2.5 -1.8
v 1.3 2.5 -1.8
v 1.4 2.5 -1.8
v 2 2.5 -1.8
v 0.5 2.6 -1.7
v 0.6 2.6 -1.7
v 0.5 2.6 -1.8
v 0.6 2.6 -1.8
v 1.3 2.7 -1.7
v 1.4 2.7 -1.7
v 1.3 2.7 -1.8
v 1.4 2.7 -1.8
v 0.6 2.9 -1.7
v 0.7 2.9 -1.7
v 0.6 2.9 -1.8
v 0.7 2.9 -1.8
v 0.7 3 -1.7
v 0.8 3 -1.7
v 0.9 3 -1.7
v 1.1 3 -1.7
v 1.4 3 -1.7
v 1.5 3 -1.7
v 0.7 3 -1.8
v 0.8 3 -1.8
v 0.9 3 -1.8
v 1.1 3 -1.8
v 1.4 3 -1.8
v 1.5 3 -1.8
v 1.6 3 -1.8
v 1.5 3 -1.9
v 1.6 3 -1.9
v 1.1 3.1 -1.7
v 1.4 3.1 -1.7
v 1.1 3.1 -1.8
v 1.4 3.1 -1.8
v 1.7 3.3 -1.7
v 1.8 3.3 -1.7
v 0.8 3.3 -1.8
v 0.9 3.3 -1.8
v 1.7 3.3 -1.8
v 1.8 3.3 -1.8
v 0.8 3.3 -1.9
v 0.9 3.3 -1.9
v 0.1 3.4 -1.7
v 0.9 3.4 -1.7
v 1.8 3.4 -1.7
v 1.9 3.4 -1.7
v 0.1 3.4 -1.8
v 0.9 3.4 -1.8
v 1.8 3.4 -1.8
v 1.9 3.4 -1.8
v 1.6 3.5 -1.7
v 1.7 3.5 -1.7
v 1.9 3.5 -1.7
v 2 3.5 -1.7
v 1.6 3.5 -1.8
v 1.7 3.5 -1.8
v 1.9 3.5 -1.8
v 2 3.5 -1.8
v 0.1 3.7 -1.7
v 0.5 3.7 -1.7
v 0.6 3.7 -1.7
v 0.9 3.7 -1.7
v 0.1 3.7 -1.8
v 0.5 3.7 -1.8
v 0.6 3.7 -1.8
v 0.9 3.7 -1.8
v 0.9 3.8 -1.7
v 1.5 3.8 -1.7
v 1.6 3.8 -1.7
v 2 3.8 -1.7
v 0.9 3.8 -1.8
v 1.5 3.8 -1.8
v 1.6 3.8 -1.8
v 2 3.8 -1.8
v 0.4 3.9 -1.7
v 0.5 3.9 -1.7
v 0.4 3.9 -1.8
v 0.5 3.9 -1.8
v 0.7 0.1 -1.7
v 0.8 0.1 -1.7
v 1.5 0.1 -1.7
v 1.6 0.1 -1.7
v 0.7 0.1 -1.8
v 0.8 0.1 -1.8
v 1.5 0.1 -1.8
v 1.6 0.1 -1.8
v 0.8 0.2 -1.7
v 0.9 0.2 -1.7
v 0.8 0.2 -1.8
v 0.9 0.2 -1.8
v 1.6 0.4 -1.7
v 1.7 0.4 -1.7
v 1.6 0.4 -1.8
v 1.7 0.4 -1.8
v 0.9 0.8 -1.7
v 1 0.8 -1.7
v 1.5 0.8 -1.7
v 1.6 0.8 -1.7
v 0.9 0.8 -1.8
v 1 0.8 -1.8
v 1.5 0.8 -1.8
v 1.6 0.8 -1.8
v 1.7 0.9 -1.7
v 1.8 0.9 -1.7
v 1.7 0.9 -1.8
v 1.8 0.9 -1.8
v 1 1 -1.7
v 1.7 1 -1.7
v 1.8 1 -1.7
v 2 1 -1.7
v 1 1 -1.8
v 1.7 1 -1.8
v 1.8 1 -1.8
v 2 1 -1.8
v 0.1 1.1 -1.7
v 0.9 1.1 -1.7
v 0.1 1.1 -1.8
v 0.9 1.1 -1.8
v 0.7 1.3 -1.7
v 0.8 1.3 -1.7
v 0.7 1.3 -1.8
v 0.8 1.3 -1.8
v 0.4 1.5 -1.7
v 0.7 1.5 -1.7
v 0.4 1.5 -1.8
v 0.7 1.5 -1.8
v 0.1 1.6 -1.7
v 0.4 1.6 -1.7
v 0.1 1.6 -1.8
v 0.4 1.6 -1.8
v 0.7 1.8 -1.7
v 1.3 1.8 -1.7
v 0.6 1.8 -1.8
v 0.7 1.8 -1.8
v 1.3 1.8 -1.8
v 0.6 1.8 -1.9
v 0.7 1.8 -1.9
v 0.5 1.9 -1.7
v 0.6 1.9 -1.7
v 1.3 1.9 -1.7
v 1.5 1.9 -1.7
v 0.5 1.9 -1.8
v 0.6 1.9 -1.8
v 1.3 1.9 -1.8
v 1.5 1.9 -1.8
v 1.5 2 -1.7
v 1.7 2 -1.7
v 1.5 2 -1.8
v 1.7 2 -1.8
v 1.7 2.1 -1.7
v 1.8 2.1 -1.7
v 1.7 2.1 -1.8
v 1.8 2.1 -1.8
v 1.8 2.2 -1.7
v 2 2.2 -1.7
v 1.8 2.2 -1.8
v 2 2.2 -1.8
v 0.1 2.4 -1.7
v 0.5 2.4 -1.7
v 0.6 2.4 -1.7
v 2 2.4 -1.7
v 0.1 2.4 -1.8
v 0.5 2.4 -1.8
v 0.6 2.4 -1.8
v 2 2.4 -1.8
v 1.4 2.6 -1.7
v 1.5 2.6 -1.7
v 1.4 2.6 -1.8
v 1.5 2.6 -1.8
v 0.7 2.8 -1.7
v 0.8 2.8 -1.7
v 1.5 2.8 -1.7
v 1.6 2.8 -1.7
v 0.7 2.8 -1.8
v 0.8 2.8 -1.8
v 1.5 2.8 -1.8
v 1.6 2.8 -1.8
v 0.8 2.9 -1.7
v 1.2 2.9 -1.7
v 0.8 2.9 -1.8
v 1.2 2.9 -1.8
v 1.5 2.9 -1.8
v 1.6 2.9 -1.8
v 1.5 2.9 -1.9
v 1.6 2.9 -1.9
v 1.2 3 -1.7
v 1.4 3 -1.7
v 1.2 3 -1.8
v 1.4 3 -1.8
v 0.9 3.2 -1.7
v 1 3.2 -1.7
v 1.6 3.2 -1.7
v 1.9 3.2 -1.7
v 0.8 3.2 -1.8
v 0.9 3.2 -1.8
v 1 3.2 -1.8
v 1.6 3.2 -1.8
v 1.9 3.2 -1.8
v 0.8 3.2 -1.9
v 0.9 3.2 -1.9
v 0.1 3.3 -1.7
v 0.8 3.3 -1.7
v 1.9 3.3 -1.7
v 2 3.3 -1.7
v 0.1 3.3 -1.8
v 0.8 3.3 -1.8
v 1.9 3.3 -1.8
v 2 3.3 -1.8
v 0.1 3.6 -1.7
v 0.9 3.6 -1.7
v 0.1 3.6 -1.8
v 0.9 3.6 -1.8
v 1 3.7 -1.7
v 1.5 3.7 -1.7
v 1.6 3.7 -1.7
v 2 3.7 -1.7
v 1 3.7 -1.8
v 1.5 3.7 -1.8
v 1.6 3.7 -1.8
v 2 3.7 -1.8
v 0.4 3.8 -1.7
v 0.5 3.8 -1.7
v 0.4 3.8 -1.8
v 0.5 3.8 -1.8
v 0.6 3.9 -1.7
v 0.7 3.9 -1.7
v 0.6 3.9 -1.8
v 0.7 3.9 -1.8
v 0.1 4 -1.7
v 0.5 4 -1.7
v 0.7 4 -1.7
v 1.5 4 -1.7
v 1.6 4 -1.7
v 2 4 -1.7
v 0.1 4 -1.8
v 0.5 4 -1.8
v 0.7 4 -1.8
v 1.5 4 -1.8
v 1.6 4 -1.8
v 2 4 -1.8
v 0.1 4 -1.9
v 2 4 -1.9
v 0.1 4 -2
v 2 4 -2

# faces
f 5/3/1 2/3/1 1/3/1
f 6/2/1 3/2/1 2/2/1
f 6/3/1 2/3/1 5/3/1
f 8/2/1 3/2/1 6/2/1
f 9/3/1 8/3/1 7/3/1
f 10/2/1 3/2/1 8/2/1
f 10/3/1 8/3/1 9/3/1
f 12/2/1 3/2/1 10/2/1
f 13/3/1 12/3/1 11/3/1
f 14/2/1 3/2/1 12/2/1
f 14/3/1 12/3/1 13/3/1
f 16/2/1 3/2/1 14/2/1
f 17/3/1 16/3/1 15/3/1
f 18/2/1 3/2/1 16/2/1
f 18/3/1 16/3/1 17/3/1
f 20/2/1 3/2/1 18/2/1
f 21/3/1 20/3/1 19/3/1
f 22/2/1 3/2/1 20/2/1
f 22/3/1 20/3/1 21/3/1
f 24/2/1 3/2/1 22/2/1
f 25/3/1 24/3/1 23/3/1
f 26/2/1 3/2/1 24/2/1
f 26/3/1 24/3/1 25/3/1
f 27/1/1 4/1/1 3/1/1
f 27/2/1 3/2/1 26/2/1
f 28/1/1 4/1/1 27/1/1
f 31/3/1 30/3/1 29/3/1
f 32/3/1 30/3/1 31/3/1
f 35/3/1 34/3/1 33/3/1
f 36/3/1 34/3/1 35/3/1
f 39/3/1 38/3/1 37/3/1
f 40/3/1 38/3/1 39/3/1
f 43/3/1 42/3/1 41/3/1
f 44/3/1 42/3/1 43/3/1
f 47/3/1 46/3/1 45/3/1
f 48/3/1 46/3/1 47/3/1
f 50/2/1 49/2/1 48/2/1
f 51/2/1 49/2/1 50/2/1
f 54/3/1 53/3/1 52/3/1
f 55/3/1 53/3/1 54/3/1
f 58/3/1 57/3/1 56/3/1
f 59/3/1 57/3/1 58/3/1
f 62/3/1 61/3/1 60/3/1
f 63/3/1 61/3/1 62/3/1
f 66/3/1 65/3/1 64/3/1
f 67/3/1 65/3/1 66/3/1
f 70/3/1 69/3/1 68/3/1
f 71/3/1 69/3/1 70/3/1
f 74/3/1 73/3/1 72/3/1
f 75/3/1 73/3/1 74/3/1
f 78/3/1 77/3/1 76/3/1
f 79/3/1 77/3/1 78/3/1
f 82/3/1 81/3/1 80/3/1
f 83/3/1 81/3/1 82/3/1
f 85/2/1 84/2/1 83/2/1
f 86/2/1 84/2/1 85/2/1
f 89/3/1 88/3/1 87/3/1
f 90/3/1 88/3/1 89/3/1
f 93/3/1 92/3/1 91/3/1
f 94/3/1 92/3/1 93/3/1
f 97/3/1 96/3/1 95/3/1
f 98/3/1 96/3/1 97/3/1
f 101/3/1 100/3/1 99/3/1
f 102/3/1 100/3/1 101/3/1
f 105/3/1 104/3/1 103/3/1
f 106/3/1 104/3/1 105/3/1
f 109/3/1 108/3/1 107/3/1
f 110/3/1 108/3/1 109/3/1
f 113/3/1 112/3/1 111/3/1
f 114/3/1 112/3/1 113/3/1
f 117/3/1 116/3/1 115/3/1
f 118/3/1 116/3/1 117/3/1
f 121/3/1 120/3/1 119/3/1
f 122/3/1 120/3/1 121/3/1
f 125/3/1 124/3/1 123/3/1
f 126/3/1 124/3/1 125/3/1
f 129/3/1 128/3/1 127/3/1
f 131/3/1 129/3/1 127/3/1
f 131/2/1 130/2/1 129/2/1
f 132/2/1 130/2/1 131/2/1
f 133/3/1 131/3/1 127/3/1
f 134/3/1 131/3/1 133/3/1
f 137/3/1 136/3/1 135/3/1
f 138/3/1 136/3/1 137/3/1
f 141/3/1 140/3/1 139/3/1
f 142/3/1 140/3/1 141/3/1
f 145/3/1 144/3/1 143/3/1
f 146/3/1 144/3/1 145/3/1
f 149/3/1 148/3/1 147/3/1
f 150/3/1 148/3/1 149/3/1
f 153/3/1 152/3/1 151/3/1
f 154/3/1 152/3/1 153/3/1
f 157/3/1 156/3/1 155/3/1
f 158/3/1 156/3/1 157/3/1
f 161/3/1 160/3/1 159/3/1
f 162/3/1 160/3/1 161/3/1
f 165/3/1 164/3/1 163/3/1
f 166/3/1 164/3/1 165/3/1
f 167/3/2 168/3/2 169/3/2
f 169/3/2 168/3/2 170/3/2
f 171/3/2 172/3/2 173/3/2
f 173/3/2 172/3/2 174/3/2
f 175/3/2 176/3/2 177/3/2
f 177/3/2 176/3/2 178/3/2
f 179/3/2 180/3/2 181/3/2
f 181/3/2 180/3/2 182/3/2
f 183/3/2 184/3/2 185/3/2
f 185/3/2 184/3/2 186/3/2
f 187/3/2 188/3/2 189/3/2
f 189/3/2 188/3/2 190/3/2
f 191/3/2 192/3/2 193/3/2
f 193/3/2 192/3/2 194/3/2
f 195/3/2 196/3/2 197/3/2
f 195/3/2 197/3/2 199/3/2
f 197/2/2 198/2/2 200/2/2
f 199/3/2 197/3/2 200/3/2
f 200/2/2 198/2/2 201/2/2
f 202/3/2 203/3/2 204/3/2
f 204/3/2 203/3/2 205/3/2
f 206/3/2 207/3/2 208/3/2
f 208/3/2 207/3/2 209/3/2
f 210/3/2 211/3/2 212/3/2
f 212/3/2 211/3/2 213/3/2
f 214/3/2 215/3/2 216/3/2
f 216/3/2 215/3/2 217/3/2
f 218/3/2 219/3/2 220/3/2
f 220/3/2 219/3/2 221/3/2
f 222/3/2 223/3/2 224/3/2
f 224/3/2 223/3/2 225/3/2
f 226/3/2 227/3/2 228/3/2
f 226/3/2 228/3/2 230/3/2
f 228/2/2 229/2/2 231/2/2
f 230/3/2 228/3/2 231/3/2
f 231/2/2 229/2/2 232/2/2
f 233/3/2 234/3/2 235/3/2
f 235/3/2 234/3/2 236/3/2
f 237/3/2 238/3/2 239/3/2
f 239/3/2 238/3/2 240/3/2
f 241/3/2 242/3/2 243/3/2
f 243/3/2 242/3/2 244/3/2
f 245/3/2 246/3/2 247/3/2
f 247/3/2 246/3/2 248/3/2
f 249/3/2 250/3/2 251/3/2
f 251/3/2 250/3/2 252/3/2
f 253/3/2 254/3/2 255/3/2
f 255/3/2 254/3/2 256/3/2
f 257/3/2 258/3/2 259/3/2
f 259/3/2 258/3/2 260/3/2
f 261/3/2 262/3/2 263/3/2
f 263/3/2 262/3/2 264/3/2
f 265/3/2 266/3/2 267/3/2
f 267/3/2 266/3/2 268/3/2
f 269/3/2 270/3/2 271/3/2
f 271/3/2 270/3/2 272/3/2
f 273/3/2 274/3/2 275/3/2
f 275/3/2 274/3/2 276/3/2
f 277/2/2 278/2/2 280/2/2
f 280/2/2 278/2/2 281/2/2
f 279/3/2 280/3/2 282/3/2
f 282/3/2 280/3/2 283/3/2
f 284/3/2 285/3/2 286/3/2
f 286/3/2 285/3/2 287/3/2
f 288/3/2 289/3/2 290/3/2
f 290/3/2 289/3/2 291/3/2
f 292/3/2 293/3/2 294/3/2
f 294/3/2 293/3/2 295/3/2
f 296/3/2 297/3/2 298/3/2
f 298/3/2 297/3/2 299/3/2
f 300/3/2 301/3/2 302/3/2
f 302/3/2 301/3/2 303/3/2
f 304/3/2 305/3/2 306/3/2
f 306/3/2 305/3/2 307/3/2
f 308/3/2 309/3/2 310/3/2
f 310/3/2 309/3/2 311/3/2
f 312/3/2 313/3/2 316/3/2
f 313/2/2 314/2/2 317/2/2
f 316/3/2 313/3/2 317/3/2
f 317/2/2 314/2/2 319/2/2
f 318/3/2 319/3/2 320/3/2
f 319/2/2 314/2/2 321/2/2
f 320/3/2 319/3/2 321/3/2
f 321/2/2 314/2/2 323/2/2
f 322/3/2 323/3/2 324/3/2
f 323/2/2 314/2/2 325/2/2
f 324/3/2 323/3/2 325/3/2
f 325/2/2 314/2/2 327/2/2
f 326/3/2 327/3/2 328/3/2
f 327/2/2 314/2/2 329/2/2
f 328/3/2 327/3/2 329/3/2
f 329/2/2 314/2/2 331/2/2
f 330/3/2 331/3/2 332/3/2
f 331/2/2 314/2/2 333/2/2
f 332/3/2 331/3/2 333/3/2
f 333/2/2 314/2/2 335/2/2
f 334/3/2 335/3/2 336/3/2
f 335/2/2 314/2/2 337/2/2
f 336/3/2 335/3/2 337/3/2
f 314/1/2 315/1/2 338/1/2
f 337/2/2 314/2/2 338/2/2
f 338/1/2 315/1/2 339/1/2
f 352/3/3 343/3/3 342/3/3
f 353/3/3 343/3/3 352/3/3
f 354/3/3 351/3/3 350/3/3
f 355/3/3 351/3/3 354/3/3
f 356/3/3 341/3/3 340/3/3
f 357/3/3 341/3/3 356/3/3
f 359/3/3 345/3/3 344/3/3
f 360/3/3 345/3/3 359/3/3
f 361/3/3 345/3/3 360/3/3
f 362/3/3 347/3/3 346/3/3
f 363/3/3 347/3/3 362/3/3
f 364/3/3 354/3/3 350/3/3
f 365/3/3 354/3/3 364/3/3
f 366/3/3 351/3/3 355/3/3
f 367/3/3 351/3/3 366/3/3
f 368/3/3 359/3/3 358/3/3
f 368/3/3 360/3/3 359/3/3
f 369/3/3 360/3/3 368/3/3
f 371/3/3 347/3/3 363/3/3
f 372/3/3 347/3/3 371/3/3
f 377/3/3 341/3/3 357/3/3
f 378/3/3 341/3/3 377/3/3
f 379/3/3 352/3/3 342/3/3
f 380/3/3 352/3/3 379/3/3
f 385/3/3 347/3/3 372/3/3
f 386/3/3 347/3/3 385/3/3
f 387/3/3 374/3/3 373/3/3
f 389/3/3 376/3/3 375/3/3
f 391/3/3 341/3/3 378/3/3
f 392/3/3 341/3/3 391/3/3
f 393/3/3 379/3/3 342/3/3
f 394/3/3 379/3/3 393/3/3
f 396/3/3 382/3/3 381/3/3
f 397/3/3 384/3/3 383/3/3
f 399/3/3 347/3/3 386/3/3
f 400/3/3 347/3/3 399/3/3
f 401/3/3 390/3/3 389/3/3
f 403/3/3 341/3/3 392/3/3
f 404/3/3 341/3/3 403/3/3
f 405/3/3 396/3/3 395/3/3
f 408/3/3 349/3/3 348/3/3
f 409/3/3 349/3/3 408/3/3
f 410/3/3 388/3/3 387/3/3
f 410/3/3 387/3/3 373/3/3
f 411/3/3 388/3/3 410/3/3
f 412/3/3 402/3/3 401/3/3
f 414/3/3 407/3/3 406/3/3
f 416/3/3 414/3/3 406/3/3
f 416/3/3 415/3/3 414/3/3
f 417/3/3 415/3/3 416/3/3
f 418/3/3 370/3/3 369/3/3
f 419/3/3 370/3/3 418/3/3
f 420/3/3 398/3/3 397/3/3
f 422/3/3 405/3/3 404/3/3
f 422/3/3 396/3/3 405/3/3
f 422/3/3 382/3/3 396/3/3
f 424/3/3 421/3/3 420/3/3
f 424/3/3 420/3/3 397/3/3
f 424/3/3 397/3/3 383/3/3
f 425/3/3 421/3/3 424/3/3
f 426/3/3 413/3/3 412/3/3
f 426/3/3 389/3/3 375/3/3
f 426/3/3 401/3/3 389/3/3
f 426/3/3 412/3/3 401/3/3
f 427/3/3 413/3/3 426/3/3
f 430/3/3 421/3/3 425/3/3
f 431/3/3 421/3/3 430/3/3
f 432/3/3 415/3/3 417/3/3
f 435/3/3 413/3/3 427/3/3
f 436/3/3 413/3/3 435/3/3
f 437/3/3 413/3/3 436/3/3
f 438/3/3 413/3/3 437/3/3
f 439/3/3 423/3/3 422/3/3
f 440/3/3 370/3/3 419/3/3
f 441/3/3 370/3/3 440/3/3
f 442/3/3 429/3/3 428/3/3
f 444/3/3 432/3/3 431/3/3
f 445/3/3 415/3/3 432/3/3
f 445/3/3 432/3/3 444/3/3
f 446/3/3 388/3/3 411/3/3
f 447/3/3 388/3/3 446/3/3
f 448/3/3 434/3/3 433/3/3
f 450/3/3 437/3/3 436/3/3
f 451/3/3 437/3/3 450/3/3
f 452/3/3 370/3/3 441/3/3
f 453/3/3 370/3/3 452/3/3
f 454/3/3 443/3/3 442/3/3
f 460/3/3 449/3/3 448/3/3
f 461/3/3 413/3/3 438/3/3
f 462/3/3 413/3/3 461/3/3
f 463/3/3 440/3/3 439/3/3
f 465/3/3 370/3/3 453/3/3
f 466/3/3 370/3/3 465/3/3
f 468/3/3 457/3/3 456/3/3
f 469/3/3 461/3/3 460/3/3
f 471/3/3 464/3/3 463/3/3
f 473/3/3 468/3/3 467/3/3
f 474/3/3 468/3/3 473/3/3
f 475/3/3 455/3/3 454/3/3
f 477/3/3 468/3/3 474/3/3
f 478/3/3 457/3/3 468/3/3
f 478/3/3 468/3/3 477/3/3
f 479/3/3 470/3/3 469/3/3
f 479/3/3 460/3/3 448/3/3
f 479/3/3 448/3/3 433/3/3
f 479/3/3 469/3/3 460/3/3
f 480/3/3 470/3/3 479/3/3
f 481/3/3 439/3/3 422/3/3
f 481/3/3 422/3/3 404/3/3
f 481/3/3 472/3/3 471/3/3
f 481/3/3 471/3/3 463/3/3
f 481/3/3 463/3/3 439/3/3
f 482/3/3 472/3/3 481/3/3
f 483/3/3 370/3/3 466/3/3
f 484/3/3 370/3/3 483/3/3
f 485/3/3 475/3/3 454/3/3
f 485/3/3 442/3/3 428/3/3
f 485/3/3 476/3/3 475/3/3
f 485/3/3 454/3/3 442/3/3
f 486/3/3 476/3/3 485/3/3
f 487/3/3 457/3/3 478/3/3
f 488/3/3 457/3/3 487/3/3
f 489/3/3 459/3/3 458/3/3
f 490/3/3 459/3/3 489/3/3
f 502/2/3 494/2/3 493/2/3
f 507/2/3 494/2/3 502/2/3
f 507/2/3 502/2/3 501/2/3
f 508/2/3 494/2/3 507/2/3
f 510/2/3 496/2/3 495/2/3
f 511/2/3 496/2/3 510/2/3
f 513/2/3 500/2/3 499/2/3
f 514/2/3 504/2/3 503/2/3
f 515/2/3 504/2/3 514/2/3
f 517/2/3 507/2/3 501/2/3
f 519/2/3 512/2/3 511/2/3
f 519/2/3 510/2/3 509/2/3
f 519/2/3 511/2/3 510/2/3
f 520/2/3 512/2/3 519/2/3
f 521/2/3 512/2/3 520/2/3
f 523/2/3 516/2/3 515/2/3
f 523/2/3 513/2/3 499/2/3
f 523/2/3 515/2/3 514/2/3
f 523/2/3 514/2/3 513/2/3
f 524/2/3 516/2/3 523/2/3
f 525/2/3 506/2/3 505/2/3
f 526/2/3 506/2/3 525/2/3
f 527/2/3 506/2/3 526/2/3
f 530/2/3 518/2/3 517/2/3
f 530/2/3 517/2/3 501/2/3
f 531/2/3 518/2/3 530/2/3
f 532/2/3 518/2/3 531/2/3
f 534/2/3 522/2/3 521/2/3
f 534/2/3 521/2/3 520/2/3
f 535/2/3 522/2/3 534/2/3
f 536/2/3 522/2/3 535/2/3
f 538/2/3 516/2/3 524/2/3
f 539/2/3 516/2/3 538/2/3
f 540/2/3 528/2/3 527/2/3
f 540/2/3 527/2/3 526/2/3
f 541/2/3 528/2/3 540/2/3
f 542/2/3 528/2/3 541/2/3
f 544/2/3 492/2/3 491/2/3
f 545/2/3 530/2/3 529/2/3
f 545/2/3 531/2/3 530/2/3
f 546/2/3 531/2/3 545/2/3
f 547/2/3 531/2/3 546/2/3
f 548/2/3 537/2/3 536/2/3
f 548/2/3 536/2/3 535/2/3
f 549/2/3 537/2/3 548/2/3
f 550/2/3 537/2/3 549/2/3
f 552/2/3 498/2/3 497/2/3
f 553/2/3 543/2/3 542/2/3
f 553/2/3 542/2/3 541/2/3
f 554/2/3 543/2/3 553/2/3
f 555/2/3 543/2/3 554/2/3
f 556/2/3 546/2/3 545/2/3
f 556/2/3 544/2/3 491/2/3
f 556/2/3 545/2/3 544/2/3
f 557/2/3 546/2/3 556/2/3
f 558/2/3 551/2/3 550/2/3
f 558/2/3 550/2/3 549/2/3
f 559/2/3 551/2/3 558/2/3
f 560/2/3 498/2/3 552/2/3
f 561/2/3 498/2/3 560/2/3
f 562/2/3 523/2/3 499/2/3
f 563/2/3 523/2/3 562/2/3
f 565/2/3 555/2/3 554/2/3
f 565/2/3 556/2/3 555/2/3
f 566/2/3 556/2/3 565/2/3
f 567/2/3 564/2/3 563/2/3
f 567/2/3 563/2/3 562/2/3
f 567/2/3 561/2/3 560/2/3
f 567/2/3 562/2/3 561/2/3
f 567/2/3 560/2/3 559/2/3
f 568/2/3 564/2/3 567/2/3
f 569/2/3 558/2/3 549/2/3
f 571/2/3 533/2/3 532/2/3
f 573/2/3 570/2/3 569/2/3
f 573/2/3 569/2/3 549/2/3
f 574/2/3 570/2/3 573/2/3
f 575/2/3 572/2/3 571/2/3
f 575/2/3 571/2/3 532/2/3
f 576/2/3 572/2/3 575/2/3
f 577/2/3 534/2/3 520/2/3
f 581/2/3 578/2/3 577/2/3
f 581/2/3 577/2/3 520/2/3
f 582/2/3 578/2/3 581/2/3
f 583/2/3 578/2/3 582/2/3
f 584/2/3 570/2/3 574/2/3
f 585/2/3 570/2/3 584/2/3
f 586/2/3 580/2/3 579/2/3
f 587/2/3 580/2/3 586/2/3
f 588/2/3 580/2/3 587/2/3
f 592/2/3 572/2/3 576/2/3
f 593/2/3 572/2/3 592/2/3
f 595/2/3 583/2/3 582/2/3
f 595/2/3 584/2/3 583/2/3
f 596/2/3 584/2/3 595/2/3
f 597/2/3 584/2/3 596/2/3
f 598/2/3 584/2/3 597/2/3
f 599/2/3 564/2/3 568/2/3
f 600/2/3 564/2/3 599/2/3
f 602/2/3 588/2/3 587/2/3
f 602/2/3 589/2/3 588/2/3
f 603/2/3 589/2/3 602/2/3
f 604/2/3 589/2/3 603/2/3
f 605/2/3 591/2/3 590/2/3
f 606/2/3 594/2/3 593/2/3
f 608/2/3 597/2/3 596/2/3
f 609/2/3 597/2/3 608/2/3
f 610/2/3 601/2/3 600/2/3
f 610/2/3 600/2/3 599/2/3
f 610/2/3 599/2/3 598/2/3
f 611/2/3 601/2/3 610/2/3
f 612/2/3 601/2/3 611/2/3
f 613/2/3 601/2/3 612/2/3
f 614/2/3 601/2/3 613/2/3
f 615/2/3 601/2/3 614/2/3
f 616/2/3 605/2/3 604/2/3
f 616/2/3 604/2/3 603/2/3
f 617/2/3 591/2/3 605/2/3
f 617/2/3 605/2/3 616/2/3
f 618/2/3 556/2/3 566/2/3
f 619/2/3 607/2/3 606/2/3
f 619/2/3 606/2/3 593/2/3
f 620/2/3 607/2/3 619/2/3
f 621/2/3 607/2/3 620/2/3
f 623/2/3 612/2/3 611/2/3
f 624/2/3 612/2/3 623/2/3
f 625/2/3 618/2/3 617/2/3
f 626/2/3 556/2/3 618/2/3
f 626/2/3 618/2/3 625/2/3
f 627/2/3 622/2/3 621/2/3
f 627/2/3 621/2/3 620/2/3
f 628/2/3 622/2/3 627/2/3
f 629/2/3 623/2/3 611/2/3
f 631/2/3 630/2/3 629/2/3
f 631/2/3 629/2/3 611/2/3
f 632/2/3 630/2/3 631/2/3
f 633/2/3 630/2/3 632/2/3
f 635/2/3 556/2/3 626/2/3
f 636/2/3 556/2/3 635/2/3
f 637/2/3 622/2/3 628/2/3
f 638/2/3 622/2/3 637/2/3
f 639/2/3 581/2/3 520/2/3
f 640/2/3 581/2/3 639/2/3
f 641/2/3 634/2/3 633/2/3
f 641/2/3 633/2/3 632/2/3
f 642/2/3 634/2/3 641/2/3
f 643/2/3 614/2/3 613/2/3
f 644/2/3 614/2/3 643/2/3
f 647/1/3 646/1/3 645/1/3
f 648/1/3 646/1/3 647/1/3
f 651/1/3 650/1/3 649/1/3
f 652/1/3 650/1/3 651/1/3
f 655/1/3 654/1/3 653/1/3
f 656/1/3 654/1/3 655/1/3
f 657/1/4 658/1/4 659/1/4
f 659/1/4 658/1/4 660/1/4
f 667/3/5 662/3/5 661/3/5
f 668/3/5 662/3/5 667/3/5
f 669/3/5 664/3/5 663/3/5
f 670/3/5 664/3/5 669/3/5
f 671/3/5 666/3/5 665/3/5
f 672/3/5 666/3/5 671/3/5
f 673/2/5 670/2/5 669/2/5
f 673/2/5 668/2/5 667/2/5
f 673/2/5 672/2/5 671/2/5
f 673/2/5 671/2/5 670/2/5
f 673/2/5 669/2/5 668/2/5
f 674/2/5 672/2/5 673/2/5
f 675/1/5 674/1/5 673/1/5
f 676/1/5 674/1/5 675/1/5
f 681/3/5 678/3/5 677/3/5
f 682/3/5 678/3/5 681/3/5
f 683/3/5 680/3/5 679/3/5
f 684/3/5 680/3/5 683/3/5
f 687/3/5 686/3/5 685/3/5
f 688/3/5 686/3/5 687/3/5
f 691/3/5 690/3/5 689/3/5
f 692/3/5 690/3/5 691/3/5
f 697/3/5 694/3/5 693/3/5
f 698/3/5 694/3/5 697/3/5
f 699/3/5 696/3/5 695/3/5
f 700/3/5 696/3/5 699/3/5
f 703/3/5 702/3/5 701/3/5
f 704/3/5 702/3/5 703/3/5
f 707/3/5 706/3/5 705/3/5
f 708/3/5 706/3/5 707/3/5
f 711/3/5 710/3/5 709/3/5
f 712/3/5 710/3/5 711/3/5
f 715/3/5 714/3/5 713/3/5
f 716/3/5 714/3/5 715/3/5
f 721/3/5 718/3/5 717/3/5
f 722/3/5 718/3/5 721/3/5
f 723/3/5 720/3/5 719/3/5
f 724/3/5 720/3/5 723/3/5
f 727/3/5 726/3/5 725/3/5
f 728/3/5 726/3/5 727/3/5
f 729/3/5 726/3/5 728/3/5
f 730/2/5 728/2/5 727/2/5
f 731/2/5 728/2/5 730/2/5
f 734/3/5 733/3/5 732/3/5
f 735/3/5 733/3/5 734/3/5
f 738/3/5 737/3/5 736/3/5
f 739/3/5 737/3/5 738/3/5
f 742/3/5 741/3/5 740/3/5
f 743/3/5 741/3/5 742/3/5
f 746/3/5 745/3/5 744/3/5
f 747/3/5 745/3/5 746/3/5
f 754/3/5 749/3/5 748/3/5
f 755/3/5 749/3/5 754/3/5
f 756/3/5 751/3/5 750/3/5
f 757/3/5 751/3/5 756/3/5
f 758/3/5 753/3/5 752/3/5
f 759/3/5 753/3/5 758/3/5
f 762/3/5 761/3/5 760/3/5
f 763/3/5 761/3/5 762/3/5
f 766/3/5 765/3/5 764/3/5
f 767/3/5 765/3/5 766/3/5
f 770/3/5 769/3/5 768/3/5
f 771/3/5 769/3/5 770/3/5
f 778/3/5 773/3/5 772/3/5
f 779/3/5 773/3/5 778/3/5
f 780/3/5 775/3/5 774/3/5
f 781/3/5 775/3/5 780/3/5
f 782/3/5 777/3/5 776/3/5
f 783/3/5 777/3/5 782/3/5
f 785/2/5 784/2/5 783/2/5
f 786/2/5 784/2/5 785/2/5
f 789/3/5 788/3/5 787/3/5
f 790/3/5 788/3/5 789/3/5
f 795/3/5 792/3/5 791/3/5
f 796/3/5 792/3/5 795/3/5
f 797/2/5 794/2/5 793/2/5
f 798/2/5 794/2/5 797/2/5
f 803/3/5 800/3/5 799/3/5
f 804/3/5 800/3/5 803/3/5
f 805/3/5 802/3/5 801/3/5
f 806/3/5 802/3/5 805/3/5
f 811/3/5 808/3/5 807/3/5
f 812/3/5 808/3/5 811/3/5
f 813/3/5 810/3/5 809/3/5
f 814/3/5 810/3/5 813/3/5
f 819/3/5 816/3/5 815/3/5
f 820/3/5 816/3/5 819/3/5
f 821/3/5 818/3/5 817/3/5
f 822/3/5 818/3/5 821/3/5
f 827/3/5 824/3/5 823/3/5
f 828/3/5 824/3/5 827/3/5
f 829/3/5 826/3/5 825/3/5
f 830/3/5 826/3/5 829/3/5
f 833/3/5 832/3/5 831/3/5
f 834/3/5 832/3/5 833/3/5
f 835/3/6 836/3/6 839/3/6
f 839/3/6 836/3/6 840/3/6
f 837/3/6 838/3/6 841/3/6
f 841/3/6 838/3/6 842/3/6
f 843/3/6 844/3/6 845/3/6
f 845/3/6 844/3/6 846/3/6
f 847/3/6 848/3/6 849/3/6
f 849/3/6 848/3/6 850/3/6
f 851/3/6 852/3/6 855/3/6
f 855/3/6 852/3/6 856/3/6
f 853/3/6 854/3/6 857/3/6
f 857/3/6 854/3/6 858/3/6
f 859/3/6 860/3/6 861/3/6
f 861/3/6 860/3/6 862/3/6
f 863/3/6 864/3/6 867/3/6
f 867/3/6 864/3/6 868/3/6
f 865/3/6 866/3/6 869/3/6
f 869/3/6 866/3/6 870/3/6
f 871/3/6 872/3/6 873/3/6
f 873/3/6 872/3/6 874/3/6
f 875/3/6 876/3/6 877/3/6
f 877/3/6 876/3/6 878/3/6
f 879/3/6 880/3/6 881/3/6
f 881/3/6 880/3/6 882/3/6
f 883/3/6 884/3/6 885/3/6
f 885/3/6 884/3/6 886/3/6
f 887/3/6 888/3/6 890/3/6
f 890/3/6 888/3/6 891/3/6
f 889/2/6 890/2/6 892/2/6
f 892/2/6 890/2/6 893/2/6
f 894/3/6 895/3/6 898/3/6
f 898/3/6 895/3/6 899/3/6
f 896/3/6 897/3/6 900/3/6
f 900/3/6 897/3/6 901/3/6
f 902/3/6 903/3/6 904/3/6
f 904/3/6 903/3/6 905/3/6
f 906/3/6 907/3/6 908/3/6
f 908/3/6 907/3/6 909/3/6
f 910/3/6 911/3/6 912/3/6
f 912/3/6 911/3/6 913/3/6
f 914/3/6 915/3/6 918/3/6
f 918/3/6 915/3/6 919/3/6
f 916/3/6 917/3/6 920/3/6
f 920/3/6 917/3/6 921/3/6
f 922/3/6 923/3/6 924/3/6
f 924/3/6 923/3/6 925/3/6
f 926/3/6 927/3/6 930/3/6
f 930/3/6 927/3/6 931/3/6
f 928/3/6 929/3/6 932/3/6
f 932/3/6 929/3/6 933/3/6
f 934/3/6 935/3/6 936/3/6
f 936/3/6 935/3/6 937/3/6
f 938/2/6 939/2/6 940/2/6
f 940/2/6 939/2/6 941/2/6
f 942/3/6 943/3/6 944/3/6
f 944/3/6 943/3/6 945/3/6
f 946/3/6 947/3/6 951/3/6
f 951/3/6 947/3/6 952/3/6
f 948/3/6 949/3/6 953/3/6
f 953/3/6 949/3/6 954/3/6
f 950/2/6 951/2/6 955/2/6
f 955/2/6 951/2/6 956/2/6
f 957/3/6 958/3/6 961/3/6
f 961/3/6 958/3/6 962/3/6
f 959/3/6 960/3/6 963/3/6
f 963/3/6 960/3/6 964/3/6
f 965/3/6 966/3/6 967/3/6
f 967/3/6 966/3/6 968/3/6
f 969/3/6 970/3/6 973/3/6
f 973/3/6 970/3/6 974/3/6
f 971/3/6 972/3/6 975/3/6
f 975/3/6 972/3/6 976/3/6
f 977/3/6 978/3/6 979/3/6
f 979/3/6 978/3/6 980/3/6
f 981/3/6 982/3/6 983/3/6
f 983/3/6 982/3/6 984/3/6
f 985/3/6 986/3/6 991/3/6
f 991/3/6 986/3/6 992/3/6
f 987/3/6 988/3/6 993/3/6
f 993/3/6 988/3/6 994/3/6
f 989/3/6 990/3/6 995/3/6
f 995/3/6 990/3/6 996/3/6
f 993/2/6 994/2/6 997/2/6
f 991/2/6 992/2/6 997/2/6
f 995/2/6 996/2/6 997/2/6
f 994/2/6 995/2/6 997/2/6
f 992/2/6 993/2/6 997/2/6
f 997/2/6 996/2/6 998/2/6
f 997/1/6 998/1/6 999/1/6
f 999/1/6 998/1/6 1000/1/6
