# MagicaVoxel @ Ephtracy

# group
o 

# material
mtllib wall5.mtl
usemtl palette

# normals
vn -1 0 0
vn 1 0 0
vn 0 0 1
vn 0 0 -1
vn 0 -1 0
vn 0 1 0

# texcoords
vt 0.970703 0.5
vt 0.974609 0.5
vt 0.978516 0.5

# verts
v 0.2 0 -1.7
v 0.2 0 -1.8
v 0.2 0 -1.9
v 0.2 0 -2
v 0.2 0.9 -1.7
v 0.2 0.9 -1.8
v 0.2 1 -1.7
v 0.2 1 -1.8
v 0.2 2.3 -1.7
v 0.2 2.3 -1.8
v 0.2 2.6 -1.7
v 0.2 2.6 -1.8
v 0.2 3.3 -1.7
v 0.2 3.3 -1.8
v 0.2 3.4 -1.7
v 0.2 3.4 -1.8
v 0.2 3.8 -1.7
v 0.2 3.8 -1.8
v 0.2 3.9 -1.7
v 0.2 3.9 -1.8
v 0.2 4 -1.7
v 0.2 4 -1.8
v 0.2 4 -1.9
v 0.2 4 -2
v 0.3 2.4 -1.7
v 0.3 2.4 -1.8
v 0.3 2.6 -1.7
v 0.3 2.6 -1.8
v 0.4 2.6 -1.7
v 0.4 2.6 -1.8
v 0.4 2.7 -1.7
v 0.4 2.7 -1.8
v 0.5 0.7 -1.7
v 0.5 0.7 -1.8
v 0.5 0.9 -1.7
v 0.5 0.9 -1.8
v 0.5 2.8 -1.7
v 0.5 2.8 -1.8
v 0.5 2.9 -1.7
v 0.5 2.9 -1.8
v 0.6 0 -1.7
v 0.6 0 -1.8
v 0.6 0.1 -1.8
v 0.6 0.1 -1.9
v 0.6 0.2 -1.8
v 0.6 0.2 -1.9
v 0.6 0.7 -1.7
v 0.6 0.7 -1.8
v 0.6 2.7 -1.7
v 0.6 2.7 -1.8
v 0.6 2.8 -1.7
v 0.6 2.8 -1.8
v 0.6 3.6 -1.7
v 0.6 3.6 -1.8
v 0.6 3.7 -1.7
v 0.6 3.7 -1.8
v 0.7 0.9 -1.8
v 0.7 0.9 -1.9
v 0.7 1 -1.8
v 0.7 1 -1.9
v 0.7 2.4 -1.7
v 0.7 2.4 -1.8
v 0.7 2.6 -1.7
v 0.7 2.6 -1.8
v 0.7 3.5 -1.7
v 0.7 3.5 -1.8
v 0.7 3.6 -1.7
v 0.7 3.6 -1.8
v 0.7 3.7 -1.7
v 0.7 3.7 -1.8
v 0.7 3.8 -1.7
v 0.7 3.8 -1.8
v 0.8 2.6 -1.7
v 0.8 2.6 -1.8
v 0.8 2.9 -1.7
v 0.8 2.9 -1.8
v 0.8 3.4 -1.7
v 0.8 3.4 -1.8
v 0.8 3.5 -1.7
v 0.8 3.5 -1.8
v 0.9 1 -1.7
v 0.9 1 -1.8
v 0.9 1.1 -1.7
v 0.9 1.1 -1.8
v 0.9 1.3 -1.7
v 0.9 1.3 -1.8
v 0.9 1.5 -1.7
v 0.9 1.5 -1.8
v 0.9 3.9 -1.7
v 0.9 3.9 -1.8
v 0.9 4 -1.7
v 0.9 4 -1.8
v 1 0.9 -1.7
v 1 0.9 -1.8
v 1 1 -1.7
v 1 1 -1.8
v 1 1.5 -1.7
v 1 1.5 -1.8
v 1 2 -1.8
v 1 2 -1.9
v 1 2.2 -1.7
v 1 2.2 -1.8
v 1 2.2 -1.9
v 1 2.4 -1.7
v 1 2.4 -1.8
v 1 2.5 -1.8
v 1 2.5 -1.9
v 1 2.6 -1.7
v 1 2.6 -1.8
v 1 2.6 -1.9
v 1 3 -1.7
v 1 3 -1.8
v 1 3 -1.9
v 1 3.1 -1.7
v 1 3.1 -1.8
v 1 3.1 -1.9
v 1 3.8 -1.7
v 1 3.8 -1.8
v 1 3.9 -1.7
v 1 3.9 -1.8
v 1.1 1.1 -1.7
v 1.1 1.1 -1.8
v 1.1 1.2 -1.7
v 1.1 1.2 -1.8
v 1.1 2.2 -1.7
v 1.1 2.2 -1.8
v 1.1 2.3 -1.7
v 1.1 2.3 -1.8
v 1.1 2.3 -1.9
v 1.1 2.4 -1.8
v 1.1 2.4 -1.9
v 1.1 2.6 -1.7
v 1.1 2.6 -1.8
v 1.1 2.7 -1.7
v 1.1 2.7 -1.8
v 1.1 2.7 -1.9
v 1.1 2.8 -1.8
v 1.1 2.8 -1.9
v 1.1 2.9 -1.7
v 1.1 2.9 -1.8
v 1.1 3 -1.7
v 1.1 3 -1.8
v 1.1 3.1 -1.7
v 1.1 3.1 -1.8
v 1.1 3.1 -1.9
v 1.1 3.2 -1.8
v 1.1 3.2 -1.9
v 1.1 3.4 -1.8
v 1.1 3.4 -1.9
v 1.1 3.5 -1.7
v 1.1 3.5 -1.8
v 1.1 3.5 -1.9
v 1.2 0 -1.7
v 1.2 0 -1.8
v 1.2 0.5 -1.7
v 1.2 0.5 -1.8
v 1.2 1.2 -1.7
v 1.2 1.2 -1.8
v 1.2 1.3 -1.7
v 1.2 1.3 -1.8
v 1.3 0.5 -1.7
v 1.3 0.5 -1.8
v 1.3 0.8 -1.7
v 1.3 0.8 -1.8
v 1.3 1.3 -1.7
v 1.3 1.3 -1.8
v 1.3 1.4 -1.7
v 1.3 1.4 -1.8
v 1.3 2.8 -1.7
v 1.3 2.8 -1.8
v 1.3 2.9 -1.7
v 1.3 2.9 -1.8
v 1.4 2.6 -1.7
v 1.4 2.6 -1.8
v 1.4 2.8 -1.7
v 1.4 2.8 -1.8
v 1.4 2.9 -1.7
v 1.4 2.9 -1.8
v 1.4 3.6 -1.7
v 1.4 3.6 -1.8
v 1.5 2.3 -1.8
v 1.5 2.3 -1.9
v 1.5 2.4 -1.7
v 1.5 2.4 -1.8
v 1.5 2.4 -1.9
v 1.5 2.6 -1.7
v 1.5 2.6 -1.8
v 1.5 3.6 -1.7
v 1.5 3.6 -1.8
v 1.5 3.9 -1.7
v 1.5 3.9 -1.8
v 1.7 1.4 -1.7
v 1.7 1.4 -1.8
v 1.7 1.5 -1.7
v 1.7 1.5 -1.8
v 1.8 2.5 -1.7
v 1.8 2.5 -1.8
v 1.8 2.5 -1.9
v 1.8 2.6 -1.8
v 1.8 2.6 -1.9
v 1.8 3.5 -1.7
v 1.8 3.5 -1.8
v 1.9 1.3 -1.7
v 1.9 1.3 -1.8
v 1.9 1.4 -1.7
v 1.9 1.4 -1.8
v 1.9 2.4 -1.7
v 1.9 2.4 -1.8
v 1.9 2.5 -1.7
v 1.9 2.5 -1.8
v 1.9 3.5 -1.7
v 1.9 3.5 -1.8
v 1.9 3.7 -1.8
v 1.9 3.7 -1.9
v 1.9 3.8 -1.8
v 1.9 3.8 -1.9
v 1.9 3.9 -1.7
v 1.9 3.9 -1.8
v 0.3 2.6 -1.7
v 0.3 2.6 -1.8
v 0.3 2.9 -1.7
v 0.3 2.9 -1.8
v 0.3 3.7 -1.7
v 0.3 3.7 -1.8
v 0.3 3.8 -1.7
v 0.3 3.8 -1.8
v 0.4 0.7 -1.7
v 0.4 0.7 -1.8
v 0.4 0.9 -1.7
v 0.4 0.9 -1.8
v 0.4 0.9 -1.9
v 0.4 1 -1.8
v 0.4 1 -1.9
v 0.5 0 -1.7
v 0.5 0 -1.8
v 0.5 0.1 -1.8
v 0.5 0.1 -1.9
v 0.5 0.2 -1.8
v 0.5 0.2 -1.9
v 0.5 0.7 -1.7
v 0.5 0.7 -1.8
v 0.5 2.5 -1.7
v 0.5 2.5 -1.8
v 0.5 2.7 -1.7
v 0.5 2.7 -1.8
v 0.5 3.6 -1.7
v 0.5 3.6 -1.8
v 0.5 3.7 -1.7
v 0.5 3.7 -1.8
v 0.6 1 -1.7
v 0.6 1 -1.8
v 0.6 1.1 -1.7
v 0.6 1.1 -1.8
v 0.6 2.4 -1.7
v 0.6 2.4 -1.8
v 0.6 2.5 -1.7
v 0.6 2.5 -1.8
v 0.6 3.4 -1.7
v 0.6 3.4 -1.8
v 0.6 3.6 -1.7
v 0.6 3.6 -1.8
v 0.7 2.7 -1.7
v 0.7 2.7 -1.8
v 0.7 2.9 -1.7
v 0.7 2.9 -1.8
v 0.7 3.9 -1.7
v 0.7 3.9 -1.8
v 0.7 4 -1.7
v 0.7 4 -1.8
v 0.8 1.1 -1.7
v 0.8 1.1 -1.8
v 0.8 1.2 -1.7
v 0.8 1.2 -1.8
v 0.8 1.3 -1.7
v 0.8 1.3 -1.8
v 0.8 1.6 -1.7
v 0.8 1.6 -1.8
v 0.8 2.4 -1.7
v 0.8 2.4 -1.8
v 0.8 2.5 -1.7
v 0.8 2.5 -1.8
v 0.9 1.6 -1.7
v 0.9 1.6 -1.8
v 0.9 2 -1.8
v 0.9 2 -1.9
v 0.9 2.2 -1.8
v 0.9 2.2 -1.9
v 0.9 2.3 -1.7
v 0.9 2.3 -1.8
v 0.9 2.5 -1.7
v 0.9 2.5 -1.8
v 0.9 2.5 -1.9
v 0.9 2.6 -1.8
v 0.9 2.6 -1.9
v 0.9 2.7 -1.7
v 0.9 2.7 -1.8
v 0.9 2.9 -1.7
v 0.9 2.9 -1.8
v 0.9 3 -1.8
v 0.9 3 -1.9
v 0.9 3.1 -1.8
v 0.9 3.1 -1.9
v 0.9 3.2 -1.7
v 0.9 3.2 -1.8
v 0.9 3.4 -1.7
v 0.9 3.4 -1.8
v 0.9 3.5 -1.7
v 0.9 3.5 -1.8
v 1 0.8 -1.7
v 1 0.8 -1.8
v 1 0.9 -1.7
v 1 0.9 -1.8
v 1 1.2 -1.7
v 1 1.2 -1.8
v 1 1.3 -1.7
v 1 1.3 -1.8
v 1 2.3 -1.8
v 1 2.3 -1.9
v 1 2.4 -1.8
v 1 2.4 -1.9
v 1 2.7 -1.7
v 1 2.7 -1.8
v 1 2.7 -1.9
v 1 2.8 -1.8
v 1 2.8 -1.9
v 1 2.9 -1.7
v 1 2.9 -1.8
v 1 3.1 -1.8
v 1 3.1 -1.9
v 1 3.2 -1.7
v 1 3.2 -1.8
v 1 3.2 -1.9
v 1 3.3 -1.7
v 1 3.3 -1.8
v 1 3.4 -1.8
v 1 3.4 -1.9
v 1 3.5 -1.8
v 1 3.5 -1.9
v 1 3.9 -1.7
v 1 3.9 -1.8
v 1 4 -1.7
v 1 4 -1.8
v 1.1 0 -1.7
v 1.1 0 -1.8
v 1.1 0.6 -1.7
v 1.1 0.6 -1.8
v 1.2 0.6 -1.7
v 1.2 0.6 -1.8
v 1.2 0.8 -1.7
v 1.2 0.8 -1.8
v 1.2 1.3 -1.7
v 1.2 1.3 -1.8
v 1.2 1.4 -1.7
v 1.2 1.4 -1.8
v 1.2 2.9 -1.7
v 1.2 2.9 -1.8
v 1.2 3 -1.7
v 1.2 3 -1.8
v 1.3 1.4 -1.7
v 1.3 1.4 -1.8
v 1.3 1.5 -1.7
v 1.3 1.5 -1.8
v 1.3 2.5 -1.7
v 1.3 2.5 -1.8
v 1.3 2.7 -1.7
v 1.3 2.7 -1.8
v 1.3 3 -1.7
v 1.3 3 -1.8
v 1.3 3.7 -1.7
v 1.3 3.7 -1.8
v 1.4 2.3 -1.8
v 1.4 2.3 -1.9
v 1.4 2.4 -1.7
v 1.4 2.4 -1.8
v 1.4 2.4 -1.9
v 1.4 2.5 -1.7
v 1.4 2.5 -1.8
v 1.4 3.7 -1.7
v 1.4 3.7 -1.8
v 1.4 3.9 -1.7
v 1.4 3.9 -1.8
v 1.6 1.3 -1.7
v 1.6 1.3 -1.8
v 1.6 1.4 -1.7
v 1.6 1.4 -1.8
v 1.7 2.4 -1.7
v 1.7 2.4 -1.8
v 1.7 2.5 -1.8
v 1.7 2.5 -1.9
v 1.7 2.6 -1.8
v 1.7 2.6 -1.9
v 1.7 3.6 -1.7
v 1.7 3.6 -1.8
v 1.8 1.2 -1.7
v 1.8 1.2 -1.8
v 1.8 1.3 -1.7
v 1.8 1.3 -1.8
v 1.8 3.6 -1.7
v 1.8 3.6 -1.8
v 1.8 3.7 -1.8
v 1.8 3.7 -1.9
v 1.8 3.8 -1.8
v 1.8 3.8 -1.9
v 1.8 3.9 -1.7
v 1.8 3.9 -1.8
v 1.9 1.1 -1.7
v 1.9 1.1 -1.8
v 1.9 1.2 -1.7
v 1.9 1.2 -1.8
v 2 0 -1.7
v 2 0 -1.8
v 2 0 -1.9
v 2 0 -2
v 2 0.8 -1.7
v 2 0.8 -1.8
v 2 0.9 -1.7
v 2 0.9 -1.8
v 2 1.1 -1.7
v 2 1.1 -1.8
v 2 1.3 -1.7
v 2 1.3 -1.8
v 2 2.3 -1.7
v 2 2.3 -1.8
v 2 2.4 -1.7
v 2 2.4 -1.8
v 2 3.9 -1.7
v 2 3.9 -1.8
v 2 4 -1.8
v 2 4 -1.9
v 2 4 -2
v 0.2 0 -1.7
v 0.2 0.9 -1.7
v 0.2 1 -1.7
v 0.2 2.3 -1.7
v 0.2 2.6 -1.7
v 0.2 3.3 -1.7
v 0.2 3.4 -1.7
v 0.2 3.8 -1.7
v 0.2 3.9 -1.7
v 0.2 4 -1.7
v 0.3 2.4 -1.7
v 0.3 2.6 -1.7
v 0.3 2.9 -1.7
v 0.3 3.7 -1.7
v 0.3 3.8 -1.7
v 0.4 0.7 -1.7
v 0.4 0.9 -1.7
v 0.4 2.6 -1.7
v 0.4 2.7 -1.7
v 0.5 0 -1.7
v 0.5 0.7 -1.7
v 0.5 0.9 -1.7
v 0.5 2.5 -1.7
v 0.5 2.7 -1.7
v 0.5 2.8 -1.7
v 0.5 2.9 -1.7
v 0.5 3.6 -1.7
v 0.5 3.7 -1.7
v 0.6 0 -1.7
v 0.6 0.7 -1.7
v 0.6 1 -1.7
v 0.6 1.1 -1.7
v 0.6 2.4 -1.7
v 0.6 2.5 -1.7
v 0.6 2.7 -1.7
v 0.6 2.8 -1.7
v 0.6 3.4 -1.7
v 0.6 3.6 -1.7
v 0.6 3.7 -1.7
v 0.7 2.4 -1.7
v 0.7 2.6 -1.7
v 0.7 2.7 -1.7
v 0.7 2.9 -1.7
v 0.7 3.5 -1.7
v 0.7 3.6 -1.7
v 0.7 3.7 -1.7
v 0.7 3.8 -1.7
v 0.7 3.9 -1.7
v 0.7 4 -1.7
v 0.8 1.1 -1.7
v 0.8 1.2 -1.7
v 0.8 1.3 -1.7
v 0.8 1.6 -1.7
v 0.8 2.4 -1.7
v 0.8 2.5 -1.7
v 0.8 2.6 -1.7
v 0.8 2.9 -1.7
v 0.8 3.4 -1.7
v 0.8 3.5 -1.7
v 0.9 1 -1.7
v 0.9 1.1 -1.7
v 0.9 1.3 -1.7
v 0.9 1.5 -1.7
v 0.9 1.6 -1.7
v 0.9 2.3 -1.7
v 0.9 2.5 -1.7
v 0.9 2.7 -1.7
v 0.9 2.9 -1.7
v 0.9 3.2 -1.7
v 0.9 3.4 -1.7
v 0.9 3.5 -1.7
v 0.9 3.9 -1.7
v 0.9 4 -1.7
v 1 0.8 -1.7
v 1 0.9 -1.7
v 1 1 -1.7
v 1 1.2 -1.7
v 1 1.3 -1.7
v 1 1.5 -1.7
v 1 2.2 -1.7
v 1 2.4 -1.7
v 1 2.6 -1.7
v 1 2.7 -1.7
v 1 2.9 -1.7
v 1 3 -1.7
v 1 3.1 -1.7
v 1 3.2 -1.7
v 1 3.3 -1.7
v 1 3.8 -1.7
v 1 3.9 -1.7
v 1 4 -1.7
v 1.1 0 -1.7
v 1.1 0.6 -1.7
v 1.1 1.1 -1.7
v 1.1 1.2 -1.7
v 1.1 2.2 -1.7
v 1.1 2.3 -1.7
v 1.1 2.6 -1.7
v 1.1 2.7 -1.7
v 1.1 2.9 -1.7
v 1.1 3 -1.7
v 1.1 3.1 -1.7
v 1.1 3.5 -1.7
v 1.2 0 -1.7
v 1.2 0.5 -1.7
v 1.2 0.6 -1.7
v 1.2 0.8 -1.7
v 1.2 1.2 -1.7
v 1.2 1.3 -1.7
v 1.2 1.4 -1.7
v 1.2 2.9 -1.7
v 1.2 3 -1.7
v 1.3 0.5 -1.7
v 1.3 0.8 -1.7
v 1.3 1.3 -1.7
v 1.3 1.4 -1.7
v 1.3 1.5 -1.7
v 1.3 2.5 -1.7
v 1.3 2.7 -1.7
v 1.3 2.8 -1.7
v 1.3 2.9 -1.7
v 1.3 3 -1.7
v 1.3 3.7 -1.7
v 1.4 2.4 -1.7
v 1.4 2.5 -1.7
v 1.4 2.6 -1.7
v 1.4 2.8 -1.7
v 1.4 2.9 -1.7
v 1.4 3.6 -1.7
v 1.4 3.7 -1.7
v 1.4 3.9 -1.7
v 1.5 2.4 -1.7
v 1.5 2.6 -1.7
v 1.5 3.6 -1.7
v 1.5 3.9 -1.7
v 1.6 1.3 -1.7
v 1.6 1.4 -1.7
v 1.7 1.4 -1.7
v 1.7 1.5 -1.7
v 1.7 2.4 -1.7
v 1.7 3.6 -1.7
v 1.8 1.2 -1.7
v 1.8 1.3 -1.7
v 1.8 2.5 -1.7
v 1.8 3.5 -1.7
v 1.8 3.6 -1.7
v 1.8 3.9 -1.7
v 1.9 1.1 -1.7
v 1.9 1.2 -1.7
v 1.9 1.3 -1.7
v 1.9 1.4 -1.7
v 1.9 2.4 -1.7
v 1.9 2.5 -1.7
v 1.9 3.5 -1.7
v 1.9 3.9 -1.7
v 2 0 -1.7
v 2 0.8 -1.7
v 2 0.9 -1.7
v 2 1.1 -1.7
v 2 1.3 -1.7
v 2 2.3 -1.7
v 2 2.4 -1.7
v 2 3.9 -1.7
v 0.2 0.9 -1.8
v 0.2 1 -1.8
v 0.2 2.3 -1.8
v 0.2 2.6 -1.8
v 0.2 3.3 -1.8
v 0.2 3.4 -1.8
v 0.2 3.8 -1.8
v 0.2 3.9 -1.8
v 0.3 2.4 -1.8
v 0.3 2.6 -1.8
v 0.3 2.9 -1.8
v 0.3 3.7 -1.8
v 0.3 3.8 -1.8
v 0.4 0.7 -1.8
v 0.4 0.9 -1.8
v 0.4 1 -1.8
v 0.4 2.6 -1.8
v 0.4 2.7 -1.8
v 0.5 0 -1.8
v 0.5 0.1 -1.8
v 0.5 0.2 -1.8
v 0.5 0.7 -1.8
v 0.5 0.9 -1.8
v 0.5 2.5 -1.8
v 0.5 2.7 -1.8
v 0.5 2.8 -1.8
v 0.5 2.9 -1.8
v 0.5 3.6 -1.8
v 0.5 3.7 -1.8
v 0.6 0 -1.8
v 0.6 0.1 -1.8
v 0.6 0.2 -1.8
v 0.6 0.7 -1.8
v 0.6 1 -1.8
v 0.6 1.1 -1.8
v 0.6 2.4 -1.8
v 0.6 2.5 -1.8
v 0.6 2.7 -1.8
v 0.6 2.8 -1.8
v 0.6 3.4 -1.8
v 0.6 3.6 -1.8
v 0.6 3.7 -1.8
v 0.7 0.9 -1.8
v 0.7 1 -1.8
v 0.7 2.4 -1.8
v 0.7 2.6 -1.8
v 0.7 2.7 -1.8
v 0.7 2.9 -1.8
v 0.7 3.5 -1.8
v 0.7 3.6 -1.8
v 0.7 3.7 -1.8
v 0.7 3.8 -1.8
v 0.7 3.9 -1.8
v 0.7 4 -1.8
v 0.8 1.1 -1.8
v 0.8 1.2 -1.8
v 0.8 1.3 -1.8
v 0.8 1.6 -1.8
v 0.8 2.4 -1.8
v 0.8 2.5 -1.8
v 0.8 2.6 -1.8
v 0.8 2.9 -1.8
v 0.8 3.4 -1.8
v 0.8 3.5 -1.8
v 0.9 1 -1.8
v 0.9 1.1 -1.8
v 0.9 1.3 -1.8
v 0.9 1.5 -1.8
v 0.9 1.6 -1.8
v 0.9 2 -1.8
v 0.9 2.2 -1.8
v 0.9 2.3 -1.8
v 0.9 2.5 -1.8
v 0.9 2.6 -1.8
v 0.9 2.7 -1.8
v 0.9 2.9 -1.8
v 0.9 3 -1.8
v 0.9 3.1 -1.8
v 0.9 3.2 -1.8
v 0.9 3.4 -1.8
v 0.9 3.5 -1.8
v 0.9 3.9 -1.8
v 0.9 4 -1.8
v 1 0.8 -1.8
v 1 0.9 -1.8
v 1 1 -1.8
v 1 1.2 -1.8
v 1 1.3 -1.8
v 1 1.5 -1.8
v 1 2 -1.8
v 1 2.2 -1.8
v 1 2.3 -1.8
v 1 2.4 -1.8
v 1 2.5 -1.8
v 1 2.6 -1.8
v 1 2.7 -1.8
v 1 2.8 -1.8
v 1 2.9 -1.8
v 1 3 -1.8
v 1 3.1 -1.8
v 1 3.2 -1.8
v 1 3.3 -1.8
v 1 3.4 -1.8
v 1 3.5 -1.8
v 1 3.8 -1.8
v 1 3.9 -1.8
v 1 4 -1.8
v 1.1 0 -1.8
v 1.1 0.6 -1.8
v 1.1 1.1 -1.8
v 1.1 1.2 -1.8
v 1.1 2.2 -1.8
v 1.1 2.3 -1.8
v 1.1 2.4 -1.8
v 1.1 2.6 -1.8
v 1.1 2.7 -1.8
v 1.1 2.8 -1.8
v 1.1 2.9 -1.8
v 1.1 3 -1.8
v 1.1 3.2 -1.8
v 1.1 3.4 -1.8
v 1.2 0 -1.8
v 1.2 0.5 -1.8
v 1.2 0.6 -1.8
v 1.2 0.8 -1.8
v 1.2 1.2 -1.8
v 1.2 1.3 -1.8
v 1.2 1.4 -1.8
v 1.2 2.9 -1.8
v 1.2 3 -1.8
v 1.3 0.5 -1.8
v 1.3 0.8 -1.8
v 1.3 1.3 -1.8
v 1.3 1.4 -1.8
v 1.3 1.5 -1.8
v 1.3 2.5 -1.8
v 1.3 2.7 -1.8
v 1.3 2.8 -1.8
v 1.3 2.9 -1.8
v 1.3 3 -1.8
v 1.3 3.7 -1.8
v 1.4 2.3 -1.8
v 1.4 2.4 -1.8
v 1.4 2.5 -1.8
v 1.4 2.6 -1.8
v 1.4 2.8 -1.8
v 1.4 2.9 -1.8
v 1.4 3.6 -1.8
v 1.4 3.7 -1.8
v 1.4 3.9 -1.8
v 1.5 2.3 -1.8
v 1.5 2.4 -1.8
v 1.5 2.6 -1.8
v 1.5 3.6 -1.8
v 1.5 3.9 -1.8
v 1.6 1.3 -1.8
v 1.6 1.4 -1.8
v 1.7 1.4 -1.8
v 1.7 1.5 -1.8
v 1.7 2.4 -1.8
v 1.7 2.5 -1.8
v 1.7 2.6 -1.8
v 1.7 3.6 -1.8
v 1.8 1.2 -1.8
v 1.8 1.3 -1.8
v 1.8 2.5 -1.8
v 1.8 2.6 -1.8
v 1.8 3.5 -1.8
v 1.8 3.6 -1.8
v 1.8 3.7 -1.8
v 1.8 3.8 -1.8
v 1.8 3.9 -1.8
v 1.9 1.1 -1.8
v 1.9 1.2 -1.8
v 1.9 1.3 -1.8
v 1.9 1.4 -1.8
v 1.9 2.4 -1.8
v 1.9 2.5 -1.8
v 1.9 3.5 -1.8
v 1.9 3.7 -1.8
v 1.9 3.8 -1.8
v 1.9 3.9 -1.8
v 2 0.8 -1.8
v 2 0.9 -1.8
v 2 1.1 -1.8
v 2 1.3 -1.8
v 2 2.3 -1.8
v 2 2.4 -1.8
v 2 3.9 -1.8
v 2 4 -1.8
v 0.4 0.9 -1.9
v 0.4 1 -1.9
v 0.5 0.1 -1.9
v 0.5 0.2 -1.9
v 0.6 0.1 -1.9
v 0.6 0.2 -1.9
v 0.7 0.9 -1.9
v 0.7 1 -1.9
v 0.9 2 -1.9
v 0.9 2.2 -1.9
v 0.9 2.5 -1.9
v 0.9 2.6 -1.9
v 0.9 3 -1.9
v 0.9 3.1 -1.9
v 1 2 -1.9
v 1 2.2 -1.9
v 1 2.3 -1.9
v 1 2.4 -1.9
v 1 2.5 -1.9
v 1 2.6 -1.9
v 1 2.7 -1.9
v 1 2.8 -1.9
v 1 3 -1.9
v 1 3.1 -1.9
v 1 3.2 -1.9
v 1 3.4 -1.9
v 1 3.5 -1.9
v 1.1 2.3 -1.9
v 1.1 2.4 -1.9
v 1.1 2.7 -1.9
v 1.1 2.8 -1.9
v 1.1 3.1 -1.9
v 1.1 3.2 -1.9
v 1.1 3.4 -1.9
v 1.1 3.5 -1.9
v 1.4 2.3 -1.9
v 1.4 2.4 -1.9
v 1.5 2.3 -1.9
v 1.5 2.4 -1.9
v 1.7 2.5 -1.9
v 1.7 2.6 -1.9
v 1.8 2.5 -1.9
v 1.8 2.6 -1.9
v 1.8 3.7 -1.9
v 1.8 3.8 -1.9
v 1.9 3.7 -1.9
v 1.9 3.8 -1.9
v 0.2 0 -2
v 0.2 4 -2
v 2 0 -2
v 2 4 -2
v 0.2 0 -1.7
v 0.5 0 -1.7
v 0.6 0 -1.7
v 1.1 0 -1.7
v 1.2 0 -1.7
v 2 0 -1.7
v 0.2 0 -1.8
v 0.5 0 -1.8
v 0.6 0 -1.8
v 1.1 0 -1.8
v 1.2 0 -1.8
v 2 0 -1.8
v 0.2 0 -1.9
v 2 0 -1.9
v 0.2 0 -2
v 2 0 -2
v 0.5 0.2 -1.8
v 0.6 0.2 -1.8
v 0.5 0.2 -1.9
v 0.6 0.2 -1.9
v 1.1 0.6 -1.7
v 1.2 0.6 -1.7
v 1.1 0.6 -1.8
v 1.2 0.6 -1.8
v 0.5 0.7 -1.7
v 0.6 0.7 -1.7
v 0.5 0.7 -1.8
v 0.6 0.7 -1.8
v 1 0.9 -1.7
v 2 0.9 -1.7
v 1 0.9 -1.8
v 2 0.9 -1.8
v 0.2 1 -1.7
v 0.6 1 -1.7
v 0.9 1 -1.7
v 1 1 -1.7
v 0.2 1 -1.8
v 0.4 1 -1.8
v 0.6 1 -1.8
v 0.7 1 -1.8
v 0.9 1 -1.8
v 1 1 -1.8
v 0.4 1 -1.9
v 0.7 1 -1.9
v 0.6 1.1 -1.7
v 0.8 1.1 -1.7
v 0.6 1.1 -1.8
v 0.8 1.1 -1.8
v 0.8 1.2 -1.7
v 1 1.2 -1.7
v 0.8 1.2 -1.8
v 1 1.2 -1.8
v 1 1.3 -1.7
v 1.2 1.3 -1.7
v 1.9 1.3 -1.7
v 2 1.3 -1.7
v 1 1.3 -1.8
v 1.2 1.3 -1.8
v 1.9 1.3 -1.8
v 2 1.3 -1.8
v 1.2 1.4 -1.7
v 1.3 1.4 -1.7
v 1.7 1.4 -1.7
v 1.9 1.4 -1.7
v 1.2 1.4 -1.8
v 1.3 1.4 -1.8
v 1.7 1.4 -1.8
v 1.9 1.4 -1.8
v 1.3 1.5 -1.7
v 1.7 1.5 -1.7
v 1.3 1.5 -1.8
v 1.7 1.5 -1.8
v 0.8 1.6 -1.7
v 0.9 1.6 -1.7
v 0.8 1.6 -1.8
v 0.9 1.6 -1.8
v 0.9 2.2 -1.8
v 1 2.2 -1.8
v 0.9 2.2 -1.9
v 1 2.2 -1.9
v 0.3 2.4 -1.7
v 0.6 2.4 -1.7
v 0.7 2.4 -1.7
v 0.8 2.4 -1.7
v 1 2.4 -1.7
v 1.4 2.4 -1.7
v 1.5 2.4 -1.7
v 1.7 2.4 -1.7
v 1.9 2.4 -1.7
v 2 2.4 -1.7
v 0.3 2.4 -1.8
v 0.6 2.4 -1.8
v 0.7 2.4 -1.8
v 0.8 2.4 -1.8
v 1 2.4 -1.8
v 1.1 2.4 -1.8
v 1.4 2.4 -1.8
v 1.5 2.4 -1.8
v 1.7 2.4 -1.8
v 1.9 2.4 -1.8
v 2 2.4 -1.8
v 1 2.4 -1.9
v 1.1 2.4 -1.9
v 1.4 2.4 -1.9
v 1.5 2.4 -1.9
v 0.8 2.5 -1.7
v 0.9 2.5 -1.7
v 1.8 2.5 -1.7
v 1.9 2.5 -1.7
v 0.8 2.5 -1.8
v 0.9 2.5 -1.8
v 1.8 2.5 -1.8
v 1.9 2.5 -1.8
v 0.2 2.6 -1.7
v 0.3 2.6 -1.7
v 1.4 2.6 -1.7
v 1.5 2.6 -1.7
v 0.2 2.6 -1.8
v 0.3 2.6 -1.8
v 0.9 2.6 -1.8
v 1 2.6 -1.8
v 1.4 2.6 -1.8
v 1.5 2.6 -1.8
v 1.7 2.6 -1.8
v 1.8 2.6 -1.8
v 0.9 2.6 -1.9
v 1 2.6 -1.9
v 1.7 2.6 -1.9
v 1.8 2.6 -1.9
v 0.6 2.7 -1.7
v 0.7 2.7 -1.7
v 0.9 2.7 -1.7
v 1 2.7 -1.7
v 0.6 2.7 -1.8
v 0.7 2.7 -1.8
v 0.9 2.7 -1.8
v 1 2.7 -1.8
v 0.5 2.8 -1.7
v 0.6 2.8 -1.7
v 1.3 2.8 -1.7
v 1.4 2.8 -1.7
v 0.5 2.8 -1.8
v 0.6 2.8 -1.8
v 1 2.8 -1.8
v 1.1 2.8 -1.8
v 1.3 2.8 -1.8
v 1.4 2.8 -1.8
v 1 2.8 -1.9
v 1.1 2.8 -1.9
v 0.3 2.9 -1.7
v 0.5 2.9 -1.7
v 0.7 2.9 -1.7
v 0.8 2.9 -1.7
v 1.1 2.9 -1.7
v 1.2 2.9 -1.7
v 0.3 2.9 -1.8
v 0.5 2.9 -1.8
v 0.7 2.9 -1.8
v 0.8 2.9 -1.8
v 1.1 2.9 -1.8
v 1.2 2.9 -1.8
v 1 3 -1.7
v 1.1 3 -1.7
v 1.2 3 -1.7
v 1.3 3 -1.7
v 1 3 -1.8
v 1.1 3 -1.8
v 1.2 3 -1.8
v 1.3 3 -1.8
v 0.9 3.1 -1.8
v 1 3.1 -1.8
v 0.9 3.1 -1.9
v 1 3.1 -1.9
v 0.9 3.2 -1.7
v 1 3.2 -1.7
v 0.9 3.2 -1.8
v 1 3.2 -1.8
v 1.1 3.2 -1.8
v 1 3.2 -1.9
v 1.1 3.2 -1.9
v 0.2 3.4 -1.7
v 0.6 3.4 -1.7
v 0.8 3.4 -1.7
v 0.9 3.4 -1.7
v 0.2 3.4 -1.8
v 0.6 3.4 -1.8
v 0.8 3.4 -1.8
v 0.9 3.4 -1.8
v 0.7 3.5 -1.7
v 0.8 3.5 -1.7
v 0.9 3.5 -1.7
v 1.1 3.5 -1.7
v 0.7 3.5 -1.8
v 0.8 3.5 -1.8
v 0.9 3.5 -1.8
v 1 3.5 -1.8
v 1.1 3.5 -1.8
v 1 3.5 -1.9
v 1.1 3.5 -1.9
v 0.6 3.6 -1.7
v 0.7 3.6 -1.7
v 1.7 3.6 -1.7
v 1.8 3.6 -1.7
v 0.6 3.6 -1.8
v 0.7 3.6 -1.8
v 1.7 3.6 -1.8
v 1.8 3.6 -1.8
v 1.3 3.7 -1.7
v 1.4 3.7 -1.7
v 1.3 3.7 -1.8
v 1.4 3.7 -1.8
v 1.8 3.8 -1.8
v 1.9 3.8 -1.8
v 1.8 3.8 -1.9
v 1.9 3.8 -1.9
v 0.2 3.9 -1.7
v 0.7 3.9 -1.7
v 0.9 3.9 -1.7
v 1 3.9 -1.7
v 0.2 3.9 -1.8
v 0.7 3.9 -1.8
v 0.9 3.9 -1.8
v 1 3.9 -1.8
v 0.5 0.1 -1.8
v 0.6 0.1 -1.8
v 0.5 0.1 -1.9
v 0.6 0.1 -1.9
v 1.2 0.5 -1.7
v 1.3 0.5 -1.7
v 1.2 0.5 -1.8
v 1.3 0.5 -1.8
v 0.4 0.7 -1.7
v 0.5 0.7 -1.7
v 0.4 0.7 -1.8
v 0.5 0.7 -1.8
v 1 0.8 -1.7
v 1.2 0.8 -1.7
v 1.3 0.8 -1.7
v 2 0.8 -1.7
v 1 0.8 -1.8
v 1.2 0.8 -1.8
v 1.3 0.8 -1.8
v 2 0.8 -1.8
v 0.2 0.9 -1.7
v 0.4 0.9 -1.7
v 0.5 0.9 -1.7
v 1 0.9 -1.7
v 0.2 0.9 -1.8
v 0.4 0.9 -1.8
v 0.5 0.9 -1.8
v 0.7 0.9 -1.8
v 1 0.9 -1.8
v 0.4 0.9 -1.9
v 0.7 0.9 -1.9
v 0.9 1.1 -1.7
v 1.1 1.1 -1.7
v 1.9 1.1 -1.7
v 2 1.1 -1.7
v 0.9 1.1 -1.8
v 1.1 1.1 -1.8
v 1.9 1.1 -1.8
v 2 1.1 -1.8
v 1.1 1.2 -1.7
v 1.2 1.2 -1.7
v 1.8 1.2 -1.7
v 1.9 1.2 -1.7
v 1.1 1.2 -1.8
v 1.2 1.2 -1.8
v 1.8 1.2 -1.8
v 1.9 1.2 -1.8
v 0.8 1.3 -1.7
v 0.9 1.3 -1.7
v 1.2 1.3 -1.7
v 1.3 1.3 -1.7
v 1.6 1.3 -1.7
v 1.8 1.3 -1.7
v 0.8 1.3 -1.8
v 0.9 1.3 -1.8
v 1.2 1.3 -1.8
v 1.3 1.3 -1.8
v 1.6 1.3 -1.8
v 1.8 1.3 -1.8
v 1.3 1.4 -1.7
v 1.6 1.4 -1.7
v 1.3 1.4 -1.8
v 1.6 1.4 -1.8
v 0.9 1.5 -1.7
v 1 1.5 -1.7
v 0.9 1.5 -1.8
v 1 1.5 -1.8
v 0.9 2 -1.8
v 1 2 -1.8
v 0.9 2 -1.9
v 1 2 -1.9
v 1 2.2 -1.7
v 1.1 2.2 -1.7
v 1 2.2 -1.8
v 1.1 2.2 -1.8
v 0.2 2.3 -1.7
v 0.9 2.3 -1.7
v 1.1 2.3 -1.7
v 2 2.3 -1.7
v 0.2 2.3 -1.8
v 0.9 2.3 -1.8
v 1 2.3 -1.8
v 1.1 2.3 -1.8
v 1.4 2.3 -1.8
v 1.5 2.3 -1.8
v 2 2.3 -1.8
v 1 2.3 -1.9
v 1.1 2.3 -1.9
v 1.4 2.3 -1.9
v 1.5 2.3 -1.9
v 0.5 2.5 -1.7
v 0.6 2.5 -1.7
v 1.3 2.5 -1.7
v 1.4 2.5 -1.7
v 0.5 2.5 -1.8
v 0.6 2.5 -1.8
v 0.9 2.5 -1.8
v 1 2.5 -1.8
v 1.3 2.5 -1.8
v 1.4 2.5 -1.8
v 1.7 2.5 -1.8
v 1.8 2.5 -1.8
v 0.9 2.5 -1.9
v 1 2.5 -1.9
v 1.7 2.5 -1.9
v 1.8 2.5 -1.9
v 0.3 2.6 -1.7
v 0.4 2.6 -1.7
v 0.7 2.6 -1.7
v 0.8 2.6 -1.7
v 1 2.6 -1.7
v 1.1 2.6 -1.7
v 0.3 2.6 -1.8
v 0.4 2.6 -1.8
v 0.7 2.6 -1.8
v 0.8 2.6 -1.8
v 1 2.6 -1.8
v 1.1 2.6 -1.8
v 0.4 2.7 -1.7
v 0.5 2.7 -1.7
v 1.1 2.7 -1.7
v 1.3 2.7 -1.7
v 0.4 2.7 -1.8
v 0.5 2.7 -1.8
v 1 2.7 -1.8
v 1.1 2.7 -1.8
v 1.3 2.7 -1.8
v 1 2.7 -1.9
v 1.1 2.7 -1.9
v 0.9 2.9 -1.7
v 1 2.9 -1.7
v 1.3 2.9 -1.7
v 1.4 2.9 -1.7
v 0.9 2.9 -1.8
v 1 2.9 -1.8
v 1.3 2.9 -1.8
v 1.4 2.9 -1.8
v 0.9 3 -1.8
v 1 3 -1.8
v 0.9 3 -1.9
v 1 3 -1.9
v 1 3.1 -1.7
v 1.1 3.1 -1.7
v 1 3.1 -1.8
v 1.1 3.1 -1.8
v 1 3.1 -1.9
v 1.1 3.1 -1.9
v 0.2 3.3 -1.7
v 1 3.3 -1.7
v 0.2 3.3 -1.8
v 1 3.3 -1.8
v 1 3.4 -1.8
v 1.1 3.4 -1.8
v 1 3.4 -1.9
v 1.1 3.4 -1.9
v 1.8 3.5 -1.7
v 1.9 3.5 -1.7
v 1.8 3.5 -1.8
v 1.9 3.5 -1.8
v 0.5 3.6 -1.7
v 0.6 3.6 -1.7
v 1.4 3.6 -1.7
v 1.5 3.6 -1.7
v 0.5 3.6 -1.8
v 0.6 3.6 -1.8
v 1.4 3.6 -1.8
v 1.5 3.6 -1.8
v 0.3 3.7 -1.7
v 0.5 3.7 -1.7
v 0.6 3.7 -1.7
v 0.7 3.7 -1.7
v 0.3 3.7 -1.8
v 0.5 3.7 -1.8
v 0.6 3.7 -1.8
v 0.7 3.7 -1.8
v 1.8 3.7 -1.8
v 1.9 3.7 -1.8
v 1.8 3.7 -1.9
v 1.9 3.7 -1.9
v 0.2 3.8 -1.7
v 0.3 3.8 -1.7
v 0.7 3.8 -1.7
v 1 3.8 -1.7
v 0.2 3.8 -1.8
v 0.3 3.8 -1.8
v 0.7 3.8 -1.8
v 1 3.8 -1.8
v 1 3.9 -1.7
v 1.4 3.9 -1.7
v 1.5 3.9 -1.7
v 1.8 3.9 -1.7
v 1.9 3.9 -1.7
v 2 3.9 -1.7
v 1 3.9 -1.8
v 1.4 3.9 -1.8
v 1.5 3.9 -1.8
v 1.8 3.9 -1.8
v 1.9 3.9 -1.8
v 2 3.9 -1.8
v 0.2 4 -1.7
v 0.7 4 -1.7
v 0.9 4 -1.7
v 1 4 -1.7
v 0.2 4 -1.8
v 0.7 4 -1.8
v 0.9 4 -1.8
v 1 4 -1.8
v 2 4 -1.8
v 0.2 4 -1.9
v 2 4 -1.9
v 0.2 4 -2
v 2 4 -2

# faces
f 5/3/1 2/3/1 1/3/1
f 6/2/1 3/2/1 2/2/1
f 6/3/1 2/3/1 5/3/1
f 8/2/1 3/2/1 6/2/1
f 9/3/1 8/3/1 7/3/1
f 10/2/1 3/2/1 8/2/1
f 10/3/1 8/3/1 9/3/1
f 12/2/1 3/2/1 10/2/1
f 13/3/1 12/3/1 11/3/1
f 14/2/1 3/2/1 12/2/1
f 14/3/1 12/3/1 13/3/1
f 16/2/1 3/2/1 14/2/1
f 17/3/1 16/3/1 15/3/1
f 18/2/1 3/2/1 16/2/1
f 18/3/1 16/3/1 17/3/1
f 20/2/1 3/2/1 18/2/1
f 21/3/1 20/3/1 19/3/1
f 22/2/1 3/2/1 20/2/1
f 22/3/1 20/3/1 21/3/1
f 23/1/1 4/1/1 3/1/1
f 23/2/1 3/2/1 22/2/1
f 24/1/1 4/1/1 23/1/1
f 27/3/1 26/3/1 25/3/1
f 28/3/1 26/3/1 27/3/1
f 31/3/1 30/3/1 29/3/1
f 32/3/1 30/3/1 31/3/1
f 35/3/1 34/3/1 33/3/1
f 36/3/1 34/3/1 35/3/1
f 39/3/1 38/3/1 37/3/1
f 40/3/1 38/3/1 39/3/1
f 43/3/1 42/3/1 41/3/1
f 45/3/1 43/3/1 41/3/1
f 45/2/1 44/2/1 43/2/1
f 46/2/1 44/2/1 45/2/1
f 47/3/1 45/3/1 41/3/1
f 48/3/1 45/3/1 47/3/1
f 51/3/1 50/3/1 49/3/1
f 52/3/1 50/3/1 51/3/1
f 55/3/1 54/3/1 53/3/1
f 56/3/1 54/3/1 55/3/1
f 59/2/1 58/2/1 57/2/1
f 60/2/1 58/2/1 59/2/1
f 63/3/1 62/3/1 61/3/1
f 64/3/1 62/3/1 63/3/1
f 67/3/1 66/3/1 65/3/1
f 68/3/1 66/3/1 67/3/1
f 71/3/1 70/3/1 69/3/1
f 72/3/1 70/3/1 71/3/1
f 75/3/1 74/3/1 73/3/1
f 76/3/1 74/3/1 75/3/1
f 79/3/1 78/3/1 77/3/1
f 80/3/1 78/3/1 79/3/1
f 83/3/1 82/3/1 81/3/1
f 84/3/1 82/3/1 83/3/1
f 87/3/1 86/3/1 85/3/1
f 88/3/1 86/3/1 87/3/1
f 91/3/1 90/3/1 89/3/1
f 92/3/1 90/3/1 91/3/1
f 95/3/1 94/3/1 93/3/1
f 96/3/1 94/3/1 95/3/1
f 99/3/1 98/3/1 97/3/1
f 101/3/1 99/3/1 97/3/1
f 102/2/1 100/2/1 99/2/1
f 102/3/1 99/3/1 101/3/1
f 103/2/1 100/2/1 102/2/1
f 106/3/1 105/3/1 104/3/1
f 108/3/1 106/3/1 104/3/1
f 109/2/1 107/2/1 106/2/1
f 109/3/1 106/3/1 108/3/1
f 110/2/1 107/2/1 109/2/1
f 114/3/1 112/3/1 111/3/1
f 115/2/1 113/2/1 112/2/1
f 115/3/1 112/3/1 114/3/1
f 116/2/1 113/2/1 115/2/1
f 119/3/1 118/3/1 117/3/1
f 120/3/1 118/3/1 119/3/1
f 123/3/1 122/3/1 121/3/1
f 124/3/1 122/3/1 123/3/1
f 127/3/1 126/3/1 125/3/1
f 128/3/1 126/3/1 127/3/1
f 130/2/1 129/2/1 128/2/1
f 131/2/1 129/2/1 130/2/1
f 134/3/1 133/3/1 132/3/1
f 135/3/1 133/3/1 134/3/1
f 137/2/1 136/2/1 135/2/1
f 138/2/1 136/2/1 137/2/1
f 141/3/1 140/3/1 139/3/1
f 142/3/1 140/3/1 141/3/1
f 146/3/1 144/3/1 143/3/1
f 146/2/1 145/2/1 144/2/1
f 147/2/1 145/2/1 146/2/1
f 148/3/1 146/3/1 143/3/1
f 150/3/1 148/3/1 143/3/1
f 151/2/1 149/2/1 148/2/1
f 151/3/1 148/3/1 150/3/1
f 152/2/1 149/2/1 151/2/1
f 155/3/1 154/3/1 153/3/1
f 156/3/1 154/3/1 155/3/1
f 159/3/1 158/3/1 157/3/1
f 160/3/1 158/3/1 159/3/1
f 163/3/1 162/3/1 161/3/1
f 164/3/1 162/3/1 163/3/1
f 167/3/1 166/3/1 165/3/1
f 168/3/1 166/3/1 167/3/1
f 171/3/1 170/3/1 169/3/1
f 172/3/1 170/3/1 171/3/1
f 175/3/1 174/3/1 173/3/1
f 176/3/1 174/3/1 175/3/1
f 179/3/1 178/3/1 177/3/1
f 180/3/1 178/3/1 179/3/1
f 184/2/1 182/2/1 181/2/1
f 185/2/1 182/2/1 184/2/1
f 186/3/1 184/3/1 183/3/1
f 187/3/1 184/3/1 186/3/1
f 190/3/1 189/3/1 188/3/1
f 191/3/1 189/3/1 190/3/1
f 194/3/1 193/3/1 192/3/1
f 195/3/1 193/3/1 194/3/1
f 199/3/1 197/3/1 196/3/1
f 199/2/1 198/2/1 197/2/1
f 200/2/1 198/2/1 199/2/1
f 201/3/1 199/3/1 196/3/1
f 202/3/1 199/3/1 201/3/1
f 205/3/1 204/3/1 203/3/1
f 206/3/1 204/3/1 205/3/1
f 209/3/1 208/3/1 207/3/1
f 210/3/1 208/3/1 209/3/1
f 213/3/1 212/3/1 211/3/1
f 215/3/1 213/3/1 211/3/1
f 215/2/1 214/2/1 213/2/1
f 216/2/1 214/2/1 215/2/1
f 217/3/1 215/3/1 211/3/1
f 218/3/1 215/3/1 217/3/1
f 219/3/2 220/3/2 221/3/2
f 221/3/2 220/3/2 222/3/2
f 223/3/2 224/3/2 225/3/2
f 225/3/2 224/3/2 226/3/2
f 227/3/2 228/3/2 229/3/2
f 229/3/2 228/3/2 230/3/2
f 230/2/2 231/2/2 232/2/2
f 232/2/2 231/2/2 233/2/2
f 234/3/2 235/3/2 236/3/2
f 234/3/2 236/3/2 238/3/2
f 236/2/2 237/2/2 238/2/2
f 238/2/2 237/2/2 239/2/2
f 234/3/2 238/3/2 240/3/2
f 240/3/2 238/3/2 241/3/2
f 242/3/2 243/3/2 244/3/2
f 244/3/2 243/3/2 245/3/2
f 246/3/2 247/3/2 248/3/2
f 248/3/2 247/3/2 249/3/2
f 250/3/2 251/3/2 252/3/2
f 252/3/2 251/3/2 253/3/2
f 254/3/2 255/3/2 256/3/2
f 256/3/2 255/3/2 257/3/2
f 258/3/2 259/3/2 260/3/2
f 260/3/2 259/3/2 261/3/2
f 262/3/2 263/3/2 264/3/2
f 264/3/2 263/3/2 265/3/2
f 266/3/2 267/3/2 268/3/2
f 268/3/2 267/3/2 269/3/2
f 270/3/2 271/3/2 272/3/2
f 272/3/2 271/3/2 273/3/2
f 274/3/2 275/3/2 276/3/2
f 276/3/2 275/3/2 277/3/2
f 278/3/2 279/3/2 280/3/2
f 280/3/2 279/3/2 281/3/2
f 282/3/2 283/3/2 284/3/2
f 282/3/2 284/3/2 286/3/2
f 284/2/2 285/2/2 286/2/2
f 286/2/2 285/2/2 287/2/2
f 282/3/2 286/3/2 288/3/2
f 288/3/2 286/3/2 289/3/2
f 290/3/2 291/3/2 293/3/2
f 291/2/2 292/2/2 293/2/2
f 293/2/2 292/2/2 294/2/2
f 290/3/2 293/3/2 295/3/2
f 295/3/2 293/3/2 296/3/2
f 297/3/2 298/3/2 299/3/2
f 297/3/2 299/3/2 301/3/2
f 299/2/2 300/2/2 301/2/2
f 301/2/2 300/2/2 302/2/2
f 297/3/2 301/3/2 303/3/2
f 303/3/2 301/3/2 304/3/2
f 305/3/2 306/3/2 307/3/2
f 307/3/2 306/3/2 308/3/2
f 309/3/2 310/3/2 311/3/2
f 311/3/2 310/3/2 312/3/2
f 313/3/2 314/3/2 315/3/2
f 315/3/2 314/3/2 316/3/2
f 317/2/2 318/2/2 319/2/2
f 319/2/2 318/2/2 320/2/2
f 321/3/2 322/3/2 324/3/2
f 322/2/2 323/2/2 324/2/2
f 324/2/2 323/2/2 325/2/2
f 321/3/2 324/3/2 326/3/2
f 326/3/2 324/3/2 327/3/2
f 328/2/2 329/2/2 331/2/2
f 331/2/2 329/2/2 332/2/2
f 330/3/2 331/3/2 333/3/2
f 333/3/2 331/3/2 334/3/2
f 335/2/2 336/2/2 337/2/2
f 337/2/2 336/2/2 338/2/2
f 339/3/2 340/3/2 341/3/2
f 341/3/2 340/3/2 342/3/2
f 343/3/2 344/3/2 345/3/2
f 345/3/2 344/3/2 346/3/2
f 347/3/2 348/3/2 349/3/2
f 349/3/2 348/3/2 350/3/2
f 351/3/2 352/3/2 353/3/2
f 353/3/2 352/3/2 354/3/2
f 355/3/2 356/3/2 357/3/2
f 357/3/2 356/3/2 358/3/2
f 359/3/2 360/3/2 361/3/2
f 361/3/2 360/3/2 362/3/2
f 363/3/2 364/3/2 365/3/2
f 365/3/2 364/3/2 366/3/2
f 367/3/2 368/3/2 369/3/2
f 369/3/2 368/3/2 370/3/2
f 371/2/2 372/2/2 374/2/2
f 374/2/2 372/2/2 375/2/2
f 373/3/2 374/3/2 376/3/2
f 376/3/2 374/3/2 377/3/2
f 378/3/2 379/3/2 380/3/2
f 380/3/2 379/3/2 381/3/2
f 382/3/2 383/3/2 384/3/2
f 384/3/2 383/3/2 385/3/2
f 386/3/2 387/3/2 388/3/2
f 386/3/2 388/3/2 390/3/2
f 388/2/2 389/2/2 390/2/2
f 390/2/2 389/2/2 391/2/2
f 386/3/2 390/3/2 392/3/2
f 392/3/2 390/3/2 393/3/2
f 394/3/2 395/3/2 396/3/2
f 396/3/2 395/3/2 397/3/2
f 398/3/2 399/3/2 400/3/2
f 398/3/2 400/3/2 402/3/2
f 400/2/2 401/2/2 402/2/2
f 402/2/2 401/2/2 403/2/2
f 398/3/2 402/3/2 404/3/2
f 404/3/2 402/3/2 405/3/2
f 406/3/2 407/3/2 408/3/2
f 408/3/2 407/3/2 409/3/2
f 410/3/2 411/3/2 414/3/2
f 411/2/2 412/2/2 415/2/2
f 414/3/2 411/3/2 415/3/2
f 415/2/2 412/2/2 417/2/2
f 416/3/2 417/3/2 418/3/2
f 417/2/2 412/2/2 419/2/2
f 418/3/2 417/3/2 419/3/2
f 419/2/2 412/2/2 421/2/2
f 420/3/2 421/3/2 422/3/2
f 421/2/2 412/2/2 423/2/2
f 422/3/2 421/3/2 423/3/2
f 423/2/2 412/2/2 425/2/2
f 424/3/2 425/3/2 426/3/2
f 425/2/2 412/2/2 427/2/2
f 426/3/2 425/3/2 427/3/2
f 427/2/2 412/2/2 428/2/2
f 412/1/2 413/1/2 429/1/2
f 428/2/2 412/2/2 429/2/2
f 429/1/2 413/1/2 430/1/2
f 442/3/3 436/3/3 435/3/3
f 443/3/3 436/3/3 442/3/3
f 444/3/3 438/3/3 437/3/3
f 445/3/3 438/3/3 444/3/3
f 446/3/3 432/3/3 431/3/3
f 447/3/3 432/3/3 446/3/3
f 448/3/3 442/3/3 441/3/3
f 450/3/3 446/3/3 431/3/3
f 451/3/3 446/3/3 450/3/3
f 453/3/3 449/3/3 448/3/3
f 453/3/3 448/3/3 441/3/3
f 454/3/3 449/3/3 453/3/3
f 456/3/3 436/3/3 443/3/3
f 457/3/3 444/3/3 437/3/3
f 458/3/3 444/3/3 457/3/3
f 460/3/3 452/3/3 451/3/3
f 461/3/3 434/3/3 433/3/3
f 462/3/3 434/3/3 461/3/3
f 463/3/3 453/3/3 441/3/3
f 464/3/3 453/3/3 463/3/3
f 466/3/3 456/3/3 455/3/3
f 467/3/3 457/3/3 437/3/3
f 468/3/3 457/3/3 467/3/3
f 472/3/3 466/3/3 465/3/3
f 473/3/3 436/3/3 456/3/3
f 473/3/3 466/3/3 472/3/3
f 473/3/3 456/3/3 466/3/3
f 475/3/3 469/3/3 468/3/3
f 476/3/3 469/3/3 475/3/3
f 478/3/3 440/3/3 439/3/3
f 479/3/3 440/3/3 478/3/3
f 480/3/3 434/3/3 462/3/3
f 481/3/3 434/3/3 480/3/3
f 482/3/3 434/3/3 481/3/3
f 483/3/3 434/3/3 482/3/3
f 484/3/3 471/3/3 470/3/3
f 485/3/3 471/3/3 484/3/3
f 486/3/3 471/3/3 485/3/3
f 487/3/3 436/3/3 473/3/3
f 489/3/3 477/3/3 476/3/3
f 489/3/3 475/3/3 474/3/3
f 489/3/3 476/3/3 475/3/3
f 492/3/3 482/3/3 481/3/3
f 494/3/3 434/3/3 483/3/3
f 495/3/3 434/3/3 494/3/3
f 496/3/3 487/3/3 486/3/3
f 496/3/3 486/3/3 485/3/3
f 497/3/3 487/3/3 496/3/3
f 498/3/3 436/3/3 487/3/3
f 498/3/3 487/3/3 497/3/3
f 499/3/3 436/3/3 498/3/3
f 500/3/3 489/3/3 488/3/3
f 501/3/3 477/3/3 489/3/3
f 501/3/3 489/3/3 500/3/3
f 504/3/3 460/3/3 459/3/3
f 504/3/3 452/3/3 460/3/3
f 505/3/3 452/3/3 504/3/3
f 506/3/3 491/3/3 490/3/3
f 507/3/3 493/3/3 492/3/3
f 507/3/3 492/3/3 481/3/3
f 508/3/3 493/3/3 507/3/3
f 509/3/3 493/3/3 508/3/3
f 513/3/3 498/3/3 497/3/3
f 514/3/3 498/3/3 513/3/3
f 517/3/3 436/3/3 499/3/3
f 518/3/3 436/3/3 517/3/3
f 519/3/3 477/3/3 501/3/3
f 520/3/3 503/3/3 502/3/3
f 521/3/3 503/3/3 520/3/3
f 522/3/3 504/3/3 459/3/3
f 523/3/3 504/3/3 522/3/3
f 524/3/3 506/3/3 505/3/3
f 524/3/3 491/3/3 506/3/3
f 526/3/3 509/3/3 508/3/3
f 526/3/3 510/3/3 509/3/3
f 528/3/3 512/3/3 511/3/3
f 531/3/3 516/3/3 515/3/3
f 532/3/3 516/3/3 531/3/3
f 533/3/3 519/3/3 501/3/3
f 533/3/3 520/3/3 519/3/3
f 536/3/3 504/3/3 523/3/3
f 537/3/3 504/3/3 536/3/3
f 538/3/3 525/3/3 524/3/3
f 539/3/3 527/3/3 526/3/3
f 539/3/3 526/3/3 508/3/3
f 540/3/3 527/3/3 539/3/3
f 541/3/3 532/3/3 531/3/3
f 541/3/3 531/3/3 530/3/3
f 541/3/3 533/3/3 532/3/3
f 542/3/3 533/3/3 541/3/3
f 543/3/3 535/3/3 534/3/3
f 545/3/3 539/3/3 538/3/3
f 546/3/3 527/3/3 540/3/3
f 547/3/3 527/3/3 546/3/3
f 548/3/3 529/3/3 528/3/3
f 548/3/3 528/3/3 511/3/3
f 549/3/3 529/3/3 548/3/3
f 552/3/3 533/3/3 542/3/3
f 553/3/3 520/3/3 533/3/3
f 553/3/3 533/3/3 552/3/3
f 554/3/3 548/3/3 511/3/3
f 555/3/3 548/3/3 554/3/3
f 557/3/3 551/3/3 550/3/3
f 558/3/3 551/3/3 557/3/3
f 560/3/3 520/3/3 553/3/3
f 561/3/3 520/3/3 560/3/3
f 563/3/3 559/3/3 558/3/3
f 563/3/3 557/3/3 556/3/3
f 563/3/3 558/3/3 557/3/3
f 564/3/3 559/3/3 563/3/3
f 566/3/3 545/3/3 538/3/3
f 566/3/3 546/3/3 545/3/3
f 567/3/3 546/3/3 566/3/3
f 569/3/3 527/3/3 547/3/3
f 570/3/3 565/3/3 564/3/3
f 570/3/3 564/3/3 563/3/3
f 570/3/3 563/3/3 562/3/3
f 571/3/3 565/3/3 570/3/3
f 572/3/3 538/3/3 524/3/3
f 572/3/3 566/3/3 538/3/3
f 573/3/3 566/3/3 572/3/3
f 576/3/3 565/3/3 571/3/3
f 577/3/3 565/3/3 576/3/3
f 578/3/3 524/3/3 505/3/3
f 578/3/3 572/3/3 524/3/3
f 579/3/3 572/3/3 578/3/3
f 581/3/3 569/3/3 568/3/3
f 583/3/3 575/3/3 574/3/3
f 584/3/3 575/3/3 583/3/3
f 586/3/3 544/3/3 543/3/3
f 586/3/3 543/3/3 534/3/3
f 587/3/3 544/3/3 586/3/3
f 588/3/3 578/3/3 505/3/3
f 589/3/3 578/3/3 588/3/3
f 590/3/3 581/3/3 580/3/3
f 591/3/3 527/3/3 569/3/3
f 591/3/3 581/3/3 590/3/3
f 591/3/3 569/3/3 581/3/3
f 592/3/3 585/3/3 584/3/3
f 592/3/3 584/3/3 583/3/3
f 592/3/3 583/3/3 582/3/3
f 593/3/3 585/3/3 592/3/3
f 602/2/3 597/2/3 596/2/3
f 603/2/3 597/2/3 602/2/3
f 606/2/3 601/2/3 600/2/3
f 608/2/3 595/2/3 594/2/3
f 609/2/3 595/2/3 608/2/3
f 610/2/3 604/2/3 603/2/3
f 611/2/3 604/2/3 610/2/3
f 615/2/3 608/2/3 607/2/3
f 616/2/3 608/2/3 615/2/3
f 618/2/3 604/2/3 611/2/3
f 619/2/3 604/2/3 618/2/3
f 620/2/3 604/2/3 619/2/3
f 622/2/3 606/2/3 605/2/3
f 623/2/3 613/2/3 612/2/3
f 624/2/3 613/2/3 623/2/3
f 625/2/3 615/2/3 614/2/3
f 626/2/3 615/2/3 625/2/3
f 629/2/3 602/2/3 596/2/3
f 630/2/3 618/2/3 617/2/3
f 630/2/3 619/2/3 618/2/3
f 631/2/3 619/2/3 630/2/3
f 632/2/3 619/2/3 631/2/3
f 633/2/3 599/2/3 598/2/3
f 634/2/3 622/2/3 621/2/3
f 635/2/3 606/2/3 622/2/3
f 635/2/3 622/2/3 634/2/3
f 637/2/3 628/2/3 627/2/3
f 638/2/3 630/2/3 629/2/3
f 638/2/3 629/2/3 596/2/3
f 638/2/3 631/2/3 630/2/3
f 639/2/3 631/2/3 638/2/3
f 640/2/3 631/2/3 639/2/3
f 642/2/3 634/2/3 633/2/3
f 643/2/3 634/2/3 642/2/3
f 644/2/3 606/2/3 635/2/3
f 645/2/3 601/2/3 606/2/3
f 645/2/3 606/2/3 644/2/3
f 646/2/3 601/2/3 645/2/3
f 648/2/3 637/2/3 636/2/3
f 648/2/3 628/2/3 637/2/3
f 652/2/3 638/2/3 596/2/3
f 654/2/3 641/2/3 640/2/3
f 654/2/3 640/2/3 639/2/3
f 655/2/3 641/2/3 654/2/3
f 656/2/3 633/2/3 598/2/3
f 656/2/3 642/2/3 633/2/3
f 657/2/3 642/2/3 656/2/3
f 658/2/3 648/2/3 636/2/3
f 658/2/3 649/2/3 648/2/3
f 659/2/3 649/2/3 658/2/3
f 660/2/3 651/2/3 650/2/3
f 661/2/3 651/2/3 660/2/3
f 662/2/3 651/2/3 661/2/3
f 665/2/3 653/2/3 652/2/3
f 665/2/3 652/2/3 596/2/3
f 666/2/3 653/2/3 665/2/3
f 673/2/3 656/2/3 598/2/3
f 675/2/3 647/2/3 646/2/3
f 675/2/3 646/2/3 645/2/3
f 676/2/3 647/2/3 675/2/3
f 678/2/3 658/2/3 636/2/3
f 679/2/3 658/2/3 678/2/3
f 680/2/3 649/2/3 659/2/3
f 682/2/3 663/2/3 662/2/3
f 682/2/3 662/2/3 661/2/3
f 683/2/3 663/2/3 682/2/3
f 684/2/3 665/2/3 664/2/3
f 684/2/3 666/2/3 665/2/3
f 685/2/3 666/2/3 684/2/3
f 686/2/3 666/2/3 685/2/3
f 687/2/3 666/2/3 686/2/3
f 688/2/3 668/2/3 667/2/3
f 689/2/3 668/2/3 688/2/3
f 691/2/3 670/2/3 669/2/3
f 692/2/3 670/2/3 691/2/3
f 693/2/3 672/2/3 671/2/3
f 694/2/3 672/2/3 693/2/3
f 695/2/3 674/2/3 673/2/3
f 695/2/3 673/2/3 598/2/3
f 696/2/3 674/2/3 695/2/3
f 697/2/3 674/2/3 696/2/3
f 698/2/3 675/2/3 645/2/3
f 699/2/3 675/2/3 698/2/3
f 703/2/3 681/2/3 680/2/3
f 703/2/3 680/2/3 659/2/3
f 704/2/3 681/2/3 703/2/3
f 705/2/3 685/2/3 684/2/3
f 706/2/3 685/2/3 705/2/3
f 708/2/3 689/2/3 688/2/3
f 709/2/3 689/2/3 708/2/3
f 710/2/3 692/2/3 691/2/3
f 710/2/3 691/2/3 690/2/3
f 711/2/3 692/2/3 710/2/3
f 712/2/3 692/2/3 711/2/3
f 713/2/3 696/2/3 695/2/3
f 713/2/3 695/2/3 694/2/3
f 714/2/3 696/2/3 713/2/3
f 715/2/3 702/2/3 701/2/3
f 716/2/3 702/2/3 715/2/3
f 717/2/3 702/2/3 716/2/3
f 718/2/3 678/2/3 677/2/3
f 719/2/3 681/2/3 704/2/3
f 720/2/3 681/2/3 719/2/3
f 722/2/3 710/2/3 709/2/3
f 722/2/3 711/2/3 710/2/3
f 724/2/3 717/2/3 716/2/3
f 724/2/3 718/2/3 717/2/3
f 725/2/3 678/2/3 718/2/3
f 725/2/3 718/2/3 724/2/3
f 726/2/3 721/2/3 720/2/3
f 727/2/3 721/2/3 726/2/3
f 730/2/3 723/2/3 722/2/3
f 730/2/3 722/2/3 709/2/3
f 731/2/3 723/2/3 730/2/3
f 732/2/3 723/2/3 731/2/3
f 733/2/3 723/2/3 732/2/3
f 735/2/3 707/2/3 706/2/3
f 736/2/3 707/2/3 735/2/3
f 737/2/3 731/2/3 730/2/3
f 737/2/3 730/2/3 729/2/3
f 738/2/3 731/2/3 737/2/3
f 739/2/3 731/2/3 738/2/3
f 740/2/3 734/2/3 733/2/3
f 740/2/3 733/2/3 732/2/3
f 741/2/3 734/2/3 740/2/3
f 742/2/3 734/2/3 741/2/3
f 743/2/3 700/2/3 699/2/3
f 745/2/3 738/2/3 737/2/3
f 745/2/3 737/2/3 736/2/3
f 746/2/3 738/2/3 745/2/3
f 747/2/3 742/2/3 741/2/3
f 747/2/3 743/2/3 742/2/3
f 748/2/3 700/2/3 743/2/3
f 748/2/3 743/2/3 747/2/3
f 750/2/3 728/2/3 727/2/3
f 751/2/3 728/2/3 750/2/3
f 751/2/3 750/2/3 749/2/3
f 752/2/3 728/2/3 751/2/3
f 753/2/3 745/2/3 744/2/3
f 758/2/3 751/2/3 749/2/3
f 759/2/3 754/2/3 753/2/3
f 760/2/3 756/2/3 755/2/3
f 761/2/3 756/2/3 760/2/3
f 762/2/3 756/2/3 761/2/3
f 765/2/3 700/2/3 748/2/3
f 767/2/3 758/2/3 757/2/3
f 768/2/3 751/2/3 758/2/3
f 768/2/3 758/2/3 767/2/3
f 769/2/3 751/2/3 768/2/3
f 770/2/3 759/2/3 753/2/3
f 770/2/3 753/2/3 744/2/3
f 771/2/3 759/2/3 770/2/3
f 772/2/3 763/2/3 762/2/3
f 772/2/3 762/2/3 761/2/3
f 773/2/3 763/2/3 772/2/3
f 774/2/3 765/2/3 764/2/3
f 775/2/3 700/2/3 765/2/3
f 775/2/3 765/2/3 774/2/3
f 776/2/3 678/2/3 725/2/3
f 777/2/3 678/2/3 776/2/3
f 778/2/3 768/2/3 767/2/3
f 778/2/3 767/2/3 766/2/3
f 779/2/3 768/2/3 778/2/3
f 780/2/3 770/2/3 744/2/3
f 781/2/3 770/2/3 780/2/3
f 782/2/3 700/2/3 775/2/3
f 783/2/3 700/2/3 782/2/3
f 788/1/3 787/1/3 786/1/3
f 789/1/3 787/1/3 788/1/3
f 790/1/3 785/1/3 784/1/3
f 791/1/3 785/1/3 790/1/3
f 798/1/3 793/1/3 792/1/3
f 799/1/3 793/1/3 798/1/3
f 802/1/3 795/1/3 794/1/3
f 803/1/3 795/1/3 802/1/3
f 806/1/3 797/1/3 796/1/3
f 807/1/3 797/1/3 806/1/3
f 811/1/3 801/1/3 800/1/3
f 812/1/3 801/1/3 811/1/3
f 813/1/3 805/1/3 804/1/3
f 814/1/3 805/1/3 813/1/3
f 815/1/3 808/1/3 807/1/3
f 816/1/3 808/1/3 815/1/3
f 817/1/3 810/1/3 809/1/3
f 818/1/3 810/1/3 817/1/3
f 821/1/3 820/1/3 819/1/3
f 822/1/3 820/1/3 821/1/3
f 825/1/3 824/1/3 823/1/3
f 826/1/3 824/1/3 825/1/3
f 829/1/3 828/1/3 827/1/3
f 830/1/3 828/1/3 829/1/3
f 831/1/4 832/1/4 833/1/4
f 833/1/4 832/1/4 834/1/4
f 841/3/5 836/3/5 835/3/5
f 842/3/5 836/3/5 841/3/5
f 843/3/5 838/3/5 837/3/5
f 844/3/5 838/3/5 843/3/5
f 845/3/5 840/3/5 839/3/5
f 846/3/5 840/3/5 845/3/5
f 847/2/5 844/2/5 843/2/5
f 847/2/5 842/2/5 841/2/5
f 847/2/5 846/2/5 845/2/5
f 847/2/5 845/2/5 844/2/5
f 847/2/5 843/2/5 842/2/5
f 848/2/5 846/2/5 847/2/5
f 849/1/5 848/1/5 847/1/5
f 850/1/5 848/1/5 849/1/5
f 853/2/5 852/2/5 851/2/5
f 854/2/5 852/2/5 853/2/5
f 857/3/5 856/3/5 855/3/5
f 858/3/5 856/3/5 857/3/5
f 861/3/5 860/3/5 859/3/5
f 862/3/5 860/3/5 861/3/5
f 865/3/5 864/3/5 863/3/5
f 866/3/5 864/3/5 865/3/5
f 871/3/5 868/3/5 867/3/5
f 872/3/5 868/3/5 871/3/5
f 873/3/5 868/3/5 872/3/5
f 875/3/5 870/3/5 869/3/5
f 876/3/5 870/3/5 875/3/5
f 877/2/5 874/2/5 873/2/5
f 877/2/5 873/2/5 872/2/5
f 878/2/5 874/2/5 877/2/5
f 881/3/5 880/3/5 879/3/5
f 882/3/5 880/3/5 881/3/5
f 885/3/5 884/3/5 883/3/5
f 886/3/5 884/3/5 885/3/5
f 891/3/5 888/3/5 887/3/5
f 892/3/5 888/3/5 891/3/5
f 893/3/5 890/3/5 889/3/5
f 894/3/5 890/3/5 893/3/5
f 899/3/5 896/3/5 895/3/5
f 900/3/5 896/3/5 899/3/5
f 901/3/5 898/3/5 897/3/5
f 902/3/5 898/3/5 901/3/5
f 905/3/5 904/3/5 903/3/5
f 906/3/5 904/3/5 905/3/5
f 909/3/5 908/3/5 907/3/5
f 910/3/5 908/3/5 909/3/5
f 913/2/5 912/2/5 911/2/5
f 914/2/5 912/2/5 913/2/5
f 925/3/5 916/3/5 915/3/5
f 926/3/5 916/3/5 925/3/5
f 927/3/5 918/3/5 917/3/5
f 928/3/5 918/3/5 927/3/5
f 929/3/5 920/3/5 919/3/5
f 930/3/5 920/3/5 929/3/5
f 931/3/5 920/3/5 930/3/5
f 932/3/5 922/3/5 921/3/5
f 933/3/5 922/3/5 932/3/5
f 934/3/5 924/3/5 923/3/5
f 935/3/5 924/3/5 934/3/5
f 936/2/5 930/2/5 929/2/5
f 937/2/5 930/2/5 936/2/5
f 938/2/5 932/2/5 931/2/5
f 939/2/5 932/2/5 938/2/5
f 944/3/5 941/3/5 940/3/5
f 945/3/5 941/3/5 944/3/5
f 946/3/5 943/3/5 942/3/5
f 947/3/5 943/3/5 946/3/5
f 952/3/5 949/3/5 948/3/5
f 953/3/5 949/3/5 952/3/5
f 956/3/5 951/3/5 950/3/5
f 957/3/5 951/3/5 956/3/5
f 960/2/5 955/2/5 954/2/5
f 961/2/5 955/2/5 960/2/5
f 962/2/5 959/2/5 958/2/5
f 963/2/5 959/2/5 962/2/5
f 968/3/5 965/3/5 964/3/5
f 969/3/5 965/3/5 968/3/5
f 970/3/5 967/3/5 966/3/5
f 971/3/5 967/3/5 970/3/5
f 976/3/5 973/3/5 972/3/5
f 977/3/5 973/3/5 976/3/5
f 980/3/5 975/3/5 974/3/5
f 981/3/5 975/3/5 980/3/5
f 982/2/5 979/2/5 978/2/5
f 983/2/5 979/2/5 982/2/5
f 990/3/5 985/3/5 984/3/5
f 991/3/5 985/3/5 990/3/5
f 992/3/5 987/3/5 986/3/5
f 993/3/5 987/3/5 992/3/5
f 994/3/5 989/3/5 988/3/5
f 995/3/5 989/3/5 994/3/5
f 1000/3/5 997/3/5 996/3/5
f 1001/3/5 997/3/5 1000/3/5
f 1002/3/5 999/3/5 998/3/5
f 1003/3/5 999/3/5 1002/3/5
f 1006/2/5 1005/2/5 1004/2/5
f 1007/2/5 1005/2/5 1006/2/5
f 1010/3/5 1009/3/5 1008/3/5
f 1011/3/5 1009/3/5 1010/3/5
f 1013/2/5 1012/2/5 1011/2/5
f 1014/2/5 1012/2/5 1013/2/5
f 1019/3/5 1016/3/5 1015/3/5
f 1020/3/5 1016/3/5 1019/3/5
f 1021/3/5 1018/3/5 1017/3/5
f 1022/3/5 1018/3/5 1021/3/5
f 1027/3/5 1024/3/5 1023/3/5
f 1028/3/5 1024/3/5 1027/3/5
f 1029/3/5 1026/3/5 1025/3/5
f 1030/3/5 1026/3/5 1029/3/5
f 1031/3/5 1026/3/5 1030/3/5
f 1032/2/5 1031/2/5 1030/2/5
f 1033/2/5 1031/2/5 1032/2/5
f 1038/3/5 1035/3/5 1034/3/5
f 1039/3/5 1035/3/5 1038/3/5
f 1040/3/5 1037/3/5 1036/3/5
f 1041/3/5 1037/3/5 1040/3/5
f 1044/3/5 1043/3/5 1042/3/5
f 1045/3/5 1043/3/5 1044/3/5
f 1048/2/5 1047/2/5 1046/2/5
f 1049/2/5 1047/2/5 1048/2/5
f 1054/3/5 1051/3/5 1050/3/5
f 1055/3/5 1051/3/5 1054/3/5
f 1056/3/5 1053/3/5 1052/3/5
f 1057/3/5 1053/3/5 1056/3/5
f 1058/2/6 1059/2/6 1060/2/6
f 1060/2/6 1059/2/6 1061/2/6
f 1062/3/6 1063/3/6 1064/3/6
f 1064/3/6 1063/3/6 1065/3/6
f 1066/3/6 1067/3/6 1068/3/6
f 1068/3/6 1067/3/6 1069/3/6
f 1070/3/6 1071/3/6 1074/3/6
f 1074/3/6 1071/3/6 1075/3/6
f 1072/3/6 1073/3/6 1076/3/6
f 1076/3/6 1073/3/6 1077/3/6
f 1078/3/6 1079/3/6 1082/3/6
f 1082/3/6 1079/3/6 1083/3/6
f 1080/3/6 1081/3/6 1084/3/6
f 1084/3/6 1081/3/6 1085/3/6
f 1085/3/6 1081/3/6 1086/3/6
f 1083/2/6 1084/2/6 1087/2/6
f 1084/2/6 1085/2/6 1087/2/6
f 1087/2/6 1085/2/6 1088/2/6
f 1089/3/6 1090/3/6 1093/3/6
f 1093/3/6 1090/3/6 1094/3/6
f 1091/3/6 1092/3/6 1095/3/6
f 1095/3/6 1092/3/6 1096/3/6
f 1097/3/6 1098/3/6 1101/3/6
f 1101/3/6 1098/3/6 1102/3/6
f 1099/3/6 1100/3/6 1103/3/6
f 1103/3/6 1100/3/6 1104/3/6
f 1105/3/6 1106/3/6 1111/3/6
f 1111/3/6 1106/3/6 1112/3/6
f 1107/3/6 1108/3/6 1113/3/6
f 1113/3/6 1108/3/6 1114/3/6
f 1109/3/6 1110/3/6 1115/3/6
f 1115/3/6 1110/3/6 1116/3/6
f 1117/3/6 1118/3/6 1119/3/6
f 1119/3/6 1118/3/6 1120/3/6
f 1121/3/6 1122/3/6 1123/3/6
f 1123/3/6 1122/3/6 1124/3/6
f 1125/2/6 1126/2/6 1127/2/6
f 1127/2/6 1126/2/6 1128/2/6
f 1129/3/6 1130/3/6 1131/3/6
f 1131/3/6 1130/3/6 1132/3/6
f 1133/3/6 1134/3/6 1137/3/6
f 1137/3/6 1134/3/6 1138/3/6
f 1135/3/6 1136/3/6 1140/3/6
f 1140/3/6 1136/3/6 1141/3/6
f 1141/3/6 1136/3/6 1142/3/6
f 1142/3/6 1136/3/6 1143/3/6
f 1139/2/6 1140/2/6 1144/2/6
f 1144/2/6 1140/2/6 1145/2/6
f 1141/2/6 1142/2/6 1146/2/6
f 1146/2/6 1142/2/6 1147/2/6
f 1148/3/6 1149/3/6 1152/3/6
f 1152/3/6 1149/3/6 1153/3/6
f 1150/3/6 1151/3/6 1156/3/6
f 1156/3/6 1151/3/6 1157/3/6
f 1154/2/6 1155/2/6 1160/2/6
f 1160/2/6 1155/2/6 1161/2/6
f 1158/2/6 1159/2/6 1162/2/6
f 1162/2/6 1159/2/6 1163/2/6
f 1164/3/6 1165/3/6 1170/3/6
f 1170/3/6 1165/3/6 1171/3/6
f 1166/3/6 1167/3/6 1172/3/6
f 1172/3/6 1167/3/6 1173/3/6
f 1168/3/6 1169/3/6 1174/3/6
f 1174/3/6 1169/3/6 1175/3/6
f 1176/3/6 1177/3/6 1180/3/6
f 1180/3/6 1177/3/6 1181/3/6
f 1178/3/6 1179/3/6 1183/3/6
f 1183/3/6 1179/3/6 1184/3/6
f 1182/2/6 1183/2/6 1185/2/6
f 1185/2/6 1183/2/6 1186/2/6
f 1187/3/6 1188/3/6 1191/3/6
f 1191/3/6 1188/3/6 1192/3/6
f 1189/3/6 1190/3/6 1193/3/6
f 1193/3/6 1190/3/6 1194/3/6
f 1195/2/6 1196/2/6 1197/2/6
f 1197/2/6 1196/2/6 1198/2/6
f 1199/3/6 1200/3/6 1201/3/6
f 1201/3/6 1200/3/6 1202/3/6
f 1201/2/6 1202/2/6 1203/2/6
f 1203/2/6 1202/2/6 1204/2/6
f 1205/3/6 1206/3/6 1207/3/6
f 1207/3/6 1206/3/6 1208/3/6
f 1209/2/6 1210/2/6 1211/2/6
f 1211/2/6 1210/2/6 1212/2/6
f 1213/3/6 1214/3/6 1215/3/6
f 1215/3/6 1214/3/6 1216/3/6
f 1217/3/6 1218/3/6 1221/3/6
f 1221/3/6 1218/3/6 1222/3/6
f 1219/3/6 1220/3/6 1223/3/6
f 1223/3/6 1220/3/6 1224/3/6
f 1225/3/6 1226/3/6 1229/3/6
f 1229/3/6 1226/3/6 1230/3/6
f 1227/3/6 1228/3/6 1231/3/6
f 1231/3/6 1228/3/6 1232/3/6
f 1233/2/6 1234/2/6 1235/2/6
f 1235/2/6 1234/2/6 1236/2/6
f 1237/3/6 1238/3/6 1241/3/6
f 1241/3/6 1238/3/6 1242/3/6
f 1239/3/6 1240/3/6 1243/3/6
f 1243/3/6 1240/3/6 1244/3/6
f 1245/3/6 1246/3/6 1251/3/6
f 1251/3/6 1246/3/6 1252/3/6
f 1247/3/6 1248/3/6 1253/3/6
f 1253/3/6 1248/3/6 1254/3/6
f 1249/3/6 1250/3/6 1255/3/6
f 1255/3/6 1250/3/6 1256/3/6
f 1257/3/6 1258/3/6 1261/3/6
f 1261/3/6 1258/3/6 1262/3/6
f 1259/3/6 1260/3/6 1263/3/6
f 1263/3/6 1260/3/6 1264/3/6
f 1261/2/6 1262/2/6 1266/2/6
f 1264/2/6 1265/2/6 1266/2/6
f 1263/2/6 1264/2/6 1266/2/6
f 1262/2/6 1263/2/6 1266/2/6
f 1266/2/6 1265/2/6 1267/2/6
f 1266/1/6 1267/1/6 1268/1/6
f 1268/1/6 1267/1/6 1269/1/6
